ISO-10303-21;
HEADER;
/* Generated by software containing ST-Developer
 * from STEP Tools, Inc. (www.steptools.com) 
 */
/* OPTION: using custom renumber hook */

FILE_DESCRIPTION(
/* description */ ('STEP AP242 Edition 2',
'CAx-IF Rec.Pracs.---Representation and Presentation of Product Manufa
cturing Information (PMI)---4.0---2014-10-13',
'CAx-IF Rec.Pracs.---3D Tessellated Geometry---0.4---2014-09-14','2;1',
'CAx-IF Rec.Pracs.---User Defined Attributes---1.5---2016-08-15'),
/* implementation_level */ '2;1');

FILE_NAME(
/* name */ 'Torso Frame',
/* time_stamp */ '2026-06-07T21:34:42Z',
/* author */ (''),
/* organization */ (''),
/* preprocessor_version */ 'ST-DEVELOPER v20',
/* originating_system */ 'ONSHAPE BY PTC INC, 1.216',
/* authorisation */ '  ');

FILE_SCHEMA (('AP242_MANAGED_MODEL_BASED_3D_ENGINEERING_MIM_LF { 1 0 10303 442 3 1 4 }'));
ENDSEC;

DATA;
#10=CYLINDRICAL_SURFACE('',#860,0.003175);
#11=CYLINDRICAL_SURFACE('',#864,0.003302);
#12=CYLINDRICAL_SURFACE('',#865,0.003175);
#13=CYLINDRICAL_SURFACE('',#869,0.003302);
#14=CYLINDRICAL_SURFACE('',#870,0.003175);
#15=CYLINDRICAL_SURFACE('',#874,0.003302);
#16=CYLINDRICAL_SURFACE('',#875,0.003175);
#17=CYLINDRICAL_SURFACE('',#879,0.003302);
#18=CYLINDRICAL_SURFACE('',#880,0.003175);
#19=CYLINDRICAL_SURFACE('',#884,0.003302);
#20=CYLINDRICAL_SURFACE('',#885,0.003175);
#21=CYLINDRICAL_SURFACE('',#889,0.003302);
#22=CIRCLE('',#847,0.003302);
#23=CIRCLE('',#848,0.003302);
#24=CIRCLE('',#849,0.003302);
#25=CIRCLE('',#850,0.003302);
#26=CIRCLE('',#851,0.003302);
#27=CIRCLE('',#852,0.003302);
#28=CIRCLE('',#854,0.003175);
#29=CIRCLE('',#855,0.003175);
#30=CIRCLE('',#856,0.003175);
#31=CIRCLE('',#857,0.003175);
#32=CIRCLE('',#858,0.003175);
#33=CIRCLE('',#859,0.003175);
#34=CIRCLE('',#861,0.003175);
#35=CIRCLE('',#863,0.003302);
#36=CIRCLE('',#866,0.003175);
#37=CIRCLE('',#868,0.003302);
#38=CIRCLE('',#871,0.003175);
#39=CIRCLE('',#873,0.003302);
#40=CIRCLE('',#876,0.003175);
#41=CIRCLE('',#878,0.003302);
#42=CIRCLE('',#881,0.003175);
#43=CIRCLE('',#883,0.003302);
#44=CIRCLE('',#886,0.003175);
#45=CIRCLE('',#888,0.003302);
#46=SHAPE_REPRESENTATION_RELATIONSHIP('','',#824,#48);
#47=SHAPE_REPRESENTATION_RELATIONSHIP('','',#825,#49);
#48=ADVANCED_BREP_SHAPE_REPRESENTATION('',(#820),#1340);
#49=ADVANCED_BREP_SHAPE_REPRESENTATION('',(#821),#1341);
#50=ORIENTED_EDGE('',*,*,#242,.F.);
#51=ORIENTED_EDGE('',*,*,#243,.F.);
#52=ORIENTED_EDGE('',*,*,#244,.T.);
#53=ORIENTED_EDGE('',*,*,#245,.T.);
#54=ORIENTED_EDGE('',*,*,#246,.T.);
#55=ORIENTED_EDGE('',*,*,#247,.F.);
#56=ORIENTED_EDGE('',*,*,#248,.F.);
#57=ORIENTED_EDGE('',*,*,#243,.T.);
#58=ORIENTED_EDGE('',*,*,#249,.T.);
#59=ORIENTED_EDGE('',*,*,#250,.F.);
#60=ORIENTED_EDGE('',*,*,#251,.F.);
#61=ORIENTED_EDGE('',*,*,#247,.T.);
#62=ORIENTED_EDGE('',*,*,#252,.F.);
#63=ORIENTED_EDGE('',*,*,#245,.F.);
#64=ORIENTED_EDGE('',*,*,#253,.T.);
#65=ORIENTED_EDGE('',*,*,#250,.T.);
#66=ORIENTED_EDGE('',*,*,#244,.F.);
#67=ORIENTED_EDGE('',*,*,#248,.T.);
#68=ORIENTED_EDGE('',*,*,#251,.T.);
#69=ORIENTED_EDGE('',*,*,#253,.F.);
#70=ORIENTED_EDGE('',*,*,#242,.T.);
#71=ORIENTED_EDGE('',*,*,#252,.T.);
#72=ORIENTED_EDGE('',*,*,#249,.F.);
#73=ORIENTED_EDGE('',*,*,#246,.F.);
#74=ORIENTED_EDGE('',*,*,#254,.T.);
#75=ORIENTED_EDGE('',*,*,#255,.F.);
#76=ORIENTED_EDGE('',*,*,#256,.F.);
#77=ORIENTED_EDGE('',*,*,#257,.T.);
#78=ORIENTED_EDGE('',*,*,#258,.T.);
#79=ORIENTED_EDGE('',*,*,#259,.F.);
#80=ORIENTED_EDGE('',*,*,#260,.F.);
#81=ORIENTED_EDGE('',*,*,#255,.T.);
#82=ORIENTED_EDGE('',*,*,#261,.F.);
#83=ORIENTED_EDGE('',*,*,#262,.F.);
#84=ORIENTED_EDGE('',*,*,#263,.T.);
#85=ORIENTED_EDGE('',*,*,#259,.T.);
#86=ORIENTED_EDGE('',*,*,#264,.F.);
#87=ORIENTED_EDGE('',*,*,#265,.F.);
#88=ORIENTED_EDGE('',*,*,#266,.T.);
#89=ORIENTED_EDGE('',*,*,#267,.T.);
#90=ORIENTED_EDGE('',*,*,#268,.T.);
#91=ORIENTED_EDGE('',*,*,#269,.F.);
#92=ORIENTED_EDGE('',*,*,#270,.F.);
#93=ORIENTED_EDGE('',*,*,#265,.T.);
#94=ORIENTED_EDGE('',*,*,#271,.F.);
#95=ORIENTED_EDGE('',*,*,#272,.F.);
#96=ORIENTED_EDGE('',*,*,#273,.T.);
#97=ORIENTED_EDGE('',*,*,#269,.T.);
#98=ORIENTED_EDGE('',*,*,#274,.F.);
#99=ORIENTED_EDGE('',*,*,#275,.F.);
#100=ORIENTED_EDGE('',*,*,#276,.T.);
#101=ORIENTED_EDGE('',*,*,#272,.T.);
#102=ORIENTED_EDGE('',*,*,#277,.T.);
#103=ORIENTED_EDGE('',*,*,#278,.F.);
#104=ORIENTED_EDGE('',*,*,#279,.F.);
#105=ORIENTED_EDGE('',*,*,#275,.T.);
#106=ORIENTED_EDGE('',*,*,#280,.F.);
#107=ORIENTED_EDGE('',*,*,#281,.F.);
#108=ORIENTED_EDGE('',*,*,#282,.T.);
#109=ORIENTED_EDGE('',*,*,#278,.T.);
#110=ORIENTED_EDGE('',*,*,#283,.F.);
#111=ORIENTED_EDGE('',*,*,#284,.F.);
#112=ORIENTED_EDGE('',*,*,#285,.T.);
#113=ORIENTED_EDGE('',*,*,#281,.T.);
#114=ORIENTED_EDGE('',*,*,#286,.F.);
#115=ORIENTED_EDGE('',*,*,#267,.F.);
#116=ORIENTED_EDGE('',*,*,#287,.T.);
#117=ORIENTED_EDGE('',*,*,#284,.T.);
#118=ORIENTED_EDGE('',*,*,#288,.F.);
#119=ORIENTED_EDGE('',*,*,#257,.F.);
#120=ORIENTED_EDGE('',*,*,#289,.T.);
#121=ORIENTED_EDGE('',*,*,#262,.T.);
#122=ORIENTED_EDGE('',*,*,#290,.F.);
#123=ORIENTED_EDGE('',*,*,#291,.F.);
#124=ORIENTED_EDGE('',*,*,#292,.T.);
#125=ORIENTED_EDGE('',*,*,#293,.T.);
#126=ORIENTED_EDGE('',*,*,#294,.F.);
#127=ORIENTED_EDGE('',*,*,#295,.F.);
#128=ORIENTED_EDGE('',*,*,#296,.T.);
#129=ORIENTED_EDGE('',*,*,#297,.T.);
#130=ORIENTED_EDGE('',*,*,#298,.T.);
#131=ORIENTED_EDGE('',*,*,#299,.T.);
#132=ORIENTED_EDGE('',*,*,#300,.T.);
#133=ORIENTED_EDGE('',*,*,#301,.T.);
#134=ORIENTED_EDGE('',*,*,#302,.T.);
#135=ORIENTED_EDGE('',*,*,#303,.T.);
#136=ORIENTED_EDGE('',*,*,#266,.F.);
#137=ORIENTED_EDGE('',*,*,#270,.T.);
#138=ORIENTED_EDGE('',*,*,#273,.F.);
#139=ORIENTED_EDGE('',*,*,#276,.F.);
#140=ORIENTED_EDGE('',*,*,#279,.T.);
#141=ORIENTED_EDGE('',*,*,#282,.F.);
#142=ORIENTED_EDGE('',*,*,#285,.F.);
#143=ORIENTED_EDGE('',*,*,#287,.F.);
#144=ORIENTED_EDGE('',*,*,#256,.T.);
#145=ORIENTED_EDGE('',*,*,#260,.T.);
#146=ORIENTED_EDGE('',*,*,#263,.F.);
#147=ORIENTED_EDGE('',*,*,#289,.F.);
#148=ORIENTED_EDGE('',*,*,#304,.F.);
#149=ORIENTED_EDGE('',*,*,#305,.F.);
#150=ORIENTED_EDGE('',*,*,#306,.F.);
#151=ORIENTED_EDGE('',*,*,#307,.F.);
#152=ORIENTED_EDGE('',*,*,#308,.F.);
#153=ORIENTED_EDGE('',*,*,#309,.F.);
#154=ORIENTED_EDGE('',*,*,#264,.T.);
#155=ORIENTED_EDGE('',*,*,#286,.T.);
#156=ORIENTED_EDGE('',*,*,#283,.T.);
#157=ORIENTED_EDGE('',*,*,#280,.T.);
#158=ORIENTED_EDGE('',*,*,#277,.F.);
#159=ORIENTED_EDGE('',*,*,#274,.T.);
#160=ORIENTED_EDGE('',*,*,#271,.T.);
#161=ORIENTED_EDGE('',*,*,#268,.F.);
#162=ORIENTED_EDGE('',*,*,#254,.F.);
#163=ORIENTED_EDGE('',*,*,#288,.T.);
#164=ORIENTED_EDGE('',*,*,#261,.T.);
#165=ORIENTED_EDGE('',*,*,#258,.F.);
#166=ORIENTED_EDGE('',*,*,#310,.F.);
#167=ORIENTED_EDGE('',*,*,#309,.T.);
#168=ORIENTED_EDGE('',*,*,#310,.T.);
#169=ORIENTED_EDGE('',*,*,#311,.F.);
#170=ORIENTED_EDGE('',*,*,#311,.T.);
#171=ORIENTED_EDGE('',*,*,#303,.F.);
#172=ORIENTED_EDGE('',*,*,#312,.F.);
#173=ORIENTED_EDGE('',*,*,#308,.T.);
#174=ORIENTED_EDGE('',*,*,#312,.T.);
#175=ORIENTED_EDGE('',*,*,#313,.F.);
#176=ORIENTED_EDGE('',*,*,#313,.T.);
#177=ORIENTED_EDGE('',*,*,#302,.F.);
#178=ORIENTED_EDGE('',*,*,#314,.F.);
#179=ORIENTED_EDGE('',*,*,#307,.T.);
#180=ORIENTED_EDGE('',*,*,#314,.T.);
#181=ORIENTED_EDGE('',*,*,#315,.F.);
#182=ORIENTED_EDGE('',*,*,#315,.T.);
#183=ORIENTED_EDGE('',*,*,#301,.F.);
#184=ORIENTED_EDGE('',*,*,#316,.F.);
#185=ORIENTED_EDGE('',*,*,#306,.T.);
#186=ORIENTED_EDGE('',*,*,#316,.T.);
#187=ORIENTED_EDGE('',*,*,#317,.F.);
#188=ORIENTED_EDGE('',*,*,#317,.T.);
#189=ORIENTED_EDGE('',*,*,#300,.F.);
#190=ORIENTED_EDGE('',*,*,#318,.F.);
#191=ORIENTED_EDGE('',*,*,#305,.T.);
#192=ORIENTED_EDGE('',*,*,#318,.T.);
#193=ORIENTED_EDGE('',*,*,#319,.F.);
#194=ORIENTED_EDGE('',*,*,#319,.T.);
#195=ORIENTED_EDGE('',*,*,#299,.F.);
#196=ORIENTED_EDGE('',*,*,#320,.F.);
#197=ORIENTED_EDGE('',*,*,#304,.T.);
#198=ORIENTED_EDGE('',*,*,#320,.T.);
#199=ORIENTED_EDGE('',*,*,#321,.F.);
#200=ORIENTED_EDGE('',*,*,#321,.T.);
#201=ORIENTED_EDGE('',*,*,#298,.F.);
#202=ORIENTED_EDGE('',*,*,#322,.T.);
#203=ORIENTED_EDGE('',*,*,#294,.T.);
#204=ORIENTED_EDGE('',*,*,#323,.F.);
#205=ORIENTED_EDGE('',*,*,#324,.T.);
#206=ORIENTED_EDGE('',*,*,#297,.F.);
#207=ORIENTED_EDGE('',*,*,#325,.F.);
#208=ORIENTED_EDGE('',*,*,#326,.F.);
#209=ORIENTED_EDGE('',*,*,#323,.T.);
#210=ORIENTED_EDGE('',*,*,#296,.F.);
#211=ORIENTED_EDGE('',*,*,#327,.F.);
#212=ORIENTED_EDGE('',*,*,#328,.F.);
#213=ORIENTED_EDGE('',*,*,#325,.T.);
#214=ORIENTED_EDGE('',*,*,#327,.T.);
#215=ORIENTED_EDGE('',*,*,#295,.T.);
#216=ORIENTED_EDGE('',*,*,#322,.F.);
#217=ORIENTED_EDGE('',*,*,#329,.T.);
#218=ORIENTED_EDGE('',*,*,#324,.F.);
#219=ORIENTED_EDGE('',*,*,#326,.T.);
#220=ORIENTED_EDGE('',*,*,#328,.T.);
#221=ORIENTED_EDGE('',*,*,#329,.F.);
#222=ORIENTED_EDGE('',*,*,#330,.T.);
#223=ORIENTED_EDGE('',*,*,#290,.T.);
#224=ORIENTED_EDGE('',*,*,#331,.F.);
#225=ORIENTED_EDGE('',*,*,#332,.T.);
#226=ORIENTED_EDGE('',*,*,#293,.F.);
#227=ORIENTED_EDGE('',*,*,#333,.F.);
#228=ORIENTED_EDGE('',*,*,#334,.F.);
#229=ORIENTED_EDGE('',*,*,#331,.T.);
#230=ORIENTED_EDGE('',*,*,#292,.F.);
#231=ORIENTED_EDGE('',*,*,#335,.F.);
#232=ORIENTED_EDGE('',*,*,#336,.F.);
#233=ORIENTED_EDGE('',*,*,#333,.T.);
#234=ORIENTED_EDGE('',*,*,#335,.T.);
#235=ORIENTED_EDGE('',*,*,#291,.T.);
#236=ORIENTED_EDGE('',*,*,#330,.F.);
#237=ORIENTED_EDGE('',*,*,#337,.T.);
#238=ORIENTED_EDGE('',*,*,#332,.F.);
#239=ORIENTED_EDGE('',*,*,#334,.T.);
#240=ORIENTED_EDGE('',*,*,#336,.T.);
#241=ORIENTED_EDGE('',*,*,#337,.F.);
#242=EDGE_CURVE('',#338,#339,#410,.T.);
#243=EDGE_CURVE('',#340,#338,#411,.T.);
#244=EDGE_CURVE('',#340,#341,#412,.T.);
#245=EDGE_CURVE('',#341,#339,#413,.T.);
#246=EDGE_CURVE('',#338,#342,#414,.T.);
#247=EDGE_CURVE('',#343,#342,#415,.T.);
#248=EDGE_CURVE('',#340,#343,#416,.T.);
#249=EDGE_CURVE('',#342,#344,#417,.T.);
#250=EDGE_CURVE('',#345,#344,#418,.T.);
#251=EDGE_CURVE('',#343,#345,#419,.T.);
#252=EDGE_CURVE('',#339,#344,#420,.T.);
#253=EDGE_CURVE('',#341,#345,#421,.T.);
#254=EDGE_CURVE('',#346,#347,#422,.T.);
#255=EDGE_CURVE('',#348,#347,#423,.T.);
#256=EDGE_CURVE('',#349,#348,#424,.T.);
#257=EDGE_CURVE('',#349,#346,#425,.T.);
#258=EDGE_CURVE('',#347,#350,#426,.T.);
#259=EDGE_CURVE('',#351,#350,#427,.T.);
#260=EDGE_CURVE('',#348,#351,#428,.T.);
#261=EDGE_CURVE('',#352,#350,#429,.T.);
#262=EDGE_CURVE('',#353,#352,#430,.T.);
#263=EDGE_CURVE('',#353,#351,#431,.T.);
#264=EDGE_CURVE('',#354,#355,#432,.T.);
#265=EDGE_CURVE('',#356,#354,#433,.T.);
#266=EDGE_CURVE('',#356,#357,#434,.T.);
#267=EDGE_CURVE('',#357,#355,#435,.T.);
#268=EDGE_CURVE('',#354,#358,#436,.T.);
#269=EDGE_CURVE('',#359,#358,#437,.T.);
#270=EDGE_CURVE('',#356,#359,#438,.T.);
#271=EDGE_CURVE('',#360,#358,#439,.T.);
#272=EDGE_CURVE('',#361,#360,#440,.T.);
#273=EDGE_CURVE('',#361,#359,#441,.T.);
#274=EDGE_CURVE('',#362,#360,#442,.T.);
#275=EDGE_CURVE('',#363,#362,#443,.T.);
#276=EDGE_CURVE('',#363,#361,#444,.T.);
#277=EDGE_CURVE('',#362,#364,#445,.T.);
#278=EDGE_CURVE('',#365,#364,#446,.T.);
#279=EDGE_CURVE('',#363,#365,#447,.T.);
#280=EDGE_CURVE('',#366,#364,#448,.T.);
#281=EDGE_CURVE('',#367,#366,#449,.T.);
#282=EDGE_CURVE('',#367,#365,#450,.T.);
#283=EDGE_CURVE('',#368,#366,#451,.T.);
#284=EDGE_CURVE('',#369,#368,#452,.T.);
#285=EDGE_CURVE('',#369,#367,#453,.T.);
#286=EDGE_CURVE('',#355,#368,#454,.T.);
#287=EDGE_CURVE('',#357,#369,#455,.T.);
#288=EDGE_CURVE('',#346,#352,#456,.T.);
#289=EDGE_CURVE('',#349,#353,#457,.T.);
#290=EDGE_CURVE('',#370,#371,#458,.T.);
#291=EDGE_CURVE('',#372,#370,#459,.T.);
#292=EDGE_CURVE('',#372,#373,#460,.T.);
#293=EDGE_CURVE('',#373,#371,#461,.T.);
#294=EDGE_CURVE('',#374,#375,#462,.T.);
#295=EDGE_CURVE('',#376,#374,#463,.T.);
#296=EDGE_CURVE('',#376,#377,#464,.T.);
#297=EDGE_CURVE('',#377,#375,#465,.T.);
#298=EDGE_CURVE('',#378,#378,#22,.T.);
#299=EDGE_CURVE('',#379,#379,#23,.T.);
#300=EDGE_CURVE('',#380,#380,#24,.T.);
#301=EDGE_CURVE('',#381,#381,#25,.T.);
#302=EDGE_CURVE('',#382,#382,#26,.T.);
#303=EDGE_CURVE('',#383,#383,#27,.T.);
#304=EDGE_CURVE('',#384,#384,#28,.F.);
#305=EDGE_CURVE('',#385,#385,#29,.F.);
#306=EDGE_CURVE('',#386,#386,#30,.F.);
#307=EDGE_CURVE('',#387,#387,#31,.F.);
#308=EDGE_CURVE('',#388,#388,#32,.F.);
#309=EDGE_CURVE('',#389,#389,#33,.F.);
#310=EDGE_CURVE('',#390,#390,#34,.T.);
#311=EDGE_CURVE('',#391,#391,#35,.T.);
#312=EDGE_CURVE('',#392,#392,#36,.T.);
#313=EDGE_CURVE('',#393,#393,#37,.T.);
#314=EDGE_CURVE('',#394,#394,#38,.T.);
#315=EDGE_CURVE('',#395,#395,#39,.T.);
#316=EDGE_CURVE('',#396,#396,#40,.T.);
#317=EDGE_CURVE('',#397,#397,#41,.T.);
#318=EDGE_CURVE('',#398,#398,#42,.T.);
#319=EDGE_CURVE('',#399,#399,#43,.T.);
#320=EDGE_CURVE('',#400,#400,#44,.T.);
#321=EDGE_CURVE('',#401,#401,#45,.T.);
#322=EDGE_CURVE('',#402,#374,#466,.T.);
#323=EDGE_CURVE('',#403,#375,#467,.T.);
#324=EDGE_CURVE('',#403,#402,#468,.T.);
#325=EDGE_CURVE('',#404,#377,#469,.T.);
#326=EDGE_CURVE('',#403,#404,#470,.T.);
#327=EDGE_CURVE('',#405,#376,#471,.T.);
#328=EDGE_CURVE('',#404,#405,#472,.T.);
#329=EDGE_CURVE('',#402,#405,#473,.T.);
#330=EDGE_CURVE('',#406,#370,#474,.T.);
#331=EDGE_CURVE('',#407,#371,#475,.T.);
#332=EDGE_CURVE('',#407,#406,#476,.T.);
#333=EDGE_CURVE('',#408,#373,#477,.T.);
#334=EDGE_CURVE('',#407,#408,#478,.T.);
#335=EDGE_CURVE('',#409,#372,#479,.T.);
#336=EDGE_CURVE('',#408,#409,#480,.T.);
#337=EDGE_CURVE('',#406,#409,#481,.T.);
#338=VERTEX_POINT('',#1123);
#339=VERTEX_POINT('',#1124);
#340=VERTEX_POINT('',#1126);
#341=VERTEX_POINT('',#1128);
#342=VERTEX_POINT('',#1132);
#343=VERTEX_POINT('',#1134);
#344=VERTEX_POINT('',#1138);
#345=VERTEX_POINT('',#1140);
#346=VERTEX_POINT('',#1150);
#347=VERTEX_POINT('',#1151);
#348=VERTEX_POINT('',#1153);
#349=VERTEX_POINT('',#1155);
#350=VERTEX_POINT('',#1159);
#351=VERTEX_POINT('',#1161);
#352=VERTEX_POINT('',#1165);
#353=VERTEX_POINT('',#1167);
#354=VERTEX_POINT('',#1171);
#355=VERTEX_POINT('',#1172);
#356=VERTEX_POINT('',#1174);
#357=VERTEX_POINT('',#1176);
#358=VERTEX_POINT('',#1180);
#359=VERTEX_POINT('',#1182);
#360=VERTEX_POINT('',#1186);
#361=VERTEX_POINT('',#1188);
#362=VERTEX_POINT('',#1192);
#363=VERTEX_POINT('',#1194);
#364=VERTEX_POINT('',#1198);
#365=VERTEX_POINT('',#1200);
#366=VERTEX_POINT('',#1204);
#367=VERTEX_POINT('',#1206);
#368=VERTEX_POINT('',#1210);
#369=VERTEX_POINT('',#1212);
#370=VERTEX_POINT('',#1222);
#371=VERTEX_POINT('',#1223);
#372=VERTEX_POINT('',#1225);
#373=VERTEX_POINT('',#1227);
#374=VERTEX_POINT('',#1230);
#375=VERTEX_POINT('',#1231);
#376=VERTEX_POINT('',#1233);
#377=VERTEX_POINT('',#1235);
#378=VERTEX_POINT('',#1238);
#379=VERTEX_POINT('',#1240);
#380=VERTEX_POINT('',#1242);
#381=VERTEX_POINT('',#1244);
#382=VERTEX_POINT('',#1246);
#383=VERTEX_POINT('',#1248);
#384=VERTEX_POINT('',#1251);
#385=VERTEX_POINT('',#1253);
#386=VERTEX_POINT('',#1255);
#387=VERTEX_POINT('',#1257);
#388=VERTEX_POINT('',#1259);
#389=VERTEX_POINT('',#1261);
#390=VERTEX_POINT('',#1264);
#391=VERTEX_POINT('',#1267);
#392=VERTEX_POINT('',#1271);
#393=VERTEX_POINT('',#1274);
#394=VERTEX_POINT('',#1278);
#395=VERTEX_POINT('',#1281);
#396=VERTEX_POINT('',#1285);
#397=VERTEX_POINT('',#1288);
#398=VERTEX_POINT('',#1292);
#399=VERTEX_POINT('',#1295);
#400=VERTEX_POINT('',#1299);
#401=VERTEX_POINT('',#1302);
#402=VERTEX_POINT('',#1306);
#403=VERTEX_POINT('',#1308);
#404=VERTEX_POINT('',#1312);
#405=VERTEX_POINT('',#1316);
#406=VERTEX_POINT('',#1323);
#407=VERTEX_POINT('',#1325);
#408=VERTEX_POINT('',#1329);
#409=VERTEX_POINT('',#1333);
#410=LINE('',#1122,#482);
#411=LINE('',#1125,#483);
#412=LINE('',#1127,#484);
#413=LINE('',#1129,#485);
#414=LINE('',#1131,#486);
#415=LINE('',#1133,#487);
#416=LINE('',#1135,#488);
#417=LINE('',#1137,#489);
#418=LINE('',#1139,#490);
#419=LINE('',#1141,#491);
#420=LINE('',#1143,#492);
#421=LINE('',#1144,#493);
#422=LINE('',#1149,#494);
#423=LINE('',#1152,#495);
#424=LINE('',#1154,#496);
#425=LINE('',#1156,#497);
#426=LINE('',#1158,#498);
#427=LINE('',#1160,#499);
#428=LINE('',#1162,#500);
#429=LINE('',#1164,#501);
#430=LINE('',#1166,#502);
#431=LINE('',#1168,#503);
#432=LINE('',#1170,#504);
#433=LINE('',#1173,#505);
#434=LINE('',#1175,#506);
#435=LINE('',#1177,#507);
#436=LINE('',#1179,#508);
#437=LINE('',#1181,#509);
#438=LINE('',#1183,#510);
#439=LINE('',#1185,#511);
#440=LINE('',#1187,#512);
#441=LINE('',#1189,#513);
#442=LINE('',#1191,#514);
#443=LINE('',#1193,#515);
#444=LINE('',#1195,#516);
#445=LINE('',#1197,#517);
#446=LINE('',#1199,#518);
#447=LINE('',#1201,#519);
#448=LINE('',#1203,#520);
#449=LINE('',#1205,#521);
#450=LINE('',#1207,#522);
#451=LINE('',#1209,#523);
#452=LINE('',#1211,#524);
#453=LINE('',#1213,#525);
#454=LINE('',#1215,#526);
#455=LINE('',#1216,#527);
#456=LINE('',#1218,#528);
#457=LINE('',#1219,#529);
#458=LINE('',#1221,#530);
#459=LINE('',#1224,#531);
#460=LINE('',#1226,#532);
#461=LINE('',#1228,#533);
#462=LINE('',#1229,#534);
#463=LINE('',#1232,#535);
#464=LINE('',#1234,#536);
#465=LINE('',#1236,#537);
#466=LINE('',#1305,#538);
#467=LINE('',#1307,#539);
#468=LINE('',#1309,#540);
#469=LINE('',#1311,#541);
#470=LINE('',#1313,#542);
#471=LINE('',#1315,#543);
#472=LINE('',#1317,#544);
#473=LINE('',#1319,#545);
#474=LINE('',#1322,#546);
#475=LINE('',#1324,#547);
#476=LINE('',#1326,#548);
#477=LINE('',#1328,#549);
#478=LINE('',#1330,#550);
#479=LINE('',#1332,#551);
#480=LINE('',#1334,#552);
#481=LINE('',#1336,#553);
#482=VECTOR('',#904,1.);
#483=VECTOR('',#905,1.);
#484=VECTOR('',#906,1.);
#485=VECTOR('',#907,1.);
#486=VECTOR('',#910,1.);
#487=VECTOR('',#911,1.);
#488=VECTOR('',#912,1.);
#489=VECTOR('',#915,1.);
#490=VECTOR('',#916,1.);
#491=VECTOR('',#917,1.);
#492=VECTOR('',#920,1.);
#493=VECTOR('',#921,1.);
#494=VECTOR('',#930,1.);
#495=VECTOR('',#931,1.);
#496=VECTOR('',#932,1.);
#497=VECTOR('',#933,1.);
#498=VECTOR('',#936,1.);
#499=VECTOR('',#937,1.);
#500=VECTOR('',#938,1.);
#501=VECTOR('',#941,1.);
#502=VECTOR('',#942,1.);
#503=VECTOR('',#943,1.);
#504=VECTOR('',#946,1.);
#505=VECTOR('',#947,1.);
#506=VECTOR('',#948,1.);
#507=VECTOR('',#949,1.);
#508=VECTOR('',#952,1.);
#509=VECTOR('',#953,1.);
#510=VECTOR('',#954,1.);
#511=VECTOR('',#957,1.);
#512=VECTOR('',#958,1.);
#513=VECTOR('',#959,1.);
#514=VECTOR('',#962,1.);
#515=VECTOR('',#963,1.);
#516=VECTOR('',#964,1.);
#517=VECTOR('',#967,1.);
#518=VECTOR('',#968,1.);
#519=VECTOR('',#969,1.);
#520=VECTOR('',#972,1.);
#521=VECTOR('',#973,1.);
#522=VECTOR('',#974,1.);
#523=VECTOR('',#977,1.);
#524=VECTOR('',#978,1.);
#525=VECTOR('',#979,1.);
#526=VECTOR('',#982,1.);
#527=VECTOR('',#983,1.);
#528=VECTOR('',#986,1.);
#529=VECTOR('',#987,1.);
#530=VECTOR('',#990,1.);
#531=VECTOR('',#991,1.);
#532=VECTOR('',#992,1.);
#533=VECTOR('',#993,1.);
#534=VECTOR('',#994,1.);
#535=VECTOR('',#995,1.);
#536=VECTOR('',#996,1.);
#537=VECTOR('',#997,1.);
#538=VECTOR('',#1086,1.);
#539=VECTOR('',#1087,1.);
#540=VECTOR('',#1088,1.);
#541=VECTOR('',#1091,1.);
#542=VECTOR('',#1092,1.);
#543=VECTOR('',#1095,1.);
#544=VECTOR('',#1096,1.);
#545=VECTOR('',#1099,1.);
#546=VECTOR('',#1104,1.);
#547=VECTOR('',#1105,1.);
#548=VECTOR('',#1106,1.);
#549=VECTOR('',#1109,1.);
#550=VECTOR('',#1110,1.);
#551=VECTOR('',#1113,1.);
#552=VECTOR('',#1114,1.);
#553=VECTOR('',#1117,1.);
#554=EDGE_LOOP('',(#50,#51,#52,#53));
#555=EDGE_LOOP('',(#54,#55,#56,#57));
#556=EDGE_LOOP('',(#58,#59,#60,#61));
#557=EDGE_LOOP('',(#62,#63,#64,#65));
#558=EDGE_LOOP('',(#66,#67,#68,#69));
#559=EDGE_LOOP('',(#70,#71,#72,#73));
#560=EDGE_LOOP('',(#74,#75,#76,#77));
#561=EDGE_LOOP('',(#78,#79,#80,#81));
#562=EDGE_LOOP('',(#82,#83,#84,#85));
#563=EDGE_LOOP('',(#86,#87,#88,#89));
#564=EDGE_LOOP('',(#90,#91,#92,#93));
#565=EDGE_LOOP('',(#94,#95,#96,#97));
#566=EDGE_LOOP('',(#98,#99,#100,#101));
#567=EDGE_LOOP('',(#102,#103,#104,#105));
#568=EDGE_LOOP('',(#106,#107,#108,#109));
#569=EDGE_LOOP('',(#110,#111,#112,#113));
#570=EDGE_LOOP('',(#114,#115,#116,#117));
#571=EDGE_LOOP('',(#118,#119,#120,#121));
#572=EDGE_LOOP('',(#122,#123,#124,#125));
#573=EDGE_LOOP('',(#126,#127,#128,#129));
#574=EDGE_LOOP('',(#130));
#575=EDGE_LOOP('',(#131));
#576=EDGE_LOOP('',(#132));
#577=EDGE_LOOP('',(#133));
#578=EDGE_LOOP('',(#134));
#579=EDGE_LOOP('',(#135));
#580=EDGE_LOOP('',(#136,#137,#138,#139,#140,#141,#142,#143));
#581=EDGE_LOOP('',(#144,#145,#146,#147));
#582=EDGE_LOOP('',(#148));
#583=EDGE_LOOP('',(#149));
#584=EDGE_LOOP('',(#150));
#585=EDGE_LOOP('',(#151));
#586=EDGE_LOOP('',(#152));
#587=EDGE_LOOP('',(#153));
#588=EDGE_LOOP('',(#154,#155,#156,#157,#158,#159,#160,#161));
#589=EDGE_LOOP('',(#162,#163,#164,#165));
#590=EDGE_LOOP('',(#166));
#591=EDGE_LOOP('',(#167));
#592=EDGE_LOOP('',(#168));
#593=EDGE_LOOP('',(#169));
#594=EDGE_LOOP('',(#170));
#595=EDGE_LOOP('',(#171));
#596=EDGE_LOOP('',(#172));
#597=EDGE_LOOP('',(#173));
#598=EDGE_LOOP('',(#174));
#599=EDGE_LOOP('',(#175));
#600=EDGE_LOOP('',(#176));
#601=EDGE_LOOP('',(#177));
#602=EDGE_LOOP('',(#178));
#603=EDGE_LOOP('',(#179));
#604=EDGE_LOOP('',(#180));
#605=EDGE_LOOP('',(#181));
#606=EDGE_LOOP('',(#182));
#607=EDGE_LOOP('',(#183));
#608=EDGE_LOOP('',(#184));
#609=EDGE_LOOP('',(#185));
#610=EDGE_LOOP('',(#186));
#611=EDGE_LOOP('',(#187));
#612=EDGE_LOOP('',(#188));
#613=EDGE_LOOP('',(#189));
#614=EDGE_LOOP('',(#190));
#615=EDGE_LOOP('',(#191));
#616=EDGE_LOOP('',(#192));
#617=EDGE_LOOP('',(#193));
#618=EDGE_LOOP('',(#194));
#619=EDGE_LOOP('',(#195));
#620=EDGE_LOOP('',(#196));
#621=EDGE_LOOP('',(#197));
#622=EDGE_LOOP('',(#198));
#623=EDGE_LOOP('',(#199));
#624=EDGE_LOOP('',(#200));
#625=EDGE_LOOP('',(#201));
#626=EDGE_LOOP('',(#202,#203,#204,#205));
#627=EDGE_LOOP('',(#206,#207,#208,#209));
#628=EDGE_LOOP('',(#210,#211,#212,#213));
#629=EDGE_LOOP('',(#214,#215,#216,#217));
#630=EDGE_LOOP('',(#218,#219,#220,#221));
#631=EDGE_LOOP('',(#222,#223,#224,#225));
#632=EDGE_LOOP('',(#226,#227,#228,#229));
#633=EDGE_LOOP('',(#230,#231,#232,#233));
#634=EDGE_LOOP('',(#234,#235,#236,#237));
#635=EDGE_LOOP('',(#238,#239,#240,#241));
#636=FACE_BOUND('',#554,.T.);
#637=FACE_BOUND('',#555,.T.);
#638=FACE_BOUND('',#556,.T.);
#639=FACE_BOUND('',#557,.T.);
#640=FACE_BOUND('',#558,.T.);
#641=FACE_BOUND('',#559,.T.);
#642=FACE_BOUND('',#560,.T.);
#643=FACE_BOUND('',#561,.T.);
#644=FACE_BOUND('',#562,.T.);
#645=FACE_BOUND('',#563,.T.);
#646=FACE_BOUND('',#564,.T.);
#647=FACE_BOUND('',#565,.T.);
#648=FACE_BOUND('',#566,.T.);
#649=FACE_BOUND('',#567,.T.);
#650=FACE_BOUND('',#568,.T.);
#651=FACE_BOUND('',#569,.T.);
#652=FACE_BOUND('',#570,.T.);
#653=FACE_BOUND('',#571,.T.);
#654=FACE_BOUND('',#572,.T.);
#655=FACE_BOUND('',#573,.T.);
#656=FACE_BOUND('',#574,.T.);
#657=FACE_BOUND('',#575,.T.);
#658=FACE_BOUND('',#576,.T.);
#659=FACE_BOUND('',#577,.T.);
#660=FACE_BOUND('',#578,.T.);
#661=FACE_BOUND('',#579,.T.);
#662=FACE_BOUND('',#580,.T.);
#663=FACE_BOUND('',#581,.T.);
#664=FACE_BOUND('',#582,.T.);
#665=FACE_BOUND('',#583,.T.);
#666=FACE_BOUND('',#584,.T.);
#667=FACE_BOUND('',#585,.T.);
#668=FACE_BOUND('',#586,.T.);
#669=FACE_BOUND('',#587,.T.);
#670=FACE_BOUND('',#588,.T.);
#671=FACE_BOUND('',#589,.T.);
#672=FACE_BOUND('',#590,.T.);
#673=FACE_BOUND('',#591,.T.);
#674=FACE_BOUND('',#592,.T.);
#675=FACE_BOUND('',#593,.T.);
#676=FACE_BOUND('',#594,.T.);
#677=FACE_BOUND('',#595,.T.);
#678=FACE_BOUND('',#596,.T.);
#679=FACE_BOUND('',#597,.T.);
#680=FACE_BOUND('',#598,.T.);
#681=FACE_BOUND('',#599,.T.);
#682=FACE_BOUND('',#600,.T.);
#683=FACE_BOUND('',#601,.T.);
#684=FACE_BOUND('',#602,.T.);
#685=FACE_BOUND('',#603,.T.);
#686=FACE_BOUND('',#604,.T.);
#687=FACE_BOUND('',#605,.T.);
#688=FACE_BOUND('',#606,.T.);
#689=FACE_BOUND('',#607,.T.);
#690=FACE_BOUND('',#608,.T.);
#691=FACE_BOUND('',#609,.T.);
#692=FACE_BOUND('',#610,.T.);
#693=FACE_BOUND('',#611,.T.);
#694=FACE_BOUND('',#612,.T.);
#695=FACE_BOUND('',#613,.T.);
#696=FACE_BOUND('',#614,.T.);
#697=FACE_BOUND('',#615,.T.);
#698=FACE_BOUND('',#616,.T.);
#699=FACE_BOUND('',#617,.T.);
#700=FACE_BOUND('',#618,.T.);
#701=FACE_BOUND('',#619,.T.);
#702=FACE_BOUND('',#620,.T.);
#703=FACE_BOUND('',#621,.T.);
#704=FACE_BOUND('',#622,.T.);
#705=FACE_BOUND('',#623,.T.);
#706=FACE_BOUND('',#624,.T.);
#707=FACE_BOUND('',#625,.T.);
#708=FACE_BOUND('',#626,.T.);
#709=FACE_BOUND('',#627,.T.);
#710=FACE_BOUND('',#628,.T.);
#711=FACE_BOUND('',#629,.T.);
#712=FACE_BOUND('',#630,.T.);
#713=FACE_BOUND('',#631,.T.);
#714=FACE_BOUND('',#632,.T.);
#715=FACE_BOUND('',#633,.T.);
#716=FACE_BOUND('',#634,.T.);
#717=FACE_BOUND('',#635,.T.);
#718=PLANE('',#827);
#719=PLANE('',#828);
#720=PLANE('',#829);
#721=PLANE('',#830);
#722=PLANE('',#831);
#723=PLANE('',#832);
#724=PLANE('',#834);
#725=PLANE('',#835);
#726=PLANE('',#836);
#727=PLANE('',#837);
#728=PLANE('',#838);
#729=PLANE('',#839);
#730=PLANE('',#840);
#731=PLANE('',#841);
#732=PLANE('',#842);
#733=PLANE('',#843);
#734=PLANE('',#844);
#735=PLANE('',#845);
#736=PLANE('',#846);
#737=PLANE('',#853);
#738=PLANE('',#862);
#739=PLANE('',#867);
#740=PLANE('',#872);
#741=PLANE('',#877);
#742=PLANE('',#882);
#743=PLANE('',#887);
#744=PLANE('',#890);
#745=PLANE('',#891);
#746=PLANE('',#892);
#747=PLANE('',#893);
#748=PLANE('',#894);
#749=PLANE('',#895);
#750=PLANE('',#896);
#751=PLANE('',#897);
#752=PLANE('',#898);
#753=PLANE('',#899);
#754=ADVANCED_FACE('',(#636),#718,.T.);
#755=ADVANCED_FACE('',(#637),#719,.F.);
#756=ADVANCED_FACE('',(#638),#720,.F.);
#757=ADVANCED_FACE('',(#639),#721,.T.);
#758=ADVANCED_FACE('',(#640),#722,.T.);
#759=ADVANCED_FACE('',(#641),#723,.F.);
#760=ADVANCED_FACE('',(#642),#724,.F.);
#761=ADVANCED_FACE('',(#643),#725,.F.);
#762=ADVANCED_FACE('',(#644),#726,.T.);
#763=ADVANCED_FACE('',(#645),#727,.T.);
#764=ADVANCED_FACE('',(#646),#728,.F.);
#765=ADVANCED_FACE('',(#647),#729,.T.);
#766=ADVANCED_FACE('',(#648),#730,.T.);
#767=ADVANCED_FACE('',(#649),#731,.F.);
#768=ADVANCED_FACE('',(#650),#732,.T.);
#769=ADVANCED_FACE('',(#651),#733,.T.);
#770=ADVANCED_FACE('',(#652),#734,.T.);
#771=ADVANCED_FACE('',(#653),#735,.T.);
#772=ADVANCED_FACE('',(#654,#655,#656,#657,#658,#659,#660,#661,#662,#663),
#736,.T.);
#773=ADVANCED_FACE('',(#664,#665,#666,#667,#668,#669,#670,#671),#737,.F.);
#774=ADVANCED_FACE('',(#672,#673),#10,.F.);
#775=ADVANCED_FACE('',(#674,#675),#738,.T.);
#776=ADVANCED_FACE('',(#676,#677),#11,.F.);
#777=ADVANCED_FACE('',(#678,#679),#12,.F.);
#778=ADVANCED_FACE('',(#680,#681),#739,.T.);
#779=ADVANCED_FACE('',(#682,#683),#13,.F.);
#780=ADVANCED_FACE('',(#684,#685),#14,.F.);
#781=ADVANCED_FACE('',(#686,#687),#740,.T.);
#782=ADVANCED_FACE('',(#688,#689),#15,.F.);
#783=ADVANCED_FACE('',(#690,#691),#16,.F.);
#784=ADVANCED_FACE('',(#692,#693),#741,.T.);
#785=ADVANCED_FACE('',(#694,#695),#17,.F.);
#786=ADVANCED_FACE('',(#696,#697),#18,.F.);
#787=ADVANCED_FACE('',(#698,#699),#742,.T.);
#788=ADVANCED_FACE('',(#700,#701),#19,.F.);
#789=ADVANCED_FACE('',(#702,#703),#20,.F.);
#790=ADVANCED_FACE('',(#704,#705),#743,.T.);
#791=ADVANCED_FACE('',(#706,#707),#21,.F.);
#792=ADVANCED_FACE('',(#708),#744,.T.);
#793=ADVANCED_FACE('',(#709),#745,.F.);
#794=ADVANCED_FACE('',(#710),#746,.F.);
#795=ADVANCED_FACE('',(#711),#747,.T.);
#796=ADVANCED_FACE('',(#712),#748,.T.);
#797=ADVANCED_FACE('',(#713),#749,.T.);
#798=ADVANCED_FACE('',(#714),#750,.F.);
#799=ADVANCED_FACE('',(#715),#751,.F.);
#800=ADVANCED_FACE('',(#716),#752,.T.);
#801=ADVANCED_FACE('',(#717),#753,.T.);
#802=CLOSED_SHELL('',(#754,#755,#756,#757,#758,#759));
#803=CLOSED_SHELL('',(#760,#761,#762,#763,#764,#765,#766,#767,#768,#769,
#770,#771,#772,#773,#774,#775,#776,#777,#778,#779,#780,#781,#782,#783,#784,
#785,#786,#787,#788,#789,#790,#791,#792,#793,#794,#795,#796,#797,#798,#799,
#800,#801));
#804=STYLED_ITEM('',(#806),#820);
#805=STYLED_ITEM('',(#807),#821);
#806=PRESENTATION_STYLE_ASSIGNMENT((#808));
#807=PRESENTATION_STYLE_ASSIGNMENT((#809));
#808=SURFACE_STYLE_USAGE(.BOTH.,#810);
#809=SURFACE_STYLE_USAGE(.BOTH.,#811);
#810=SURFACE_SIDE_STYLE('',(#812));
#811=SURFACE_SIDE_STYLE('',(#813));
#812=SURFACE_STYLE_FILL_AREA(#814);
#813=SURFACE_STYLE_FILL_AREA(#815);
#814=FILL_AREA_STYLE('',(#816));
#815=FILL_AREA_STYLE('',(#817));
#816=FILL_AREA_STYLE_COLOUR('',#818);
#817=FILL_AREA_STYLE_COLOUR('',#819);
#818=COLOUR_RGB('',0.647058823529412,0.647058823529412,0.647058823529412);
#819=COLOUR_RGB('',0.701960784313725,0.701960784313725,0.701960784313725);
#820=MANIFOLD_SOLID_BREP('Part 2',#802);
#821=MANIFOLD_SOLID_BREP('Part 1',#803);
#822=SHAPE_DEFINITION_REPRESENTATION(#1350,#824);
#823=SHAPE_DEFINITION_REPRESENTATION(#1351,#825);
#824=SHAPE_REPRESENTATION('Part 2',(#826),#1340);
#825=SHAPE_REPRESENTATION('Part 1',(#833),#1341);
#826=AXIS2_PLACEMENT_3D('',#1120,#900,#901);
#827=AXIS2_PLACEMENT_3D('',#1121,#902,#903);
#828=AXIS2_PLACEMENT_3D('',#1130,#908,#909);
#829=AXIS2_PLACEMENT_3D('',#1136,#913,#914);
#830=AXIS2_PLACEMENT_3D('',#1142,#918,#919);
#831=AXIS2_PLACEMENT_3D('',#1145,#922,#923);
#832=AXIS2_PLACEMENT_3D('',#1146,#924,#925);
#833=AXIS2_PLACEMENT_3D('',#1147,#926,#927);
#834=AXIS2_PLACEMENT_3D('',#1148,#928,#929);
#835=AXIS2_PLACEMENT_3D('',#1157,#934,#935);
#836=AXIS2_PLACEMENT_3D('',#1163,#939,#940);
#837=AXIS2_PLACEMENT_3D('',#1169,#944,#945);
#838=AXIS2_PLACEMENT_3D('',#1178,#950,#951);
#839=AXIS2_PLACEMENT_3D('',#1184,#955,#956);
#840=AXIS2_PLACEMENT_3D('',#1190,#960,#961);
#841=AXIS2_PLACEMENT_3D('',#1196,#965,#966);
#842=AXIS2_PLACEMENT_3D('',#1202,#970,#971);
#843=AXIS2_PLACEMENT_3D('',#1208,#975,#976);
#844=AXIS2_PLACEMENT_3D('',#1214,#980,#981);
#845=AXIS2_PLACEMENT_3D('',#1217,#984,#985);
#846=AXIS2_PLACEMENT_3D('',#1220,#988,#989);
#847=AXIS2_PLACEMENT_3D('',#1237,#998,#999);
#848=AXIS2_PLACEMENT_3D('',#1239,#1000,#1001);
#849=AXIS2_PLACEMENT_3D('',#1241,#1002,#1003);
#850=AXIS2_PLACEMENT_3D('',#1243,#1004,#1005);
#851=AXIS2_PLACEMENT_3D('',#1245,#1006,#1007);
#852=AXIS2_PLACEMENT_3D('',#1247,#1008,#1009);
#853=AXIS2_PLACEMENT_3D('',#1249,#1010,#1011);
#854=AXIS2_PLACEMENT_3D('',#1250,#1012,#1013);
#855=AXIS2_PLACEMENT_3D('',#1252,#1014,#1015);
#856=AXIS2_PLACEMENT_3D('',#1254,#1016,#1017);
#857=AXIS2_PLACEMENT_3D('',#1256,#1018,#1019);
#858=AXIS2_PLACEMENT_3D('',#1258,#1020,#1021);
#859=AXIS2_PLACEMENT_3D('',#1260,#1022,#1023);
#860=AXIS2_PLACEMENT_3D('',#1262,#1024,#1025);
#861=AXIS2_PLACEMENT_3D('',#1263,#1026,#1027);
#862=AXIS2_PLACEMENT_3D('',#1265,#1028,#1029);
#863=AXIS2_PLACEMENT_3D('',#1266,#1030,#1031);
#864=AXIS2_PLACEMENT_3D('',#1268,#1032,#1033);
#865=AXIS2_PLACEMENT_3D('',#1269,#1034,#1035);
#866=AXIS2_PLACEMENT_3D('',#1270,#1036,#1037);
#867=AXIS2_PLACEMENT_3D('',#1272,#1038,#1039);
#868=AXIS2_PLACEMENT_3D('',#1273,#1040,#1041);
#869=AXIS2_PLACEMENT_3D('',#1275,#1042,#1043);
#870=AXIS2_PLACEMENT_3D('',#1276,#1044,#1045);
#871=AXIS2_PLACEMENT_3D('',#1277,#1046,#1047);
#872=AXIS2_PLACEMENT_3D('',#1279,#1048,#1049);
#873=AXIS2_PLACEMENT_3D('',#1280,#1050,#1051);
#874=AXIS2_PLACEMENT_3D('',#1282,#1052,#1053);
#875=AXIS2_PLACEMENT_3D('',#1283,#1054,#1055);
#876=AXIS2_PLACEMENT_3D('',#1284,#1056,#1057);
#877=AXIS2_PLACEMENT_3D('',#1286,#1058,#1059);
#878=AXIS2_PLACEMENT_3D('',#1287,#1060,#1061);
#879=AXIS2_PLACEMENT_3D('',#1289,#1062,#1063);
#880=AXIS2_PLACEMENT_3D('',#1290,#1064,#1065);
#881=AXIS2_PLACEMENT_3D('',#1291,#1066,#1067);
#882=AXIS2_PLACEMENT_3D('',#1293,#1068,#1069);
#883=AXIS2_PLACEMENT_3D('',#1294,#1070,#1071);
#884=AXIS2_PLACEMENT_3D('',#1296,#1072,#1073);
#885=AXIS2_PLACEMENT_3D('',#1297,#1074,#1075);
#886=AXIS2_PLACEMENT_3D('',#1298,#1076,#1077);
#887=AXIS2_PLACEMENT_3D('',#1300,#1078,#1079);
#888=AXIS2_PLACEMENT_3D('',#1301,#1080,#1081);
#889=AXIS2_PLACEMENT_3D('',#1303,#1082,#1083);
#890=AXIS2_PLACEMENT_3D('',#1304,#1084,#1085);
#891=AXIS2_PLACEMENT_3D('',#1310,#1089,#1090);
#892=AXIS2_PLACEMENT_3D('',#1314,#1093,#1094);
#893=AXIS2_PLACEMENT_3D('',#1318,#1097,#1098);
#894=AXIS2_PLACEMENT_3D('',#1320,#1100,#1101);
#895=AXIS2_PLACEMENT_3D('',#1321,#1102,#1103);
#896=AXIS2_PLACEMENT_3D('',#1327,#1107,#1108);
#897=AXIS2_PLACEMENT_3D('',#1331,#1111,#1112);
#898=AXIS2_PLACEMENT_3D('',#1335,#1115,#1116);
#899=AXIS2_PLACEMENT_3D('',#1337,#1118,#1119);
#900=DIRECTION('',(0.,0.,1.));
#901=DIRECTION('',(1.,0.,0.));
#902=DIRECTION('',(0.,0.,1.));
#903=DIRECTION('',(1.,0.,0.));
#904=DIRECTION('',(1.,0.,0.));
#905=DIRECTION('',(0.,1.,0.));
#906=DIRECTION('',(1.,0.,0.));
#907=DIRECTION('',(0.,1.,0.));
#908=DIRECTION('',(1.,0.,0.));
#909=DIRECTION('',(0.,0.,-1.));
#910=DIRECTION('',(0.,0.,-1.));
#911=DIRECTION('',(0.,1.,0.));
#912=DIRECTION('',(0.,0.,-1.));
#913=DIRECTION('',(0.,0.,1.));
#914=DIRECTION('',(1.,0.,0.));
#915=DIRECTION('',(1.,0.,0.));
#916=DIRECTION('',(0.,1.,0.));
#917=DIRECTION('',(1.,0.,0.));
#918=DIRECTION('',(1.,0.,0.));
#919=DIRECTION('',(0.,0.,-1.));
#920=DIRECTION('',(0.,0.,-1.));
#921=DIRECTION('',(0.,0.,-1.));
#922=DIRECTION('',(0.,-1.,0.));
#923=DIRECTION('',(1.,0.,0.));
#924=DIRECTION('',(0.,-1.,0.));
#925=DIRECTION('',(1.,0.,0.));
#926=DIRECTION('',(0.,0.,1.));
#927=DIRECTION('',(1.,0.,0.));
#928=DIRECTION('',(0.,1.,0.));
#929=DIRECTION('',(0.,0.,1.));
#930=DIRECTION('',(1.,0.,0.));
#931=DIRECTION('',(0.,0.,-1.));
#932=DIRECTION('',(1.,0.,0.));
#933=DIRECTION('',(0.,0.,-1.));
#934=DIRECTION('',(1.,0.,0.));
#935=DIRECTION('',(0.,0.,-1.));
#936=DIRECTION('',(0.,-1.,0.));
#937=DIRECTION('',(0.,0.,-1.));
#938=DIRECTION('',(0.,-1.,0.));
#939=DIRECTION('',(0.,1.,0.));
#940=DIRECTION('',(0.,0.,1.));
#941=DIRECTION('',(1.,0.,0.));
#942=DIRECTION('',(0.,0.,-1.));
#943=DIRECTION('',(1.,0.,0.));
#944=DIRECTION('',(0.,1.,0.));
#945=DIRECTION('',(0.,0.,1.));
#946=DIRECTION('',(1.,0.,0.));
#947=DIRECTION('',(0.,0.,-1.));
#948=DIRECTION('',(1.,0.,0.));
#949=DIRECTION('',(0.,0.,-1.));
#950=DIRECTION('',(-1.,0.,0.));
#951=DIRECTION('',(0.,0.,1.));
#952=DIRECTION('',(0.,1.,0.));
#953=DIRECTION('',(0.,0.,-1.));
#954=DIRECTION('',(0.,1.,0.));
#955=DIRECTION('',(0.,1.,0.));
#956=DIRECTION('',(0.,0.,1.));
#957=DIRECTION('',(1.,0.,0.));
#958=DIRECTION('',(0.,0.,-1.));
#959=DIRECTION('',(1.,0.,0.));
#960=DIRECTION('',(-1.,0.,0.));
#961=DIRECTION('',(0.,0.,1.));
#962=DIRECTION('',(0.,1.,0.));
#963=DIRECTION('',(0.,0.,-1.));
#964=DIRECTION('',(0.,1.,0.));
#965=DIRECTION('',(0.,1.,0.));
#966=DIRECTION('',(0.,0.,1.));
#967=DIRECTION('',(1.,0.,0.));
#968=DIRECTION('',(0.,0.,-1.));
#969=DIRECTION('',(1.,0.,0.));
#970=DIRECTION('',(1.,0.,0.));
#971=DIRECTION('',(0.,0.,-1.));
#972=DIRECTION('',(0.,-1.,0.));
#973=DIRECTION('',(0.,0.,-1.));
#974=DIRECTION('',(0.,-1.,0.));
#975=DIRECTION('',(0.,1.,0.));
#976=DIRECTION('',(0.,0.,1.));
#977=DIRECTION('',(1.,0.,0.));
#978=DIRECTION('',(0.,0.,-1.));
#979=DIRECTION('',(1.,0.,0.));
#980=DIRECTION('',(1.,0.,0.));
#981=DIRECTION('',(0.,0.,-1.));
#982=DIRECTION('',(0.,-1.,0.));
#983=DIRECTION('',(0.,-1.,0.));
#984=DIRECTION('',(1.,0.,0.));
#985=DIRECTION('',(0.,0.,-1.));
#986=DIRECTION('',(0.,-1.,0.));
#987=DIRECTION('',(0.,-1.,0.));
#988=DIRECTION('',(0.,0.,1.));
#989=DIRECTION('',(1.,0.,0.));
#990=DIRECTION('',(-1.,0.,0.));
#991=DIRECTION('',(0.,1.,0.));
#992=DIRECTION('',(-1.,0.,0.));
#993=DIRECTION('',(0.,1.,0.));
#994=DIRECTION('',(-1.,0.,0.));
#995=DIRECTION('',(0.,1.,0.));
#996=DIRECTION('',(-1.,0.,0.));
#997=DIRECTION('',(0.,1.,0.));
#998=DIRECTION('',(0.,0.,-1.));
#999=DIRECTION('',(-1.,0.,0.));
#1000=DIRECTION('',(0.,0.,-1.));
#1001=DIRECTION('',(-1.,0.,0.));
#1002=DIRECTION('',(0.,0.,-1.));
#1003=DIRECTION('',(-1.,0.,0.));
#1004=DIRECTION('',(0.,0.,-1.));
#1005=DIRECTION('',(-1.,0.,0.));
#1006=DIRECTION('',(0.,0.,-1.));
#1007=DIRECTION('',(-1.,0.,0.));
#1008=DIRECTION('',(0.,0.,-1.));
#1009=DIRECTION('',(-1.,0.,0.));
#1010=DIRECTION('',(0.,0.,1.));
#1011=DIRECTION('',(1.,0.,0.));
#1012=DIRECTION('',(0.,0.,1.));
#1013=DIRECTION('',(1.,0.,0.));
#1014=DIRECTION('',(0.,0.,1.));
#1015=DIRECTION('',(1.,0.,0.));
#1016=DIRECTION('',(0.,0.,1.));
#1017=DIRECTION('',(1.,0.,0.));
#1018=DIRECTION('',(0.,0.,1.));
#1019=DIRECTION('',(1.,0.,0.));
#1020=DIRECTION('',(0.,0.,1.));
#1021=DIRECTION('',(1.,0.,0.));
#1022=DIRECTION('',(0.,0.,1.));
#1023=DIRECTION('',(1.,0.,0.));
#1024=DIRECTION('',(0.,0.,-1.));
#1025=DIRECTION('',(-1.,0.,0.));
#1026=DIRECTION('',(0.,0.,-1.));
#1027=DIRECTION('',(-1.,0.,0.));
#1028=DIRECTION('',(0.,0.,1.));
#1029=DIRECTION('',(1.,0.,0.));
#1030=DIRECTION('',(0.,0.,-1.));
#1031=DIRECTION('',(-1.,0.,0.));
#1032=DIRECTION('',(0.,0.,-1.));
#1033=DIRECTION('',(-1.,0.,0.));
#1034=DIRECTION('',(0.,0.,-1.));
#1035=DIRECTION('',(-1.,0.,0.));
#1036=DIRECTION('',(0.,0.,-1.));
#1037=DIRECTION('',(-1.,0.,0.));
#1038=DIRECTION('',(0.,0.,1.));
#1039=DIRECTION('',(1.,0.,0.));
#1040=DIRECTION('',(0.,0.,-1.));
#1041=DIRECTION('',(-1.,0.,0.));
#1042=DIRECTION('',(0.,0.,-1.));
#1043=DIRECTION('',(-1.,0.,0.));
#1044=DIRECTION('',(0.,0.,-1.));
#1045=DIRECTION('',(-1.,0.,0.));
#1046=DIRECTION('',(0.,0.,-1.));
#1047=DIRECTION('',(-1.,0.,0.));
#1048=DIRECTION('',(0.,0.,1.));
#1049=DIRECTION('',(1.,0.,0.));
#1050=DIRECTION('',(0.,0.,-1.));
#1051=DIRECTION('',(-1.,0.,0.));
#1052=DIRECTION('',(0.,0.,-1.));
#1053=DIRECTION('',(-1.,0.,0.));
#1054=DIRECTION('',(0.,0.,-1.));
#1055=DIRECTION('',(-1.,0.,0.));
#1056=DIRECTION('',(0.,0.,-1.));
#1057=DIRECTION('',(-1.,0.,0.));
#1058=DIRECTION('',(0.,0.,1.));
#1059=DIRECTION('',(1.,0.,0.));
#1060=DIRECTION('',(0.,0.,-1.));
#1061=DIRECTION('',(-1.,0.,0.));
#1062=DIRECTION('',(0.,0.,-1.));
#1063=DIRECTION('',(-1.,0.,0.));
#1064=DIRECTION('',(0.,0.,-1.));
#1065=DIRECTION('',(-1.,0.,0.));
#1066=DIRECTION('',(0.,0.,-1.));
#1067=DIRECTION('',(-1.,0.,0.));
#1068=DIRECTION('',(0.,0.,1.));
#1069=DIRECTION('',(1.,0.,0.));
#1070=DIRECTION('',(0.,0.,-1.));
#1071=DIRECTION('',(-1.,0.,0.));
#1072=DIRECTION('',(0.,0.,-1.));
#1073=DIRECTION('',(-1.,0.,0.));
#1074=DIRECTION('',(0.,0.,-1.));
#1075=DIRECTION('',(-1.,0.,0.));
#1076=DIRECTION('',(0.,0.,-1.));
#1077=DIRECTION('',(-1.,0.,0.));
#1078=DIRECTION('',(0.,0.,1.));
#1079=DIRECTION('',(1.,0.,0.));
#1080=DIRECTION('',(0.,0.,-1.));
#1081=DIRECTION('',(-1.,0.,0.));
#1082=DIRECTION('',(0.,0.,-1.));
#1083=DIRECTION('',(-1.,0.,0.));
#1084=DIRECTION('',(0.,1.,0.));
#1085=DIRECTION('',(0.,0.,1.));
#1086=DIRECTION('',(0.,0.,-1.));
#1087=DIRECTION('',(0.,0.,-1.));
#1088=DIRECTION('',(1.,0.,0.));
#1089=DIRECTION('',(1.,0.,0.));
#1090=DIRECTION('',(0.,0.,-1.));
#1091=DIRECTION('',(0.,0.,-1.));
#1092=DIRECTION('',(0.,-1.,0.));
#1093=DIRECTION('',(0.,1.,0.));
#1094=DIRECTION('',(0.,0.,1.));
#1095=DIRECTION('',(0.,0.,-1.));
#1096=DIRECTION('',(1.,0.,0.));
#1097=DIRECTION('',(1.,0.,0.));
#1098=DIRECTION('',(0.,0.,-1.));
#1099=DIRECTION('',(0.,-1.,0.));
#1100=DIRECTION('',(0.,0.,1.));
#1101=DIRECTION('',(1.,0.,0.));
#1102=DIRECTION('',(0.,1.,0.));
#1103=DIRECTION('',(0.,0.,1.));
#1104=DIRECTION('',(0.,0.,-1.));
#1105=DIRECTION('',(0.,0.,-1.));
#1106=DIRECTION('',(1.,0.,0.));
#1107=DIRECTION('',(1.,0.,0.));
#1108=DIRECTION('',(0.,0.,-1.));
#1109=DIRECTION('',(0.,0.,-1.));
#1110=DIRECTION('',(0.,-1.,0.));
#1111=DIRECTION('',(0.,1.,0.));
#1112=DIRECTION('',(0.,0.,1.));
#1113=DIRECTION('',(0.,0.,-1.));
#1114=DIRECTION('',(1.,0.,0.));
#1115=DIRECTION('',(1.,0.,0.));
#1116=DIRECTION('',(0.,0.,-1.));
#1117=DIRECTION('',(0.,-1.,0.));
#1118=DIRECTION('',(0.,0.,1.));
#1119=DIRECTION('',(1.,0.,0.));
#1120=CARTESIAN_POINT('',(0.,0.,0.));
#1121=CARTESIAN_POINT('',(0.00064179131329424,-0.0331869585843087,0.));
#1122=CARTESIAN_POINT('',(0.00064179131329424,0.0348850414156914,0.));
#1123=CARTESIAN_POINT('',(-0.0752631923012635,0.0348850414156914,0.));
#1124=CARTESIAN_POINT('',(0.076546774927852,0.0348850414156914,0.));
#1125=CARTESIAN_POINT('',(-0.0752631923012635,-0.0331869585843087,0.));
#1126=CARTESIAN_POINT('',(-0.0752631923012635,-0.0331869585843087,0.));
#1127=CARTESIAN_POINT('',(0.00064179131329424,-0.0331869585843087,0.));
#1128=CARTESIAN_POINT('',(0.076546774927852,-0.0331869585843087,0.));
#1129=CARTESIAN_POINT('',(0.076546774927852,-0.0331869585843087,0.));
#1130=CARTESIAN_POINT('',(-0.0752631923012635,-0.0331869585843087,-0.00217679097925872));
#1131=CARTESIAN_POINT('',(-0.0752631923012635,0.0348850414156914,-0.00217679097925872));
#1132=CARTESIAN_POINT('',(-0.0752631923012635,0.0348850414156914,-0.00435358195851744));
#1133=CARTESIAN_POINT('',(-0.0752631923012635,-0.0331869585843087,-0.00435358195851744));
#1134=CARTESIAN_POINT('',(-0.0752631923012635,-0.0331869585843087,-0.00435358195851744));
#1135=CARTESIAN_POINT('',(-0.0752631923012635,-0.0331869585843087,-0.00217679097925872));
#1136=CARTESIAN_POINT('',(0.00064179131329424,-0.0331869585843087,-0.00435358195851744));
#1137=CARTESIAN_POINT('',(0.00064179131329424,0.0348850414156914,-0.00435358195851744));
#1138=CARTESIAN_POINT('',(0.076546774927852,0.0348850414156914,-0.00435358195851744));
#1139=CARTESIAN_POINT('',(0.076546774927852,-0.0331869585843087,-0.00435358195851744));
#1140=CARTESIAN_POINT('',(0.076546774927852,-0.0331869585843087,-0.00435358195851744));
#1141=CARTESIAN_POINT('',(0.00064179131329424,-0.0331869585843087,-0.00435358195851744));
#1142=CARTESIAN_POINT('',(0.076546774927852,-0.0331869585843087,-0.00217679097925872));
#1143=CARTESIAN_POINT('',(0.076546774927852,0.0348850414156914,-0.00217679097925872));
#1144=CARTESIAN_POINT('',(0.076546774927852,-0.0331869585843087,-0.00217679097925872));
#1145=CARTESIAN_POINT('',(0.00064179131329424,-0.0331869585843087,0.00557020902074128));
#1146=CARTESIAN_POINT('',(0.00064179131329424,0.0348850414156914,0.00557020902074128));
#1147=CARTESIAN_POINT('',(0.,0.,0.));
#1148=CARTESIAN_POINT('',(0.00064179131329424,0.0348850414156914,0.015494));
#1149=CARTESIAN_POINT('',(0.00064179131329424,0.0348850414156914,0.));
#1150=CARTESIAN_POINT('',(-0.0752631923012635,0.0348850414156914,0.));
#1151=CARTESIAN_POINT('',(0.076546774927852,0.0348850414156914,0.));
#1152=CARTESIAN_POINT('',(0.076546774927852,0.0348850414156914,0.015494));
#1153=CARTESIAN_POINT('',(0.076546774927852,0.0348850414156914,0.015494));
#1154=CARTESIAN_POINT('',(0.00064179131329424,0.0348850414156914,0.015494));
#1155=CARTESIAN_POINT('',(-0.0752631923012635,0.0348850414156914,0.015494));
#1156=CARTESIAN_POINT('',(-0.0752631923012635,0.0348850414156914,0.015494));
#1157=CARTESIAN_POINT('',(0.076546774927852,0.,0.015494));
#1158=CARTESIAN_POINT('',(0.076546774927852,0.,0.));
#1159=CARTESIAN_POINT('',(0.076546774927852,-0.0348850414156914,0.));
#1160=CARTESIAN_POINT('',(0.076546774927852,-0.0348850414156914,0.015494));
#1161=CARTESIAN_POINT('',(0.076546774927852,-0.0348850414156914,0.015494));
#1162=CARTESIAN_POINT('',(0.076546774927852,0.,0.015494));
#1163=CARTESIAN_POINT('',(0.00064179131329424,-0.0348850414156914,0.015494));
#1164=CARTESIAN_POINT('',(0.00064179131329424,-0.0348850414156914,0.));
#1165=CARTESIAN_POINT('',(-0.0752631923012635,-0.0348850414156914,0.));
#1166=CARTESIAN_POINT('',(-0.0752631923012635,-0.0348850414156914,0.015494));
#1167=CARTESIAN_POINT('',(-0.0752631923012635,-0.0348850414156914,0.015494));
#1168=CARTESIAN_POINT('',(0.00064179131329424,-0.0348850414156914,0.015494));
#1169=CARTESIAN_POINT('',(0.0997387180630403,0.0348850414156914,0.015494));
#1170=CARTESIAN_POINT('',(0.0997387180630403,0.0348850414156914,0.));
#1171=CARTESIAN_POINT('',(0.0996190611091555,0.0348850414156914,0.));
#1172=CARTESIAN_POINT('',(0.0998583750169252,0.0348850414156914,0.));
#1173=CARTESIAN_POINT('',(0.0996190611091555,0.0348850414156914,0.015494));
#1174=CARTESIAN_POINT('',(0.0996190611091555,0.0348850414156914,0.015494));
#1175=CARTESIAN_POINT('',(0.0997387180630403,0.0348850414156914,0.015494));
#1176=CARTESIAN_POINT('',(0.0998583750169252,0.0348850414156914,0.015494));
#1177=CARTESIAN_POINT('',(0.0998583750169252,0.0348850414156914,0.015494));
#1178=CARTESIAN_POINT('',(0.0996190611091555,0.0479475688189268,0.015494));
#1179=CARTESIAN_POINT('',(0.0996190611091555,0.0479475688189268,0.));
#1180=CARTESIAN_POINT('',(0.0996190611091555,0.0610100962221623,0.));
#1181=CARTESIAN_POINT('',(0.0996190611091555,0.0610100962221623,0.015494));
#1182=CARTESIAN_POINT('',(0.0996190611091555,0.0610100962221623,0.015494));
#1183=CARTESIAN_POINT('',(0.0996190611091555,0.0479475688189268,0.015494));
#1184=CARTESIAN_POINT('',(-0.000683630351493755,0.0610100962221623,0.015494));
#1185=CARTESIAN_POINT('',(-0.000683630351493755,0.0610100962221623,0.));
#1186=CARTESIAN_POINT('',(-0.100986321812143,0.0610100962221623,0.));
#1187=CARTESIAN_POINT('',(-0.100986321812143,0.0610100962221623,0.015494));
#1188=CARTESIAN_POINT('',(-0.100986321812143,0.0610100962221623,0.015494));
#1189=CARTESIAN_POINT('',(-0.000683630351493755,0.0610100962221623,0.015494));
#1190=CARTESIAN_POINT('',(-0.100986321812143,0.0479475688189268,0.015494));
#1191=CARTESIAN_POINT('',(-0.100986321812143,0.0479475688189268,0.));
#1192=CARTESIAN_POINT('',(-0.100986321812143,-0.0603709258139134,0.));
#1193=CARTESIAN_POINT('',(-0.100986321812143,-0.0603709258139134,0.015494));
#1194=CARTESIAN_POINT('',(-0.100986321812143,-0.0603709258139134,0.015494));
#1195=CARTESIAN_POINT('',(-0.100986321812143,0.0479475688189268,0.015494));
#1196=CARTESIAN_POINT('',(-0.000519985495112008,-0.0603709258139134,0.015494));
#1197=CARTESIAN_POINT('',(-0.000519985495112008,-0.0603709258139134,0.));
#1198=CARTESIAN_POINT('',(0.099946350821919,-0.0603709258139134,0.));
#1199=CARTESIAN_POINT('',(0.099946350821919,-0.0603709258139134,0.015494));
#1200=CARTESIAN_POINT('',(0.099946350821919,-0.0603709258139134,0.015494));
#1201=CARTESIAN_POINT('',(-0.000519985495112008,-0.0603709258139134,0.015494));
#1202=CARTESIAN_POINT('',(0.099946350821919,-0.0476279836148024,0.015494));
#1203=CARTESIAN_POINT('',(0.099946350821919,-0.0476279836148024,0.));
#1204=CARTESIAN_POINT('',(0.099946350821919,-0.0348850414156914,0.));
#1205=CARTESIAN_POINT('',(0.099946350821919,-0.0348850414156914,0.015494));
#1206=CARTESIAN_POINT('',(0.099946350821919,-0.0348850414156914,0.015494));
#1207=CARTESIAN_POINT('',(0.099946350821919,-0.0476279836148024,0.015494));
#1208=CARTESIAN_POINT('',(0.0999023629194221,-0.0348850414156914,0.015494));
#1209=CARTESIAN_POINT('',(0.0999023629194221,-0.0348850414156914,0.));
#1210=CARTESIAN_POINT('',(0.0998583750169252,-0.0348850414156914,0.));
#1211=CARTESIAN_POINT('',(0.0998583750169252,-0.0348850414156914,0.015494));
#1212=CARTESIAN_POINT('',(0.0998583750169252,-0.0348850414156914,0.015494));
#1213=CARTESIAN_POINT('',(0.0999023629194221,-0.0348850414156914,0.015494));
#1214=CARTESIAN_POINT('',(0.0998583750169252,0.,0.015494));
#1215=CARTESIAN_POINT('',(0.0998583750169252,0.,0.));
#1216=CARTESIAN_POINT('',(0.0998583750169252,0.,0.015494));
#1217=CARTESIAN_POINT('',(-0.0752631923012635,0.,0.015494));
#1218=CARTESIAN_POINT('',(-0.0752631923012635,0.,0.));
#1219=CARTESIAN_POINT('',(-0.0752631923012635,0.,0.015494));
#1220=CARTESIAN_POINT('',(-0.000519985495112008,0.000319585204124451,0.015494));
#1221=CARTESIAN_POINT('',(-0.000519985495112008,0.0520318225026131,0.015494));
#1222=CARTESIAN_POINT('',(-0.0302705354988575,0.0520318225026131,0.015494));
#1223=CARTESIAN_POINT('',(-0.0479942746460438,0.0520318225026131,0.015494));
#1224=CARTESIAN_POINT('',(-0.0302705354988575,0.000319585204124451,0.015494));
#1225=CARTESIAN_POINT('',(-0.0302705354988575,0.0459551066160202,0.015494));
#1226=CARTESIAN_POINT('',(-0.000519985495112008,0.0459551066160202,0.015494));
#1227=CARTESIAN_POINT('',(-0.0479942746460438,0.0459551066160202,0.015494));
#1228=CARTESIAN_POINT('',(-0.0479942746460438,0.000319585204124451,0.015494));
#1229=CARTESIAN_POINT('',(-0.000519985495112008,0.0520318225026131,0.015494));
#1230=CARTESIAN_POINT('',(0.0482202880084515,0.0520318225026131,0.015494));
#1231=CARTESIAN_POINT('',(0.0330285094678402,0.0520318225026131,0.015494));
#1232=CARTESIAN_POINT('',(0.0482202880084515,0.000319585204124451,0.015494));
#1233=CARTESIAN_POINT('',(0.0482202880084515,0.0459551066160202,0.015494));
#1234=CARTESIAN_POINT('',(-0.000519985495112008,0.0459551066160202,0.015494));
#1235=CARTESIAN_POINT('',(0.0330285094678402,0.0459551066160202,0.015494));
#1236=CARTESIAN_POINT('',(0.0330285094678402,0.000319585204124451,0.015494));
#1237=CARTESIAN_POINT('',(0.,-0.0513840281240362,0.015494));
#1238=CARTESIAN_POINT('',(-0.003302,-0.0513840281240362,0.015494));
#1239=CARTESIAN_POINT('',(-0.0762009573828639,0.0488118641078472,0.015494));
#1240=CARTESIAN_POINT('',(-0.0795029573828639,0.0488118641078472,0.015494));
#1241=CARTESIAN_POINT('',(0.0771667663775395,0.0488118641078472,0.015494));
#1242=CARTESIAN_POINT('',(0.0738647663775395,0.0488118641078472,0.015494));
#1243=CARTESIAN_POINT('',(0.0771667663775395,-0.0513840281240362,0.015494));
#1244=CARTESIAN_POINT('',(0.0738647663775395,-0.0513840281240362,0.015494));
#1245=CARTESIAN_POINT('',(-0.0762009573828639,-0.0513840281240362,0.015494));
#1246=CARTESIAN_POINT('',(-0.0795029573828639,-0.0513840281240362,0.015494));
#1247=CARTESIAN_POINT('',(0.,0.0488118641078472,0.015494));
#1248=CARTESIAN_POINT('',(-0.003302,0.0488118641078472,0.015494));
#1249=CARTESIAN_POINT('',(-0.000519985495112008,0.000319585204124451,0.));
#1250=CARTESIAN_POINT('',(0.,-0.0513840281240362,0.));
#1251=CARTESIAN_POINT('',(0.003175,-0.0513840281240362,0.));
#1252=CARTESIAN_POINT('',(-0.0762009573828639,0.0488118641078472,0.));
#1253=CARTESIAN_POINT('',(-0.0730259573828639,0.0488118641078472,0.));
#1254=CARTESIAN_POINT('',(0.0771667663775395,0.0488118641078472,0.));
#1255=CARTESIAN_POINT('',(0.0803417663775395,0.0488118641078472,0.));
#1256=CARTESIAN_POINT('',(0.0771667663775395,-0.0513840281240362,0.));
#1257=CARTESIAN_POINT('',(0.0803417663775395,-0.0513840281240362,0.));
#1258=CARTESIAN_POINT('',(-0.0762009573828639,-0.0513840281240362,0.));
#1259=CARTESIAN_POINT('',(-0.0730259573828639,-0.0513840281240362,0.));
#1260=CARTESIAN_POINT('',(0.,0.0488118641078472,0.));
#1261=CARTESIAN_POINT('',(0.003175,0.0488118641078472,0.));
#1262=CARTESIAN_POINT('',(0.,0.0488118641078472,0.015494));
#1263=CARTESIAN_POINT('',(0.,0.0488118641078472,0.009144));
#1264=CARTESIAN_POINT('',(-0.003175,0.0488118641078472,0.009144));
#1265=CARTESIAN_POINT('',(0.003302,0.0488118641078472,0.009144));
#1266=CARTESIAN_POINT('',(0.,0.0488118641078472,0.009144));
#1267=CARTESIAN_POINT('',(-0.003302,0.0488118641078472,0.009144));
#1268=CARTESIAN_POINT('',(0.,0.0488118641078472,0.015494));
#1269=CARTESIAN_POINT('',(-0.0762009573828639,-0.0513840281240362,0.015494));
#1270=CARTESIAN_POINT('',(-0.0762009573828639,-0.0513840281240362,0.009144));
#1271=CARTESIAN_POINT('',(-0.0793759573828639,-0.0513840281240362,0.009144));
#1272=CARTESIAN_POINT('',(-0.0728989573828639,-0.0513840281240362,0.009144));
#1273=CARTESIAN_POINT('',(-0.0762009573828639,-0.0513840281240362,0.009144));
#1274=CARTESIAN_POINT('',(-0.0795029573828639,-0.0513840281240362,0.009144));
#1275=CARTESIAN_POINT('',(-0.0762009573828639,-0.0513840281240362,0.015494));
#1276=CARTESIAN_POINT('',(0.0771667663775395,-0.0513840281240362,0.015494));
#1277=CARTESIAN_POINT('',(0.0771667663775395,-0.0513840281240362,0.009144));
#1278=CARTESIAN_POINT('',(0.0739917663775395,-0.0513840281240362,0.009144));
#1279=CARTESIAN_POINT('',(0.0804687663775395,-0.0513840281240362,0.009144));
#1280=CARTESIAN_POINT('',(0.0771667663775395,-0.0513840281240362,0.009144));
#1281=CARTESIAN_POINT('',(0.0738647663775395,-0.0513840281240362,0.009144));
#1282=CARTESIAN_POINT('',(0.0771667663775395,-0.0513840281240362,0.015494));
#1283=CARTESIAN_POINT('',(0.0771667663775395,0.0488118641078472,0.015494));
#1284=CARTESIAN_POINT('',(0.0771667663775395,0.0488118641078472,0.009144));
#1285=CARTESIAN_POINT('',(0.0739917663775395,0.0488118641078472,0.009144));
#1286=CARTESIAN_POINT('',(0.0804687663775395,0.0488118641078472,0.009144));
#1287=CARTESIAN_POINT('',(0.0771667663775395,0.0488118641078472,0.009144));
#1288=CARTESIAN_POINT('',(0.0738647663775395,0.0488118641078472,0.009144));
#1289=CARTESIAN_POINT('',(0.0771667663775395,0.0488118641078472,0.015494));
#1290=CARTESIAN_POINT('',(-0.0762009573828639,0.0488118641078472,0.015494));
#1291=CARTESIAN_POINT('',(-0.0762009573828639,0.0488118641078472,0.009144));
#1292=CARTESIAN_POINT('',(-0.0793759573828639,0.0488118641078472,0.009144));
#1293=CARTESIAN_POINT('',(-0.0728989573828639,0.0488118641078472,0.009144));
#1294=CARTESIAN_POINT('',(-0.0762009573828639,0.0488118641078472,0.009144));
#1295=CARTESIAN_POINT('',(-0.0795029573828639,0.0488118641078472,0.009144));
#1296=CARTESIAN_POINT('',(-0.0762009573828639,0.0488118641078472,0.015494));
#1297=CARTESIAN_POINT('',(0.,-0.0513840281240362,0.015494));
#1298=CARTESIAN_POINT('',(0.,-0.0513840281240362,0.009144));
#1299=CARTESIAN_POINT('',(-0.003175,-0.0513840281240362,0.009144));
#1300=CARTESIAN_POINT('',(0.003302,-0.0513840281240362,0.009144));
#1301=CARTESIAN_POINT('',(0.,-0.0513840281240362,0.009144));
#1302=CARTESIAN_POINT('',(-0.003302,-0.0513840281240362,0.009144));
#1303=CARTESIAN_POINT('',(0.,-0.0513840281240362,0.015494));
#1304=CARTESIAN_POINT('',(0.0406243987381458,0.0520318225026131,0.018796));
#1305=CARTESIAN_POINT('',(0.0482202880084515,0.0520318225026131,0.018796));
#1306=CARTESIAN_POINT('',(0.0482202880084515,0.0520318225026131,0.018796));
#1307=CARTESIAN_POINT('',(0.0330285094678402,0.0520318225026131,0.018796));
#1308=CARTESIAN_POINT('',(0.0330285094678402,0.0520318225026131,0.018796));
#1309=CARTESIAN_POINT('',(0.0406243987381458,0.0520318225026131,0.018796));
#1310=CARTESIAN_POINT('',(0.0330285094678402,0.0489934645593166,0.018796));
#1311=CARTESIAN_POINT('',(0.0330285094678402,0.0459551066160202,0.018796));
#1312=CARTESIAN_POINT('',(0.0330285094678402,0.0459551066160202,0.018796));
#1313=CARTESIAN_POINT('',(0.0330285094678402,0.0489934645593166,0.018796));
#1314=CARTESIAN_POINT('',(0.0406243987381458,0.0459551066160202,0.018796));
#1315=CARTESIAN_POINT('',(0.0482202880084515,0.0459551066160202,0.018796));
#1316=CARTESIAN_POINT('',(0.0482202880084515,0.0459551066160202,0.018796));
#1317=CARTESIAN_POINT('',(0.0406243987381458,0.0459551066160202,0.018796));
#1318=CARTESIAN_POINT('',(0.0482202880084515,0.0489934645593166,0.018796));
#1319=CARTESIAN_POINT('',(0.0482202880084515,0.0489934645593166,0.018796));
#1320=CARTESIAN_POINT('',(-0.000519985495112008,0.000319585204124451,0.018796));
#1321=CARTESIAN_POINT('',(-0.0391324050724507,0.0520318225026131,0.018796));
#1322=CARTESIAN_POINT('',(-0.0302705354988575,0.0520318225026131,0.018796));
#1323=CARTESIAN_POINT('',(-0.0302705354988575,0.0520318225026131,0.018796));
#1324=CARTESIAN_POINT('',(-0.0479942746460438,0.0520318225026131,0.018796));
#1325=CARTESIAN_POINT('',(-0.0479942746460438,0.0520318225026131,0.018796));
#1326=CARTESIAN_POINT('',(-0.0391324050724507,0.0520318225026131,0.018796));
#1327=CARTESIAN_POINT('',(-0.0479942746460438,0.0489934645593166,0.018796));
#1328=CARTESIAN_POINT('',(-0.0479942746460438,0.0459551066160202,0.018796));
#1329=CARTESIAN_POINT('',(-0.0479942746460438,0.0459551066160202,0.018796));
#1330=CARTESIAN_POINT('',(-0.0479942746460438,0.0489934645593166,0.018796));
#1331=CARTESIAN_POINT('',(-0.0391324050724507,0.0459551066160202,0.018796));
#1332=CARTESIAN_POINT('',(-0.0302705354988575,0.0459551066160202,0.018796));
#1333=CARTESIAN_POINT('',(-0.0302705354988575,0.0459551066160202,0.018796));
#1334=CARTESIAN_POINT('',(-0.0391324050724507,0.0459551066160202,0.018796));
#1335=CARTESIAN_POINT('',(-0.0302705354988575,0.0489934645593166,0.018796));
#1336=CARTESIAN_POINT('',(-0.0302705354988575,0.0489934645593166,0.018796));
#1337=CARTESIAN_POINT('',(-0.000519985495112008,0.000319585204124451,0.018796));
#1338=MECHANICAL_DESIGN_GEOMETRIC_PRESENTATION_REPRESENTATION('',(#804),
#1340);
#1339=MECHANICAL_DESIGN_GEOMETRIC_PRESENTATION_REPRESENTATION('',(#805),
#1341);
#1340=(
GEOMETRIC_REPRESENTATION_CONTEXT(3)
GLOBAL_UNCERTAINTY_ASSIGNED_CONTEXT((#1342))
GLOBAL_UNIT_ASSIGNED_CONTEXT((#1348,#1346,#1344))
REPRESENTATION_CONTEXT('Part 2','TOP_LEVEL_ASSEMBLY_PART')
);
#1341=(
GEOMETRIC_REPRESENTATION_CONTEXT(3)
GLOBAL_UNCERTAINTY_ASSIGNED_CONTEXT((#1343))
GLOBAL_UNIT_ASSIGNED_CONTEXT((#1349,#1347,#1345))
REPRESENTATION_CONTEXT('Part 1','TOP_LEVEL_ASSEMBLY_PART')
);
#1342=UNCERTAINTY_MEASURE_WITH_UNIT(LENGTH_MEASURE(1.E-8),#1348,
'DISTANCE_ACCURACY_VALUE','Maximum Tolerance applied to model');
#1343=UNCERTAINTY_MEASURE_WITH_UNIT(LENGTH_MEASURE(1.E-8),#1349,
'DISTANCE_ACCURACY_VALUE','Maximum Tolerance applied to model');
#1344=(
NAMED_UNIT(*)
SI_UNIT($,.STERADIAN.)
SOLID_ANGLE_UNIT()
);
#1345=(
NAMED_UNIT(*)
SI_UNIT($,.STERADIAN.)
SOLID_ANGLE_UNIT()
);
#1346=(
NAMED_UNIT(*)
PLANE_ANGLE_UNIT()
SI_UNIT($,.RADIAN.)
);
#1347=(
NAMED_UNIT(*)
PLANE_ANGLE_UNIT()
SI_UNIT($,.RADIAN.)
);
#1348=(
LENGTH_UNIT()
NAMED_UNIT(*)
SI_UNIT($,.METRE.)
);
#1349=(
LENGTH_UNIT()
NAMED_UNIT(*)
SI_UNIT($,.METRE.)
);
#1350=PRODUCT_DEFINITION_SHAPE('','',#1352);
#1351=PRODUCT_DEFINITION_SHAPE('','',#1353);
#1352=PRODUCT_DEFINITION('','',#1356,#1354);
#1353=PRODUCT_DEFINITION('','',#1357,#1355);
#1354=PRODUCT_DEFINITION_CONTEXT('',#1368,'design');
#1355=PRODUCT_DEFINITION_CONTEXT('',#1369,'design');
#1356=PRODUCT_DEFINITION_FORMATION_WITH_SPECIFIED_SOURCE('','',#1360,
 .NOT_KNOWN.);
#1357=PRODUCT_DEFINITION_FORMATION_WITH_SPECIFIED_SOURCE('','',#1361,
 .NOT_KNOWN.);
#1358=PRODUCT_RELATED_PRODUCT_CATEGORY('','',(#1360));
#1359=PRODUCT_RELATED_PRODUCT_CATEGORY('','',(#1361));
#1360=PRODUCT('Part 2','Part 2','Part 2',(#1364));
#1361=PRODUCT('Part 1','Part 1','Part 1',(#1365));
#1362=PRODUCT_CATEGORY('','');
#1363=PRODUCT_CATEGORY('','');
#1364=PRODUCT_CONTEXT('',#1368,'mechanical');
#1365=PRODUCT_CONTEXT('',#1369,'mechanical');
#1366=APPLICATION_PROTOCOL_DEFINITION('international standard',
'ap242_managed_model_based_3d_engineering',2020,#1368);
#1367=APPLICATION_PROTOCOL_DEFINITION('international standard',
'ap242_managed_model_based_3d_engineering',2020,#1369);
#1368=APPLICATION_CONTEXT('managed model based 3d engineering');
#1369=APPLICATION_CONTEXT('managed model based 3d engineering');
ENDSEC;
END-ISO-10303-21;
