ISO-10303-21;
HEADER;
/* Generated by software containing ST-Developer
 * from STEP Tools, Inc. (www.steptools.com) 
 */
/* OPTION: using custom renumber hook */

FILE_DESCRIPTION(
/* description */ ('STEP AP242 Edition 2',
'CAx-IF Rec.Pracs.---Representation and Presentation of Product Manufa
cturing Information (PMI)---4.0---2014-10-13',
'CAx-IF Rec.Pracs.---3D Tessellated Geometry---0.4---2014-09-14','2;1',
'CAx-IF Rec.Pracs.---User Defined Attributes---1.5---2016-08-15'),
/* implementation_level */ '2;1');

FILE_NAME(
/* name */ 'Arm',
/* time_stamp */ '2026-06-07T21:35:13Z',
/* author */ (''),
/* organization */ (''),
/* preprocessor_version */ 'ST-DEVELOPER v20',
/* originating_system */ 'ONSHAPE BY PTC INC, 1.216',
/* authorisation */ '  ');

FILE_SCHEMA (('AP242_MANAGED_MODEL_BASED_3D_ENGINEERING_MIM_LF { 1 0 10303 442 3 1 4 }'));
ENDSEC;

DATA;
#10=SHAPE_REPRESENTATION_RELATIONSHIP('','',#323,#11);
#11=ADVANCED_BREP_SHAPE_REPRESENTATION('',(#321),#509);
#12=CYLINDRICAL_SURFACE('',#336,0.00309423237157939);
#13=CYLINDRICAL_SURFACE('',#339,0.00309423237157939);
#14=LINE('',#427,#50);
#15=LINE('',#430,#51);
#16=LINE('',#432,#52);
#17=LINE('',#434,#53);
#18=LINE('',#436,#54);
#19=LINE('',#438,#55);
#20=LINE('',#442,#56);
#21=LINE('',#445,#57);
#22=LINE('',#447,#58);
#23=LINE('',#449,#59);
#24=LINE('',#451,#60);
#25=LINE('',#453,#61);
#26=LINE('',#457,#62);
#27=LINE('',#460,#63);
#28=LINE('',#462,#64);
#29=LINE('',#464,#65);
#30=LINE('',#466,#66);
#31=LINE('',#468,#67);
#32=LINE('',#472,#68);
#33=LINE('',#475,#69);
#34=LINE('',#477,#70);
#35=LINE('',#479,#71);
#36=LINE('',#481,#72);
#37=LINE('',#483,#73);
#38=LINE('',#485,#74);
#39=LINE('',#486,#75);
#40=LINE('',#488,#76);
#41=LINE('',#489,#77);
#42=LINE('',#491,#78);
#43=LINE('',#492,#79);
#44=LINE('',#493,#80);
#45=LINE('',#494,#81);
#46=LINE('',#497,#82);
#47=LINE('',#501,#83);
#48=LINE('',#504,#84);
#49=LINE('',#506,#85);
#50=VECTOR('',#351,1.);
#51=VECTOR('',#352,1.);
#52=VECTOR('',#353,1.);
#53=VECTOR('',#354,1.);
#54=VECTOR('',#355,1.);
#55=VECTOR('',#356,1.);
#56=VECTOR('',#361,1.);
#57=VECTOR('',#362,1.);
#58=VECTOR('',#363,1.);
#59=VECTOR('',#364,1.);
#60=VECTOR('',#365,1.);
#61=VECTOR('',#366,1.);
#62=VECTOR('',#371,1.);
#63=VECTOR('',#372,1.);
#64=VECTOR('',#373,1.);
#65=VECTOR('',#374,1.);
#66=VECTOR('',#375,1.);
#67=VECTOR('',#376,1.);
#68=VECTOR('',#381,1.);
#69=VECTOR('',#382,1.);
#70=VECTOR('',#383,1.);
#71=VECTOR('',#384,1.);
#72=VECTOR('',#385,1.);
#73=VECTOR('',#386,1.);
#74=VECTOR('',#389,1.);
#75=VECTOR('',#390,1.);
#76=VECTOR('',#393,1.);
#77=VECTOR('',#394,1.);
#78=VECTOR('',#397,1.);
#79=VECTOR('',#398,1.);
#80=VECTOR('',#399,1.);
#81=VECTOR('',#400,1.);
#82=VECTOR('',#405,1.);
#83=VECTOR('',#412,1.);
#84=VECTOR('',#417,1.);
#85=VECTOR('',#420,1.);
#86=ORIENTED_EDGE('',*,*,#166,.F.);
#87=ORIENTED_EDGE('',*,*,#167,.T.);
#88=ORIENTED_EDGE('',*,*,#168,.T.);
#89=ORIENTED_EDGE('',*,*,#169,.T.);
#90=ORIENTED_EDGE('',*,*,#170,.T.);
#91=ORIENTED_EDGE('',*,*,#171,.F.);
#92=ORIENTED_EDGE('',*,*,#172,.F.);
#93=ORIENTED_EDGE('',*,*,#173,.T.);
#94=ORIENTED_EDGE('',*,*,#174,.F.);
#95=ORIENTED_EDGE('',*,*,#175,.F.);
#96=ORIENTED_EDGE('',*,*,#176,.T.);
#97=ORIENTED_EDGE('',*,*,#177,.T.);
#98=ORIENTED_EDGE('',*,*,#178,.F.);
#99=ORIENTED_EDGE('',*,*,#179,.F.);
#100=ORIENTED_EDGE('',*,*,#180,.T.);
#101=ORIENTED_EDGE('',*,*,#181,.T.);
#102=ORIENTED_EDGE('',*,*,#182,.T.);
#103=ORIENTED_EDGE('',*,*,#183,.T.);
#104=ORIENTED_EDGE('',*,*,#184,.F.);
#105=ORIENTED_EDGE('',*,*,#185,.F.);
#106=ORIENTED_EDGE('',*,*,#186,.T.);
#107=ORIENTED_EDGE('',*,*,#187,.F.);
#108=ORIENTED_EDGE('',*,*,#188,.F.);
#109=ORIENTED_EDGE('',*,*,#189,.F.);
#110=ORIENTED_EDGE('',*,*,#190,.F.);
#111=ORIENTED_EDGE('',*,*,#191,.T.);
#112=ORIENTED_EDGE('',*,*,#192,.T.);
#113=ORIENTED_EDGE('',*,*,#193,.F.);
#114=ORIENTED_EDGE('',*,*,#189,.T.);
#115=ORIENTED_EDGE('',*,*,#194,.T.);
#116=ORIENTED_EDGE('',*,*,#181,.F.);
#117=ORIENTED_EDGE('',*,*,#195,.T.);
#118=ORIENTED_EDGE('',*,*,#196,.F.);
#119=ORIENTED_EDGE('',*,*,#179,.T.);
#120=ORIENTED_EDGE('',*,*,#197,.F.);
#121=ORIENTED_EDGE('',*,*,#169,.F.);
#122=ORIENTED_EDGE('',*,*,#176,.F.);
#123=ORIENTED_EDGE('',*,*,#198,.T.);
#124=ORIENTED_EDGE('',*,*,#192,.F.);
#125=ORIENTED_EDGE('',*,*,#199,.F.);
#126=ORIENTED_EDGE('',*,*,#184,.T.);
#127=ORIENTED_EDGE('',*,*,#200,.T.);
#128=ORIENTED_EDGE('',*,*,#172,.T.);
#129=ORIENTED_EDGE('',*,*,#201,.T.);
#130=ORIENTED_EDGE('',*,*,#166,.T.);
#131=ORIENTED_EDGE('',*,*,#180,.F.);
#132=ORIENTED_EDGE('',*,*,#202,.F.);
#133=ORIENTED_EDGE('',*,*,#170,.F.);
#134=ORIENTED_EDGE('',*,*,#197,.T.);
#135=ORIENTED_EDGE('',*,*,#178,.T.);
#136=ORIENTED_EDGE('',*,*,#171,.T.);
#137=ORIENTED_EDGE('',*,*,#202,.T.);
#138=ORIENTED_EDGE('',*,*,#177,.F.);
#139=ORIENTED_EDGE('',*,*,#201,.F.);
#140=ORIENTED_EDGE('',*,*,#187,.T.);
#141=ORIENTED_EDGE('',*,*,#173,.F.);
#142=ORIENTED_EDGE('',*,*,#199,.T.);
#143=ORIENTED_EDGE('',*,*,#191,.F.);
#144=ORIENTED_EDGE('',*,*,#203,.F.);
#145=ORIENTED_EDGE('',*,*,#185,.T.);
#146=ORIENTED_EDGE('',*,*,#186,.F.);
#147=ORIENTED_EDGE('',*,*,#203,.T.);
#148=ORIENTED_EDGE('',*,*,#190,.T.);
#149=ORIENTED_EDGE('',*,*,#195,.F.);
#150=ORIENTED_EDGE('',*,*,#175,.T.);
#151=ORIENTED_EDGE('',*,*,#204,.T.);
#152=ORIENTED_EDGE('',*,*,#193,.T.);
#153=ORIENTED_EDGE('',*,*,#198,.F.);
#154=ORIENTED_EDGE('',*,*,#174,.T.);
#155=ORIENTED_EDGE('',*,*,#196,.T.);
#156=ORIENTED_EDGE('',*,*,#168,.F.);
#157=ORIENTED_EDGE('',*,*,#205,.F.);
#158=ORIENTED_EDGE('',*,*,#182,.F.);
#159=ORIENTED_EDGE('',*,*,#194,.F.);
#160=ORIENTED_EDGE('',*,*,#188,.T.);
#161=ORIENTED_EDGE('',*,*,#204,.F.);
#162=ORIENTED_EDGE('',*,*,#205,.T.);
#163=ORIENTED_EDGE('',*,*,#167,.F.);
#164=ORIENTED_EDGE('',*,*,#200,.F.);
#165=ORIENTED_EDGE('',*,*,#183,.F.);
#166=EDGE_CURVE('',#206,#206,#234,.T.);
#167=EDGE_CURVE('',#207,#208,#14,.T.);
#168=EDGE_CURVE('',#208,#209,#15,.T.);
#169=EDGE_CURVE('',#209,#210,#16,.T.);
#170=EDGE_CURVE('',#210,#211,#17,.T.);
#171=EDGE_CURVE('',#212,#211,#18,.T.);
#172=EDGE_CURVE('',#207,#212,#19,.T.);
#173=EDGE_CURVE('',#213,#213,#235,.T.);
#174=EDGE_CURVE('',#214,#215,#20,.T.);
#175=EDGE_CURVE('',#216,#214,#21,.T.);
#176=EDGE_CURVE('',#216,#217,#22,.T.);
#177=EDGE_CURVE('',#217,#218,#23,.T.);
#178=EDGE_CURVE('',#219,#218,#24,.T.);
#179=EDGE_CURVE('',#215,#219,#25,.T.);
#180=EDGE_CURVE('',#220,#220,#236,.F.);
#181=EDGE_CURVE('',#221,#222,#26,.T.);
#182=EDGE_CURVE('',#222,#223,#27,.T.);
#183=EDGE_CURVE('',#223,#224,#28,.T.);
#184=EDGE_CURVE('',#225,#224,#29,.T.);
#185=EDGE_CURVE('',#226,#225,#30,.T.);
#186=EDGE_CURVE('',#226,#221,#31,.T.);
#187=EDGE_CURVE('',#227,#227,#237,.F.);
#188=EDGE_CURVE('',#228,#229,#32,.T.);
#189=EDGE_CURVE('',#230,#228,#33,.T.);
#190=EDGE_CURVE('',#231,#230,#34,.T.);
#191=EDGE_CURVE('',#231,#232,#35,.T.);
#192=EDGE_CURVE('',#232,#233,#36,.T.);
#193=EDGE_CURVE('',#229,#233,#37,.T.);
#194=EDGE_CURVE('',#228,#222,#38,.T.);
#195=EDGE_CURVE('',#221,#230,#39,.T.);
#196=EDGE_CURVE('',#215,#209,#40,.T.);
#197=EDGE_CURVE('',#210,#219,#41,.T.);
#198=EDGE_CURVE('',#216,#233,#42,.T.);
#199=EDGE_CURVE('',#225,#232,#43,.T.);
#200=EDGE_CURVE('',#224,#207,#44,.T.);
#201=EDGE_CURVE('',#212,#217,#45,.T.);
#202=EDGE_CURVE('',#211,#218,#46,.T.);
#203=EDGE_CURVE('',#226,#231,#47,.T.);
#204=EDGE_CURVE('',#214,#229,#48,.T.);
#205=EDGE_CURVE('',#223,#208,#49,.T.);
#206=VERTEX_POINT('',#426);
#207=VERTEX_POINT('',#428);
#208=VERTEX_POINT('',#429);
#209=VERTEX_POINT('',#431);
#210=VERTEX_POINT('',#433);
#211=VERTEX_POINT('',#435);
#212=VERTEX_POINT('',#437);
#213=VERTEX_POINT('',#441);
#214=VERTEX_POINT('',#443);
#215=VERTEX_POINT('',#444);
#216=VERTEX_POINT('',#446);
#217=VERTEX_POINT('',#448);
#218=VERTEX_POINT('',#450);
#219=VERTEX_POINT('',#452);
#220=VERTEX_POINT('',#456);
#221=VERTEX_POINT('',#458);
#222=VERTEX_POINT('',#459);
#223=VERTEX_POINT('',#461);
#224=VERTEX_POINT('',#463);
#225=VERTEX_POINT('',#465);
#226=VERTEX_POINT('',#467);
#227=VERTEX_POINT('',#471);
#228=VERTEX_POINT('',#473);
#229=VERTEX_POINT('',#474);
#230=VERTEX_POINT('',#476);
#231=VERTEX_POINT('',#478);
#232=VERTEX_POINT('',#480);
#233=VERTEX_POINT('',#482);
#234=CIRCLE('',#326,0.00309423237157939);
#235=CIRCLE('',#328,0.00309423237157939);
#236=CIRCLE('',#330,0.00309423237157939);
#237=CIRCLE('',#332,0.00309423237157939);
#238=EDGE_LOOP('',(#86));
#239=EDGE_LOOP('',(#87,#88,#89,#90,#91,#92));
#240=EDGE_LOOP('',(#93));
#241=EDGE_LOOP('',(#94,#95,#96,#97,#98,#99));
#242=EDGE_LOOP('',(#100));
#243=EDGE_LOOP('',(#101,#102,#103,#104,#105,#106));
#244=EDGE_LOOP('',(#107));
#245=EDGE_LOOP('',(#108,#109,#110,#111,#112,#113));
#246=EDGE_LOOP('',(#114,#115,#116,#117));
#247=EDGE_LOOP('',(#118,#119,#120,#121));
#248=EDGE_LOOP('',(#122,#123,#124,#125,#126,#127,#128,#129));
#249=EDGE_LOOP('',(#130));
#250=EDGE_LOOP('',(#131));
#251=EDGE_LOOP('',(#132,#133,#134,#135));
#252=EDGE_LOOP('',(#136,#137,#138,#139));
#253=EDGE_LOOP('',(#140));
#254=EDGE_LOOP('',(#141));
#255=EDGE_LOOP('',(#142,#143,#144,#145));
#256=EDGE_LOOP('',(#146,#147,#148,#149));
#257=EDGE_LOOP('',(#150,#151,#152,#153));
#258=EDGE_LOOP('',(#154,#155,#156,#157,#158,#159,#160,#161));
#259=EDGE_LOOP('',(#162,#163,#164,#165));
#260=FACE_BOUND('',#238,.T.);
#261=FACE_BOUND('',#239,.T.);
#262=FACE_BOUND('',#240,.T.);
#263=FACE_BOUND('',#241,.T.);
#264=FACE_BOUND('',#242,.T.);
#265=FACE_BOUND('',#243,.T.);
#266=FACE_BOUND('',#244,.T.);
#267=FACE_BOUND('',#245,.T.);
#268=FACE_BOUND('',#246,.T.);
#269=FACE_BOUND('',#247,.T.);
#270=FACE_BOUND('',#248,.T.);
#271=FACE_BOUND('',#249,.T.);
#272=FACE_BOUND('',#250,.T.);
#273=FACE_BOUND('',#251,.T.);
#274=FACE_BOUND('',#252,.T.);
#275=FACE_BOUND('',#253,.T.);
#276=FACE_BOUND('',#254,.T.);
#277=FACE_BOUND('',#255,.T.);
#278=FACE_BOUND('',#256,.T.);
#279=FACE_BOUND('',#257,.T.);
#280=FACE_BOUND('',#258,.T.);
#281=FACE_BOUND('',#259,.T.);
#282=PLANE('',#325);
#283=PLANE('',#327);
#284=PLANE('',#329);
#285=PLANE('',#331);
#286=PLANE('',#333);
#287=PLANE('',#334);
#288=PLANE('',#335);
#289=PLANE('',#337);
#290=PLANE('',#338);
#291=PLANE('',#340);
#292=PLANE('',#341);
#293=PLANE('',#342);
#294=PLANE('',#343);
#295=PLANE('',#344);
#296=ADVANCED_FACE('',(#260,#261),#282,.T.);
#297=ADVANCED_FACE('',(#262,#263),#283,.F.);
#298=ADVANCED_FACE('',(#264,#265),#284,.T.);
#299=ADVANCED_FACE('',(#266,#267),#285,.F.);
#300=ADVANCED_FACE('',(#268),#286,.T.);
#301=ADVANCED_FACE('',(#269),#287,.T.);
#302=ADVANCED_FACE('',(#270),#288,.F.);
#303=ADVANCED_FACE('',(#271,#272),#12,.F.);
#304=ADVANCED_FACE('',(#273),#289,.T.);
#305=ADVANCED_FACE('',(#274),#290,.F.);
#306=ADVANCED_FACE('',(#275,#276),#13,.F.);
#307=ADVANCED_FACE('',(#277),#291,.F.);
#308=ADVANCED_FACE('',(#278),#292,.T.);
#309=ADVANCED_FACE('',(#279),#293,.T.);
#310=ADVANCED_FACE('',(#280),#294,.T.);
#311=ADVANCED_FACE('',(#281),#295,.T.);
#312=CLOSED_SHELL('',(#296,#297,#298,#299,#300,#301,#302,#303,#304,#305,
#306,#307,#308,#309,#310,#311));
#313=STYLED_ITEM('',(#314),#321);
#314=PRESENTATION_STYLE_ASSIGNMENT((#315));
#315=SURFACE_STYLE_USAGE(.BOTH.,#316);
#316=SURFACE_SIDE_STYLE('',(#317));
#317=SURFACE_STYLE_FILL_AREA(#318);
#318=FILL_AREA_STYLE('',(#319));
#319=FILL_AREA_STYLE_COLOUR('',#320);
#320=COLOUR_RGB('',0.8,0.8,0.8);
#321=MANIFOLD_SOLID_BREP('Part 1',#312);
#322=SHAPE_DEFINITION_REPRESENTATION(#514,#323);
#323=SHAPE_REPRESENTATION('Part 1',(#324),#509);
#324=AXIS2_PLACEMENT_3D('',#423,#345,#346);
#325=AXIS2_PLACEMENT_3D('',#424,#347,#348);
#326=AXIS2_PLACEMENT_3D('',#425,#349,#350);
#327=AXIS2_PLACEMENT_3D('',#439,#357,#358);
#328=AXIS2_PLACEMENT_3D('',#440,#359,#360);
#329=AXIS2_PLACEMENT_3D('',#454,#367,#368);
#330=AXIS2_PLACEMENT_3D('',#455,#369,#370);
#331=AXIS2_PLACEMENT_3D('',#469,#377,#378);
#332=AXIS2_PLACEMENT_3D('',#470,#379,#380);
#333=AXIS2_PLACEMENT_3D('',#484,#387,#388);
#334=AXIS2_PLACEMENT_3D('',#487,#391,#392);
#335=AXIS2_PLACEMENT_3D('',#490,#395,#396);
#336=AXIS2_PLACEMENT_3D('',#495,#401,#402);
#337=AXIS2_PLACEMENT_3D('',#496,#403,#404);
#338=AXIS2_PLACEMENT_3D('',#498,#406,#407);
#339=AXIS2_PLACEMENT_3D('',#499,#408,#409);
#340=AXIS2_PLACEMENT_3D('',#500,#410,#411);
#341=AXIS2_PLACEMENT_3D('',#502,#413,#414);
#342=AXIS2_PLACEMENT_3D('',#503,#415,#416);
#343=AXIS2_PLACEMENT_3D('',#505,#418,#419);
#344=AXIS2_PLACEMENT_3D('',#507,#421,#422);
#345=DIRECTION('',(0.,0.,1.));
#346=DIRECTION('',(1.,0.,0.));
#347=DIRECTION('',(-1.,0.,0.));
#348=DIRECTION('',(0.,0.,1.));
#349=DIRECTION('',(-1.,0.,0.));
#350=DIRECTION('',(0.,0.,1.));
#351=DIRECTION('',(0.,0.,1.));
#352=DIRECTION('',(0.,-1.,0.));
#353=DIRECTION('',(0.,0.,1.));
#354=DIRECTION('',(0.,1.,0.));
#355=DIRECTION('',(0.,0.,1.));
#356=DIRECTION('',(0.,1.,0.));
#357=DIRECTION('',(-1.,0.,0.));
#358=DIRECTION('',(0.,0.,1.));
#359=DIRECTION('',(-1.,0.,0.));
#360=DIRECTION('',(0.,0.,1.));
#361=DIRECTION('',(0.,-1.,0.));
#362=DIRECTION('',(0.,0.,1.));
#363=DIRECTION('',(0.,1.,0.));
#364=DIRECTION('',(0.,0.,1.));
#365=DIRECTION('',(0.,1.,0.));
#366=DIRECTION('',(0.,0.,1.));
#367=DIRECTION('',(1.,0.,0.));
#368=DIRECTION('',(0.,0.,-1.));
#369=DIRECTION('',(1.,0.,0.));
#370=DIRECTION('',(0.,0.,-1.));
#371=DIRECTION('',(0.,0.,-1.));
#372=DIRECTION('',(0.,1.,0.));
#373=DIRECTION('',(0.,0.,-1.));
#374=DIRECTION('',(0.,-1.,0.));
#375=DIRECTION('',(0.,0.,-1.));
#376=DIRECTION('',(0.,-1.,0.));
#377=DIRECTION('',(1.,0.,0.));
#378=DIRECTION('',(0.,0.,-1.));
#379=DIRECTION('',(1.,0.,0.));
#380=DIRECTION('',(0.,0.,-1.));
#381=DIRECTION('',(0.,1.,0.));
#382=DIRECTION('',(0.,0.,-1.));
#383=DIRECTION('',(0.,-1.,0.));
#384=DIRECTION('',(0.,0.,-1.));
#385=DIRECTION('',(0.,-1.,0.));
#386=DIRECTION('',(0.,0.,-1.));
#387=DIRECTION('',(0.,1.,0.));
#388=DIRECTION('',(0.,0.,1.));
#389=DIRECTION('',(-1.,0.,0.));
#390=DIRECTION('',(1.,0.,0.));
#391=DIRECTION('',(0.,-1.,0.));
#392=DIRECTION('',(1.,0.,0.));
#393=DIRECTION('',(-1.,0.,0.));
#394=DIRECTION('',(1.,0.,0.));
#395=DIRECTION('',(0.,0.,1.));
#396=DIRECTION('',(1.,0.,0.));
#397=DIRECTION('',(-1.,0.,0.));
#398=DIRECTION('',(1.,0.,0.));
#399=DIRECTION('',(-1.,0.,0.));
#400=DIRECTION('',(1.,0.,0.));
#401=DIRECTION('',(-1.,0.,0.));
#402=DIRECTION('',(0.,0.,1.));
#403=DIRECTION('',(0.,0.,1.));
#404=DIRECTION('',(1.,0.,0.));
#405=DIRECTION('',(1.,0.,0.));
#406=DIRECTION('',(0.,-1.,0.));
#407=DIRECTION('',(1.,0.,0.));
#408=DIRECTION('',(-1.,0.,0.));
#409=DIRECTION('',(0.,0.,1.));
#410=DIRECTION('',(0.,1.,0.));
#411=DIRECTION('',(0.,0.,1.));
#412=DIRECTION('',(1.,0.,0.));
#413=DIRECTION('',(0.,0.,-1.));
#414=DIRECTION('',(1.,0.,0.));
#415=DIRECTION('',(0.,-1.,0.));
#416=DIRECTION('',(0.,0.,-1.));
#417=DIRECTION('',(-1.,0.,0.));
#418=DIRECTION('',(0.,0.,-1.));
#419=DIRECTION('',(-1.,0.,0.));
#420=DIRECTION('',(-1.,0.,0.));
#421=DIRECTION('',(0.,-1.,0.));
#422=DIRECTION('',(0.,0.,-1.));
#423=CARTESIAN_POINT('',(0.,0.,0.));
#424=CARTESIAN_POINT('',(-0.0236075539230474,-0.0508,0.));
#425=CARTESIAN_POINT('',(-0.0236075539230474,-0.0254,0.080129708170139));
#426=CARTESIAN_POINT('',(-0.0236075539230474,-0.0254,0.0832239405417184));
#427=CARTESIAN_POINT('',(-0.0236075539230474,-0.00409982180781247,-0.0566066413569022));
#428=CARTESIAN_POINT('',(-0.0236075539230474,-0.00409982180781248,-0.113213282713804));
#429=CARTESIAN_POINT('',(-0.0236075539230474,-0.00409982180781247,0.));
#430=CARTESIAN_POINT('',(-0.0236075539230474,-0.0274499109039062,0.));
#431=CARTESIAN_POINT('',(-0.0236075539230474,-0.0508,0.));
#432=CARTESIAN_POINT('',(-0.0236075539230474,-0.0508,0.));
#433=CARTESIAN_POINT('',(-0.0236075539230474,-0.0508,0.113213282713804));
#434=CARTESIAN_POINT('',(-0.0236075539230474,-0.0508,0.113213282713804));
#435=CARTESIAN_POINT('',(-0.0236075539230474,0.,0.113213282713804));
#436=CARTESIAN_POINT('',(-0.0236075539230474,0.,0.));
#437=CARTESIAN_POINT('',(-0.0236075539230474,0.,-0.113213282713804));
#438=CARTESIAN_POINT('',(-0.0236075539230474,-0.0508,-0.113213282713804));
#439=CARTESIAN_POINT('',(0.0291259020380478,-0.0508,0.));
#440=CARTESIAN_POINT('',(0.0291259020380478,-0.0254,0.080129708170139));
#441=CARTESIAN_POINT('',(0.0291259020380478,-0.0254,0.0832239405417184));
#442=CARTESIAN_POINT('',(0.0291259020380478,-0.0508,0.));
#443=CARTESIAN_POINT('',(0.0291259020380478,-0.00409982180781247,0.));
#444=CARTESIAN_POINT('',(0.0291259020380478,-0.0508,0.));
#445=CARTESIAN_POINT('',(0.0291259020380478,-0.00409982180781248,0.));
#446=CARTESIAN_POINT('',(0.0291259020380478,-0.00409982180781248,-0.113213282713804));
#447=CARTESIAN_POINT('',(0.0291259020380478,-0.0508,-0.113213282713804));
#448=CARTESIAN_POINT('',(0.0291259020380478,0.,-0.113213282713804));
#449=CARTESIAN_POINT('',(0.0291259020380478,0.,0.));
#450=CARTESIAN_POINT('',(0.0291259020380478,0.,0.113213282713804));
#451=CARTESIAN_POINT('',(0.0291259020380478,-0.0508,0.113213282713804));
#452=CARTESIAN_POINT('',(0.0291259020380478,-0.0508,0.113213282713804));
#453=CARTESIAN_POINT('',(0.0291259020380478,-0.0508,0.));
#454=CARTESIAN_POINT('',(-0.0196661595255136,-0.0253608461935073,0.107512717286196));
#455=CARTESIAN_POINT('',(-0.0196661595255136,-0.0254,0.080129708170139));
#456=CARTESIAN_POINT('',(-0.0196661595255136,-0.0254,0.0770354757985596));
#457=CARTESIAN_POINT('',(-0.0196661595255136,-0.0473723448812962,0.107512717286196));
#458=CARTESIAN_POINT('',(-0.0196661595255136,-0.0473723448812962,0.107512717286196));
#459=CARTESIAN_POINT('',(-0.0196661595255136,-0.0473723448812962,0.));
#460=CARTESIAN_POINT('',(-0.0196661595255136,-0.0253608461935073,0.));
#461=CARTESIAN_POINT('',(-0.0196661595255136,-0.00409982180781247,0.));
#462=CARTESIAN_POINT('',(-0.0196661595255136,-0.00409982180781247,0.107512717286196));
#463=CARTESIAN_POINT('',(-0.0196661595255136,-0.00409982180781248,-0.113213282713804));
#464=CARTESIAN_POINT('',(-0.0196661595255136,-0.0253608461935073,-0.113213282713804));
#465=CARTESIAN_POINT('',(-0.0196661595255136,-0.00334934750571847,-0.113213282713804));
#466=CARTESIAN_POINT('',(-0.0196661595255136,-0.00334934750571847,0.107512717286196));
#467=CARTESIAN_POINT('',(-0.0196661595255136,-0.00334934750571847,0.107512717286196));
#468=CARTESIAN_POINT('',(-0.0196661595255136,-0.0253608461935073,0.107512717286196));
#469=CARTESIAN_POINT('',(0.0249948538839817,-0.0253608461935073,0.107512717286196));
#470=CARTESIAN_POINT('',(0.0249948538839817,-0.0254,0.080129708170139));
#471=CARTESIAN_POINT('',(0.0249948538839817,-0.0254,0.0770354757985596));
#472=CARTESIAN_POINT('',(0.0249948538839817,-0.0253608461935073,0.));
#473=CARTESIAN_POINT('',(0.0249948538839817,-0.0473723448812962,0.));
#474=CARTESIAN_POINT('',(0.0249948538839817,-0.00409982180781247,0.));
#475=CARTESIAN_POINT('',(0.0249948538839817,-0.0473723448812962,0.107512717286196));
#476=CARTESIAN_POINT('',(0.0249948538839817,-0.0473723448812962,0.107512717286196));
#477=CARTESIAN_POINT('',(0.0249948538839817,-0.0253608461935073,0.107512717286196));
#478=CARTESIAN_POINT('',(0.0249948538839817,-0.00334934750571847,0.107512717286196));
#479=CARTESIAN_POINT('',(0.0249948538839817,-0.00334934750571847,0.107512717286196));
#480=CARTESIAN_POINT('',(0.0249948538839817,-0.00334934750571847,-0.113213282713804));
#481=CARTESIAN_POINT('',(0.0249948538839817,-0.0253608461935073,-0.113213282713804));
#482=CARTESIAN_POINT('',(0.0249948538839817,-0.00409982180781248,-0.113213282713804));
#483=CARTESIAN_POINT('',(0.0249948538839817,-0.00409982180781247,0.107512717286196));
#484=CARTESIAN_POINT('',(0.00266434717923403,-0.0473723448812962,0.107512717286196));
#485=CARTESIAN_POINT('',(0.00266434717923403,-0.0473723448812962,0.));
#486=CARTESIAN_POINT('',(0.00266434717923403,-0.0473723448812962,0.107512717286196));
#487=CARTESIAN_POINT('',(0.00275917405750025,-0.0508,0.));
#488=CARTESIAN_POINT('',(0.0734204460769527,-0.0508,0.));
#489=CARTESIAN_POINT('',(0.00275917405750025,-0.0508,0.113213282713804));
#490=CARTESIAN_POINT('',(0.00275917405750025,-0.0508,-0.113213282713804));
#491=CARTESIAN_POINT('',(0.0734204460769527,-0.00409982180781248,-0.113213282713804));
#492=CARTESIAN_POINT('',(0.00266434717923403,-0.00334934750571847,-0.113213282713804));
#493=CARTESIAN_POINT('',(0.0734204460769527,-0.00409982180781248,-0.113213282713804));
#494=CARTESIAN_POINT('',(0.00275917405750025,0.,-0.113213282713804));
#495=CARTESIAN_POINT('',(0.315736446076953,-0.0254,0.080129708170139));
#496=CARTESIAN_POINT('',(0.00275917405750025,-0.0508,0.113213282713804));
#497=CARTESIAN_POINT('',(0.00275917405750025,0.,0.113213282713804));
#498=CARTESIAN_POINT('',(0.00275917405750025,0.,0.));
#499=CARTESIAN_POINT('',(0.315736446076953,-0.0254,0.080129708170139));
#500=CARTESIAN_POINT('',(0.00266434717923403,-0.00334934750571847,0.107512717286196));
#501=CARTESIAN_POINT('',(0.00266434717923403,-0.00334934750571847,0.107512717286196));
#502=CARTESIAN_POINT('',(0.00315250997210721,-0.0254,0.107512717286196));
#503=CARTESIAN_POINT('',(0.0734204460769527,-0.00409982180781247,-0.0566066413569022));
#504=CARTESIAN_POINT('',(0.0734204460769527,-0.00409982180781247,0.));
#505=CARTESIAN_POINT('',(0.0734204460769527,-0.0274499109039062,0.));
#506=CARTESIAN_POINT('',(0.0734204460769527,-0.00409982180781247,0.));
#507=CARTESIAN_POINT('',(0.0734204460769527,-0.00409982180781247,-0.0566066413569022));
#508=MECHANICAL_DESIGN_GEOMETRIC_PRESENTATION_REPRESENTATION('',(#313),
#509);
#509=(
GEOMETRIC_REPRESENTATION_CONTEXT(3)
GLOBAL_UNCERTAINTY_ASSIGNED_CONTEXT((#510))
GLOBAL_UNIT_ASSIGNED_CONTEXT((#513,#512,#511))
REPRESENTATION_CONTEXT('Part 1','TOP_LEVEL_ASSEMBLY_PART')
);
#510=UNCERTAINTY_MEASURE_WITH_UNIT(LENGTH_MEASURE(1.E-8),#513,
'DISTANCE_ACCURACY_VALUE','Maximum Tolerance applied to model');
#511=(
NAMED_UNIT(*)
SI_UNIT($,.STERADIAN.)
SOLID_ANGLE_UNIT()
);
#512=(
NAMED_UNIT(*)
PLANE_ANGLE_UNIT()
SI_UNIT($,.RADIAN.)
);
#513=(
LENGTH_UNIT()
NAMED_UNIT(*)
SI_UNIT($,.METRE.)
);
#514=PRODUCT_DEFINITION_SHAPE('','',#515);
#515=PRODUCT_DEFINITION('','',#517,#516);
#516=PRODUCT_DEFINITION_CONTEXT('',#523,'design');
#517=PRODUCT_DEFINITION_FORMATION_WITH_SPECIFIED_SOURCE('','',#519,
 .NOT_KNOWN.);
#518=PRODUCT_RELATED_PRODUCT_CATEGORY('','',(#519));
#519=PRODUCT('Part 1','Part 1','Part 1',(#521));
#520=PRODUCT_CATEGORY('','');
#521=PRODUCT_CONTEXT('',#523,'mechanical');
#522=APPLICATION_PROTOCOL_DEFINITION('international standard',
'ap242_managed_model_based_3d_engineering',2020,#523);
#523=APPLICATION_CONTEXT('managed model based 3d engineering');
ENDSEC;
END-ISO-10303-21;
