ISO-10303-21;
HEADER;
/* Generated by software containing ST-Developer
 * from STEP Tools, Inc. (www.steptools.com) 
 */
/* OPTION: using custom renumber hook */

FILE_DESCRIPTION(
/* description */ ('STEP AP242 Edition 2',
'CAx-IF Rec.Pracs.---Representation and Presentation of Product Manufa
cturing Information (PMI)---4.0---2014-10-13',
'CAx-IF Rec.Pracs.---3D Tessellated Geometry---0.4---2014-09-14','2;1',
'CAx-IF Rec.Pracs.---User Defined Attributes---1.5---2016-08-15'),
/* implementation_level */ '2;1');

FILE_NAME(
/* name */ 'za hando',
/* time_stamp */ '2026-06-07T21:35:24Z',
/* author */ (''),
/* organization */ (''),
/* preprocessor_version */ 'ST-DEVELOPER v20',
/* originating_system */ 'ONSHAPE BY PTC INC, 1.216',
/* authorisation */ '  ');

FILE_SCHEMA (('AP242_MANAGED_MODEL_BASED_3D_ENGINEERING_MIM_LF { 1 0 10303 442 3 1 4 }'));
ENDSEC;

DATA;
#10=SHAPE_REPRESENTATION_RELATIONSHIP('','',#1455,#11);
#11=ADVANCED_BREP_SHAPE_REPRESENTATION('',(#1453),#2287);
#12=CYLINDRICAL_SURFACE('',#1507,0.003302);
#13=CIRCLE('',#1486,0.003302);
#14=CIRCLE('',#1508,0.003302);
#15=ORIENTED_EDGE('',*,*,#415,.F.);
#16=ORIENTED_EDGE('',*,*,#416,.T.);
#17=ORIENTED_EDGE('',*,*,#417,.F.);
#18=ORIENTED_EDGE('',*,*,#418,.F.);
#19=ORIENTED_EDGE('',*,*,#419,.T.);
#20=ORIENTED_EDGE('',*,*,#420,.F.);
#21=ORIENTED_EDGE('',*,*,#421,.F.);
#22=ORIENTED_EDGE('',*,*,#422,.T.);
#23=ORIENTED_EDGE('',*,*,#423,.F.);
#24=ORIENTED_EDGE('',*,*,#424,.F.);
#25=ORIENTED_EDGE('',*,*,#425,.T.);
#26=ORIENTED_EDGE('',*,*,#426,.F.);
#27=ORIENTED_EDGE('',*,*,#427,.F.);
#28=ORIENTED_EDGE('',*,*,#428,.T.);
#29=ORIENTED_EDGE('',*,*,#429,.F.);
#30=ORIENTED_EDGE('',*,*,#430,.F.);
#31=ORIENTED_EDGE('',*,*,#431,.T.);
#32=ORIENTED_EDGE('',*,*,#432,.F.);
#33=ORIENTED_EDGE('',*,*,#433,.F.);
#34=ORIENTED_EDGE('',*,*,#434,.T.);
#35=ORIENTED_EDGE('',*,*,#435,.F.);
#36=ORIENTED_EDGE('',*,*,#436,.F.);
#37=ORIENTED_EDGE('',*,*,#437,.T.);
#38=ORIENTED_EDGE('',*,*,#438,.F.);
#39=ORIENTED_EDGE('',*,*,#428,.F.);
#40=ORIENTED_EDGE('',*,*,#439,.T.);
#41=ORIENTED_EDGE('',*,*,#440,.T.);
#42=ORIENTED_EDGE('',*,*,#441,.F.);
#43=ORIENTED_EDGE('',*,*,#442,.T.);
#44=ORIENTED_EDGE('',*,*,#443,.T.);
#45=ORIENTED_EDGE('',*,*,#444,.F.);
#46=ORIENTED_EDGE('',*,*,#432,.T.);
#47=ORIENTED_EDGE('',*,*,#445,.T.);
#48=ORIENTED_EDGE('',*,*,#446,.F.);
#49=ORIENTED_EDGE('',*,*,#440,.F.);
#50=ORIENTED_EDGE('',*,*,#447,.T.);
#51=ORIENTED_EDGE('',*,*,#446,.T.);
#52=ORIENTED_EDGE('',*,*,#448,.F.);
#53=ORIENTED_EDGE('',*,*,#416,.F.);
#54=ORIENTED_EDGE('',*,*,#449,.T.);
#55=ORIENTED_EDGE('',*,*,#450,.T.);
#56=ORIENTED_EDGE('',*,*,#451,.T.);
#57=ORIENTED_EDGE('',*,*,#452,.F.);
#58=ORIENTED_EDGE('',*,*,#420,.T.);
#59=ORIENTED_EDGE('',*,*,#453,.T.);
#60=ORIENTED_EDGE('',*,*,#454,.F.);
#61=ORIENTED_EDGE('',*,*,#450,.F.);
#62=ORIENTED_EDGE('',*,*,#455,.T.);
#63=ORIENTED_EDGE('',*,*,#454,.T.);
#64=ORIENTED_EDGE('',*,*,#456,.F.);
#65=ORIENTED_EDGE('',*,*,#457,.T.);
#66=ORIENTED_EDGE('',*,*,#458,.T.);
#67=ORIENTED_EDGE('',*,*,#422,.F.);
#68=ORIENTED_EDGE('',*,*,#459,.T.);
#69=ORIENTED_EDGE('',*,*,#460,.T.);
#70=ORIENTED_EDGE('',*,*,#461,.T.);
#71=ORIENTED_EDGE('',*,*,#462,.F.);
#72=ORIENTED_EDGE('',*,*,#426,.T.);
#73=ORIENTED_EDGE('',*,*,#463,.T.);
#74=ORIENTED_EDGE('',*,*,#464,.F.);
#75=ORIENTED_EDGE('',*,*,#460,.F.);
#76=ORIENTED_EDGE('',*,*,#465,.T.);
#77=ORIENTED_EDGE('',*,*,#464,.T.);
#78=ORIENTED_EDGE('',*,*,#466,.F.);
#79=ORIENTED_EDGE('',*,*,#467,.T.);
#80=ORIENTED_EDGE('',*,*,#468,.T.);
#81=ORIENTED_EDGE('',*,*,#434,.F.);
#82=ORIENTED_EDGE('',*,*,#469,.T.);
#83=ORIENTED_EDGE('',*,*,#470,.T.);
#84=ORIENTED_EDGE('',*,*,#471,.F.);
#85=ORIENTED_EDGE('',*,*,#472,.T.);
#86=ORIENTED_EDGE('',*,*,#473,.T.);
#87=ORIENTED_EDGE('',*,*,#474,.F.);
#88=ORIENTED_EDGE('',*,*,#438,.T.);
#89=ORIENTED_EDGE('',*,*,#475,.T.);
#90=ORIENTED_EDGE('',*,*,#476,.F.);
#91=ORIENTED_EDGE('',*,*,#470,.F.);
#92=ORIENTED_EDGE('',*,*,#477,.T.);
#93=ORIENTED_EDGE('',*,*,#476,.T.);
#94=ORIENTED_EDGE('',*,*,#478,.F.);
#95=ORIENTED_EDGE('',*,*,#479,.F.);
#96=ORIENTED_EDGE('',*,*,#480,.T.);
#97=ORIENTED_EDGE('',*,*,#481,.F.);
#98=ORIENTED_EDGE('',*,*,#482,.F.);
#99=ORIENTED_EDGE('',*,*,#483,.T.);
#100=ORIENTED_EDGE('',*,*,#484,.F.);
#101=ORIENTED_EDGE('',*,*,#485,.F.);
#102=ORIENTED_EDGE('',*,*,#486,.T.);
#103=ORIENTED_EDGE('',*,*,#487,.T.);
#104=ORIENTED_EDGE('',*,*,#488,.F.);
#105=ORIENTED_EDGE('',*,*,#489,.T.);
#106=ORIENTED_EDGE('',*,*,#490,.T.);
#107=ORIENTED_EDGE('',*,*,#491,.F.);
#108=ORIENTED_EDGE('',*,*,#485,.T.);
#109=ORIENTED_EDGE('',*,*,#492,.F.);
#110=ORIENTED_EDGE('',*,*,#480,.F.);
#111=ORIENTED_EDGE('',*,*,#487,.F.);
#112=ORIENTED_EDGE('',*,*,#493,.T.);
#113=ORIENTED_EDGE('',*,*,#484,.T.);
#114=ORIENTED_EDGE('',*,*,#494,.F.);
#115=ORIENTED_EDGE('',*,*,#490,.F.);
#116=ORIENTED_EDGE('',*,*,#495,.T.);
#117=ORIENTED_EDGE('',*,*,#496,.T.);
#118=ORIENTED_EDGE('',*,*,#430,.T.);
#119=ORIENTED_EDGE('',*,*,#497,.T.);
#120=ORIENTED_EDGE('',*,*,#498,.F.);
#121=ORIENTED_EDGE('',*,*,#499,.F.);
#122=ORIENTED_EDGE('',*,*,#500,.T.);
#123=ORIENTED_EDGE('',*,*,#481,.T.);
#124=ORIENTED_EDGE('',*,*,#492,.T.);
#125=ORIENTED_EDGE('',*,*,#497,.F.);
#126=ORIENTED_EDGE('',*,*,#429,.T.);
#127=ORIENTED_EDGE('',*,*,#443,.F.);
#128=ORIENTED_EDGE('',*,*,#501,.T.);
#129=ORIENTED_EDGE('',*,*,#417,.T.);
#130=ORIENTED_EDGE('',*,*,#451,.F.);
#131=ORIENTED_EDGE('',*,*,#458,.F.);
#132=ORIENTED_EDGE('',*,*,#502,.T.);
#133=ORIENTED_EDGE('',*,*,#423,.T.);
#134=ORIENTED_EDGE('',*,*,#461,.F.);
#135=ORIENTED_EDGE('',*,*,#468,.F.);
#136=ORIENTED_EDGE('',*,*,#503,.T.);
#137=ORIENTED_EDGE('',*,*,#435,.T.);
#138=ORIENTED_EDGE('',*,*,#473,.F.);
#139=ORIENTED_EDGE('',*,*,#504,.T.);
#140=ORIENTED_EDGE('',*,*,#505,.F.);
#141=ORIENTED_EDGE('',*,*,#506,.T.);
#142=ORIENTED_EDGE('',*,*,#507,.T.);
#143=ORIENTED_EDGE('',*,*,#508,.F.);
#144=ORIENTED_EDGE('',*,*,#509,.F.);
#145=ORIENTED_EDGE('',*,*,#510,.T.);
#146=ORIENTED_EDGE('',*,*,#511,.T.);
#147=ORIENTED_EDGE('',*,*,#512,.F.);
#148=ORIENTED_EDGE('',*,*,#513,.F.);
#149=ORIENTED_EDGE('',*,*,#495,.F.);
#150=ORIENTED_EDGE('',*,*,#489,.F.);
#151=ORIENTED_EDGE('',*,*,#514,.T.);
#152=ORIENTED_EDGE('',*,*,#482,.T.);
#153=ORIENTED_EDGE('',*,*,#500,.F.);
#154=ORIENTED_EDGE('',*,*,#515,.T.);
#155=ORIENTED_EDGE('',*,*,#516,.T.);
#156=ORIENTED_EDGE('',*,*,#517,.T.);
#157=ORIENTED_EDGE('',*,*,#436,.T.);
#158=ORIENTED_EDGE('',*,*,#503,.F.);
#159=ORIENTED_EDGE('',*,*,#467,.F.);
#160=ORIENTED_EDGE('',*,*,#518,.T.);
#161=ORIENTED_EDGE('',*,*,#424,.T.);
#162=ORIENTED_EDGE('',*,*,#502,.F.);
#163=ORIENTED_EDGE('',*,*,#457,.F.);
#164=ORIENTED_EDGE('',*,*,#519,.T.);
#165=ORIENTED_EDGE('',*,*,#418,.T.);
#166=ORIENTED_EDGE('',*,*,#501,.F.);
#167=ORIENTED_EDGE('',*,*,#442,.F.);
#168=ORIENTED_EDGE('',*,*,#520,.T.);
#169=ORIENTED_EDGE('',*,*,#521,.F.);
#170=ORIENTED_EDGE('',*,*,#522,.F.);
#171=ORIENTED_EDGE('',*,*,#523,.T.);
#172=ORIENTED_EDGE('',*,*,#524,.T.);
#173=ORIENTED_EDGE('',*,*,#525,.F.);
#174=ORIENTED_EDGE('',*,*,#498,.T.);
#175=ORIENTED_EDGE('',*,*,#505,.T.);
#176=ORIENTED_EDGE('',*,*,#526,.F.);
#177=ORIENTED_EDGE('',*,*,#527,.T.);
#178=ORIENTED_EDGE('',*,*,#528,.T.);
#179=ORIENTED_EDGE('',*,*,#529,.F.);
#180=ORIENTED_EDGE('',*,*,#530,.F.);
#181=ORIENTED_EDGE('',*,*,#531,.T.);
#182=ORIENTED_EDGE('',*,*,#532,.F.);
#183=ORIENTED_EDGE('',*,*,#524,.F.);
#184=ORIENTED_EDGE('',*,*,#533,.T.);
#185=ORIENTED_EDGE('',*,*,#534,.F.);
#186=ORIENTED_EDGE('',*,*,#535,.T.);
#187=ORIENTED_EDGE('',*,*,#536,.T.);
#188=ORIENTED_EDGE('',*,*,#537,.T.);
#189=ORIENTED_EDGE('',*,*,#538,.F.);
#190=ORIENTED_EDGE('',*,*,#539,.T.);
#191=ORIENTED_EDGE('',*,*,#540,.T.);
#192=ORIENTED_EDGE('',*,*,#541,.T.);
#193=ORIENTED_EDGE('',*,*,#542,.F.);
#194=ORIENTED_EDGE('',*,*,#543,.T.);
#195=ORIENTED_EDGE('',*,*,#544,.T.);
#196=ORIENTED_EDGE('',*,*,#545,.T.);
#197=ORIENTED_EDGE('',*,*,#546,.F.);
#198=ORIENTED_EDGE('',*,*,#547,.T.);
#199=ORIENTED_EDGE('',*,*,#548,.T.);
#200=ORIENTED_EDGE('',*,*,#549,.T.);
#201=ORIENTED_EDGE('',*,*,#533,.F.);
#202=ORIENTED_EDGE('',*,*,#523,.F.);
#203=ORIENTED_EDGE('',*,*,#550,.T.);
#204=ORIENTED_EDGE('',*,*,#536,.F.);
#205=ORIENTED_EDGE('',*,*,#522,.T.);
#206=ORIENTED_EDGE('',*,*,#551,.T.);
#207=ORIENTED_EDGE('',*,*,#552,.F.);
#208=ORIENTED_EDGE('',*,*,#553,.F.);
#209=ORIENTED_EDGE('',*,*,#554,.T.);
#210=ORIENTED_EDGE('',*,*,#543,.F.);
#211=ORIENTED_EDGE('',*,*,#555,.F.);
#212=ORIENTED_EDGE('',*,*,#556,.F.);
#213=ORIENTED_EDGE('',*,*,#557,.T.);
#214=ORIENTED_EDGE('',*,*,#539,.F.);
#215=ORIENTED_EDGE('',*,*,#558,.F.);
#216=ORIENTED_EDGE('',*,*,#559,.F.);
#217=ORIENTED_EDGE('',*,*,#552,.T.);
#218=ORIENTED_EDGE('',*,*,#560,.T.);
#219=ORIENTED_EDGE('',*,*,#531,.F.);
#220=ORIENTED_EDGE('',*,*,#561,.F.);
#221=ORIENTED_EDGE('',*,*,#562,.F.);
#222=ORIENTED_EDGE('',*,*,#563,.T.);
#223=ORIENTED_EDGE('',*,*,#564,.T.);
#224=ORIENTED_EDGE('',*,*,#565,.T.);
#225=ORIENTED_EDGE('',*,*,#527,.F.);
#226=ORIENTED_EDGE('',*,*,#566,.F.);
#227=ORIENTED_EDGE('',*,*,#567,.T.);
#228=ORIENTED_EDGE('',*,*,#547,.F.);
#229=ORIENTED_EDGE('',*,*,#568,.F.);
#230=ORIENTED_EDGE('',*,*,#569,.F.);
#231=ORIENTED_EDGE('',*,*,#570,.T.);
#232=ORIENTED_EDGE('',*,*,#521,.T.);
#233=ORIENTED_EDGE('',*,*,#532,.T.);
#234=ORIENTED_EDGE('',*,*,#560,.F.);
#235=ORIENTED_EDGE('',*,*,#551,.F.);
#236=ORIENTED_EDGE('',*,*,#549,.F.);
#237=ORIENTED_EDGE('',*,*,#571,.F.);
#238=ORIENTED_EDGE('',*,*,#572,.T.);
#239=ORIENTED_EDGE('',*,*,#534,.T.);
#240=ORIENTED_EDGE('',*,*,#548,.F.);
#241=ORIENTED_EDGE('',*,*,#567,.F.);
#242=ORIENTED_EDGE('',*,*,#573,.T.);
#243=ORIENTED_EDGE('',*,*,#571,.T.);
#244=ORIENTED_EDGE('',*,*,#572,.F.);
#245=ORIENTED_EDGE('',*,*,#573,.F.);
#246=ORIENTED_EDGE('',*,*,#566,.T.);
#247=ORIENTED_EDGE('',*,*,#535,.F.);
#248=ORIENTED_EDGE('',*,*,#544,.F.);
#249=ORIENTED_EDGE('',*,*,#554,.F.);
#250=ORIENTED_EDGE('',*,*,#574,.T.);
#251=ORIENTED_EDGE('',*,*,#575,.T.);
#252=ORIENTED_EDGE('',*,*,#546,.T.);
#253=ORIENTED_EDGE('',*,*,#576,.F.);
#254=ORIENTED_EDGE('',*,*,#577,.F.);
#255=ORIENTED_EDGE('',*,*,#568,.T.);
#256=ORIENTED_EDGE('',*,*,#576,.T.);
#257=ORIENTED_EDGE('',*,*,#545,.F.);
#258=ORIENTED_EDGE('',*,*,#575,.F.);
#259=ORIENTED_EDGE('',*,*,#578,.T.);
#260=ORIENTED_EDGE('',*,*,#574,.F.);
#261=ORIENTED_EDGE('',*,*,#569,.T.);
#262=ORIENTED_EDGE('',*,*,#577,.T.);
#263=ORIENTED_EDGE('',*,*,#578,.F.);
#264=ORIENTED_EDGE('',*,*,#540,.F.);
#265=ORIENTED_EDGE('',*,*,#557,.F.);
#266=ORIENTED_EDGE('',*,*,#579,.T.);
#267=ORIENTED_EDGE('',*,*,#580,.T.);
#268=ORIENTED_EDGE('',*,*,#542,.T.);
#269=ORIENTED_EDGE('',*,*,#581,.F.);
#270=ORIENTED_EDGE('',*,*,#582,.F.);
#271=ORIENTED_EDGE('',*,*,#555,.T.);
#272=ORIENTED_EDGE('',*,*,#581,.T.);
#273=ORIENTED_EDGE('',*,*,#541,.F.);
#274=ORIENTED_EDGE('',*,*,#580,.F.);
#275=ORIENTED_EDGE('',*,*,#583,.T.);
#276=ORIENTED_EDGE('',*,*,#579,.F.);
#277=ORIENTED_EDGE('',*,*,#556,.T.);
#278=ORIENTED_EDGE('',*,*,#582,.T.);
#279=ORIENTED_EDGE('',*,*,#583,.F.);
#280=ORIENTED_EDGE('',*,*,#584,.T.);
#281=ORIENTED_EDGE('',*,*,#537,.F.);
#282=ORIENTED_EDGE('',*,*,#550,.F.);
#283=ORIENTED_EDGE('',*,*,#585,.T.);
#284=ORIENTED_EDGE('',*,*,#558,.T.);
#285=ORIENTED_EDGE('',*,*,#538,.T.);
#286=ORIENTED_EDGE('',*,*,#584,.F.);
#287=ORIENTED_EDGE('',*,*,#586,.F.);
#288=ORIENTED_EDGE('',*,*,#585,.F.);
#289=ORIENTED_EDGE('',*,*,#553,.T.);
#290=ORIENTED_EDGE('',*,*,#559,.T.);
#291=ORIENTED_EDGE('',*,*,#586,.T.);
#292=ORIENTED_EDGE('',*,*,#530,.T.);
#293=ORIENTED_EDGE('',*,*,#587,.F.);
#294=ORIENTED_EDGE('',*,*,#588,.F.);
#295=ORIENTED_EDGE('',*,*,#561,.T.);
#296=ORIENTED_EDGE('',*,*,#529,.T.);
#297=ORIENTED_EDGE('',*,*,#589,.F.);
#298=ORIENTED_EDGE('',*,*,#590,.F.);
#299=ORIENTED_EDGE('',*,*,#591,.F.);
#300=ORIENTED_EDGE('',*,*,#592,.F.);
#301=ORIENTED_EDGE('',*,*,#587,.T.);
#302=ORIENTED_EDGE('',*,*,#593,.F.);
#303=ORIENTED_EDGE('',*,*,#589,.T.);
#304=ORIENTED_EDGE('',*,*,#528,.F.);
#305=ORIENTED_EDGE('',*,*,#565,.F.);
#306=ORIENTED_EDGE('',*,*,#562,.T.);
#307=ORIENTED_EDGE('',*,*,#588,.T.);
#308=ORIENTED_EDGE('',*,*,#592,.T.);
#309=ORIENTED_EDGE('',*,*,#594,.F.);
#310=ORIENTED_EDGE('',*,*,#593,.T.);
#311=ORIENTED_EDGE('',*,*,#564,.F.);
#312=ORIENTED_EDGE('',*,*,#595,.F.);
#313=ORIENTED_EDGE('',*,*,#590,.T.);
#314=ORIENTED_EDGE('',*,*,#591,.T.);
#315=ORIENTED_EDGE('',*,*,#595,.T.);
#316=ORIENTED_EDGE('',*,*,#563,.F.);
#317=ORIENTED_EDGE('',*,*,#594,.T.);
#318=ORIENTED_EDGE('',*,*,#596,.F.);
#319=ORIENTED_EDGE('',*,*,#570,.F.);
#320=ORIENTED_EDGE('',*,*,#596,.T.);
#321=ORIENTED_EDGE('',*,*,#525,.T.);
#322=ORIENTED_EDGE('',*,*,#597,.F.);
#323=ORIENTED_EDGE('',*,*,#515,.F.);
#324=ORIENTED_EDGE('',*,*,#499,.T.);
#325=ORIENTED_EDGE('',*,*,#504,.F.);
#326=ORIENTED_EDGE('',*,*,#472,.F.);
#327=ORIENTED_EDGE('',*,*,#598,.F.);
#328=ORIENTED_EDGE('',*,*,#516,.F.);
#329=ORIENTED_EDGE('',*,*,#597,.T.);
#330=ORIENTED_EDGE('',*,*,#526,.T.);
#331=ORIENTED_EDGE('',*,*,#598,.T.);
#332=ORIENTED_EDGE('',*,*,#471,.T.);
#333=ORIENTED_EDGE('',*,*,#478,.T.);
#334=ORIENTED_EDGE('',*,*,#475,.F.);
#335=ORIENTED_EDGE('',*,*,#437,.F.);
#336=ORIENTED_EDGE('',*,*,#517,.F.);
#337=ORIENTED_EDGE('',*,*,#466,.T.);
#338=ORIENTED_EDGE('',*,*,#463,.F.);
#339=ORIENTED_EDGE('',*,*,#425,.F.);
#340=ORIENTED_EDGE('',*,*,#518,.F.);
#341=ORIENTED_EDGE('',*,*,#456,.T.);
#342=ORIENTED_EDGE('',*,*,#453,.F.);
#343=ORIENTED_EDGE('',*,*,#419,.F.);
#344=ORIENTED_EDGE('',*,*,#519,.F.);
#345=ORIENTED_EDGE('',*,*,#520,.F.);
#346=ORIENTED_EDGE('',*,*,#441,.T.);
#347=ORIENTED_EDGE('',*,*,#448,.T.);
#348=ORIENTED_EDGE('',*,*,#445,.F.);
#349=ORIENTED_EDGE('',*,*,#431,.F.);
#350=ORIENTED_EDGE('',*,*,#496,.F.);
#351=ORIENTED_EDGE('',*,*,#488,.T.);
#352=ORIENTED_EDGE('',*,*,#494,.T.);
#353=ORIENTED_EDGE('',*,*,#483,.F.);
#354=ORIENTED_EDGE('',*,*,#514,.F.);
#355=ORIENTED_EDGE('',*,*,#491,.T.);
#356=ORIENTED_EDGE('',*,*,#479,.T.);
#357=ORIENTED_EDGE('',*,*,#493,.F.);
#358=ORIENTED_EDGE('',*,*,#486,.F.);
#359=ORIENTED_EDGE('',*,*,#469,.F.);
#360=ORIENTED_EDGE('',*,*,#433,.T.);
#361=ORIENTED_EDGE('',*,*,#474,.T.);
#362=ORIENTED_EDGE('',*,*,#477,.F.);
#363=ORIENTED_EDGE('',*,*,#459,.F.);
#364=ORIENTED_EDGE('',*,*,#421,.T.);
#365=ORIENTED_EDGE('',*,*,#462,.T.);
#366=ORIENTED_EDGE('',*,*,#465,.F.);
#367=ORIENTED_EDGE('',*,*,#449,.F.);
#368=ORIENTED_EDGE('',*,*,#415,.T.);
#369=ORIENTED_EDGE('',*,*,#452,.T.);
#370=ORIENTED_EDGE('',*,*,#455,.F.);
#371=ORIENTED_EDGE('',*,*,#439,.F.);
#372=ORIENTED_EDGE('',*,*,#427,.T.);
#373=ORIENTED_EDGE('',*,*,#444,.T.);
#374=ORIENTED_EDGE('',*,*,#447,.F.);
#375=ORIENTED_EDGE('',*,*,#510,.F.);
#376=ORIENTED_EDGE('',*,*,#599,.F.);
#377=ORIENTED_EDGE('',*,*,#600,.T.);
#378=ORIENTED_EDGE('',*,*,#601,.T.);
#379=ORIENTED_EDGE('',*,*,#513,.T.);
#380=ORIENTED_EDGE('',*,*,#602,.F.);
#381=ORIENTED_EDGE('',*,*,#603,.F.);
#382=ORIENTED_EDGE('',*,*,#599,.T.);
#383=ORIENTED_EDGE('',*,*,#512,.T.);
#384=ORIENTED_EDGE('',*,*,#604,.F.);
#385=ORIENTED_EDGE('',*,*,#605,.F.);
#386=ORIENTED_EDGE('',*,*,#602,.T.);
#387=ORIENTED_EDGE('',*,*,#511,.F.);
#388=ORIENTED_EDGE('',*,*,#601,.F.);
#389=ORIENTED_EDGE('',*,*,#606,.T.);
#390=ORIENTED_EDGE('',*,*,#604,.T.);
#391=ORIENTED_EDGE('',*,*,#600,.F.);
#392=ORIENTED_EDGE('',*,*,#603,.T.);
#393=ORIENTED_EDGE('',*,*,#605,.T.);
#394=ORIENTED_EDGE('',*,*,#606,.F.);
#395=ORIENTED_EDGE('',*,*,#506,.F.);
#396=ORIENTED_EDGE('',*,*,#607,.F.);
#397=ORIENTED_EDGE('',*,*,#608,.T.);
#398=ORIENTED_EDGE('',*,*,#609,.T.);
#399=ORIENTED_EDGE('',*,*,#509,.T.);
#400=ORIENTED_EDGE('',*,*,#610,.F.);
#401=ORIENTED_EDGE('',*,*,#611,.F.);
#402=ORIENTED_EDGE('',*,*,#607,.T.);
#403=ORIENTED_EDGE('',*,*,#508,.T.);
#404=ORIENTED_EDGE('',*,*,#612,.F.);
#405=ORIENTED_EDGE('',*,*,#613,.F.);
#406=ORIENTED_EDGE('',*,*,#610,.T.);
#407=ORIENTED_EDGE('',*,*,#507,.F.);
#408=ORIENTED_EDGE('',*,*,#609,.F.);
#409=ORIENTED_EDGE('',*,*,#614,.T.);
#410=ORIENTED_EDGE('',*,*,#612,.T.);
#411=ORIENTED_EDGE('',*,*,#608,.F.);
#412=ORIENTED_EDGE('',*,*,#611,.T.);
#413=ORIENTED_EDGE('',*,*,#613,.T.);
#414=ORIENTED_EDGE('',*,*,#614,.F.);
#415=EDGE_CURVE('',#615,#616,#749,.T.);
#416=EDGE_CURVE('',#615,#617,#750,.T.);
#417=EDGE_CURVE('',#618,#617,#751,.T.);
#418=EDGE_CURVE('',#619,#618,#752,.T.);
#419=EDGE_CURVE('',#619,#620,#753,.T.);
#420=EDGE_CURVE('',#616,#620,#754,.T.);
#421=EDGE_CURVE('',#621,#622,#755,.T.);
#422=EDGE_CURVE('',#621,#623,#756,.T.);
#423=EDGE_CURVE('',#624,#623,#757,.T.);
#424=EDGE_CURVE('',#625,#624,#758,.T.);
#425=EDGE_CURVE('',#625,#626,#759,.T.);
#426=EDGE_CURVE('',#622,#626,#760,.T.);
#427=EDGE_CURVE('',#627,#628,#761,.T.);
#428=EDGE_CURVE('',#627,#629,#762,.T.);
#429=EDGE_CURVE('',#630,#629,#763,.T.);
#430=EDGE_CURVE('',#631,#630,#764,.T.);
#431=EDGE_CURVE('',#631,#632,#765,.T.);
#432=EDGE_CURVE('',#628,#632,#766,.T.);
#433=EDGE_CURVE('',#633,#634,#767,.T.);
#434=EDGE_CURVE('',#633,#635,#768,.T.);
#435=EDGE_CURVE('',#636,#635,#769,.T.);
#436=EDGE_CURVE('',#637,#636,#770,.T.);
#437=EDGE_CURVE('',#637,#638,#771,.T.);
#438=EDGE_CURVE('',#634,#638,#772,.T.);
#439=EDGE_CURVE('',#627,#639,#773,.T.);
#440=EDGE_CURVE('',#639,#640,#774,.T.);
#441=EDGE_CURVE('',#641,#640,#775,.T.);
#442=EDGE_CURVE('',#641,#642,#776,.T.);
#443=EDGE_CURVE('',#642,#629,#777,.T.);
#444=EDGE_CURVE('',#628,#643,#778,.T.);
#445=EDGE_CURVE('',#632,#644,#779,.T.);
#446=EDGE_CURVE('',#643,#644,#780,.T.);
#447=EDGE_CURVE('',#639,#643,#781,.T.);
#448=EDGE_CURVE('',#640,#644,#782,.T.);
#449=EDGE_CURVE('',#615,#645,#783,.T.);
#450=EDGE_CURVE('',#645,#646,#784,.T.);
#451=EDGE_CURVE('',#646,#617,#785,.T.);
#452=EDGE_CURVE('',#616,#647,#786,.T.);
#453=EDGE_CURVE('',#620,#648,#787,.T.);
#454=EDGE_CURVE('',#647,#648,#788,.T.);
#455=EDGE_CURVE('',#645,#647,#789,.T.);
#456=EDGE_CURVE('',#649,#648,#790,.T.);
#457=EDGE_CURVE('',#649,#650,#791,.T.);
#458=EDGE_CURVE('',#650,#646,#792,.T.);
#459=EDGE_CURVE('',#621,#651,#793,.T.);
#460=EDGE_CURVE('',#651,#652,#794,.T.);
#461=EDGE_CURVE('',#652,#623,#795,.T.);
#462=EDGE_CURVE('',#622,#653,#796,.T.);
#463=EDGE_CURVE('',#626,#654,#797,.T.);
#464=EDGE_CURVE('',#653,#654,#798,.T.);
#465=EDGE_CURVE('',#651,#653,#799,.T.);
#466=EDGE_CURVE('',#655,#654,#800,.T.);
#467=EDGE_CURVE('',#655,#656,#801,.T.);
#468=EDGE_CURVE('',#656,#652,#802,.T.);
#469=EDGE_CURVE('',#633,#657,#803,.T.);
#470=EDGE_CURVE('',#657,#658,#804,.T.);
#471=EDGE_CURVE('',#659,#658,#805,.T.);
#472=EDGE_CURVE('',#659,#660,#806,.T.);
#473=EDGE_CURVE('',#660,#635,#807,.T.);
#474=EDGE_CURVE('',#634,#661,#808,.T.);
#475=EDGE_CURVE('',#638,#662,#809,.T.);
#476=EDGE_CURVE('',#661,#662,#810,.T.);
#477=EDGE_CURVE('',#657,#661,#811,.T.);
#478=EDGE_CURVE('',#658,#662,#812,.T.);
#479=EDGE_CURVE('',#663,#664,#813,.T.);
#480=EDGE_CURVE('',#663,#665,#814,.T.);
#481=EDGE_CURVE('',#666,#665,#815,.T.);
#482=EDGE_CURVE('',#667,#666,#816,.T.);
#483=EDGE_CURVE('',#667,#668,#817,.T.);
#484=EDGE_CURVE('',#664,#668,#818,.T.);
#485=EDGE_CURVE('',#669,#670,#819,.T.);
#486=EDGE_CURVE('',#669,#671,#820,.T.);
#487=EDGE_CURVE('',#671,#672,#821,.T.);
#488=EDGE_CURVE('',#673,#672,#822,.T.);
#489=EDGE_CURVE('',#673,#674,#823,.T.);
#490=EDGE_CURVE('',#674,#670,#824,.T.);
#491=EDGE_CURVE('',#669,#663,#825,.T.);
#492=EDGE_CURVE('',#665,#670,#826,.T.);
#493=EDGE_CURVE('',#671,#664,#827,.T.);
#494=EDGE_CURVE('',#672,#668,#828,.T.);
#495=EDGE_CURVE('',#674,#675,#829,.T.);
#496=EDGE_CURVE('',#675,#631,#830,.T.);
#497=EDGE_CURVE('',#630,#676,#831,.T.);
#498=EDGE_CURVE('',#677,#676,#832,.T.);
#499=EDGE_CURVE('',#678,#677,#833,.T.);
#500=EDGE_CURVE('',#678,#666,#834,.T.);
#501=EDGE_CURVE('',#642,#618,#835,.T.);
#502=EDGE_CURVE('',#650,#624,#836,.T.);
#503=EDGE_CURVE('',#656,#636,#837,.T.);
#504=EDGE_CURVE('',#660,#679,#838,.T.);
#505=EDGE_CURVE('',#676,#679,#839,.T.);
#506=EDGE_CURVE('',#680,#681,#840,.T.);
#507=EDGE_CURVE('',#681,#682,#841,.T.);
#508=EDGE_CURVE('',#683,#682,#842,.T.);
#509=EDGE_CURVE('',#680,#683,#843,.T.);
#510=EDGE_CURVE('',#684,#685,#844,.T.);
#511=EDGE_CURVE('',#685,#686,#845,.T.);
#512=EDGE_CURVE('',#687,#686,#846,.T.);
#513=EDGE_CURVE('',#684,#687,#847,.T.);
#514=EDGE_CURVE('',#673,#667,#848,.T.);
#515=EDGE_CURVE('',#678,#688,#849,.T.);
#516=EDGE_CURVE('',#688,#689,#850,.T.);
#517=EDGE_CURVE('',#689,#637,#851,.T.);
#518=EDGE_CURVE('',#655,#625,#852,.T.);
#519=EDGE_CURVE('',#649,#619,#853,.T.);
#520=EDGE_CURVE('',#641,#675,#854,.T.);
#521=EDGE_CURVE('',#690,#691,#855,.T.);
#522=EDGE_CURVE('',#692,#690,#856,.T.);
#523=EDGE_CURVE('',#692,#693,#857,.T.);
#524=EDGE_CURVE('',#693,#691,#858,.T.);
#525=EDGE_CURVE('',#677,#694,#859,.T.);
#526=EDGE_CURVE('',#694,#679,#860,.T.);
#527=EDGE_CURVE('',#695,#696,#861,.T.);
#528=EDGE_CURVE('',#696,#697,#862,.T.);
#529=EDGE_CURVE('',#698,#697,#863,.T.);
#530=EDGE_CURVE('',#699,#698,#864,.T.);
#531=EDGE_CURVE('',#699,#700,#865,.T.);
#532=EDGE_CURVE('',#691,#700,#866,.T.);
#533=EDGE_CURVE('',#693,#701,#867,.T.);
#534=EDGE_CURVE('',#702,#701,#868,.T.);
#535=EDGE_CURVE('',#702,#695,#869,.T.);
#536=EDGE_CURVE('',#692,#703,#870,.T.);
#537=EDGE_CURVE('',#703,#704,#871,.T.);
#538=EDGE_CURVE('',#705,#704,#872,.T.);
#539=EDGE_CURVE('',#705,#706,#873,.T.);
#540=EDGE_CURVE('',#706,#707,#874,.T.);
#541=EDGE_CURVE('',#707,#708,#875,.T.);
#542=EDGE_CURVE('',#709,#708,#876,.T.);
#543=EDGE_CURVE('',#709,#710,#877,.T.);
#544=EDGE_CURVE('',#710,#711,#878,.T.);
#545=EDGE_CURVE('',#711,#712,#879,.T.);
#546=EDGE_CURVE('',#713,#712,#880,.T.);
#547=EDGE_CURVE('',#713,#714,#881,.T.);
#548=EDGE_CURVE('',#714,#715,#882,.T.);
#549=EDGE_CURVE('',#715,#701,#883,.T.);
#550=EDGE_CURVE('',#716,#703,#884,.T.);
#551=EDGE_CURVE('',#690,#717,#885,.T.);
#552=EDGE_CURVE('',#718,#717,#886,.T.);
#553=EDGE_CURVE('',#716,#718,#887,.T.);
#554=EDGE_CURVE('',#719,#710,#888,.T.);
#555=EDGE_CURVE('',#720,#709,#889,.T.);
#556=EDGE_CURVE('',#721,#720,#890,.T.);
#557=EDGE_CURVE('',#721,#706,#891,.T.);
#558=EDGE_CURVE('',#722,#705,#892,.T.);
#559=EDGE_CURVE('',#718,#722,#893,.T.);
#560=EDGE_CURVE('',#717,#700,#894,.T.);
#561=EDGE_CURVE('',#723,#699,#895,.T.);
#562=EDGE_CURVE('',#724,#723,#896,.T.);
#563=EDGE_CURVE('',#724,#725,#897,.T.);
#564=EDGE_CURVE('',#725,#726,#898,.T.);
#565=EDGE_CURVE('',#726,#696,#899,.T.);
#566=EDGE_CURVE('',#727,#695,#900,.T.);
#567=EDGE_CURVE('',#727,#714,#901,.T.);
#568=EDGE_CURVE('',#728,#713,#902,.T.);
#569=EDGE_CURVE('',#719,#728,#903,.T.);
#570=EDGE_CURVE('',#729,#729,#13,.T.);
#571=EDGE_CURVE('',#730,#715,#904,.T.);
#572=EDGE_CURVE('',#730,#702,#905,.T.);
#573=EDGE_CURVE('',#727,#730,#906,.T.);
#574=EDGE_CURVE('',#719,#731,#907,.T.);
#575=EDGE_CURVE('',#731,#711,#908,.T.);
#576=EDGE_CURVE('',#732,#712,#909,.T.);
#577=EDGE_CURVE('',#728,#732,#910,.T.);
#578=EDGE_CURVE('',#731,#732,#911,.T.);
#579=EDGE_CURVE('',#721,#733,#912,.T.);
#580=EDGE_CURVE('',#733,#707,#913,.T.);
#581=EDGE_CURVE('',#734,#708,#914,.T.);
#582=EDGE_CURVE('',#720,#734,#915,.T.);
#583=EDGE_CURVE('',#733,#734,#916,.T.);
#584=EDGE_CURVE('',#735,#704,#917,.T.);
#585=EDGE_CURVE('',#716,#735,#918,.T.);
#586=EDGE_CURVE('',#722,#735,#919,.T.);
#587=EDGE_CURVE('',#736,#698,#920,.T.);
#588=EDGE_CURVE('',#723,#736,#921,.T.);
#589=EDGE_CURVE('',#737,#697,#922,.T.);
#590=EDGE_CURVE('',#738,#737,#923,.T.);
#591=EDGE_CURVE('',#739,#738,#924,.T.);
#592=EDGE_CURVE('',#736,#739,#925,.T.);
#593=EDGE_CURVE('',#737,#726,#926,.T.);
#594=EDGE_CURVE('',#724,#739,#927,.T.);
#595=EDGE_CURVE('',#738,#725,#928,.T.);
#596=EDGE_CURVE('',#740,#740,#14,.T.);
#597=EDGE_CURVE('',#688,#694,#929,.T.);
#598=EDGE_CURVE('',#689,#659,#930,.T.);
#599=EDGE_CURVE('',#741,#684,#931,.T.);
#600=EDGE_CURVE('',#741,#742,#932,.T.);
#601=EDGE_CURVE('',#742,#685,#933,.T.);
#602=EDGE_CURVE('',#743,#687,#934,.T.);
#603=EDGE_CURVE('',#741,#743,#935,.T.);
#604=EDGE_CURVE('',#744,#686,#936,.T.);
#605=EDGE_CURVE('',#743,#744,#937,.T.);
#606=EDGE_CURVE('',#742,#744,#938,.T.);
#607=EDGE_CURVE('',#745,#680,#939,.T.);
#608=EDGE_CURVE('',#745,#746,#940,.T.);
#609=EDGE_CURVE('',#746,#681,#941,.T.);
#610=EDGE_CURVE('',#747,#683,#942,.T.);
#611=EDGE_CURVE('',#745,#747,#943,.T.);
#612=EDGE_CURVE('',#748,#682,#944,.T.);
#613=EDGE_CURVE('',#747,#748,#945,.T.);
#614=EDGE_CURVE('',#746,#748,#946,.T.);
#615=VERTEX_POINT('',#1882);
#616=VERTEX_POINT('',#1883);
#617=VERTEX_POINT('',#1885);
#618=VERTEX_POINT('',#1887);
#619=VERTEX_POINT('',#1889);
#620=VERTEX_POINT('',#1891);
#621=VERTEX_POINT('',#1895);
#622=VERTEX_POINT('',#1896);
#623=VERTEX_POINT('',#1898);
#624=VERTEX_POINT('',#1900);
#625=VERTEX_POINT('',#1902);
#626=VERTEX_POINT('',#1904);
#627=VERTEX_POINT('',#1908);
#628=VERTEX_POINT('',#1909);
#629=VERTEX_POINT('',#1911);
#630=VERTEX_POINT('',#1913);
#631=VERTEX_POINT('',#1915);
#632=VERTEX_POINT('',#1917);
#633=VERTEX_POINT('',#1921);
#634=VERTEX_POINT('',#1922);
#635=VERTEX_POINT('',#1924);
#636=VERTEX_POINT('',#1926);
#637=VERTEX_POINT('',#1928);
#638=VERTEX_POINT('',#1930);
#639=VERTEX_POINT('',#1934);
#640=VERTEX_POINT('',#1936);
#641=VERTEX_POINT('',#1938);
#642=VERTEX_POINT('',#1940);
#643=VERTEX_POINT('',#1944);
#644=VERTEX_POINT('',#1946);
#645=VERTEX_POINT('',#1953);
#646=VERTEX_POINT('',#1955);
#647=VERTEX_POINT('',#1959);
#648=VERTEX_POINT('',#1961);
#649=VERTEX_POINT('',#1966);
#650=VERTEX_POINT('',#1968);
#651=VERTEX_POINT('',#1972);
#652=VERTEX_POINT('',#1974);
#653=VERTEX_POINT('',#1978);
#654=VERTEX_POINT('',#1980);
#655=VERTEX_POINT('',#1985);
#656=VERTEX_POINT('',#1987);
#657=VERTEX_POINT('',#1991);
#658=VERTEX_POINT('',#1993);
#659=VERTEX_POINT('',#1995);
#660=VERTEX_POINT('',#1997);
#661=VERTEX_POINT('',#2001);
#662=VERTEX_POINT('',#2003);
#663=VERTEX_POINT('',#2010);
#664=VERTEX_POINT('',#2011);
#665=VERTEX_POINT('',#2013);
#666=VERTEX_POINT('',#2015);
#667=VERTEX_POINT('',#2017);
#668=VERTEX_POINT('',#2019);
#669=VERTEX_POINT('',#2023);
#670=VERTEX_POINT('',#2024);
#671=VERTEX_POINT('',#2026);
#672=VERTEX_POINT('',#2028);
#673=VERTEX_POINT('',#2030);
#674=VERTEX_POINT('',#2032);
#675=VERTEX_POINT('',#2042);
#676=VERTEX_POINT('',#2045);
#677=VERTEX_POINT('',#2047);
#678=VERTEX_POINT('',#2049);
#679=VERTEX_POINT('',#2056);
#680=VERTEX_POINT('',#2060);
#681=VERTEX_POINT('',#2061);
#682=VERTEX_POINT('',#2063);
#683=VERTEX_POINT('',#2065);
#684=VERTEX_POINT('',#2068);
#685=VERTEX_POINT('',#2069);
#686=VERTEX_POINT('',#2071);
#687=VERTEX_POINT('',#2073);
#688=VERTEX_POINT('',#2077);
#689=VERTEX_POINT('',#2079);
#690=VERTEX_POINT('',#2086);
#691=VERTEX_POINT('',#2087);
#692=VERTEX_POINT('',#2089);
#693=VERTEX_POINT('',#2091);
#694=VERTEX_POINT('',#2094);
#695=VERTEX_POINT('',#2098);
#696=VERTEX_POINT('',#2099);
#697=VERTEX_POINT('',#2101);
#698=VERTEX_POINT('',#2103);
#699=VERTEX_POINT('',#2105);
#700=VERTEX_POINT('',#2107);
#701=VERTEX_POINT('',#2110);
#702=VERTEX_POINT('',#2112);
#703=VERTEX_POINT('',#2116);
#704=VERTEX_POINT('',#2118);
#705=VERTEX_POINT('',#2120);
#706=VERTEX_POINT('',#2122);
#707=VERTEX_POINT('',#2124);
#708=VERTEX_POINT('',#2126);
#709=VERTEX_POINT('',#2128);
#710=VERTEX_POINT('',#2130);
#711=VERTEX_POINT('',#2132);
#712=VERTEX_POINT('',#2134);
#713=VERTEX_POINT('',#2136);
#714=VERTEX_POINT('',#2138);
#715=VERTEX_POINT('',#2140);
#716=VERTEX_POINT('',#2144);
#717=VERTEX_POINT('',#2146);
#718=VERTEX_POINT('',#2148);
#719=VERTEX_POINT('',#2152);
#720=VERTEX_POINT('',#2154);
#721=VERTEX_POINT('',#2156);
#722=VERTEX_POINT('',#2159);
#723=VERTEX_POINT('',#2163);
#724=VERTEX_POINT('',#2165);
#725=VERTEX_POINT('',#2167);
#726=VERTEX_POINT('',#2169);
#727=VERTEX_POINT('',#2172);
#728=VERTEX_POINT('',#2175);
#729=VERTEX_POINT('',#2179);
#730=VERTEX_POINT('',#2182);
#731=VERTEX_POINT('',#2189);
#732=VERTEX_POINT('',#2193);
#733=VERTEX_POINT('',#2200);
#734=VERTEX_POINT('',#2204);
#735=VERTEX_POINT('',#2211);
#736=VERTEX_POINT('',#2218);
#737=VERTEX_POINT('',#2222);
#738=VERTEX_POINT('',#2224);
#739=VERTEX_POINT('',#2226);
#740=VERTEX_POINT('',#2237);
#741=VERTEX_POINT('',#2254);
#742=VERTEX_POINT('',#2256);
#743=VERTEX_POINT('',#2260);
#744=VERTEX_POINT('',#2264);
#745=VERTEX_POINT('',#2271);
#746=VERTEX_POINT('',#2273);
#747=VERTEX_POINT('',#2277);
#748=VERTEX_POINT('',#2281);
#749=LINE('',#1881,#947);
#750=LINE('',#1884,#948);
#751=LINE('',#1886,#949);
#752=LINE('',#1888,#950);
#753=LINE('',#1890,#951);
#754=LINE('',#1892,#952);
#755=LINE('',#1894,#953);
#756=LINE('',#1897,#954);
#757=LINE('',#1899,#955);
#758=LINE('',#1901,#956);
#759=LINE('',#1903,#957);
#760=LINE('',#1905,#958);
#761=LINE('',#1907,#959);
#762=LINE('',#1910,#960);
#763=LINE('',#1912,#961);
#764=LINE('',#1914,#962);
#765=LINE('',#1916,#963);
#766=LINE('',#1918,#964);
#767=LINE('',#1920,#965);
#768=LINE('',#1923,#966);
#769=LINE('',#1925,#967);
#770=LINE('',#1927,#968);
#771=LINE('',#1929,#969);
#772=LINE('',#1931,#970);
#773=LINE('',#1933,#971);
#774=LINE('',#1935,#972);
#775=LINE('',#1937,#973);
#776=LINE('',#1939,#974);
#777=LINE('',#1941,#975);
#778=LINE('',#1943,#976);
#779=LINE('',#1945,#977);
#780=LINE('',#1947,#978);
#781=LINE('',#1949,#979);
#782=LINE('',#1950,#980);
#783=LINE('',#1952,#981);
#784=LINE('',#1954,#982);
#785=LINE('',#1956,#983);
#786=LINE('',#1958,#984);
#787=LINE('',#1960,#985);
#788=LINE('',#1962,#986);
#789=LINE('',#1964,#987);
#790=LINE('',#1965,#988);
#791=LINE('',#1967,#989);
#792=LINE('',#1969,#990);
#793=LINE('',#1971,#991);
#794=LINE('',#1973,#992);
#795=LINE('',#1975,#993);
#796=LINE('',#1977,#994);
#797=LINE('',#1979,#995);
#798=LINE('',#1981,#996);
#799=LINE('',#1983,#997);
#800=LINE('',#1984,#998);
#801=LINE('',#1986,#999);
#802=LINE('',#1988,#1000);
#803=LINE('',#1990,#1001);
#804=LINE('',#1992,#1002);
#805=LINE('',#1994,#1003);
#806=LINE('',#1996,#1004);
#807=LINE('',#1998,#1005);
#808=LINE('',#2000,#1006);
#809=LINE('',#2002,#1007);
#810=LINE('',#2004,#1008);
#811=LINE('',#2006,#1009);
#812=LINE('',#2007,#1010);
#813=LINE('',#2009,#1011);
#814=LINE('',#2012,#1012);
#815=LINE('',#2014,#1013);
#816=LINE('',#2016,#1014);
#817=LINE('',#2018,#1015);
#818=LINE('',#2020,#1016);
#819=LINE('',#2022,#1017);
#820=LINE('',#2025,#1018);
#821=LINE('',#2027,#1019);
#822=LINE('',#2029,#1020);
#823=LINE('',#2031,#1021);
#824=LINE('',#2033,#1022);
#825=LINE('',#2035,#1023);
#826=LINE('',#2036,#1024);
#827=LINE('',#2038,#1025);
#828=LINE('',#2039,#1026);
#829=LINE('',#2041,#1027);
#830=LINE('',#2043,#1028);
#831=LINE('',#2044,#1029);
#832=LINE('',#2046,#1030);
#833=LINE('',#2048,#1031);
#834=LINE('',#2050,#1032);
#835=LINE('',#2052,#1033);
#836=LINE('',#2053,#1034);
#837=LINE('',#2054,#1035);
#838=LINE('',#2055,#1036);
#839=LINE('',#2057,#1037);
#840=LINE('',#2059,#1038);
#841=LINE('',#2062,#1039);
#842=LINE('',#2064,#1040);
#843=LINE('',#2066,#1041);
#844=LINE('',#2067,#1042);
#845=LINE('',#2070,#1043);
#846=LINE('',#2072,#1044);
#847=LINE('',#2074,#1045);
#848=LINE('',#2075,#1046);
#849=LINE('',#2076,#1047);
#850=LINE('',#2078,#1048);
#851=LINE('',#2080,#1049);
#852=LINE('',#2081,#1050);
#853=LINE('',#2082,#1051);
#854=LINE('',#2083,#1052);
#855=LINE('',#2085,#1053);
#856=LINE('',#2088,#1054);
#857=LINE('',#2090,#1055);
#858=LINE('',#2092,#1056);
#859=LINE('',#2093,#1057);
#860=LINE('',#2095,#1058);
#861=LINE('',#2097,#1059);
#862=LINE('',#2100,#1060);
#863=LINE('',#2102,#1061);
#864=LINE('',#2104,#1062);
#865=LINE('',#2106,#1063);
#866=LINE('',#2108,#1064);
#867=LINE('',#2109,#1065);
#868=LINE('',#2111,#1066);
#869=LINE('',#2113,#1067);
#870=LINE('',#2115,#1068);
#871=LINE('',#2117,#1069);
#872=LINE('',#2119,#1070);
#873=LINE('',#2121,#1071);
#874=LINE('',#2123,#1072);
#875=LINE('',#2125,#1073);
#876=LINE('',#2127,#1074);
#877=LINE('',#2129,#1075);
#878=LINE('',#2131,#1076);
#879=LINE('',#2133,#1077);
#880=LINE('',#2135,#1078);
#881=LINE('',#2137,#1079);
#882=LINE('',#2139,#1080);
#883=LINE('',#2141,#1081);
#884=LINE('',#2143,#1082);
#885=LINE('',#2145,#1083);
#886=LINE('',#2147,#1084);
#887=LINE('',#2149,#1085);
#888=LINE('',#2151,#1086);
#889=LINE('',#2153,#1087);
#890=LINE('',#2155,#1088);
#891=LINE('',#2157,#1089);
#892=LINE('',#2158,#1090);
#893=LINE('',#2160,#1091);
#894=LINE('',#2161,#1092);
#895=LINE('',#2162,#1093);
#896=LINE('',#2164,#1094);
#897=LINE('',#2166,#1095);
#898=LINE('',#2168,#1096);
#899=LINE('',#2170,#1097);
#900=LINE('',#2171,#1098);
#901=LINE('',#2173,#1099);
#902=LINE('',#2174,#1100);
#903=LINE('',#2176,#1101);
#904=LINE('',#2181,#1102);
#905=LINE('',#2183,#1103);
#906=LINE('',#2185,#1104);
#907=LINE('',#2188,#1105);
#908=LINE('',#2190,#1106);
#909=LINE('',#2192,#1107);
#910=LINE('',#2194,#1108);
#911=LINE('',#2196,#1109);
#912=LINE('',#2199,#1110);
#913=LINE('',#2201,#1111);
#914=LINE('',#2203,#1112);
#915=LINE('',#2205,#1113);
#916=LINE('',#2207,#1114);
#917=LINE('',#2210,#1115);
#918=LINE('',#2212,#1116);
#919=LINE('',#2214,#1117);
#920=LINE('',#2217,#1118);
#921=LINE('',#2219,#1119);
#922=LINE('',#2221,#1120);
#923=LINE('',#2223,#1121);
#924=LINE('',#2225,#1122);
#925=LINE('',#2227,#1123);
#926=LINE('',#2229,#1124);
#927=LINE('',#2231,#1125);
#928=LINE('',#2233,#1126);
#929=LINE('',#2239,#1127);
#930=LINE('',#2241,#1128);
#931=LINE('',#2253,#1129);
#932=LINE('',#2255,#1130);
#933=LINE('',#2257,#1131);
#934=LINE('',#2259,#1132);
#935=LINE('',#2261,#1133);
#936=LINE('',#2263,#1134);
#937=LINE('',#2265,#1135);
#938=LINE('',#2267,#1136);
#939=LINE('',#2270,#1137);
#940=LINE('',#2272,#1138);
#941=LINE('',#2274,#1139);
#942=LINE('',#2276,#1140);
#943=LINE('',#2278,#1141);
#944=LINE('',#2280,#1142);
#945=LINE('',#2282,#1143);
#946=LINE('',#2284,#1144);
#947=VECTOR('',#1535,1.);
#948=VECTOR('',#1536,1.);
#949=VECTOR('',#1537,1.);
#950=VECTOR('',#1538,1.);
#951=VECTOR('',#1539,1.);
#952=VECTOR('',#1540,1.);
#953=VECTOR('',#1543,1.);
#954=VECTOR('',#1544,1.);
#955=VECTOR('',#1545,1.);
#956=VECTOR('',#1546,1.);
#957=VECTOR('',#1547,1.);
#958=VECTOR('',#1548,1.);
#959=VECTOR('',#1551,1.);
#960=VECTOR('',#1552,1.);
#961=VECTOR('',#1553,1.);
#962=VECTOR('',#1554,1.);
#963=VECTOR('',#1555,1.);
#964=VECTOR('',#1556,1.);
#965=VECTOR('',#1559,1.);
#966=VECTOR('',#1560,1.);
#967=VECTOR('',#1561,1.);
#968=VECTOR('',#1562,1.);
#969=VECTOR('',#1563,1.);
#970=VECTOR('',#1564,1.);
#971=VECTOR('',#1567,1.);
#972=VECTOR('',#1568,1.);
#973=VECTOR('',#1569,1.);
#974=VECTOR('',#1570,1.);
#975=VECTOR('',#1571,1.);
#976=VECTOR('',#1574,1.);
#977=VECTOR('',#1575,1.);
#978=VECTOR('',#1576,1.);
#979=VECTOR('',#1579,1.);
#980=VECTOR('',#1580,1.);
#981=VECTOR('',#1583,1.);
#982=VECTOR('',#1584,1.);
#983=VECTOR('',#1585,1.);
#984=VECTOR('',#1588,1.);
#985=VECTOR('',#1589,1.);
#986=VECTOR('',#1590,1.);
#987=VECTOR('',#1593,1.);
#988=VECTOR('',#1594,1.);
#989=VECTOR('',#1595,1.);
#990=VECTOR('',#1596,1.);
#991=VECTOR('',#1599,1.);
#992=VECTOR('',#1600,1.);
#993=VECTOR('',#1601,1.);
#994=VECTOR('',#1604,1.);
#995=VECTOR('',#1605,1.);
#996=VECTOR('',#1606,1.);
#997=VECTOR('',#1609,1.);
#998=VECTOR('',#1610,1.);
#999=VECTOR('',#1611,1.);
#1000=VECTOR('',#1612,1.);
#1001=VECTOR('',#1615,1.);
#1002=VECTOR('',#1616,1.);
#1003=VECTOR('',#1617,1.);
#1004=VECTOR('',#1618,1.);
#1005=VECTOR('',#1619,1.);
#1006=VECTOR('',#1622,1.);
#1007=VECTOR('',#1623,1.);
#1008=VECTOR('',#1624,1.);
#1009=VECTOR('',#1627,1.);
#1010=VECTOR('',#1628,1.);
#1011=VECTOR('',#1631,1.);
#1012=VECTOR('',#1632,1.);
#1013=VECTOR('',#1633,1.);
#1014=VECTOR('',#1634,1.);
#1015=VECTOR('',#1635,1.);
#1016=VECTOR('',#1636,1.);
#1017=VECTOR('',#1639,1.);
#1018=VECTOR('',#1640,1.);
#1019=VECTOR('',#1641,1.);
#1020=VECTOR('',#1642,1.);
#1021=VECTOR('',#1643,1.);
#1022=VECTOR('',#1644,1.);
#1023=VECTOR('',#1647,1.);
#1024=VECTOR('',#1648,1.);
#1025=VECTOR('',#1651,1.);
#1026=VECTOR('',#1652,1.);
#1027=VECTOR('',#1655,1.);
#1028=VECTOR('',#1656,1.);
#1029=VECTOR('',#1657,1.);
#1030=VECTOR('',#1658,1.);
#1031=VECTOR('',#1659,1.);
#1032=VECTOR('',#1660,1.);
#1033=VECTOR('',#1663,1.);
#1034=VECTOR('',#1664,1.);
#1035=VECTOR('',#1665,1.);
#1036=VECTOR('',#1666,1.);
#1037=VECTOR('',#1667,1.);
#1038=VECTOR('',#1670,1.);
#1039=VECTOR('',#1671,1.);
#1040=VECTOR('',#1672,1.);
#1041=VECTOR('',#1673,1.);
#1042=VECTOR('',#1674,1.);
#1043=VECTOR('',#1675,1.);
#1044=VECTOR('',#1676,1.);
#1045=VECTOR('',#1677,1.);
#1046=VECTOR('',#1678,1.);
#1047=VECTOR('',#1679,1.);
#1048=VECTOR('',#1680,1.);
#1049=VECTOR('',#1681,1.);
#1050=VECTOR('',#1682,1.);
#1051=VECTOR('',#1683,1.);
#1052=VECTOR('',#1684,1.);
#1053=VECTOR('',#1687,1.);
#1054=VECTOR('',#1688,1.);
#1055=VECTOR('',#1689,1.);
#1056=VECTOR('',#1690,1.);
#1057=VECTOR('',#1691,1.);
#1058=VECTOR('',#1692,1.);
#1059=VECTOR('',#1695,1.);
#1060=VECTOR('',#1696,1.);
#1061=VECTOR('',#1697,1.);
#1062=VECTOR('',#1698,1.);
#1063=VECTOR('',#1699,1.);
#1064=VECTOR('',#1700,1.);
#1065=VECTOR('',#1701,1.);
#1066=VECTOR('',#1702,1.);
#1067=VECTOR('',#1703,1.);
#1068=VECTOR('',#1706,1.);
#1069=VECTOR('',#1707,1.);
#1070=VECTOR('',#1708,1.);
#1071=VECTOR('',#1709,1.);
#1072=VECTOR('',#1710,1.);
#1073=VECTOR('',#1711,1.);
#1074=VECTOR('',#1712,1.);
#1075=VECTOR('',#1713,1.);
#1076=VECTOR('',#1714,1.);
#1077=VECTOR('',#1715,1.);
#1078=VECTOR('',#1716,1.);
#1079=VECTOR('',#1717,1.);
#1080=VECTOR('',#1718,1.);
#1081=VECTOR('',#1719,1.);
#1082=VECTOR('',#1722,1.);
#1083=VECTOR('',#1723,1.);
#1084=VECTOR('',#1724,1.);
#1085=VECTOR('',#1725,1.);
#1086=VECTOR('',#1728,1.);
#1087=VECTOR('',#1729,1.);
#1088=VECTOR('',#1730,1.);
#1089=VECTOR('',#1731,1.);
#1090=VECTOR('',#1732,1.);
#1091=VECTOR('',#1733,1.);
#1092=VECTOR('',#1734,1.);
#1093=VECTOR('',#1735,1.);
#1094=VECTOR('',#1736,1.);
#1095=VECTOR('',#1737,1.);
#1096=VECTOR('',#1738,1.);
#1097=VECTOR('',#1739,1.);
#1098=VECTOR('',#1740,1.);
#1099=VECTOR('',#1741,1.);
#1100=VECTOR('',#1742,1.);
#1101=VECTOR('',#1743,1.);
#1102=VECTOR('',#1750,1.);
#1103=VECTOR('',#1751,1.);
#1104=VECTOR('',#1754,1.);
#1105=VECTOR('',#1759,1.);
#1106=VECTOR('',#1760,1.);
#1107=VECTOR('',#1763,1.);
#1108=VECTOR('',#1764,1.);
#1109=VECTOR('',#1767,1.);
#1110=VECTOR('',#1772,1.);
#1111=VECTOR('',#1773,1.);
#1112=VECTOR('',#1776,1.);
#1113=VECTOR('',#1777,1.);
#1114=VECTOR('',#1780,1.);
#1115=VECTOR('',#1785,1.);
#1116=VECTOR('',#1786,1.);
#1117=VECTOR('',#1789,1.);
#1118=VECTOR('',#1794,1.);
#1119=VECTOR('',#1795,1.);
#1120=VECTOR('',#1798,1.);
#1121=VECTOR('',#1799,1.);
#1122=VECTOR('',#1800,1.);
#1123=VECTOR('',#1801,1.);
#1124=VECTOR('',#1804,1.);
#1125=VECTOR('',#1807,1.);
#1126=VECTOR('',#1810,1.);
#1127=VECTOR('',#1819,1.);
#1128=VECTOR('',#1822,1.);
#1129=VECTOR('',#1845,1.);
#1130=VECTOR('',#1846,1.);
#1131=VECTOR('',#1847,1.);
#1132=VECTOR('',#1850,1.);
#1133=VECTOR('',#1851,1.);
#1134=VECTOR('',#1854,1.);
#1135=VECTOR('',#1855,1.);
#1136=VECTOR('',#1858,1.);
#1137=VECTOR('',#1863,1.);
#1138=VECTOR('',#1864,1.);
#1139=VECTOR('',#1865,1.);
#1140=VECTOR('',#1868,1.);
#1141=VECTOR('',#1869,1.);
#1142=VECTOR('',#1872,1.);
#1143=VECTOR('',#1873,1.);
#1144=VECTOR('',#1876,1.);
#1145=EDGE_LOOP('',(#15,#16,#17,#18,#19,#20));
#1146=EDGE_LOOP('',(#21,#22,#23,#24,#25,#26));
#1147=EDGE_LOOP('',(#27,#28,#29,#30,#31,#32));
#1148=EDGE_LOOP('',(#33,#34,#35,#36,#37,#38));
#1149=EDGE_LOOP('',(#39,#40,#41,#42,#43,#44));
#1150=EDGE_LOOP('',(#45,#46,#47,#48));
#1151=EDGE_LOOP('',(#49,#50,#51,#52));
#1152=EDGE_LOOP('',(#53,#54,#55,#56));
#1153=EDGE_LOOP('',(#57,#58,#59,#60));
#1154=EDGE_LOOP('',(#61,#62,#63,#64,#65,#66));
#1155=EDGE_LOOP('',(#67,#68,#69,#70));
#1156=EDGE_LOOP('',(#71,#72,#73,#74));
#1157=EDGE_LOOP('',(#75,#76,#77,#78,#79,#80));
#1158=EDGE_LOOP('',(#81,#82,#83,#84,#85,#86));
#1159=EDGE_LOOP('',(#87,#88,#89,#90));
#1160=EDGE_LOOP('',(#91,#92,#93,#94));
#1161=EDGE_LOOP('',(#95,#96,#97,#98,#99,#100));
#1162=EDGE_LOOP('',(#101,#102,#103,#104,#105,#106));
#1163=EDGE_LOOP('',(#107,#108,#109,#110));
#1164=EDGE_LOOP('',(#111,#112,#113,#114));
#1165=EDGE_LOOP('',(#115,#116,#117,#118,#119,#120,#121,#122,#123,#124));
#1166=EDGE_LOOP('',(#125,#126,#127,#128,#129,#130,#131,#132,#133,#134,#135,
#136,#137,#138,#139,#140));
#1167=EDGE_LOOP('',(#141,#142,#143,#144));
#1168=EDGE_LOOP('',(#145,#146,#147,#148));
#1169=EDGE_LOOP('',(#149,#150,#151,#152,#153,#154,#155,#156,#157,#158,#159,
#160,#161,#162,#163,#164,#165,#166,#167,#168));
#1170=EDGE_LOOP('',(#169,#170,#171,#172));
#1171=EDGE_LOOP('',(#173,#174,#175,#176));
#1172=EDGE_LOOP('',(#177,#178,#179,#180,#181,#182,#183,#184,#185,#186));
#1173=EDGE_LOOP('',(#187,#188,#189,#190,#191,#192,#193,#194,#195,#196,#197,
#198,#199,#200,#201,#202));
#1174=EDGE_LOOP('',(#203,#204,#205,#206,#207,#208));
#1175=EDGE_LOOP('',(#209,#210,#211,#212,#213,#214,#215,#216,#217,#218,#219,
#220,#221,#222,#223,#224,#225,#226,#227,#228,#229,#230));
#1176=EDGE_LOOP('',(#231));
#1177=EDGE_LOOP('',(#232,#233,#234,#235));
#1178=EDGE_LOOP('',(#236,#237,#238,#239));
#1179=EDGE_LOOP('',(#240,#241,#242,#243));
#1180=EDGE_LOOP('',(#244,#245,#246,#247));
#1181=EDGE_LOOP('',(#248,#249,#250,#251));
#1182=EDGE_LOOP('',(#252,#253,#254,#255));
#1183=EDGE_LOOP('',(#256,#257,#258,#259));
#1184=EDGE_LOOP('',(#260,#261,#262,#263));
#1185=EDGE_LOOP('',(#264,#265,#266,#267));
#1186=EDGE_LOOP('',(#268,#269,#270,#271));
#1187=EDGE_LOOP('',(#272,#273,#274,#275));
#1188=EDGE_LOOP('',(#276,#277,#278,#279));
#1189=EDGE_LOOP('',(#280,#281,#282,#283));
#1190=EDGE_LOOP('',(#284,#285,#286,#287));
#1191=EDGE_LOOP('',(#288,#289,#290,#291));
#1192=EDGE_LOOP('',(#292,#293,#294,#295));
#1193=EDGE_LOOP('',(#296,#297,#298,#299,#300,#301));
#1194=EDGE_LOOP('',(#302,#303,#304,#305));
#1195=EDGE_LOOP('',(#306,#307,#308,#309));
#1196=EDGE_LOOP('',(#310,#311,#312,#313));
#1197=EDGE_LOOP('',(#314,#315,#316,#317));
#1198=EDGE_LOOP('',(#318));
#1199=EDGE_LOOP('',(#319));
#1200=EDGE_LOOP('',(#320));
#1201=EDGE_LOOP('',(#321,#322,#323,#324));
#1202=EDGE_LOOP('',(#325,#326,#327,#328,#329,#330));
#1203=EDGE_LOOP('',(#331,#332,#333,#334,#335,#336));
#1204=EDGE_LOOP('',(#337,#338,#339,#340));
#1205=EDGE_LOOP('',(#341,#342,#343,#344));
#1206=EDGE_LOOP('',(#345,#346,#347,#348,#349,#350));
#1207=EDGE_LOOP('',(#351,#352,#353,#354));
#1208=EDGE_LOOP('',(#355,#356,#357,#358));
#1209=EDGE_LOOP('',(#359,#360,#361,#362));
#1210=EDGE_LOOP('',(#363,#364,#365,#366));
#1211=EDGE_LOOP('',(#367,#368,#369,#370));
#1212=EDGE_LOOP('',(#371,#372,#373,#374));
#1213=EDGE_LOOP('',(#375,#376,#377,#378));
#1214=EDGE_LOOP('',(#379,#380,#381,#382));
#1215=EDGE_LOOP('',(#383,#384,#385,#386));
#1216=EDGE_LOOP('',(#387,#388,#389,#390));
#1217=EDGE_LOOP('',(#391,#392,#393,#394));
#1218=EDGE_LOOP('',(#395,#396,#397,#398));
#1219=EDGE_LOOP('',(#399,#400,#401,#402));
#1220=EDGE_LOOP('',(#403,#404,#405,#406));
#1221=EDGE_LOOP('',(#407,#408,#409,#410));
#1222=EDGE_LOOP('',(#411,#412,#413,#414));
#1223=FACE_BOUND('',#1145,.T.);
#1224=FACE_BOUND('',#1146,.T.);
#1225=FACE_BOUND('',#1147,.T.);
#1226=FACE_BOUND('',#1148,.T.);
#1227=FACE_BOUND('',#1149,.T.);
#1228=FACE_BOUND('',#1150,.T.);
#1229=FACE_BOUND('',#1151,.T.);
#1230=FACE_BOUND('',#1152,.T.);
#1231=FACE_BOUND('',#1153,.T.);
#1232=FACE_BOUND('',#1154,.T.);
#1233=FACE_BOUND('',#1155,.T.);
#1234=FACE_BOUND('',#1156,.T.);
#1235=FACE_BOUND('',#1157,.T.);
#1236=FACE_BOUND('',#1158,.T.);
#1237=FACE_BOUND('',#1159,.T.);
#1238=FACE_BOUND('',#1160,.T.);
#1239=FACE_BOUND('',#1161,.T.);
#1240=FACE_BOUND('',#1162,.T.);
#1241=FACE_BOUND('',#1163,.T.);
#1242=FACE_BOUND('',#1164,.T.);
#1243=FACE_BOUND('',#1165,.T.);
#1244=FACE_BOUND('',#1166,.T.);
#1245=FACE_BOUND('',#1167,.T.);
#1246=FACE_BOUND('',#1168,.T.);
#1247=FACE_BOUND('',#1169,.T.);
#1248=FACE_BOUND('',#1170,.T.);
#1249=FACE_BOUND('',#1171,.T.);
#1250=FACE_BOUND('',#1172,.T.);
#1251=FACE_BOUND('',#1173,.T.);
#1252=FACE_BOUND('',#1174,.T.);
#1253=FACE_BOUND('',#1175,.T.);
#1254=FACE_BOUND('',#1176,.T.);
#1255=FACE_BOUND('',#1177,.T.);
#1256=FACE_BOUND('',#1178,.T.);
#1257=FACE_BOUND('',#1179,.T.);
#1258=FACE_BOUND('',#1180,.T.);
#1259=FACE_BOUND('',#1181,.T.);
#1260=FACE_BOUND('',#1182,.T.);
#1261=FACE_BOUND('',#1183,.T.);
#1262=FACE_BOUND('',#1184,.T.);
#1263=FACE_BOUND('',#1185,.T.);
#1264=FACE_BOUND('',#1186,.T.);
#1265=FACE_BOUND('',#1187,.T.);
#1266=FACE_BOUND('',#1188,.T.);
#1267=FACE_BOUND('',#1189,.T.);
#1268=FACE_BOUND('',#1190,.T.);
#1269=FACE_BOUND('',#1191,.T.);
#1270=FACE_BOUND('',#1192,.T.);
#1271=FACE_BOUND('',#1193,.T.);
#1272=FACE_BOUND('',#1194,.T.);
#1273=FACE_BOUND('',#1195,.T.);
#1274=FACE_BOUND('',#1196,.T.);
#1275=FACE_BOUND('',#1197,.T.);
#1276=FACE_BOUND('',#1198,.T.);
#1277=FACE_BOUND('',#1199,.T.);
#1278=FACE_BOUND('',#1200,.T.);
#1279=FACE_BOUND('',#1201,.T.);
#1280=FACE_BOUND('',#1202,.T.);
#1281=FACE_BOUND('',#1203,.T.);
#1282=FACE_BOUND('',#1204,.T.);
#1283=FACE_BOUND('',#1205,.T.);
#1284=FACE_BOUND('',#1206,.T.);
#1285=FACE_BOUND('',#1207,.T.);
#1286=FACE_BOUND('',#1208,.T.);
#1287=FACE_BOUND('',#1209,.T.);
#1288=FACE_BOUND('',#1210,.T.);
#1289=FACE_BOUND('',#1211,.T.);
#1290=FACE_BOUND('',#1212,.T.);
#1291=FACE_BOUND('',#1213,.T.);
#1292=FACE_BOUND('',#1214,.T.);
#1293=FACE_BOUND('',#1215,.T.);
#1294=FACE_BOUND('',#1216,.T.);
#1295=FACE_BOUND('',#1217,.T.);
#1296=FACE_BOUND('',#1218,.T.);
#1297=FACE_BOUND('',#1219,.T.);
#1298=FACE_BOUND('',#1220,.T.);
#1299=FACE_BOUND('',#1221,.T.);
#1300=FACE_BOUND('',#1222,.T.);
#1301=PLANE('',#1457);
#1302=PLANE('',#1458);
#1303=PLANE('',#1459);
#1304=PLANE('',#1460);
#1305=PLANE('',#1461);
#1306=PLANE('',#1462);
#1307=PLANE('',#1463);
#1308=PLANE('',#1464);
#1309=PLANE('',#1465);
#1310=PLANE('',#1466);
#1311=PLANE('',#1467);
#1312=PLANE('',#1468);
#1313=PLANE('',#1469);
#1314=PLANE('',#1470);
#1315=PLANE('',#1471);
#1316=PLANE('',#1472);
#1317=PLANE('',#1473);
#1318=PLANE('',#1474);
#1319=PLANE('',#1475);
#1320=PLANE('',#1476);
#1321=PLANE('',#1477);
#1322=PLANE('',#1478);
#1323=PLANE('',#1479);
#1324=PLANE('',#1480);
#1325=PLANE('',#1481);
#1326=PLANE('',#1482);
#1327=PLANE('',#1483);
#1328=PLANE('',#1484);
#1329=PLANE('',#1485);
#1330=PLANE('',#1487);
#1331=PLANE('',#1488);
#1332=PLANE('',#1489);
#1333=PLANE('',#1490);
#1334=PLANE('',#1491);
#1335=PLANE('',#1492);
#1336=PLANE('',#1493);
#1337=PLANE('',#1494);
#1338=PLANE('',#1495);
#1339=PLANE('',#1496);
#1340=PLANE('',#1497);
#1341=PLANE('',#1498);
#1342=PLANE('',#1499);
#1343=PLANE('',#1500);
#1344=PLANE('',#1501);
#1345=PLANE('',#1502);
#1346=PLANE('',#1503);
#1347=PLANE('',#1504);
#1348=PLANE('',#1505);
#1349=PLANE('',#1506);
#1350=PLANE('',#1509);
#1351=PLANE('',#1510);
#1352=PLANE('',#1511);
#1353=PLANE('',#1512);
#1354=PLANE('',#1513);
#1355=PLANE('',#1514);
#1356=PLANE('',#1515);
#1357=PLANE('',#1516);
#1358=PLANE('',#1517);
#1359=PLANE('',#1518);
#1360=PLANE('',#1519);
#1361=PLANE('',#1520);
#1362=PLANE('',#1521);
#1363=PLANE('',#1522);
#1364=PLANE('',#1523);
#1365=PLANE('',#1524);
#1366=PLANE('',#1525);
#1367=PLANE('',#1526);
#1368=PLANE('',#1527);
#1369=PLANE('',#1528);
#1370=PLANE('',#1529);
#1371=PLANE('',#1530);
#1372=ADVANCED_FACE('',(#1223),#1301,.F.);
#1373=ADVANCED_FACE('',(#1224),#1302,.F.);
#1374=ADVANCED_FACE('',(#1225),#1303,.F.);
#1375=ADVANCED_FACE('',(#1226),#1304,.F.);
#1376=ADVANCED_FACE('',(#1227),#1305,.T.);
#1377=ADVANCED_FACE('',(#1228),#1306,.F.);
#1378=ADVANCED_FACE('',(#1229),#1307,.T.);
#1379=ADVANCED_FACE('',(#1230),#1308,.T.);
#1380=ADVANCED_FACE('',(#1231),#1309,.F.);
#1381=ADVANCED_FACE('',(#1232),#1310,.T.);
#1382=ADVANCED_FACE('',(#1233),#1311,.T.);
#1383=ADVANCED_FACE('',(#1234),#1312,.F.);
#1384=ADVANCED_FACE('',(#1235),#1313,.T.);
#1385=ADVANCED_FACE('',(#1236),#1314,.T.);
#1386=ADVANCED_FACE('',(#1237),#1315,.F.);
#1387=ADVANCED_FACE('',(#1238),#1316,.T.);
#1388=ADVANCED_FACE('',(#1239),#1317,.F.);
#1389=ADVANCED_FACE('',(#1240),#1318,.T.);
#1390=ADVANCED_FACE('',(#1241),#1319,.F.);
#1391=ADVANCED_FACE('',(#1242),#1320,.T.);
#1392=ADVANCED_FACE('',(#1243),#1321,.T.);
#1393=ADVANCED_FACE('',(#1244),#1322,.T.);
#1394=ADVANCED_FACE('',(#1245,#1246,#1247),#1323,.T.);
#1395=ADVANCED_FACE('',(#1248,#1249),#1324,.T.);
#1396=ADVANCED_FACE('',(#1250),#1325,.T.);
#1397=ADVANCED_FACE('',(#1251),#1326,.T.);
#1398=ADVANCED_FACE('',(#1252),#1327,.F.);
#1399=ADVANCED_FACE('',(#1253),#1328,.F.);
#1400=ADVANCED_FACE('',(#1254,#1255),#1329,.F.);
#1401=ADVANCED_FACE('',(#1256),#1330,.T.);
#1402=ADVANCED_FACE('',(#1257),#1331,.T.);
#1403=ADVANCED_FACE('',(#1258),#1332,.T.);
#1404=ADVANCED_FACE('',(#1259),#1333,.T.);
#1405=ADVANCED_FACE('',(#1260),#1334,.F.);
#1406=ADVANCED_FACE('',(#1261),#1335,.T.);
#1407=ADVANCED_FACE('',(#1262),#1336,.T.);
#1408=ADVANCED_FACE('',(#1263),#1337,.T.);
#1409=ADVANCED_FACE('',(#1264),#1338,.F.);
#1410=ADVANCED_FACE('',(#1265),#1339,.T.);
#1411=ADVANCED_FACE('',(#1266),#1340,.T.);
#1412=ADVANCED_FACE('',(#1267),#1341,.T.);
#1413=ADVANCED_FACE('',(#1268),#1342,.F.);
#1414=ADVANCED_FACE('',(#1269),#1343,.T.);
#1415=ADVANCED_FACE('',(#1270),#1344,.F.);
#1416=ADVANCED_FACE('',(#1271),#1345,.F.);
#1417=ADVANCED_FACE('',(#1272),#1346,.T.);
#1418=ADVANCED_FACE('',(#1273),#1347,.T.);
#1419=ADVANCED_FACE('',(#1274),#1348,.F.);
#1420=ADVANCED_FACE('',(#1275),#1349,.T.);
#1421=ADVANCED_FACE('',(#1276,#1277),#12,.F.);
#1422=ADVANCED_FACE('',(#1278,#1279),#1350,.F.);
#1423=ADVANCED_FACE('',(#1280),#1351,.F.);
#1424=ADVANCED_FACE('',(#1281),#1352,.T.);
#1425=ADVANCED_FACE('',(#1282),#1353,.T.);
#1426=ADVANCED_FACE('',(#1283),#1354,.T.);
#1427=ADVANCED_FACE('',(#1284),#1355,.T.);
#1428=ADVANCED_FACE('',(#1285),#1356,.T.);
#1429=ADVANCED_FACE('',(#1286),#1357,.F.);
#1430=ADVANCED_FACE('',(#1287),#1358,.F.);
#1431=ADVANCED_FACE('',(#1288),#1359,.F.);
#1432=ADVANCED_FACE('',(#1289),#1360,.F.);
#1433=ADVANCED_FACE('',(#1290),#1361,.F.);
#1434=ADVANCED_FACE('',(#1291),#1362,.T.);
#1435=ADVANCED_FACE('',(#1292),#1363,.F.);
#1436=ADVANCED_FACE('',(#1293),#1364,.F.);
#1437=ADVANCED_FACE('',(#1294),#1365,.T.);
#1438=ADVANCED_FACE('',(#1295),#1366,.T.);
#1439=ADVANCED_FACE('',(#1296),#1367,.T.);
#1440=ADVANCED_FACE('',(#1297),#1368,.F.);
#1441=ADVANCED_FACE('',(#1298),#1369,.F.);
#1442=ADVANCED_FACE('',(#1299),#1370,.T.);
#1443=ADVANCED_FACE('',(#1300),#1371,.T.);
#1444=CLOSED_SHELL('',(#1372,#1373,#1374,#1375,#1376,#1377,#1378,#1379,
#1380,#1381,#1382,#1383,#1384,#1385,#1386,#1387,#1388,#1389,#1390,#1391,
#1392,#1393,#1394,#1395,#1396,#1397,#1398,#1399,#1400,#1401,#1402,#1403,
#1404,#1405,#1406,#1407,#1408,#1409,#1410,#1411,#1412,#1413,#1414,#1415,
#1416,#1417,#1418,#1419,#1420,#1421,#1422,#1423,#1424,#1425,#1426,#1427,
#1428,#1429,#1430,#1431,#1432,#1433,#1434,#1435,#1436,#1437,#1438,#1439,
#1440,#1441,#1442,#1443));
#1445=STYLED_ITEM('',(#1446),#1453);
#1446=PRESENTATION_STYLE_ASSIGNMENT((#1447));
#1447=SURFACE_STYLE_USAGE(.BOTH.,#1448);
#1448=SURFACE_SIDE_STYLE('',(#1449));
#1449=SURFACE_STYLE_FILL_AREA(#1450);
#1450=FILL_AREA_STYLE('',(#1451));
#1451=FILL_AREA_STYLE_COLOUR('',#1452);
#1452=COLOUR_RGB('',0.615686274509804,0.811764705882353,0.929411764705882);
#1453=MANIFOLD_SOLID_BREP('Part 1',#1444);
#1454=SHAPE_DEFINITION_REPRESENTATION(#2292,#1455);
#1455=SHAPE_REPRESENTATION('Part 1',(#1456),#2287);
#1456=AXIS2_PLACEMENT_3D('',#1879,#1531,#1532);
#1457=AXIS2_PLACEMENT_3D('',#1880,#1533,#1534);
#1458=AXIS2_PLACEMENT_3D('',#1893,#1541,#1542);
#1459=AXIS2_PLACEMENT_3D('',#1906,#1549,#1550);
#1460=AXIS2_PLACEMENT_3D('',#1919,#1557,#1558);
#1461=AXIS2_PLACEMENT_3D('',#1932,#1565,#1566);
#1462=AXIS2_PLACEMENT_3D('',#1942,#1572,#1573);
#1463=AXIS2_PLACEMENT_3D('',#1948,#1577,#1578);
#1464=AXIS2_PLACEMENT_3D('',#1951,#1581,#1582);
#1465=AXIS2_PLACEMENT_3D('',#1957,#1586,#1587);
#1466=AXIS2_PLACEMENT_3D('',#1963,#1591,#1592);
#1467=AXIS2_PLACEMENT_3D('',#1970,#1597,#1598);
#1468=AXIS2_PLACEMENT_3D('',#1976,#1602,#1603);
#1469=AXIS2_PLACEMENT_3D('',#1982,#1607,#1608);
#1470=AXIS2_PLACEMENT_3D('',#1989,#1613,#1614);
#1471=AXIS2_PLACEMENT_3D('',#1999,#1620,#1621);
#1472=AXIS2_PLACEMENT_3D('',#2005,#1625,#1626);
#1473=AXIS2_PLACEMENT_3D('',#2008,#1629,#1630);
#1474=AXIS2_PLACEMENT_3D('',#2021,#1637,#1638);
#1475=AXIS2_PLACEMENT_3D('',#2034,#1645,#1646);
#1476=AXIS2_PLACEMENT_3D('',#2037,#1649,#1650);
#1477=AXIS2_PLACEMENT_3D('',#2040,#1653,#1654);
#1478=AXIS2_PLACEMENT_3D('',#2051,#1661,#1662);
#1479=AXIS2_PLACEMENT_3D('',#2058,#1668,#1669);
#1480=AXIS2_PLACEMENT_3D('',#2084,#1685,#1686);
#1481=AXIS2_PLACEMENT_3D('',#2096,#1693,#1694);
#1482=AXIS2_PLACEMENT_3D('',#2114,#1704,#1705);
#1483=AXIS2_PLACEMENT_3D('',#2142,#1720,#1721);
#1484=AXIS2_PLACEMENT_3D('',#2150,#1726,#1727);
#1485=AXIS2_PLACEMENT_3D('',#2177,#1744,#1745);
#1486=AXIS2_PLACEMENT_3D('',#2178,#1746,#1747);
#1487=AXIS2_PLACEMENT_3D('',#2180,#1748,#1749);
#1488=AXIS2_PLACEMENT_3D('',#2184,#1752,#1753);
#1489=AXIS2_PLACEMENT_3D('',#2186,#1755,#1756);
#1490=AXIS2_PLACEMENT_3D('',#2187,#1757,#1758);
#1491=AXIS2_PLACEMENT_3D('',#2191,#1761,#1762);
#1492=AXIS2_PLACEMENT_3D('',#2195,#1765,#1766);
#1493=AXIS2_PLACEMENT_3D('',#2197,#1768,#1769);
#1494=AXIS2_PLACEMENT_3D('',#2198,#1770,#1771);
#1495=AXIS2_PLACEMENT_3D('',#2202,#1774,#1775);
#1496=AXIS2_PLACEMENT_3D('',#2206,#1778,#1779);
#1497=AXIS2_PLACEMENT_3D('',#2208,#1781,#1782);
#1498=AXIS2_PLACEMENT_3D('',#2209,#1783,#1784);
#1499=AXIS2_PLACEMENT_3D('',#2213,#1787,#1788);
#1500=AXIS2_PLACEMENT_3D('',#2215,#1790,#1791);
#1501=AXIS2_PLACEMENT_3D('',#2216,#1792,#1793);
#1502=AXIS2_PLACEMENT_3D('',#2220,#1796,#1797);
#1503=AXIS2_PLACEMENT_3D('',#2228,#1802,#1803);
#1504=AXIS2_PLACEMENT_3D('',#2230,#1805,#1806);
#1505=AXIS2_PLACEMENT_3D('',#2232,#1808,#1809);
#1506=AXIS2_PLACEMENT_3D('',#2234,#1811,#1812);
#1507=AXIS2_PLACEMENT_3D('',#2235,#1813,#1814);
#1508=AXIS2_PLACEMENT_3D('',#2236,#1815,#1816);
#1509=AXIS2_PLACEMENT_3D('',#2238,#1817,#1818);
#1510=AXIS2_PLACEMENT_3D('',#2240,#1820,#1821);
#1511=AXIS2_PLACEMENT_3D('',#2242,#1823,#1824);
#1512=AXIS2_PLACEMENT_3D('',#2243,#1825,#1826);
#1513=AXIS2_PLACEMENT_3D('',#2244,#1827,#1828);
#1514=AXIS2_PLACEMENT_3D('',#2245,#1829,#1830);
#1515=AXIS2_PLACEMENT_3D('',#2246,#1831,#1832);
#1516=AXIS2_PLACEMENT_3D('',#2247,#1833,#1834);
#1517=AXIS2_PLACEMENT_3D('',#2248,#1835,#1836);
#1518=AXIS2_PLACEMENT_3D('',#2249,#1837,#1838);
#1519=AXIS2_PLACEMENT_3D('',#2250,#1839,#1840);
#1520=AXIS2_PLACEMENT_3D('',#2251,#1841,#1842);
#1521=AXIS2_PLACEMENT_3D('',#2252,#1843,#1844);
#1522=AXIS2_PLACEMENT_3D('',#2258,#1848,#1849);
#1523=AXIS2_PLACEMENT_3D('',#2262,#1852,#1853);
#1524=AXIS2_PLACEMENT_3D('',#2266,#1856,#1857);
#1525=AXIS2_PLACEMENT_3D('',#2268,#1859,#1860);
#1526=AXIS2_PLACEMENT_3D('',#2269,#1861,#1862);
#1527=AXIS2_PLACEMENT_3D('',#2275,#1866,#1867);
#1528=AXIS2_PLACEMENT_3D('',#2279,#1870,#1871);
#1529=AXIS2_PLACEMENT_3D('',#2283,#1874,#1875);
#1530=AXIS2_PLACEMENT_3D('',#2285,#1877,#1878);
#1531=DIRECTION('',(0.,0.,1.));
#1532=DIRECTION('',(1.,0.,0.));
#1533=DIRECTION('',(1.,0.,0.));
#1534=DIRECTION('',(0.,0.,-1.));
#1535=DIRECTION('',(0.,-1.,0.));
#1536=DIRECTION('',(0.,0.,-1.));
#1537=DIRECTION('',(0.,1.,0.));
#1538=DIRECTION('',(0.,0.,-1.));
#1539=DIRECTION('',(0.,-1.,0.));
#1540=DIRECTION('',(0.,0.,-1.));
#1541=DIRECTION('',(1.,0.,0.));
#1542=DIRECTION('',(0.,0.,-1.));
#1543=DIRECTION('',(0.,-1.,0.));
#1544=DIRECTION('',(0.,0.,-1.));
#1545=DIRECTION('',(0.,1.,0.));
#1546=DIRECTION('',(0.,0.,-1.));
#1547=DIRECTION('',(0.,-1.,0.));
#1548=DIRECTION('',(0.,0.,-1.));
#1549=DIRECTION('',(0.,1.,0.));
#1550=DIRECTION('',(0.,0.,1.));
#1551=DIRECTION('',(1.,0.,0.));
#1552=DIRECTION('',(0.,0.,-1.));
#1553=DIRECTION('',(-1.,0.,0.));
#1554=DIRECTION('',(0.,0.,-1.));
#1555=DIRECTION('',(1.,0.,0.));
#1556=DIRECTION('',(0.,0.,-1.));
#1557=DIRECTION('',(1.,0.,0.));
#1558=DIRECTION('',(0.,0.,-1.));
#1559=DIRECTION('',(0.,-1.,0.));
#1560=DIRECTION('',(0.,0.,-1.));
#1561=DIRECTION('',(0.,1.,0.));
#1562=DIRECTION('',(0.,0.,-1.));
#1563=DIRECTION('',(0.,-1.,0.));
#1564=DIRECTION('',(0.,0.,-1.));
#1565=DIRECTION('',(1.,0.,0.));
#1566=DIRECTION('',(0.,0.,-1.));
#1567=DIRECTION('',(0.,-1.,0.));
#1568=DIRECTION('',(0.,0.,-1.));
#1569=DIRECTION('',(0.,-1.,0.));
#1570=DIRECTION('',(0.,0.,-1.));
#1571=DIRECTION('',(0.,1.,0.));
#1572=DIRECTION('',(1.,0.,0.));
#1573=DIRECTION('',(0.,0.,-1.));
#1574=DIRECTION('',(0.,-1.,0.));
#1575=DIRECTION('',(0.,-1.,0.));
#1576=DIRECTION('',(0.,0.,-1.));
#1577=DIRECTION('',(0.,1.,0.));
#1578=DIRECTION('',(0.,0.,1.));
#1579=DIRECTION('',(1.,0.,0.));
#1580=DIRECTION('',(1.,0.,0.));
#1581=DIRECTION('',(0.,-1.,0.));
#1582=DIRECTION('',(0.,0.,-1.));
#1583=DIRECTION('',(-1.,0.,0.));
#1584=DIRECTION('',(0.,0.,-1.));
#1585=DIRECTION('',(1.,0.,0.));
#1586=DIRECTION('',(0.,-1.,0.));
#1587=DIRECTION('',(0.,0.,-1.));
#1588=DIRECTION('',(-1.,0.,0.));
#1589=DIRECTION('',(-1.,0.,0.));
#1590=DIRECTION('',(0.,0.,-1.));
#1591=DIRECTION('',(1.,0.,0.));
#1592=DIRECTION('',(0.,0.,-1.));
#1593=DIRECTION('',(0.,-1.,0.));
#1594=DIRECTION('',(0.,-1.,0.));
#1595=DIRECTION('',(0.,0.,-1.));
#1596=DIRECTION('',(0.,1.,0.));
#1597=DIRECTION('',(0.,-1.,0.));
#1598=DIRECTION('',(0.,0.,-1.));
#1599=DIRECTION('',(-1.,0.,0.));
#1600=DIRECTION('',(0.,0.,-1.));
#1601=DIRECTION('',(1.,0.,0.));
#1602=DIRECTION('',(0.,-1.,0.));
#1603=DIRECTION('',(0.,0.,-1.));
#1604=DIRECTION('',(-1.,0.,0.));
#1605=DIRECTION('',(-1.,0.,0.));
#1606=DIRECTION('',(0.,0.,-1.));
#1607=DIRECTION('',(1.,0.,0.));
#1608=DIRECTION('',(0.,0.,-1.));
#1609=DIRECTION('',(0.,-1.,0.));
#1610=DIRECTION('',(0.,-1.,0.));
#1611=DIRECTION('',(0.,0.,-1.));
#1612=DIRECTION('',(0.,1.,0.));
#1613=DIRECTION('',(0.,-1.,0.));
#1614=DIRECTION('',(0.,0.,-1.));
#1615=DIRECTION('',(-1.,0.,0.));
#1616=DIRECTION('',(0.,0.,-1.));
#1617=DIRECTION('',(-1.,0.,0.));
#1618=DIRECTION('',(0.,0.,-1.));
#1619=DIRECTION('',(1.,0.,0.));
#1620=DIRECTION('',(0.,-1.,0.));
#1621=DIRECTION('',(0.,0.,-1.));
#1622=DIRECTION('',(-1.,0.,0.));
#1623=DIRECTION('',(-1.,0.,0.));
#1624=DIRECTION('',(0.,0.,-1.));
#1625=DIRECTION('',(1.,0.,0.));
#1626=DIRECTION('',(0.,0.,-1.));
#1627=DIRECTION('',(0.,-1.,0.));
#1628=DIRECTION('',(0.,-1.,0.));
#1629=DIRECTION('',(0.,0.,-1.));
#1630=DIRECTION('',(-1.,0.,0.));
#1631=DIRECTION('',(0.,-1.,0.));
#1632=DIRECTION('',(-1.,0.,0.));
#1633=DIRECTION('',(0.,1.,0.));
#1634=DIRECTION('',(-1.,0.,0.));
#1635=DIRECTION('',(0.,-1.,0.));
#1636=DIRECTION('',(-1.,0.,0.));
#1637=DIRECTION('',(0.,0.,-1.));
#1638=DIRECTION('',(-1.,0.,0.));
#1639=DIRECTION('',(-1.,0.,0.));
#1640=DIRECTION('',(0.,-1.,0.));
#1641=DIRECTION('',(-1.,0.,0.));
#1642=DIRECTION('',(0.,-1.,0.));
#1643=DIRECTION('',(-1.,0.,0.));
#1644=DIRECTION('',(0.,1.,0.));
#1645=DIRECTION('',(0.,1.,0.));
#1646=DIRECTION('',(0.,0.,1.));
#1647=DIRECTION('',(0.,0.,-1.));
#1648=DIRECTION('',(0.,0.,1.));
#1649=DIRECTION('',(0.,1.,0.));
#1650=DIRECTION('',(0.,0.,1.));
#1651=DIRECTION('',(0.,0.,-1.));
#1652=DIRECTION('',(0.,0.,-1.));
#1653=DIRECTION('',(-1.,0.,0.));
#1654=DIRECTION('',(0.,0.,1.));
#1655=DIRECTION('',(0.,0.,1.));
#1656=DIRECTION('',(0.,1.,0.));
#1657=DIRECTION('',(0.,1.,0.));
#1658=DIRECTION('',(0.,0.,1.));
#1659=DIRECTION('',(0.,1.,0.));
#1660=DIRECTION('',(0.,0.,1.));
#1661=DIRECTION('',(0.,0.,-1.));
#1662=DIRECTION('',(-1.,0.,0.));
#1663=DIRECTION('',(-1.,0.,0.));
#1664=DIRECTION('',(-1.,0.,0.));
#1665=DIRECTION('',(-1.,0.,0.));
#1666=DIRECTION('',(0.,1.,0.));
#1667=DIRECTION('',(-1.,0.,0.));
#1668=DIRECTION('',(0.,1.,0.));
#1669=DIRECTION('',(-1.,0.,0.));
#1670=DIRECTION('',(1.,0.,0.));
#1671=DIRECTION('',(0.,0.,1.));
#1672=DIRECTION('',(1.,0.,0.));
#1673=DIRECTION('',(0.,0.,1.));
#1674=DIRECTION('',(-1.,0.,0.));
#1675=DIRECTION('',(0.,0.,-1.));
#1676=DIRECTION('',(-1.,0.,0.));
#1677=DIRECTION('',(0.,0.,-1.));
#1678=DIRECTION('',(0.,0.,-1.));
#1679=DIRECTION('',(-1.,0.,0.));
#1680=DIRECTION('',(0.,0.,1.));
#1681=DIRECTION('',(1.,0.,0.));
#1682=DIRECTION('',(1.,0.,0.));
#1683=DIRECTION('',(1.,0.,0.));
#1684=DIRECTION('',(1.,0.,0.));
#1685=DIRECTION('',(0.,1.,0.));
#1686=DIRECTION('',(0.,0.,1.));
#1687=DIRECTION('',(1.,0.,0.));
#1688=DIRECTION('',(0.,0.,-1.));
#1689=DIRECTION('',(1.,0.,0.));
#1690=DIRECTION('',(0.,0.,-1.));
#1691=DIRECTION('',(-1.,0.,0.));
#1692=DIRECTION('',(0.,0.,1.));
#1693=DIRECTION('',(1.,0.,0.));
#1694=DIRECTION('',(0.,0.,-1.));
#1695=DIRECTION('',(0.,0.,-1.));
#1696=DIRECTION('',(0.,1.,0.));
#1697=DIRECTION('',(0.,0.,1.));
#1698=DIRECTION('',(0.,1.,0.));
#1699=DIRECTION('',(0.,0.,-1.));
#1700=DIRECTION('',(0.,-1.,0.));
#1701=DIRECTION('',(0.,-1.,0.));
#1702=DIRECTION('',(0.,0.,-1.));
#1703=DIRECTION('',(0.,-1.,0.));
#1704=DIRECTION('',(0.,0.,1.));
#1705=DIRECTION('',(1.,0.,0.));
#1706=DIRECTION('',(0.,-1.,0.));
#1707=DIRECTION('',(1.,0.,0.));
#1708=DIRECTION('',(-3.60705617193659E-16,1.,0.));
#1709=DIRECTION('',(1.,0.,0.));
#1710=DIRECTION('',(0.,1.,0.));
#1711=DIRECTION('',(1.,0.,0.));
#1712=DIRECTION('',(0.,1.,0.));
#1713=DIRECTION('',(1.,0.,0.));
#1714=DIRECTION('',(-1.85059088449815E-16,1.,0.));
#1715=DIRECTION('',(1.,0.,0.));
#1716=DIRECTION('',(0.,1.,0.));
#1717=DIRECTION('',(1.,0.,0.));
#1718=DIRECTION('',(0.,1.,0.));
#1719=DIRECTION('',(1.,0.,0.));
#1720=DIRECTION('',(1.,0.,0.));
#1721=DIRECTION('',(0.,0.,-1.));
#1722=DIRECTION('',(0.,0.,-1.));
#1723=DIRECTION('',(0.,-1.,0.));
#1724=DIRECTION('',(0.,0.,-1.));
#1725=DIRECTION('',(0.,-1.,0.));
#1726=DIRECTION('',(0.,1.,0.));
#1727=DIRECTION('',(0.,0.,1.));
#1728=DIRECTION('',(0.,0.,-1.));
#1729=DIRECTION('',(0.,0.,-1.));
#1730=DIRECTION('',(1.,0.,0.));
#1731=DIRECTION('',(0.,0.,-1.));
#1732=DIRECTION('',(0.,0.,-1.));
#1733=DIRECTION('',(1.,0.,0.));
#1734=DIRECTION('',(1.,0.,0.));
#1735=DIRECTION('',(-1.,0.,0.));
#1736=DIRECTION('',(0.,0.,-1.));
#1737=DIRECTION('',(-1.,0.,0.));
#1738=DIRECTION('',(0.,0.,-1.));
#1739=DIRECTION('',(-1.,0.,0.));
#1740=DIRECTION('',(1.,0.,0.));
#1741=DIRECTION('',(0.,0.,-1.));
#1742=DIRECTION('',(0.,0.,-1.));
#1743=DIRECTION('',(1.,0.,0.));
#1744=DIRECTION('',(0.,0.,1.));
#1745=DIRECTION('',(1.,0.,0.));
#1746=DIRECTION('',(0.,0.,1.));
#1747=DIRECTION('',(1.,0.,0.));
#1748=DIRECTION('',(0.,1.,0.));
#1749=DIRECTION('',(0.,0.,1.));
#1750=DIRECTION('',(0.,0.,-1.));
#1751=DIRECTION('',(1.,0.,0.));
#1752=DIRECTION('',(-1.,0.,0.));
#1753=DIRECTION('',(0.,0.,1.));
#1754=DIRECTION('',(0.,1.,0.));
#1755=DIRECTION('',(0.,0.,1.));
#1756=DIRECTION('',(1.,0.,0.));
#1757=DIRECTION('',(-1.,-1.85059088449815E-16,0.));
#1758=DIRECTION('',(1.85059088449815E-16,-1.,0.));
#1759=DIRECTION('',(-1.85059088449815E-16,1.,0.));
#1760=DIRECTION('',(0.,0.,-1.));
#1761=DIRECTION('',(-1.,0.,0.));
#1762=DIRECTION('',(0.,0.,1.));
#1763=DIRECTION('',(0.,0.,-1.));
#1764=DIRECTION('',(0.,1.,0.));
#1765=DIRECTION('',(0.,1.,0.));
#1766=DIRECTION('',(0.,0.,1.));
#1767=DIRECTION('',(1.,0.,0.));
#1768=DIRECTION('',(0.,0.,1.));
#1769=DIRECTION('',(1.,0.,0.));
#1770=DIRECTION('',(-1.,0.,0.));
#1771=DIRECTION('',(0.,0.,1.));
#1772=DIRECTION('',(0.,1.,0.));
#1773=DIRECTION('',(0.,0.,-1.));
#1774=DIRECTION('',(-1.,0.,0.));
#1775=DIRECTION('',(0.,0.,1.));
#1776=DIRECTION('',(0.,0.,-1.));
#1777=DIRECTION('',(0.,1.,0.));
#1778=DIRECTION('',(0.,1.,0.));
#1779=DIRECTION('',(0.,0.,1.));
#1780=DIRECTION('',(1.,0.,0.));
#1781=DIRECTION('',(0.,0.,1.));
#1782=DIRECTION('',(1.,0.,0.));
#1783=DIRECTION('',(0.,1.,0.));
#1784=DIRECTION('',(0.,0.,1.));
#1785=DIRECTION('',(0.,0.,-1.));
#1786=DIRECTION('',(1.,0.,0.));
#1787=DIRECTION('',(-1.,-3.60705617193659E-16,0.));
#1788=DIRECTION('',(3.60705617193659E-16,-1.,0.));
#1789=DIRECTION('',(-3.60705617193659E-16,1.,0.));
#1790=DIRECTION('',(0.,0.,1.));
#1791=DIRECTION('',(1.,0.,0.));
#1792=DIRECTION('',(0.,0.,1.));
#1793=DIRECTION('',(1.,0.,0.));
#1794=DIRECTION('',(-1.,0.,0.));
#1795=DIRECTION('',(0.,1.,0.));
#1796=DIRECTION('',(0.,-1.,0.));
#1797=DIRECTION('',(0.,0.,-1.));
#1798=DIRECTION('',(-1.,0.,0.));
#1799=DIRECTION('',(0.,0.,-1.));
#1800=DIRECTION('',(-1.,0.,0.));
#1801=DIRECTION('',(0.,0.,1.));
#1802=DIRECTION('',(0.,0.,1.));
#1803=DIRECTION('',(1.,0.,0.));
#1804=DIRECTION('',(0.,-1.,0.));
#1805=DIRECTION('',(1.,0.,0.));
#1806=DIRECTION('',(0.,1.,0.));
#1807=DIRECTION('',(0.,1.,0.));
#1808=DIRECTION('',(1.,0.,0.));
#1809=DIRECTION('',(0.,0.,-1.));
#1810=DIRECTION('',(0.,-1.,0.));
#1811=DIRECTION('',(0.,0.,1.));
#1812=DIRECTION('',(1.,0.,0.));
#1813=DIRECTION('',(0.,0.,1.));
#1814=DIRECTION('',(1.,0.,0.));
#1815=DIRECTION('',(0.,0.,-1.));
#1816=DIRECTION('',(-1.,0.,0.));
#1817=DIRECTION('',(0.,0.,-1.));
#1818=DIRECTION('',(-1.,0.,0.));
#1819=DIRECTION('',(0.,1.,0.));
#1820=DIRECTION('',(-1.,0.,0.));
#1821=DIRECTION('',(0.,0.,1.));
#1822=DIRECTION('',(0.,1.,0.));
#1823=DIRECTION('',(0.,0.,1.));
#1824=DIRECTION('',(1.,0.,0.));
#1825=DIRECTION('',(0.,0.,1.));
#1826=DIRECTION('',(1.,0.,0.));
#1827=DIRECTION('',(0.,0.,1.));
#1828=DIRECTION('',(1.,0.,0.));
#1829=DIRECTION('',(0.,0.,1.));
#1830=DIRECTION('',(1.,0.,0.));
#1831=DIRECTION('',(1.,0.,0.));
#1832=DIRECTION('',(0.,1.,0.));
#1833=DIRECTION('',(1.,0.,0.));
#1834=DIRECTION('',(0.,1.,0.));
#1835=DIRECTION('',(0.,0.,1.));
#1836=DIRECTION('',(1.,0.,0.));
#1837=DIRECTION('',(0.,0.,1.));
#1838=DIRECTION('',(1.,0.,0.));
#1839=DIRECTION('',(0.,0.,1.));
#1840=DIRECTION('',(1.,0.,0.));
#1841=DIRECTION('',(0.,0.,1.));
#1842=DIRECTION('',(1.,0.,0.));
#1843=DIRECTION('',(0.,0.,1.));
#1844=DIRECTION('',(1.,0.,0.));
#1845=DIRECTION('',(0.,-1.,0.));
#1846=DIRECTION('',(-1.,0.,0.));
#1847=DIRECTION('',(0.,-1.,0.));
#1848=DIRECTION('',(-1.,0.,0.));
#1849=DIRECTION('',(0.,0.,1.));
#1850=DIRECTION('',(0.,-1.,0.));
#1851=DIRECTION('',(0.,0.,-1.));
#1852=DIRECTION('',(0.,0.,1.));
#1853=DIRECTION('',(1.,0.,0.));
#1854=DIRECTION('',(0.,-1.,0.));
#1855=DIRECTION('',(-1.,0.,0.));
#1856=DIRECTION('',(-1.,0.,0.));
#1857=DIRECTION('',(0.,0.,1.));
#1858=DIRECTION('',(0.,0.,-1.));
#1859=DIRECTION('',(0.,1.,0.));
#1860=DIRECTION('',(-1.,0.,0.));
#1861=DIRECTION('',(0.,0.,-1.));
#1862=DIRECTION('',(-1.,0.,0.));
#1863=DIRECTION('',(0.,-1.,0.));
#1864=DIRECTION('',(1.,0.,0.));
#1865=DIRECTION('',(0.,-1.,0.));
#1866=DIRECTION('',(1.,0.,0.));
#1867=DIRECTION('',(0.,0.,-1.));
#1868=DIRECTION('',(0.,-1.,0.));
#1869=DIRECTION('',(0.,0.,1.));
#1870=DIRECTION('',(0.,0.,-1.));
#1871=DIRECTION('',(-1.,0.,0.));
#1872=DIRECTION('',(0.,-1.,0.));
#1873=DIRECTION('',(1.,0.,0.));
#1874=DIRECTION('',(1.,0.,0.));
#1875=DIRECTION('',(0.,0.,-1.));
#1876=DIRECTION('',(0.,0.,1.));
#1877=DIRECTION('',(0.,1.,0.));
#1878=DIRECTION('',(-1.,0.,0.));
#1879=CARTESIAN_POINT('',(0.,0.,0.));
#1880=CARTESIAN_POINT('',(0.00828369951890989,-0.00328348420340433,0.052324));
#1881=CARTESIAN_POINT('',(0.00828369951890989,-0.00328348420340433,0.05207));
#1882=CARTESIAN_POINT('',(0.00828369951890989,0.00101571109545288,0.05207));
#1883=CARTESIAN_POINT('',(0.00828369951890989,-0.00758267950226154,0.05207));
#1884=CARTESIAN_POINT('',(0.00828369951890989,0.00101571109545288,0.052324));
#1885=CARTESIAN_POINT('',(0.00828369951890989,0.00101571109545288,0.0252503472753155));
#1886=CARTESIAN_POINT('',(0.00828369951890989,-0.00573624758208114,0.0252503472753155));
#1887=CARTESIAN_POINT('',(0.00828369951890989,-0.00573624758208114,0.0252503472753155));
#1888=CARTESIAN_POINT('',(0.00828369951890989,-0.00573624758208114,0.026924));
#1889=CARTESIAN_POINT('',(0.00828369951890989,-0.00573624758208114,0.026924));
#1890=CARTESIAN_POINT('',(0.00828369951890989,-0.00328348420340433,0.026924));
#1891=CARTESIAN_POINT('',(0.00828369951890989,-0.00758267950226154,0.026924));
#1892=CARTESIAN_POINT('',(0.00828369951890989,-0.00758267950226154,0.052324));
#1893=CARTESIAN_POINT('',(-0.000484763231788016,-0.00332092207679458,0.052324));
#1894=CARTESIAN_POINT('',(-0.000484763231788016,-0.00332092207679458,0.05207));
#1895=CARTESIAN_POINT('',(-0.000484763231788016,0.00088617502019701,0.05207));
#1896=CARTESIAN_POINT('',(-0.000484763231788016,-0.00752801917378616,0.05207));
#1897=CARTESIAN_POINT('',(-0.000484763231788016,0.00088617502019701,0.052324));
#1898=CARTESIAN_POINT('',(-0.000484763231788016,0.00088617502019701,0.0252503472753155));
#1899=CARTESIAN_POINT('',(-0.000484763231788016,-0.00573624758208114,0.0252503472753155));
#1900=CARTESIAN_POINT('',(-0.000484763231788016,-0.00573624758208114,0.0252503472753155));
#1901=CARTESIAN_POINT('',(-0.000484763231788016,-0.00573624758208114,0.026924));
#1902=CARTESIAN_POINT('',(-0.000484763231788016,-0.00573624758208114,0.026924));
#1903=CARTESIAN_POINT('',(-0.000484763231788016,-0.00332092207679458,0.026924));
#1904=CARTESIAN_POINT('',(-0.000484763231788016,-0.00752801917378616,0.026924));
#1905=CARTESIAN_POINT('',(-0.000484763231788016,-0.00752801917378616,0.052324));
#1906=CARTESIAN_POINT('',(0.0133841514844792,0.00101571109545288,0.052324));
#1907=CARTESIAN_POINT('',(0.0133841514844792,0.00101571109545288,0.05207));
#1908=CARTESIAN_POINT('',(0.0117460397653094,0.00101571109545288,0.05207));
#1909=CARTESIAN_POINT('',(0.0150222632036491,0.00101571109545288,0.05207));
#1910=CARTESIAN_POINT('',(0.0117460397653094,0.00101571109545288,0.052324));
#1911=CARTESIAN_POINT('',(0.0117460397653094,0.00101571109545288,0.0252503472753155));
#1912=CARTESIAN_POINT('',(-0.000373255256028809,0.00101571109545288,0.0252503472753155));
#1913=CARTESIAN_POINT('',(0.0139799369911021,0.00101571109545288,0.0252503472753155));
#1914=CARTESIAN_POINT('',(0.0139799369911021,0.00101571109545288,0.026924));
#1915=CARTESIAN_POINT('',(0.0139799369911021,0.00101571109545288,0.026924));
#1916=CARTESIAN_POINT('',(0.0133841514844792,0.00101571109545288,0.026924));
#1917=CARTESIAN_POINT('',(0.0150222632036491,0.00101571109545288,0.026924));
#1918=CARTESIAN_POINT('',(0.0150222632036491,0.00101571109545288,0.052324));
#1919=CARTESIAN_POINT('',(-0.00970406252535315,-0.00316752942529973,0.052324));
#1920=CARTESIAN_POINT('',(-0.00970406252535315,-0.00316752942529973,0.05207));
#1921=CARTESIAN_POINT('',(-0.00970406252535315,0.00118418721844633,0.05207));
#1922=CARTESIAN_POINT('',(-0.00970406252535315,-0.00751924606904578,0.05207));
#1923=CARTESIAN_POINT('',(-0.00970406252535315,0.00118418721844633,0.052324));
#1924=CARTESIAN_POINT('',(-0.00970406252535315,0.00118418721844633,0.0252503472753155));
#1925=CARTESIAN_POINT('',(-0.00970406252535315,-0.00573624758208114,0.0252503472753155));
#1926=CARTESIAN_POINT('',(-0.00970406252535315,-0.00573624758208114,0.0252503472753155));
#1927=CARTESIAN_POINT('',(-0.00970406252535315,-0.00573624758208114,0.026924));
#1928=CARTESIAN_POINT('',(-0.00970406252535315,-0.00573624758208114,0.026924));
#1929=CARTESIAN_POINT('',(-0.00970406252535315,-0.00316752942529973,0.026924));
#1930=CARTESIAN_POINT('',(-0.00970406252535315,-0.00751924606904578,0.026924));
#1931=CARTESIAN_POINT('',(-0.00970406252535315,-0.00751924606904578,0.052324));
#1932=CARTESIAN_POINT('',(0.0117460397653094,-0.00328935642833702,0.052324));
#1933=CARTESIAN_POINT('',(0.0117460397653094,-0.00328935642833702,0.05207));
#1934=CARTESIAN_POINT('',(0.0117460397653094,-0.00759442395212694,0.05207));
#1935=CARTESIAN_POINT('',(0.0117460397653094,-0.00759442395212694,0.052324));
#1936=CARTESIAN_POINT('',(0.0117460397653094,-0.00759442395212694,0.026924));
#1937=CARTESIAN_POINT('',(0.0117460397653094,-0.00328935642833702,0.026924));
#1938=CARTESIAN_POINT('',(0.0117460397653094,-0.00573624758208114,0.026924));
#1939=CARTESIAN_POINT('',(0.0117460397653094,-0.00573624758208114,0.026924));
#1940=CARTESIAN_POINT('',(0.0117460397653094,-0.00573624758208114,0.0252503472753155));
#1941=CARTESIAN_POINT('',(0.0117460397653094,-0.00573624758208114,0.0252503472753155));
#1942=CARTESIAN_POINT('',(0.0150222632036491,-0.00328935642833702,0.052324));
#1943=CARTESIAN_POINT('',(0.0150222632036491,-0.00328935642833702,0.05207));
#1944=CARTESIAN_POINT('',(0.0150222632036491,-0.00759442395212694,0.05207));
#1945=CARTESIAN_POINT('',(0.0150222632036491,-0.00328935642833702,0.026924));
#1946=CARTESIAN_POINT('',(0.0150222632036491,-0.00759442395212694,0.026924));
#1947=CARTESIAN_POINT('',(0.0150222632036491,-0.00759442395212694,0.052324));
#1948=CARTESIAN_POINT('',(0.0133841514844792,-0.00759442395212694,0.052324));
#1949=CARTESIAN_POINT('',(0.0133841514844792,-0.00759442395212694,0.05207));
#1950=CARTESIAN_POINT('',(0.0133841514844792,-0.00759442395212694,0.026924));
#1951=CARTESIAN_POINT('',(0.00542970811124858,0.00101571109545288,0.052324));
#1952=CARTESIAN_POINT('',(0.00542970811124858,0.00101571109545288,0.05207));
#1953=CARTESIAN_POINT('',(0.00257571670358727,0.00101571109545288,0.05207));
#1954=CARTESIAN_POINT('',(0.00257571670358727,0.00101571109545288,0.052324));
#1955=CARTESIAN_POINT('',(0.00257571670358727,0.00101571109545288,0.0252503472753155));
#1956=CARTESIAN_POINT('',(-0.000373255256028809,0.00101571109545288,0.0252503472753155));
#1957=CARTESIAN_POINT('',(0.00542970811124858,-0.00758267950226154,0.052324));
#1958=CARTESIAN_POINT('',(0.00542970811124858,-0.00758267950226154,0.05207));
#1959=CARTESIAN_POINT('',(0.00257571670358727,-0.00758267950226154,0.05207));
#1960=CARTESIAN_POINT('',(0.00542970811124858,-0.00758267950226154,0.026924));
#1961=CARTESIAN_POINT('',(0.00257571670358727,-0.00758267950226154,0.026924));
#1962=CARTESIAN_POINT('',(0.00257571670358727,-0.00758267950226154,0.052324));
#1963=CARTESIAN_POINT('',(0.00257571670358727,-0.00328348420340433,0.052324));
#1964=CARTESIAN_POINT('',(0.00257571670358727,-0.00328348420340433,0.05207));
#1965=CARTESIAN_POINT('',(0.00257571670358727,-0.00328348420340433,0.026924));
#1966=CARTESIAN_POINT('',(0.00257571670358727,-0.00573624758208114,0.026924));
#1967=CARTESIAN_POINT('',(0.00257571670358727,-0.00573624758208114,0.026924));
#1968=CARTESIAN_POINT('',(0.00257571670358727,-0.00573624758208114,0.0252503472753155));
#1969=CARTESIAN_POINT('',(0.00257571670358727,-0.00573624758208114,0.0252503472753155));
#1970=CARTESIAN_POINT('',(-0.0040210066453782,0.00088617502019701,0.052324));
#1971=CARTESIAN_POINT('',(-0.0040210066453782,0.00088617502019701,0.05207));
#1972=CARTESIAN_POINT('',(-0.0075572500589684,0.00088617502019701,0.05207));
#1973=CARTESIAN_POINT('',(-0.0075572500589684,0.00088617502019701,0.052324));
#1974=CARTESIAN_POINT('',(-0.0075572500589684,0.00088617502019701,0.0252503472753155));
#1975=CARTESIAN_POINT('',(-0.000373255256028809,0.00088617502019701,0.0252503472753155));
#1976=CARTESIAN_POINT('',(-0.0040210066453782,-0.00752801917378616,0.052324));
#1977=CARTESIAN_POINT('',(-0.0040210066453782,-0.00752801917378616,0.05207));
#1978=CARTESIAN_POINT('',(-0.0075572500589684,-0.00752801917378616,0.05207));
#1979=CARTESIAN_POINT('',(-0.0040210066453782,-0.00752801917378616,0.026924));
#1980=CARTESIAN_POINT('',(-0.0075572500589684,-0.00752801917378616,0.026924));
#1981=CARTESIAN_POINT('',(-0.0075572500589684,-0.00752801917378616,0.052324));
#1982=CARTESIAN_POINT('',(-0.0075572500589684,-0.00332092207679458,0.052324));
#1983=CARTESIAN_POINT('',(-0.0075572500589684,-0.00332092207679458,0.05207));
#1984=CARTESIAN_POINT('',(-0.0075572500589684,-0.00332092207679458,0.026924));
#1985=CARTESIAN_POINT('',(-0.0075572500589684,-0.00573624758208114,0.026924));
#1986=CARTESIAN_POINT('',(-0.0075572500589684,-0.00573624758208114,0.026924));
#1987=CARTESIAN_POINT('',(-0.0075572500589684,-0.00573624758208114,0.0252503472753155));
#1988=CARTESIAN_POINT('',(-0.0075572500589684,-0.00573624758208114,0.0252503472753155));
#1989=CARTESIAN_POINT('',(-0.0123472448952281,0.00118418721844633,0.052324));
#1990=CARTESIAN_POINT('',(-0.0123472448952281,0.00118418721844633,0.05207));
#1991=CARTESIAN_POINT('',(-0.014990427265103,0.00118418721844633,0.05207));
#1992=CARTESIAN_POINT('',(-0.014990427265103,0.00118418721844633,0.052324));
#1993=CARTESIAN_POINT('',(-0.014990427265103,0.00118418721844633,0.026924));
#1994=CARTESIAN_POINT('',(-0.0123472448952281,0.00118418721844633,0.026924));
#1995=CARTESIAN_POINT('',(-0.0147264475031598,0.00118418721844633,0.026924));
#1996=CARTESIAN_POINT('',(-0.0147264475031598,0.00118418721844633,0.026924));
#1997=CARTESIAN_POINT('',(-0.0147264475031598,0.00118418721844633,0.0252503472753155));
#1998=CARTESIAN_POINT('',(-0.000373255256028809,0.00118418721844633,0.0252503472753155));
#1999=CARTESIAN_POINT('',(-0.0123472448952281,-0.00751924606904578,0.052324));
#2000=CARTESIAN_POINT('',(-0.0123472448952281,-0.00751924606904578,0.05207));
#2001=CARTESIAN_POINT('',(-0.014990427265103,-0.00751924606904578,0.05207));
#2002=CARTESIAN_POINT('',(-0.0123472448952281,-0.00751924606904578,0.026924));
#2003=CARTESIAN_POINT('',(-0.014990427265103,-0.00751924606904578,0.026924));
#2004=CARTESIAN_POINT('',(-0.014990427265103,-0.00751924606904578,0.052324));
#2005=CARTESIAN_POINT('',(-0.014990427265103,-0.00316752942529973,0.052324));
#2006=CARTESIAN_POINT('',(-0.014990427265103,-0.00316752942529973,0.05207));
#2007=CARTESIAN_POINT('',(-0.014990427265103,-0.00316752942529973,0.026924));
#2008=CARTESIAN_POINT('',(0.0214581177335464,-0.00389117942628111,0.0095577298787009));
#2009=CARTESIAN_POINT('',(0.0212041177335464,-0.00389117942628111,0.0095577298787009));
#2010=CARTESIAN_POINT('',(0.0212041177335464,-0.00093747513420632,0.0095577298787009));
#2011=CARTESIAN_POINT('',(0.0212041177335464,-0.00684488371835591,0.0095577298787009));
#2012=CARTESIAN_POINT('',(0.0214581177335464,-0.00093747513420632,0.0095577298787009));
#2013=CARTESIAN_POINT('',(0.0139799369911021,-0.00093747513420632,0.0095577298787009));
#2014=CARTESIAN_POINT('',(0.0139799369911021,-0.00573624758208114,0.0095577298787009));
#2015=CARTESIAN_POINT('',(0.0139799369911021,-0.00573624758208114,0.0095577298787009));
#2016=CARTESIAN_POINT('',(0.0153621177335464,-0.00573624758208114,0.0095577298787009));
#2017=CARTESIAN_POINT('',(0.0153621177335464,-0.00573624758208114,0.0095577298787009));
#2018=CARTESIAN_POINT('',(0.0153621177335464,-0.00389117942628111,0.0095577298787009));
#2019=CARTESIAN_POINT('',(0.0153621177335464,-0.00684488371835591,0.0095577298787009));
#2020=CARTESIAN_POINT('',(0.0214581177335464,-0.00684488371835591,0.0095577298787009));
#2021=CARTESIAN_POINT('',(0.0214581177335464,-0.00389117942628111,0.0161213358719889));
#2022=CARTESIAN_POINT('',(0.0214581177335464,-0.00093747513420632,0.0161213358719889));
#2023=CARTESIAN_POINT('',(0.0212041177335464,-0.00093747513420632,0.0161213358719889));
#2024=CARTESIAN_POINT('',(0.0139799369911021,-0.00093747513420632,0.0161213358719889));
#2025=CARTESIAN_POINT('',(0.0212041177335464,-0.00389117942628111,0.0161213358719889));
#2026=CARTESIAN_POINT('',(0.0212041177335464,-0.00684488371835591,0.0161213358719889));
#2027=CARTESIAN_POINT('',(0.0214581177335464,-0.00684488371835591,0.0161213358719889));
#2028=CARTESIAN_POINT('',(0.0153621177335464,-0.00684488371835591,0.0161213358719889));
#2029=CARTESIAN_POINT('',(0.0153621177335464,-0.00389117942628111,0.0161213358719889));
#2030=CARTESIAN_POINT('',(0.0153621177335464,-0.00573624758208114,0.0161213358719889));
#2031=CARTESIAN_POINT('',(0.0153621177335464,-0.00573624758208114,0.0161213358719889));
#2032=CARTESIAN_POINT('',(0.0139799369911021,-0.00573624758208114,0.0161213358719889));
#2033=CARTESIAN_POINT('',(0.0139799369911021,-0.00573624758208114,0.0161213358719889));
#2034=CARTESIAN_POINT('',(0.0214581177335464,-0.00093747513420632,0.0128395328753449));
#2035=CARTESIAN_POINT('',(0.0212041177335464,-0.00093747513420632,0.0128395328753449));
#2036=CARTESIAN_POINT('',(0.0139799369911021,-0.00093747513420632,0.013330744141398));
#2037=CARTESIAN_POINT('',(0.0214581177335464,-0.00684488371835591,0.0128395328753449));
#2038=CARTESIAN_POINT('',(0.0212041177335464,-0.00684488371835591,0.0128395328753449));
#2039=CARTESIAN_POINT('',(0.0153621177335464,-0.00684488371835591,0.0128395328753449));
#2040=CARTESIAN_POINT('',(0.0139799369911021,-0.00573624758208114,0.013330744141398));
#2041=CARTESIAN_POINT('',(0.0139799369911021,-0.00573624758208114,0.013330744141398));
#2042=CARTESIAN_POINT('',(0.0139799369911021,-0.00573624758208114,0.026924));
#2043=CARTESIAN_POINT('',(0.0139799369911021,-0.00573624758208114,0.026924));
#2044=CARTESIAN_POINT('',(0.0139799369911021,-0.00573624758208114,0.0252503472753155));
#2045=CARTESIAN_POINT('',(0.0139799369911021,0.00790355241791886,0.0252503472753155));
#2046=CARTESIAN_POINT('',(0.0139799369911021,0.00790355241791886,0.013330744141398));
#2047=CARTESIAN_POINT('',(0.0139799369911021,0.00790355241791886,0.00141114100748053));
#2048=CARTESIAN_POINT('',(0.0139799369911021,-0.00573624758208114,0.00141114100748053));
#2049=CARTESIAN_POINT('',(0.0139799369911021,-0.00573624758208114,0.00141114100748053));
#2050=CARTESIAN_POINT('',(0.0139799369911021,-0.00573624758208114,0.013330744141398));
#2051=CARTESIAN_POINT('',(-0.000373255256028809,-0.00573624758208114,0.0252503472753155));
#2052=CARTESIAN_POINT('',(-0.000373255256028809,-0.00573624758208114,0.0252503472753155));
#2053=CARTESIAN_POINT('',(-0.000373255256028809,-0.00573624758208114,0.0252503472753155));
#2054=CARTESIAN_POINT('',(-0.000373255256028809,-0.00573624758208114,0.0252503472753155));
#2055=CARTESIAN_POINT('',(-0.0147264475031598,-0.00573624758208114,0.0252503472753155));
#2056=CARTESIAN_POINT('',(-0.0147264475031598,0.00790355241791886,0.0252503472753155));
#2057=CARTESIAN_POINT('',(-0.000373255256028809,0.00790355241791886,0.0252503472753155));
#2058=CARTESIAN_POINT('',(0.,-0.00573624758208114,0.013462));
#2059=CARTESIAN_POINT('',(0.00852994550950825,-0.00573624758208114,0.00951467175036669));
#2060=CARTESIAN_POINT('',(0.00607699202373624,-0.00573624758208114,0.00951467175036669));
#2061=CARTESIAN_POINT('',(0.0109828989952803,-0.00573624758208114,0.00951467175036669));
#2062=CARTESIAN_POINT('',(0.0109828989952803,-0.00573624758208114,0.0138978180475533));
#2063=CARTESIAN_POINT('',(0.0109828989952803,-0.00573624758208114,0.0182809643447399));
#2064=CARTESIAN_POINT('',(0.00852994550950825,-0.00573624758208114,0.0182809643447399));
#2065=CARTESIAN_POINT('',(0.00607699202373624,-0.00573624758208114,0.0182809643447399));
#2066=CARTESIAN_POINT('',(0.00607699202373624,-0.00573624758208114,0.0138978180475533));
#2067=CARTESIAN_POINT('',(-0.00779627030715346,-0.00573624758208114,0.0182809643447399));
#2068=CARTESIAN_POINT('',(-0.00518246740102768,-0.00573624758208114,0.0182809643447399));
#2069=CARTESIAN_POINT('',(-0.0104100732132792,-0.00573624758208114,0.0182809643447399));
#2070=CARTESIAN_POINT('',(-0.0104100732132792,-0.00573624758208114,0.0138978180475533));
#2071=CARTESIAN_POINT('',(-0.0104100732132792,-0.00573624758208114,0.00951467175036669));
#2072=CARTESIAN_POINT('',(-0.00779627030715346,-0.00573624758208114,0.00951467175036669));
#2073=CARTESIAN_POINT('',(-0.00518246740102768,-0.00573624758208114,0.00951467175036669));
#2074=CARTESIAN_POINT('',(-0.00518246740102768,-0.00573624758208114,0.0138978180475533));
#2075=CARTESIAN_POINT('',(0.0153621177335464,-0.00573624758208114,0.013462));
#2076=CARTESIAN_POINT('',(-0.000373255256028809,-0.00573624758208114,0.00141114100748053));
#2077=CARTESIAN_POINT('',(-0.0147264475031598,-0.00573624758208114,0.00141114100748053));
#2078=CARTESIAN_POINT('',(-0.0147264475031598,-0.00573624758208114,0.013330744141398));
#2079=CARTESIAN_POINT('',(-0.0147264475031598,-0.00573624758208114,0.026924));
#2080=CARTESIAN_POINT('',(0.,-0.00573624758208114,0.026924));
#2081=CARTESIAN_POINT('',(0.,-0.00573624758208114,0.026924));
#2082=CARTESIAN_POINT('',(0.,-0.00573624758208114,0.026924));
#2083=CARTESIAN_POINT('',(0.,-0.00573624758208114,0.026924));
#2084=CARTESIAN_POINT('',(0.,0.00790355241791886,0.026924));
#2085=CARTESIAN_POINT('',(0.,0.00790355241791886,0.));
#2086=CARTESIAN_POINT('',(-0.0153621177335464,0.00790355241791886,0.));
#2087=CARTESIAN_POINT('',(0.0153621177335464,0.00790355241791886,0.));
#2088=CARTESIAN_POINT('',(-0.0153621177335464,0.00790355241791886,0.026924));
#2089=CARTESIAN_POINT('',(-0.0153621177335464,0.00790355241791886,0.026924));
#2090=CARTESIAN_POINT('',(0.,0.00790355241791886,0.026924));
#2091=CARTESIAN_POINT('',(0.0153621177335464,0.00790355241791886,0.026924));
#2092=CARTESIAN_POINT('',(0.0153621177335464,0.00790355241791886,0.026924));
#2093=CARTESIAN_POINT('',(-0.000373255256028809,0.00790355241791886,0.00141114100748053));
#2094=CARTESIAN_POINT('',(-0.0147264475031598,0.00790355241791886,0.00141114100748053));
#2095=CARTESIAN_POINT('',(-0.0147264475031598,0.00790355241791886,0.013330744141398));
#2096=CARTESIAN_POINT('',(0.0153621177335464,0.,0.026924));
#2097=CARTESIAN_POINT('',(0.0153621177335464,-0.00790355241791886,0.026924));
#2098=CARTESIAN_POINT('',(0.0153621177335464,-0.00790355241791886,0.052324));
#2099=CARTESIAN_POINT('',(0.0153621177335464,-0.00790355241791886,0.0165322237305815));
#2100=CARTESIAN_POINT('',(0.0153621177335464,-0.00395177620895943,0.0165322237305815));
#2101=CARTESIAN_POINT('',(0.0153621177335464,0.,0.0165322237305815));
#2102=CARTESIAN_POINT('',(0.0153621177335464,0.,0.0128395328753449));
#2103=CARTESIAN_POINT('',(0.0153621177335464,0.,0.00914684202010836));
#2104=CARTESIAN_POINT('',(0.0153621177335464,-0.00395177620895943,0.00914684202010836));
#2105=CARTESIAN_POINT('',(0.0153621177335464,-0.00790355241791886,0.00914684202010836));
#2106=CARTESIAN_POINT('',(0.0153621177335464,-0.00790355241791886,0.026924));
#2107=CARTESIAN_POINT('',(0.0153621177335464,-0.00790355241791886,0.));
#2108=CARTESIAN_POINT('',(0.0153621177335464,0.,0.));
#2109=CARTESIAN_POINT('',(0.0153621177335464,0.,0.026924));
#2110=CARTESIAN_POINT('',(0.0153621177335464,0.00151244679393215,0.026924));
#2111=CARTESIAN_POINT('',(0.0153621177335464,0.00151244679393215,0.052324));
#2112=CARTESIAN_POINT('',(0.0153621177335464,0.00151244679393215,0.052324));
#2113=CARTESIAN_POINT('',(0.0153621177335464,0.,0.052324));
#2114=CARTESIAN_POINT('',(0.,0.,0.026924));
#2115=CARTESIAN_POINT('',(-0.0153621177335464,0.,0.026924));
#2116=CARTESIAN_POINT('',(-0.0153621177335464,0.00171494750716242,0.026924));
#2117=CARTESIAN_POINT('',(-0.0122884836337681,0.00171494750716242,0.026924));
#2118=CARTESIAN_POINT('',(-0.00921484953398987,0.00171494750716242,0.026924));
#2119=CARTESIAN_POINT('',(-0.00921484953398987,-0.00309430245537821,0.026924));
#2120=CARTESIAN_POINT('',(-0.00921484953398987,-0.00790355241791886,0.026924));
#2121=CARTESIAN_POINT('',(0.,-0.00790355241791886,0.026924));
#2122=CARTESIAN_POINT('',(-0.00794692348328151,-0.00790355241791886,0.026924));
#2123=CARTESIAN_POINT('',(-0.00794692348328151,-0.00320168732424681,0.026924));
#2124=CARTESIAN_POINT('',(-0.00794692348328151,0.00150017776942524,0.026924));
#2125=CARTESIAN_POINT('',(-0.00397346174164076,0.00150017776942524,0.026924));
#2126=CARTESIAN_POINT('',(0.,0.00150017776942524,0.026924));
#2127=CARTESIAN_POINT('',(0.,-0.00320168732424681,0.026924));
#2128=CARTESIAN_POINT('',(0.,-0.00790355241791886,0.026924));
#2129=CARTESIAN_POINT('',(0.,-0.00790355241791886,0.026924));
#2130=CARTESIAN_POINT('',(0.00210687087392597,-0.00790355241791886,0.026924));
#2131=CARTESIAN_POINT('',(0.00210687087392597,-0.00321660758719461,0.026924));
#2132=CARTESIAN_POINT('',(0.00210687087392597,0.00147033724352965,0.026924));
#2133=CARTESIAN_POINT('',(0.00546088454778931,0.00147033724352965,0.026924));
#2134=CARTESIAN_POINT('',(0.00881489822165264,0.00147033724352965,0.026924));
#2135=CARTESIAN_POINT('',(0.00881489822165264,-0.00321660758719461,0.026924));
#2136=CARTESIAN_POINT('',(0.00881489822165264,-0.00790355241791886,0.026924));
#2137=CARTESIAN_POINT('',(0.,-0.00790355241791886,0.026924));
#2138=CARTESIAN_POINT('',(0.0113802057481344,-0.00790355241791886,0.026924));
#2139=CARTESIAN_POINT('',(0.0113802057481344,-0.00319555281199336,0.026924));
#2140=CARTESIAN_POINT('',(0.0113802057481344,0.00151244679393215,0.026924));
#2141=CARTESIAN_POINT('',(0.0133711617408404,0.00151244679393215,0.026924));
#2142=CARTESIAN_POINT('',(-0.0153621177335464,0.,0.026924));
#2143=CARTESIAN_POINT('',(-0.0153621177335464,0.00171494750716242,0.052324));
#2144=CARTESIAN_POINT('',(-0.0153621177335464,0.00171494750716242,0.052324));
#2145=CARTESIAN_POINT('',(-0.0153621177335464,0.,0.));
#2146=CARTESIAN_POINT('',(-0.0153621177335464,-0.00790355241791886,0.));
#2147=CARTESIAN_POINT('',(-0.0153621177335464,-0.00790355241791886,0.026924));
#2148=CARTESIAN_POINT('',(-0.0153621177335464,-0.00790355241791886,0.052324));
#2149=CARTESIAN_POINT('',(-0.0153621177335464,0.,0.052324));
#2150=CARTESIAN_POINT('',(0.,-0.00790355241791886,0.026924));
#2151=CARTESIAN_POINT('',(0.00210687087392597,-0.00790355241791886,0.052324));
#2152=CARTESIAN_POINT('',(0.00210687087392597,-0.00790355241791886,0.052324));
#2153=CARTESIAN_POINT('',(0.,-0.00790355241791886,0.052324));
#2154=CARTESIAN_POINT('',(0.,-0.00790355241791886,0.052324));
#2155=CARTESIAN_POINT('',(0.,-0.00790355241791886,0.052324));
#2156=CARTESIAN_POINT('',(-0.00794692348328151,-0.00790355241791886,0.052324));
#2157=CARTESIAN_POINT('',(-0.00794692348328151,-0.00790355241791886,0.052324));
#2158=CARTESIAN_POINT('',(-0.00921484953398987,-0.00790355241791886,0.052324));
#2159=CARTESIAN_POINT('',(-0.00921484953398987,-0.00790355241791886,0.052324));
#2160=CARTESIAN_POINT('',(0.,-0.00790355241791886,0.052324));
#2161=CARTESIAN_POINT('',(0.,-0.00790355241791886,0.));
#2162=CARTESIAN_POINT('',(0.0214581177335464,-0.00790355241791886,0.00914684202010836));
#2163=CARTESIAN_POINT('',(0.0214581177335464,-0.00790355241791886,0.00914684202010836));
#2164=CARTESIAN_POINT('',(0.0214581177335464,-0.00790355241791886,0.026924));
#2165=CARTESIAN_POINT('',(0.0214581177335464,-0.00790355241791886,0.0419322237305814));
#2166=CARTESIAN_POINT('',(0.0214581177335464,-0.00790355241791886,0.0419322237305814));
#2167=CARTESIAN_POINT('',(0.0184101177335464,-0.00790355241791886,0.0419322237305814));
#2168=CARTESIAN_POINT('',(0.0184101177335464,-0.00790355241791886,0.0419322237305814));
#2169=CARTESIAN_POINT('',(0.0184101177335464,-0.00790355241791886,0.0165322237305815));
#2170=CARTESIAN_POINT('',(0.0214581177335464,-0.00790355241791886,0.0165322237305815));
#2171=CARTESIAN_POINT('',(0.,-0.00790355241791886,0.052324));
#2172=CARTESIAN_POINT('',(0.0113802057481344,-0.00790355241791886,0.052324));
#2173=CARTESIAN_POINT('',(0.0113802057481344,-0.00790355241791886,0.052324));
#2174=CARTESIAN_POINT('',(0.00881489822165264,-0.00790355241791886,0.052324));
#2175=CARTESIAN_POINT('',(0.00881489822165264,-0.00790355241791886,0.052324));
#2176=CARTESIAN_POINT('',(0.,-0.00790355241791886,0.052324));
#2177=CARTESIAN_POINT('',(0.,0.,0.));
#2178=CARTESIAN_POINT('',(0.,0.,0.));
#2179=CARTESIAN_POINT('',(0.003302,0.,0.));
#2180=CARTESIAN_POINT('',(0.0133711617408404,0.00151244679393215,0.052324));
#2181=CARTESIAN_POINT('',(0.0113802057481344,0.00151244679393215,0.052324));
#2182=CARTESIAN_POINT('',(0.0113802057481344,0.00151244679393215,0.052324));
#2183=CARTESIAN_POINT('',(0.0133711617408404,0.00151244679393215,0.052324));
#2184=CARTESIAN_POINT('',(0.0113802057481344,-0.00319555281199336,0.052324));
#2185=CARTESIAN_POINT('',(0.0113802057481344,-0.00319555281199336,0.052324));
#2186=CARTESIAN_POINT('',(0.,0.,0.052324));
#2187=CARTESIAN_POINT('',(0.00210687087392597,-0.00321660758719461,0.052324));
#2188=CARTESIAN_POINT('',(0.00210687087392597,-0.00321660758719461,0.052324));
#2189=CARTESIAN_POINT('',(0.00210687087392597,0.00147033724352965,0.052324));
#2190=CARTESIAN_POINT('',(0.00210687087392597,0.00147033724352965,0.052324));
#2191=CARTESIAN_POINT('',(0.00881489822165264,-0.00321660758719461,0.052324));
#2192=CARTESIAN_POINT('',(0.00881489822165264,0.00147033724352965,0.052324));
#2193=CARTESIAN_POINT('',(0.00881489822165264,0.00147033724352965,0.052324));
#2194=CARTESIAN_POINT('',(0.00881489822165264,-0.00321660758719461,0.052324));
#2195=CARTESIAN_POINT('',(0.00546088454778931,0.00147033724352965,0.052324));
#2196=CARTESIAN_POINT('',(0.00546088454778931,0.00147033724352965,0.052324));
#2197=CARTESIAN_POINT('',(0.,0.,0.052324));
#2198=CARTESIAN_POINT('',(-0.00794692348328151,-0.00320168732424681,0.052324));
#2199=CARTESIAN_POINT('',(-0.00794692348328151,-0.00320168732424681,0.052324));
#2200=CARTESIAN_POINT('',(-0.00794692348328151,0.00150017776942524,0.052324));
#2201=CARTESIAN_POINT('',(-0.00794692348328151,0.00150017776942524,0.052324));
#2202=CARTESIAN_POINT('',(0.,-0.00320168732424681,0.052324));
#2203=CARTESIAN_POINT('',(0.,0.00150017776942524,0.052324));
#2204=CARTESIAN_POINT('',(0.,0.00150017776942524,0.052324));
#2205=CARTESIAN_POINT('',(0.,-0.00320168732424681,0.052324));
#2206=CARTESIAN_POINT('',(-0.00397346174164076,0.00150017776942524,0.052324));
#2207=CARTESIAN_POINT('',(-0.00397346174164076,0.00150017776942524,0.052324));
#2208=CARTESIAN_POINT('',(0.,0.,0.052324));
#2209=CARTESIAN_POINT('',(-0.0122884836337681,0.00171494750716242,0.052324));
#2210=CARTESIAN_POINT('',(-0.00921484953398987,0.00171494750716242,0.052324));
#2211=CARTESIAN_POINT('',(-0.00921484953398987,0.00171494750716242,0.052324));
#2212=CARTESIAN_POINT('',(-0.0122884836337681,0.00171494750716242,0.052324));
#2213=CARTESIAN_POINT('',(-0.00921484953398987,-0.00309430245537821,0.052324));
#2214=CARTESIAN_POINT('',(-0.00921484953398987,-0.00309430245537821,0.052324));
#2215=CARTESIAN_POINT('',(0.,0.,0.052324));
#2216=CARTESIAN_POINT('',(0.0214581177335464,-0.00395177620895943,0.00914684202010836));
#2217=CARTESIAN_POINT('',(0.0214581177335464,0.,0.00914684202010836));
#2218=CARTESIAN_POINT('',(0.0214581177335464,0.,0.00914684202010836));
#2219=CARTESIAN_POINT('',(0.0214581177335464,-0.00395177620895943,0.00914684202010836));
#2220=CARTESIAN_POINT('',(0.0214581177335464,0.,0.0128395328753449));
#2221=CARTESIAN_POINT('',(0.0214581177335464,0.,0.0165322237305815));
#2222=CARTESIAN_POINT('',(0.0184101177335464,0.,0.0165322237305815));
#2223=CARTESIAN_POINT('',(0.0184101177335464,0.,0.0419322237305814));
#2224=CARTESIAN_POINT('',(0.0184101177335464,0.,0.0419322237305814));
#2225=CARTESIAN_POINT('',(0.0214581177335464,0.,0.0419322237305814));
#2226=CARTESIAN_POINT('',(0.0214581177335464,0.,0.0419322237305814));
#2227=CARTESIAN_POINT('',(0.0214581177335464,0.,0.0128395328753449));
#2228=CARTESIAN_POINT('',(0.0214581177335464,-0.00395177620895943,0.0165322237305815));
#2229=CARTESIAN_POINT('',(0.0184101177335464,-0.00395177620895943,0.0165322237305815));
#2230=CARTESIAN_POINT('',(0.0214581177335464,0.,0.026162));
#2231=CARTESIAN_POINT('',(0.0214581177335464,-0.00395177620895943,0.0419322237305814));
#2232=CARTESIAN_POINT('',(0.0184101177335464,-0.00395177620895943,0.0419322237305814));
#2233=CARTESIAN_POINT('',(0.0184101177335464,-0.00395177620895943,0.0419322237305814));
#2234=CARTESIAN_POINT('',(0.0184101177335464,-0.00395177620895943,0.0419322237305814));
#2235=CARTESIAN_POINT('',(0.,0.,0.));
#2236=CARTESIAN_POINT('',(0.,0.,0.00141114100748053));
#2237=CARTESIAN_POINT('',(-0.003302,0.,0.00141114100748053));
#2238=CARTESIAN_POINT('',(-0.000373255256028809,-0.00573624758208114,0.00141114100748053));
#2239=CARTESIAN_POINT('',(-0.0147264475031598,-0.00573624758208114,0.00141114100748053));
#2240=CARTESIAN_POINT('',(-0.0147264475031598,-0.00573624758208114,0.013330744141398));
#2241=CARTESIAN_POINT('',(-0.0147264475031598,-0.00573624758208114,0.026924));
#2242=CARTESIAN_POINT('',(0.,0.,0.026924));
#2243=CARTESIAN_POINT('',(0.,0.,0.026924));
#2244=CARTESIAN_POINT('',(0.,0.,0.026924));
#2245=CARTESIAN_POINT('',(0.0133841514844792,-0.00328935642833702,0.026924));
#2246=CARTESIAN_POINT('',(0.0153621177335464,0.,0.026162));
#2247=CARTESIAN_POINT('',(0.0212041177335464,-0.00395177620895943,0.0255395328753449));
#2248=CARTESIAN_POINT('',(0.,-0.00309430245537821,0.05207));
#2249=CARTESIAN_POINT('',(0.,-0.00309430245537821,0.05207));
#2250=CARTESIAN_POINT('',(0.,-0.00309430245537821,0.05207));
#2251=CARTESIAN_POINT('',(0.,-0.00309430245537821,0.05207));
#2252=CARTESIAN_POINT('',(-0.00779627030715346,-0.00548224758208114,0.0182809643447399));
#2253=CARTESIAN_POINT('',(-0.00518246740102768,-0.00548224758208114,0.0182809643447399));
#2254=CARTESIAN_POINT('',(-0.00518246740102768,-0.00548224758208114,0.0182809643447399));
#2255=CARTESIAN_POINT('',(-0.00779627030715346,-0.00548224758208114,0.0182809643447399));
#2256=CARTESIAN_POINT('',(-0.0104100732132792,-0.00548224758208114,0.0182809643447399));
#2257=CARTESIAN_POINT('',(-0.0104100732132792,-0.00548224758208114,0.0182809643447399));
#2258=CARTESIAN_POINT('',(-0.00518246740102768,-0.00548224758208114,0.0138978180475533));
#2259=CARTESIAN_POINT('',(-0.00518246740102768,-0.00548224758208114,0.00951467175036669));
#2260=CARTESIAN_POINT('',(-0.00518246740102768,-0.00548224758208114,0.00951467175036669));
#2261=CARTESIAN_POINT('',(-0.00518246740102768,-0.00548224758208114,0.0138978180475533));
#2262=CARTESIAN_POINT('',(-0.00779627030715346,-0.00548224758208114,0.00951467175036669));
#2263=CARTESIAN_POINT('',(-0.0104100732132792,-0.00548224758208114,0.00951467175036669));
#2264=CARTESIAN_POINT('',(-0.0104100732132792,-0.00548224758208114,0.00951467175036669));
#2265=CARTESIAN_POINT('',(-0.00779627030715346,-0.00548224758208114,0.00951467175036669));
#2266=CARTESIAN_POINT('',(-0.0104100732132792,-0.00548224758208114,0.0138978180475533));
#2267=CARTESIAN_POINT('',(-0.0104100732132792,-0.00548224758208114,0.0138978180475533));
#2268=CARTESIAN_POINT('',(0.000317835115193308,-0.00548224758208114,0.0141675705037403));
#2269=CARTESIAN_POINT('',(0.00852994550950825,-0.00548224758208114,0.00951467175036669));
#2270=CARTESIAN_POINT('',(0.00607699202373624,-0.00548224758208114,0.00951467175036669));
#2271=CARTESIAN_POINT('',(0.00607699202373624,-0.00548224758208114,0.00951467175036669));
#2272=CARTESIAN_POINT('',(0.00852994550950825,-0.00548224758208114,0.00951467175036669));
#2273=CARTESIAN_POINT('',(0.0109828989952803,-0.00548224758208114,0.00951467175036669));
#2274=CARTESIAN_POINT('',(0.0109828989952803,-0.00548224758208114,0.00951467175036669));
#2275=CARTESIAN_POINT('',(0.00607699202373624,-0.00548224758208114,0.0138978180475533));
#2276=CARTESIAN_POINT('',(0.00607699202373624,-0.00548224758208114,0.0182809643447399));
#2277=CARTESIAN_POINT('',(0.00607699202373624,-0.00548224758208114,0.0182809643447399));
#2278=CARTESIAN_POINT('',(0.00607699202373624,-0.00548224758208114,0.0138978180475533));
#2279=CARTESIAN_POINT('',(0.00852994550950825,-0.00548224758208114,0.0182809643447399));
#2280=CARTESIAN_POINT('',(0.0109828989952803,-0.00548224758208114,0.0182809643447399));
#2281=CARTESIAN_POINT('',(0.0109828989952803,-0.00548224758208114,0.0182809643447399));
#2282=CARTESIAN_POINT('',(0.00852994550950825,-0.00548224758208114,0.0182809643447399));
#2283=CARTESIAN_POINT('',(0.0109828989952803,-0.00548224758208114,0.0138978180475533));
#2284=CARTESIAN_POINT('',(0.0109828989952803,-0.00548224758208114,0.0138978180475533));
#2285=CARTESIAN_POINT('',(0.000317835115193308,-0.00548224758208114,0.0141675705037403));
#2286=MECHANICAL_DESIGN_GEOMETRIC_PRESENTATION_REPRESENTATION('',(#1445),
#2287);
#2287=(
GEOMETRIC_REPRESENTATION_CONTEXT(3)
GLOBAL_UNCERTAINTY_ASSIGNED_CONTEXT((#2288))
GLOBAL_UNIT_ASSIGNED_CONTEXT((#2291,#2290,#2289))
REPRESENTATION_CONTEXT('Part 1','TOP_LEVEL_ASSEMBLY_PART')
);
#2288=UNCERTAINTY_MEASURE_WITH_UNIT(LENGTH_MEASURE(1.E-8),#2291,
'DISTANCE_ACCURACY_VALUE','Maximum Tolerance applied to model');
#2289=(
NAMED_UNIT(*)
SI_UNIT($,.STERADIAN.)
SOLID_ANGLE_UNIT()
);
#2290=(
NAMED_UNIT(*)
PLANE_ANGLE_UNIT()
SI_UNIT($,.RADIAN.)
);
#2291=(
LENGTH_UNIT()
NAMED_UNIT(*)
SI_UNIT($,.METRE.)
);
#2292=PRODUCT_DEFINITION_SHAPE('','',#2293);
#2293=PRODUCT_DEFINITION('','',#2295,#2294);
#2294=PRODUCT_DEFINITION_CONTEXT('',#2301,'design');
#2295=PRODUCT_DEFINITION_FORMATION_WITH_SPECIFIED_SOURCE('','',#2297,
 .NOT_KNOWN.);
#2296=PRODUCT_RELATED_PRODUCT_CATEGORY('','',(#2297));
#2297=PRODUCT('Part 1','Part 1','Part 1',(#2299));
#2298=PRODUCT_CATEGORY('','');
#2299=PRODUCT_CONTEXT('',#2301,'mechanical');
#2300=APPLICATION_PROTOCOL_DEFINITION('international standard',
'ap242_managed_model_based_3d_engineering',2020,#2301);
#2301=APPLICATION_CONTEXT('managed model based 3d engineering');
ENDSEC;
END-ISO-10303-21;
