ISO-10303-21;
HEADER;
/* Generated by software containing ST-Developer
 * from STEP Tools, Inc. (www.steptools.com) 
 */
/* OPTION: using custom renumber hook */

FILE_DESCRIPTION(
/* description */ ('STEP AP242 Edition 2',
'CAx-IF Rec.Pracs.---Representation and Presentation of Product Manufa
cturing Information (PMI)---4.0---2014-10-13',
'CAx-IF Rec.Pracs.---3D Tessellated Geometry---0.4---2014-09-14','2;1',
'CAx-IF Rec.Pracs.---User Defined Attributes---1.5---2016-08-15'),
/* implementation_level */ '2;1');

FILE_NAME(
/* name */ 'Motor',
/* time_stamp */ '2026-06-18T17:44:38Z',
/* author */ (''),
/* organization */ (''),
/* preprocessor_version */ 'ST-DEVELOPER v20',
/* originating_system */ 'ONSHAPE BY PTC INC, 1.216',
/* authorisation */ '  ');

FILE_SCHEMA (('AP242_MANAGED_MODEL_BASED_3D_ENGINEERING_MIM_LF { 1 0 10303 442 3 1 4 }'));
ENDSEC;

DATA;
#10=SHAPE_REPRESENTATION_RELATIONSHIP('','',#286,#12);
#11=SHAPE_REPRESENTATION_RELATIONSHIP('','',#287,#13);
#12=ADVANCED_BREP_SHAPE_REPRESENTATION('',(#282),#461);
#13=ADVANCED_BREP_SHAPE_REPRESENTATION('',(#283),#462);
#14=VERTEX_LOOP('',#125);
#15=CONICAL_SURFACE('',#298,0.003175,1.02974425867665);
#16=CYLINDRICAL_SURFACE('',#296,0.003302);
#17=CYLINDRICAL_SURFACE('',#300,0.003175);
#18=CYLINDRICAL_SURFACE('',#312,0.003302);
#19=CIRCLE('',#293,0.003302);
#20=CIRCLE('',#297,0.003302);
#21=CIRCLE('',#299,0.003175);
#22=CIRCLE('',#301,0.003175);
#23=CIRCLE('',#309,0.003302);
#24=CIRCLE('',#311,0.003302);
#25=ORIENTED_EDGE('',*,*,#85,.F.);
#26=ORIENTED_EDGE('',*,*,#86,.T.);
#27=ORIENTED_EDGE('',*,*,#87,.T.);
#28=ORIENTED_EDGE('',*,*,#88,.F.);
#29=ORIENTED_EDGE('',*,*,#89,.F.);
#30=ORIENTED_EDGE('',*,*,#90,.T.);
#31=ORIENTED_EDGE('',*,*,#91,.T.);
#32=ORIENTED_EDGE('',*,*,#87,.F.);
#33=ORIENTED_EDGE('',*,*,#92,.F.);
#34=ORIENTED_EDGE('',*,*,#93,.T.);
#35=ORIENTED_EDGE('',*,*,#94,.T.);
#36=ORIENTED_EDGE('',*,*,#90,.F.);
#37=ORIENTED_EDGE('',*,*,#95,.F.);
#38=ORIENTED_EDGE('',*,*,#93,.F.);
#39=ORIENTED_EDGE('',*,*,#96,.T.);
#40=ORIENTED_EDGE('',*,*,#85,.T.);
#41=ORIENTED_EDGE('',*,*,#97,.T.);
#42=ORIENTED_EDGE('',*,*,#94,.F.);
#43=ORIENTED_EDGE('',*,*,#97,.F.);
#44=ORIENTED_EDGE('',*,*,#88,.T.);
#45=ORIENTED_EDGE('',*,*,#91,.F.);
#46=ORIENTED_EDGE('',*,*,#92,.T.);
#47=ORIENTED_EDGE('',*,*,#89,.T.);
#48=ORIENTED_EDGE('',*,*,#86,.F.);
#49=ORIENTED_EDGE('',*,*,#96,.F.);
#50=ORIENTED_EDGE('',*,*,#98,.T.);
#51=ORIENTED_EDGE('',*,*,#95,.T.);
#52=ORIENTED_EDGE('',*,*,#99,.F.);
#53=ORIENTED_EDGE('',*,*,#99,.T.);
#54=ORIENTED_EDGE('',*,*,#100,.F.);
#55=ORIENTED_EDGE('',*,*,#100,.T.);
#56=ORIENTED_EDGE('',*,*,#98,.F.);
#57=ORIENTED_EDGE('',*,*,#101,.F.);
#58=ORIENTED_EDGE('',*,*,#102,.F.);
#59=ORIENTED_EDGE('',*,*,#103,.T.);
#60=ORIENTED_EDGE('',*,*,#104,.T.);
#61=ORIENTED_EDGE('',*,*,#105,.T.);
#62=ORIENTED_EDGE('',*,*,#106,.F.);
#63=ORIENTED_EDGE('',*,*,#107,.F.);
#64=ORIENTED_EDGE('',*,*,#102,.T.);
#65=ORIENTED_EDGE('',*,*,#108,.T.);
#66=ORIENTED_EDGE('',*,*,#109,.F.);
#67=ORIENTED_EDGE('',*,*,#110,.F.);
#68=ORIENTED_EDGE('',*,*,#106,.T.);
#69=ORIENTED_EDGE('',*,*,#111,.F.);
#70=ORIENTED_EDGE('',*,*,#104,.F.);
#71=ORIENTED_EDGE('',*,*,#112,.T.);
#72=ORIENTED_EDGE('',*,*,#109,.T.);
#73=ORIENTED_EDGE('',*,*,#113,.T.);
#74=ORIENTED_EDGE('',*,*,#103,.F.);
#75=ORIENTED_EDGE('',*,*,#107,.T.);
#76=ORIENTED_EDGE('',*,*,#110,.T.);
#77=ORIENTED_EDGE('',*,*,#112,.F.);
#78=ORIENTED_EDGE('',*,*,#114,.T.);
#79=ORIENTED_EDGE('',*,*,#101,.T.);
#80=ORIENTED_EDGE('',*,*,#111,.T.);
#81=ORIENTED_EDGE('',*,*,#108,.F.);
#82=ORIENTED_EDGE('',*,*,#105,.F.);
#83=ORIENTED_EDGE('',*,*,#113,.F.);
#84=ORIENTED_EDGE('',*,*,#114,.F.);
#85=EDGE_CURVE('',#115,#116,#138,.T.);
#86=EDGE_CURVE('',#115,#117,#139,.T.);
#87=EDGE_CURVE('',#117,#118,#140,.T.);
#88=EDGE_CURVE('',#116,#118,#141,.T.);
#89=EDGE_CURVE('',#119,#117,#142,.T.);
#90=EDGE_CURVE('',#119,#120,#143,.T.);
#91=EDGE_CURVE('',#120,#118,#144,.T.);
#92=EDGE_CURVE('',#121,#119,#145,.T.);
#93=EDGE_CURVE('',#121,#122,#146,.T.);
#94=EDGE_CURVE('',#122,#120,#147,.T.);
#95=EDGE_CURVE('',#123,#123,#19,.F.);
#96=EDGE_CURVE('',#121,#115,#148,.T.);
#97=EDGE_CURVE('',#116,#122,#149,.T.);
#98=EDGE_CURVE('',#124,#124,#20,.T.);
#99=EDGE_CURVE('',#126,#126,#21,.T.);
#100=EDGE_CURVE('',#127,#127,#22,.T.);
#101=EDGE_CURVE('',#128,#129,#150,.T.);
#102=EDGE_CURVE('',#130,#128,#151,.T.);
#103=EDGE_CURVE('',#130,#131,#152,.T.);
#104=EDGE_CURVE('',#131,#129,#153,.T.);
#105=EDGE_CURVE('',#128,#132,#154,.T.);
#106=EDGE_CURVE('',#133,#132,#155,.T.);
#107=EDGE_CURVE('',#130,#133,#156,.T.);
#108=EDGE_CURVE('',#132,#134,#157,.T.);
#109=EDGE_CURVE('',#135,#134,#158,.T.);
#110=EDGE_CURVE('',#133,#135,#159,.T.);
#111=EDGE_CURVE('',#129,#134,#160,.T.);
#112=EDGE_CURVE('',#131,#135,#161,.T.);
#113=EDGE_CURVE('',#136,#136,#23,.F.);
#114=EDGE_CURVE('',#137,#137,#24,.T.);
#115=VERTEX_POINT('',#390);
#116=VERTEX_POINT('',#391);
#117=VERTEX_POINT('',#393);
#118=VERTEX_POINT('',#395);
#119=VERTEX_POINT('',#399);
#120=VERTEX_POINT('',#401);
#121=VERTEX_POINT('',#405);
#122=VERTEX_POINT('',#407);
#123=VERTEX_POINT('',#411);
#124=VERTEX_POINT('',#418);
#125=VERTEX_POINT('',#420);
#126=VERTEX_POINT('',#422);
#127=VERTEX_POINT('',#425);
#128=VERTEX_POINT('',#430);
#129=VERTEX_POINT('',#431);
#130=VERTEX_POINT('',#433);
#131=VERTEX_POINT('',#435);
#132=VERTEX_POINT('',#439);
#133=VERTEX_POINT('',#441);
#134=VERTEX_POINT('',#445);
#135=VERTEX_POINT('',#447);
#136=VERTEX_POINT('',#454);
#137=VERTEX_POINT('',#457);
#138=LINE('',#389,#162);
#139=LINE('',#392,#163);
#140=LINE('',#394,#164);
#141=LINE('',#396,#165);
#142=LINE('',#398,#166);
#143=LINE('',#400,#167);
#144=LINE('',#402,#168);
#145=LINE('',#404,#169);
#146=LINE('',#406,#170);
#147=LINE('',#408,#171);
#148=LINE('',#412,#172);
#149=LINE('',#413,#173);
#150=LINE('',#429,#174);
#151=LINE('',#432,#175);
#152=LINE('',#434,#176);
#153=LINE('',#436,#177);
#154=LINE('',#438,#178);
#155=LINE('',#440,#179);
#156=LINE('',#442,#180);
#157=LINE('',#444,#181);
#158=LINE('',#446,#182);
#159=LINE('',#448,#183);
#160=LINE('',#450,#184);
#161=LINE('',#451,#185);
#162=VECTOR('',#317,1.);
#163=VECTOR('',#318,1.);
#164=VECTOR('',#319,1.);
#165=VECTOR('',#320,1.);
#166=VECTOR('',#323,1.);
#167=VECTOR('',#324,1.);
#168=VECTOR('',#325,1.);
#169=VECTOR('',#328,1.);
#170=VECTOR('',#329,1.);
#171=VECTOR('',#330,1.);
#172=VECTOR('',#335,1.);
#173=VECTOR('',#336,1.);
#174=VECTOR('',#359,1.);
#175=VECTOR('',#360,1.);
#176=VECTOR('',#361,1.);
#177=VECTOR('',#362,1.);
#178=VECTOR('',#365,1.);
#179=VECTOR('',#366,1.);
#180=VECTOR('',#367,1.);
#181=VECTOR('',#370,1.);
#182=VECTOR('',#371,1.);
#183=VECTOR('',#372,1.);
#184=VECTOR('',#375,1.);
#185=VECTOR('',#376,1.);
#186=EDGE_LOOP('',(#25,#26,#27,#28));
#187=EDGE_LOOP('',(#29,#30,#31,#32));
#188=EDGE_LOOP('',(#33,#34,#35,#36));
#189=EDGE_LOOP('',(#37));
#190=EDGE_LOOP('',(#38,#39,#40,#41));
#191=EDGE_LOOP('',(#42,#43,#44,#45));
#192=EDGE_LOOP('',(#46,#47,#48,#49));
#193=EDGE_LOOP('',(#50));
#194=EDGE_LOOP('',(#51));
#195=EDGE_LOOP('',(#52));
#196=EDGE_LOOP('',(#53));
#197=EDGE_LOOP('',(#54));
#198=EDGE_LOOP('',(#55));
#199=EDGE_LOOP('',(#56));
#200=EDGE_LOOP('',(#57,#58,#59,#60));
#201=EDGE_LOOP('',(#61,#62,#63,#64));
#202=EDGE_LOOP('',(#65,#66,#67,#68));
#203=EDGE_LOOP('',(#69,#70,#71,#72));
#204=EDGE_LOOP('',(#73));
#205=EDGE_LOOP('',(#74,#75,#76,#77));
#206=EDGE_LOOP('',(#78));
#207=EDGE_LOOP('',(#79,#80,#81,#82));
#208=EDGE_LOOP('',(#83));
#209=EDGE_LOOP('',(#84));
#210=FACE_BOUND('',#186,.T.);
#211=FACE_BOUND('',#187,.T.);
#212=FACE_BOUND('',#188,.T.);
#213=FACE_BOUND('',#189,.T.);
#214=FACE_BOUND('',#190,.T.);
#215=FACE_BOUND('',#191,.T.);
#216=FACE_BOUND('',#192,.T.);
#217=FACE_BOUND('',#193,.T.);
#218=FACE_BOUND('',#194,.T.);
#219=FACE_BOUND('',#14,.T.);
#220=FACE_BOUND('',#195,.T.);
#221=FACE_BOUND('',#196,.T.);
#222=FACE_BOUND('',#197,.T.);
#223=FACE_BOUND('',#198,.T.);
#224=FACE_BOUND('',#199,.T.);
#225=FACE_BOUND('',#200,.T.);
#226=FACE_BOUND('',#201,.T.);
#227=FACE_BOUND('',#202,.T.);
#228=FACE_BOUND('',#203,.T.);
#229=FACE_BOUND('',#204,.T.);
#230=FACE_BOUND('',#205,.T.);
#231=FACE_BOUND('',#206,.T.);
#232=FACE_BOUND('',#207,.T.);
#233=FACE_BOUND('',#208,.T.);
#234=FACE_BOUND('',#209,.T.);
#235=PLANE('',#289);
#236=PLANE('',#290);
#237=PLANE('',#291);
#238=PLANE('',#292);
#239=PLANE('',#294);
#240=PLANE('',#295);
#241=PLANE('',#302);
#242=PLANE('',#304);
#243=PLANE('',#305);
#244=PLANE('',#306);
#245=PLANE('',#307);
#246=PLANE('',#308);
#247=PLANE('',#310);
#248=ADVANCED_FACE('',(#210),#235,.T.);
#249=ADVANCED_FACE('',(#211),#236,.F.);
#250=ADVANCED_FACE('',(#212),#237,.F.);
#251=ADVANCED_FACE('',(#213,#214),#238,.F.);
#252=ADVANCED_FACE('',(#215),#239,.T.);
#253=ADVANCED_FACE('',(#216),#240,.T.);
#254=ADVANCED_FACE('',(#217,#218),#16,.F.);
#255=ADVANCED_FACE('',(#219,#220),#15,.F.);
#256=ADVANCED_FACE('',(#221,#222),#17,.F.);
#257=ADVANCED_FACE('',(#223,#224),#241,.T.);
#258=ADVANCED_FACE('',(#225),#242,.T.);
#259=ADVANCED_FACE('',(#226),#243,.F.);
#260=ADVANCED_FACE('',(#227),#244,.F.);
#261=ADVANCED_FACE('',(#228),#245,.T.);
#262=ADVANCED_FACE('',(#229,#230),#246,.T.);
#263=ADVANCED_FACE('',(#231,#232),#247,.F.);
#264=ADVANCED_FACE('',(#233,#234),#18,.F.);
#265=CLOSED_SHELL('',(#248,#249,#250,#251,#252,#253,#254,#255,#256,#257));
#266=CLOSED_SHELL('',(#258,#259,#260,#261,#262,#263,#264));
#267=STYLED_ITEM('',(#269),#282);
#268=STYLED_ITEM('',(#270),#283);
#269=PRESENTATION_STYLE_ASSIGNMENT((#271));
#270=PRESENTATION_STYLE_ASSIGNMENT((#272));
#271=SURFACE_STYLE_USAGE(.BOTH.,#273);
#272=SURFACE_STYLE_USAGE(.BOTH.,#274);
#273=SURFACE_SIDE_STYLE('',(#275));
#274=SURFACE_SIDE_STYLE('',(#276));
#275=SURFACE_STYLE_FILL_AREA(#277);
#276=SURFACE_STYLE_FILL_AREA(#278);
#277=FILL_AREA_STYLE('',(#279));
#278=FILL_AREA_STYLE('',(#280));
#279=FILL_AREA_STYLE_COLOUR('',#281);
#280=FILL_AREA_STYLE_COLOUR('',#281);
#281=COLOUR_RGB('',0.615686274509804,0.811764705882353,0.929411764705882);
#282=MANIFOLD_SOLID_BREP('Part 2',#265);
#283=MANIFOLD_SOLID_BREP('Part 1',#266);
#284=SHAPE_DEFINITION_REPRESENTATION(#471,#286);
#285=SHAPE_DEFINITION_REPRESENTATION(#472,#287);
#286=SHAPE_REPRESENTATION('Part 2',(#288),#461);
#287=SHAPE_REPRESENTATION('Part 1',(#303),#462);
#288=AXIS2_PLACEMENT_3D('',#387,#313,#314);
#289=AXIS2_PLACEMENT_3D('',#388,#315,#316);
#290=AXIS2_PLACEMENT_3D('',#397,#321,#322);
#291=AXIS2_PLACEMENT_3D('',#403,#326,#327);
#292=AXIS2_PLACEMENT_3D('',#409,#331,#332);
#293=AXIS2_PLACEMENT_3D('',#410,#333,#334);
#294=AXIS2_PLACEMENT_3D('',#414,#337,#338);
#295=AXIS2_PLACEMENT_3D('',#415,#339,#340);
#296=AXIS2_PLACEMENT_3D('',#416,#341,#342);
#297=AXIS2_PLACEMENT_3D('',#417,#343,#344);
#298=AXIS2_PLACEMENT_3D('',#419,#345,#346);
#299=AXIS2_PLACEMENT_3D('',#421,#347,#348);
#300=AXIS2_PLACEMENT_3D('',#423,#349,#350);
#301=AXIS2_PLACEMENT_3D('',#424,#351,#352);
#302=AXIS2_PLACEMENT_3D('',#426,#353,#354);
#303=AXIS2_PLACEMENT_3D('',#427,#355,#356);
#304=AXIS2_PLACEMENT_3D('',#428,#357,#358);
#305=AXIS2_PLACEMENT_3D('',#437,#363,#364);
#306=AXIS2_PLACEMENT_3D('',#443,#368,#369);
#307=AXIS2_PLACEMENT_3D('',#449,#373,#374);
#308=AXIS2_PLACEMENT_3D('',#452,#377,#378);
#309=AXIS2_PLACEMENT_3D('',#453,#379,#380);
#310=AXIS2_PLACEMENT_3D('',#455,#381,#382);
#311=AXIS2_PLACEMENT_3D('',#456,#383,#384);
#312=AXIS2_PLACEMENT_3D('',#458,#385,#386);
#313=DIRECTION('',(0.,0.,1.));
#314=DIRECTION('',(1.,0.,0.));
#315=DIRECTION('',(-1.,0.,1.36823716056963E-16));
#316=DIRECTION('',(1.36823716056963E-16,0.,1.));
#317=DIRECTION('',(0.,1.,0.));
#318=DIRECTION('',(1.36823716056963E-16,1.52054962496699E-16,1.));
#319=DIRECTION('',(0.,1.,0.));
#320=DIRECTION('',(1.36823716056963E-16,0.,1.));
#321=DIRECTION('',(0.,0.,-1.));
#322=DIRECTION('',(-1.,0.,0.));
#323=DIRECTION('',(-1.,0.,1.36823716056963E-16));
#324=DIRECTION('',(0.,1.,0.));
#325=DIRECTION('',(-1.,0.,0.));
#326=DIRECTION('',(-1.,0.,1.36823716056963E-16));
#327=DIRECTION('',(1.36823716056963E-16,0.,1.));
#328=DIRECTION('',(1.36823716056963E-16,1.52054962496699E-16,1.));
#329=DIRECTION('',(0.,1.,0.));
#330=DIRECTION('',(1.36823716056963E-16,0.,1.));
#331=DIRECTION('',(0.,0.,1.));
#332=DIRECTION('',(1.,0.,0.));
#333=DIRECTION('',(0.,0.,1.));
#334=DIRECTION('',(1.,0.,0.));
#335=DIRECTION('',(-1.,0.,1.36823716056963E-16));
#336=DIRECTION('',(1.,0.,0.));
#337=DIRECTION('',(0.,1.,0.));
#338=DIRECTION('',(-1.,0.,0.));
#339=DIRECTION('',(2.08047250137005E-32,-1.,1.52054962496699E-16));
#340=DIRECTION('',(0.,-1.52054962496699E-16,-1.));
#341=DIRECTION('',(0.,0.,1.));
#342=DIRECTION('',(1.,0.,0.));
#343=DIRECTION('',(0.,0.,1.));
#344=DIRECTION('',(1.,0.,0.));
#345=DIRECTION('',(0.,0.,-1.));
#346=DIRECTION('',(-1.,0.,0.));
#347=DIRECTION('',(0.,0.,1.));
#348=DIRECTION('',(1.,0.,0.));
#349=DIRECTION('',(0.,0.,1.));
#350=DIRECTION('',(1.,0.,0.));
#351=DIRECTION('',(0.,0.,1.));
#352=DIRECTION('',(1.,0.,0.));
#353=DIRECTION('',(0.,0.,-1.));
#354=DIRECTION('',(-1.,0.,0.));
#355=DIRECTION('',(0.,0.,1.));
#356=DIRECTION('',(1.,0.,0.));
#357=DIRECTION('',(0.,1.,0.));
#358=DIRECTION('',(0.,0.,1.));
#359=DIRECTION('',(1.,0.,0.));
#360=DIRECTION('',(0.,0.,-1.));
#361=DIRECTION('',(1.,0.,0.));
#362=DIRECTION('',(0.,0.,-1.));
#363=DIRECTION('',(1.,0.,0.));
#364=DIRECTION('',(0.,0.,-1.));
#365=DIRECTION('',(0.,-1.,0.));
#366=DIRECTION('',(0.,0.,-1.));
#367=DIRECTION('',(0.,-1.,0.));
#368=DIRECTION('',(0.,1.,0.));
#369=DIRECTION('',(0.,0.,1.));
#370=DIRECTION('',(1.,0.,0.));
#371=DIRECTION('',(0.,0.,-1.));
#372=DIRECTION('',(1.,0.,0.));
#373=DIRECTION('',(1.,0.,0.));
#374=DIRECTION('',(0.,0.,-1.));
#375=DIRECTION('',(0.,-1.,0.));
#376=DIRECTION('',(0.,-1.,0.));
#377=DIRECTION('',(0.,0.,1.));
#378=DIRECTION('',(1.,0.,0.));
#379=DIRECTION('',(0.,0.,1.));
#380=DIRECTION('',(1.,0.,0.));
#381=DIRECTION('',(0.,0.,1.));
#382=DIRECTION('',(1.,0.,0.));
#383=DIRECTION('',(0.,0.,1.));
#384=DIRECTION('',(1.,0.,0.));
#385=DIRECTION('',(0.,0.,1.));
#386=DIRECTION('',(1.,0.,0.));
#387=CARTESIAN_POINT('',(0.,0.,0.));
#388=CARTESIAN_POINT('',(-0.00803615143724567,-0.0232681408425698,0.0126785291758528));
#389=CARTESIAN_POINT('',(-0.00803615143724567,-0.0232681408425698,0.00254));
#390=CARTESIAN_POINT('',(-0.00803615143724567,-0.0040622591574302,0.00254));
#391=CARTESIAN_POINT('',(-0.00803615143724567,0.0040622591574302,0.00254));
#392=CARTESIAN_POINT('',(-0.00803615143724567,-0.0040622591574302,0.0139485291758528));
#393=CARTESIAN_POINT('',(-0.00803615143724567,-0.0040622591574302,0.0253570583517057));
#394=CARTESIAN_POINT('',(-0.00803615143724567,-0.0232681408425698,0.0253570583517057));
#395=CARTESIAN_POINT('',(-0.00803615143724567,0.0040622591574302,0.0253570583517057));
#396=CARTESIAN_POINT('',(-0.00803615143724567,0.0040622591574302,0.0126785291758528));
#397=CARTESIAN_POINT('',(3.46944695195361E-18,-0.0232681408425698,0.0253570583517057));
#398=CARTESIAN_POINT('',(0.0173638485627543,-0.0040622591574302,0.0253570583517057));
#399=CARTESIAN_POINT('',(0.00803615143724568,-0.0040622591574302,0.0253570583517057));
#400=CARTESIAN_POINT('',(0.00803615143724568,-0.0232681408425698,0.0253570583517057));
#401=CARTESIAN_POINT('',(0.00803615143724568,0.0040622591574302,0.0253570583517057));
#402=CARTESIAN_POINT('',(3.46944695195361E-18,0.0040622591574302,0.0253570583517057));
#403=CARTESIAN_POINT('',(0.00803615143724568,-0.0232681408425698,0.0126785291758528));
#404=CARTESIAN_POINT('',(0.00803615143724568,-0.0040622591574302,0.0126785291758528));
#405=CARTESIAN_POINT('',(0.00803615143724567,-0.0040622591574302,0.00254));
#406=CARTESIAN_POINT('',(0.00803615143724567,-0.0232681408425698,0.00254));
#407=CARTESIAN_POINT('',(0.00803615143724567,0.0040622591574302,0.00254));
#408=CARTESIAN_POINT('',(0.00803615143724568,0.0040622591574302,0.0126785291758528));
#409=CARTESIAN_POINT('',(0.,-0.0232681408425698,0.00254));
#410=CARTESIAN_POINT('',(0.,0.,0.00254));
#411=CARTESIAN_POINT('',(0.003302,0.,0.00254));
#412=CARTESIAN_POINT('',(0.0173638485627543,-0.0040622591574302,0.00254));
#413=CARTESIAN_POINT('',(0.,0.0040622591574302,0.00254));
#414=CARTESIAN_POINT('',(3.46944695195361E-18,0.0040622591574302,0.0126785291758528));
#415=CARTESIAN_POINT('',(0.0173638485627543,-0.0040622591574302,0.0139485291758528));
#416=CARTESIAN_POINT('',(0.,0.,0.));
#417=CARTESIAN_POINT('',(0.,0.,0.00635));
#418=CARTESIAN_POINT('',(0.003302,0.,0.00635));
#419=CARTESIAN_POINT('',(0.,0.,0.0127));
#420=CARTESIAN_POINT('',(0.,0.,0.0146077324654125));
#421=CARTESIAN_POINT('',(0.,0.,0.0127));
#422=CARTESIAN_POINT('',(0.003175,0.,0.0127));
#423=CARTESIAN_POINT('',(0.,0.,0.));
#424=CARTESIAN_POINT('',(0.,0.,0.00635));
#425=CARTESIAN_POINT('',(0.003175,0.,0.00635));
#426=CARTESIAN_POINT('',(0.003302,0.,0.00635));
#427=CARTESIAN_POINT('',(0.,0.,0.));
#428=CARTESIAN_POINT('',(0.,0.0040622591574302,0.00254));
#429=CARTESIAN_POINT('',(0.,0.0040622591574302,0.));
#430=CARTESIAN_POINT('',(-0.00803615143724567,0.0040622591574302,0.));
#431=CARTESIAN_POINT('',(0.00803615143724567,0.0040622591574302,0.));
#432=CARTESIAN_POINT('',(-0.00803615143724567,0.0040622591574302,0.00254));
#433=CARTESIAN_POINT('',(-0.00803615143724567,0.0040622591574302,0.00254));
#434=CARTESIAN_POINT('',(0.,0.0040622591574302,0.00254));
#435=CARTESIAN_POINT('',(0.00803615143724567,0.0040622591574302,0.00254));
#436=CARTESIAN_POINT('',(0.00803615143724567,0.0040622591574302,0.00254));
#437=CARTESIAN_POINT('',(-0.00803615143724567,-1.7347234759768E-18,0.00254));
#438=CARTESIAN_POINT('',(-0.00803615143724567,-1.7347234759768E-18,0.));
#439=CARTESIAN_POINT('',(-0.00803615143724567,-0.0040622591574302,0.));
#440=CARTESIAN_POINT('',(-0.00803615143724567,-0.0040622591574302,0.00254));
#441=CARTESIAN_POINT('',(-0.00803615143724567,-0.0040622591574302,0.00254));
#442=CARTESIAN_POINT('',(-0.00803615143724567,-1.7347234759768E-18,0.00254));
#443=CARTESIAN_POINT('',(0.,-0.0040622591574302,0.00254));
#444=CARTESIAN_POINT('',(0.,-0.0040622591574302,0.));
#445=CARTESIAN_POINT('',(0.00803615143724567,-0.0040622591574302,0.));
#446=CARTESIAN_POINT('',(0.00803615143724567,-0.0040622591574302,0.00254));
#447=CARTESIAN_POINT('',(0.00803615143724567,-0.0040622591574302,0.00254));
#448=CARTESIAN_POINT('',(0.,-0.0040622591574302,0.00254));
#449=CARTESIAN_POINT('',(0.00803615143724567,-1.7347234759768E-18,0.00254));
#450=CARTESIAN_POINT('',(0.00803615143724567,-1.7347234759768E-18,0.));
#451=CARTESIAN_POINT('',(0.00803615143724567,-1.7347234759768E-18,0.00254));
#452=CARTESIAN_POINT('',(0.,-1.7347234759768E-18,0.00254));
#453=CARTESIAN_POINT('',(0.,0.,0.00254));
#454=CARTESIAN_POINT('',(0.003302,0.,0.00254));
#455=CARTESIAN_POINT('',(0.,-1.7347234759768E-18,0.));
#456=CARTESIAN_POINT('',(0.,0.,0.));
#457=CARTESIAN_POINT('',(0.003302,0.,0.));
#458=CARTESIAN_POINT('',(0.,0.,0.));
#459=MECHANICAL_DESIGN_GEOMETRIC_PRESENTATION_REPRESENTATION('',(#267),
#461);
#460=MECHANICAL_DESIGN_GEOMETRIC_PRESENTATION_REPRESENTATION('',(#268),
#462);
#461=(
GEOMETRIC_REPRESENTATION_CONTEXT(3)
GLOBAL_UNCERTAINTY_ASSIGNED_CONTEXT((#463))
GLOBAL_UNIT_ASSIGNED_CONTEXT((#469,#467,#465))
REPRESENTATION_CONTEXT('Part 2','TOP_LEVEL_ASSEMBLY_PART')
);
#462=(
GEOMETRIC_REPRESENTATION_CONTEXT(3)
GLOBAL_UNCERTAINTY_ASSIGNED_CONTEXT((#464))
GLOBAL_UNIT_ASSIGNED_CONTEXT((#470,#468,#466))
REPRESENTATION_CONTEXT('Part 1','TOP_LEVEL_ASSEMBLY_PART')
);
#463=UNCERTAINTY_MEASURE_WITH_UNIT(LENGTH_MEASURE(1.E-8),#469,
'DISTANCE_ACCURACY_VALUE','Maximum Tolerance applied to model');
#464=UNCERTAINTY_MEASURE_WITH_UNIT(LENGTH_MEASURE(1.E-8),#470,
'DISTANCE_ACCURACY_VALUE','Maximum Tolerance applied to model');
#465=(
NAMED_UNIT(*)
SI_UNIT($,.STERADIAN.)
SOLID_ANGLE_UNIT()
);
#466=(
NAMED_UNIT(*)
SI_UNIT($,.STERADIAN.)
SOLID_ANGLE_UNIT()
);
#467=(
NAMED_UNIT(*)
PLANE_ANGLE_UNIT()
SI_UNIT($,.RADIAN.)
);
#468=(
NAMED_UNIT(*)
PLANE_ANGLE_UNIT()
SI_UNIT($,.RADIAN.)
);
#469=(
LENGTH_UNIT()
NAMED_UNIT(*)
SI_UNIT($,.METRE.)
);
#470=(
LENGTH_UNIT()
NAMED_UNIT(*)
SI_UNIT($,.METRE.)
);
#471=PRODUCT_DEFINITION_SHAPE('','',#473);
#472=PRODUCT_DEFINITION_SHAPE('','',#474);
#473=PRODUCT_DEFINITION('','',#477,#475);
#474=PRODUCT_DEFINITION('','',#478,#476);
#475=PRODUCT_DEFINITION_CONTEXT('',#489,'design');
#476=PRODUCT_DEFINITION_CONTEXT('',#490,'design');
#477=PRODUCT_DEFINITION_FORMATION_WITH_SPECIFIED_SOURCE('','',#481,
 .NOT_KNOWN.);
#478=PRODUCT_DEFINITION_FORMATION_WITH_SPECIFIED_SOURCE('','',#482,
 .NOT_KNOWN.);
#479=PRODUCT_RELATED_PRODUCT_CATEGORY('','',(#481));
#480=PRODUCT_RELATED_PRODUCT_CATEGORY('','',(#482));
#481=PRODUCT('Part 2','Part 2','Part 2',(#485));
#482=PRODUCT('Part 1','Part 1','Part 1',(#486));
#483=PRODUCT_CATEGORY('','');
#484=PRODUCT_CATEGORY('','');
#485=PRODUCT_CONTEXT('',#489,'mechanical');
#486=PRODUCT_CONTEXT('',#490,'mechanical');
#487=APPLICATION_PROTOCOL_DEFINITION('international standard',
'ap242_managed_model_based_3d_engineering',2020,#489);
#488=APPLICATION_PROTOCOL_DEFINITION('international standard',
'ap242_managed_model_based_3d_engineering',2020,#490);
#489=APPLICATION_CONTEXT('managed model based 3d engineering');
#490=APPLICATION_CONTEXT('managed model based 3d engineering');
ENDSEC;
END-ISO-10303-21;
