ISO-10303-21;
HEADER;
/* Generated by software containing ST-Developer
 * from STEP Tools, Inc. (www.steptools.com) 
 */
/* OPTION: using custom renumber hook */

FILE_DESCRIPTION(
/* description */ ('STEP AP242 Edition 2',
'CAx-IF Rec.Pracs.---Representation and Presentation of Product Manufa
cturing Information (PMI)---4.0---2014-10-13',
'CAx-IF Rec.Pracs.---3D Tessellated Geometry---0.4---2014-09-14','2;1',
'CAx-IF Rec.Pracs.---User Defined Attributes---1.5---2016-08-15'),
/* implementation_level */ '2;1');

FILE_NAME(
/* name */ 'Arm Pt.2',
/* time_stamp */ '2026-06-07T21:35:17Z',
/* author */ (''),
/* organization */ (''),
/* preprocessor_version */ 'ST-DEVELOPER v20',
/* originating_system */ 'ONSHAPE BY PTC INC, 1.216',
/* authorisation */ '  ');

FILE_SCHEMA (('AP242_MANAGED_MODEL_BASED_3D_ENGINEERING_MIM_LF { 1 0 10303 442 3 1 4 }'));
ENDSEC;

DATA;
#10=SHAPE_REPRESENTATION_RELATIONSHIP('','',#360,#11);
#11=ADVANCED_BREP_SHAPE_REPRESENTATION('',(#358),#572);
#12=CYLINDRICAL_SURFACE('',#378,0.003175);
#13=CYLINDRICAL_SURFACE('',#382,0.003302);
#14=CIRCLE('',#368,0.003302);
#15=CIRCLE('',#370,0.003175);
#16=CIRCLE('',#374,0.003302);
#17=CIRCLE('',#377,0.003175);
#18=CIRCLE('',#379,0.003175);
#19=CIRCLE('',#381,0.003302);
#20=ORIENTED_EDGE('',*,*,#114,.T.);
#21=ORIENTED_EDGE('',*,*,#115,.T.);
#22=ORIENTED_EDGE('',*,*,#116,.T.);
#23=ORIENTED_EDGE('',*,*,#117,.F.);
#24=ORIENTED_EDGE('',*,*,#118,.F.);
#25=ORIENTED_EDGE('',*,*,#119,.T.);
#26=ORIENTED_EDGE('',*,*,#120,.T.);
#27=ORIENTED_EDGE('',*,*,#121,.F.);
#28=ORIENTED_EDGE('',*,*,#122,.F.);
#29=ORIENTED_EDGE('',*,*,#123,.T.);
#30=ORIENTED_EDGE('',*,*,#124,.T.);
#31=ORIENTED_EDGE('',*,*,#125,.T.);
#32=ORIENTED_EDGE('',*,*,#126,.T.);
#33=ORIENTED_EDGE('',*,*,#127,.T.);
#34=ORIENTED_EDGE('',*,*,#128,.T.);
#35=ORIENTED_EDGE('',*,*,#129,.T.);
#36=ORIENTED_EDGE('',*,*,#130,.F.);
#37=ORIENTED_EDGE('',*,*,#131,.F.);
#38=ORIENTED_EDGE('',*,*,#132,.T.);
#39=ORIENTED_EDGE('',*,*,#133,.T.);
#40=ORIENTED_EDGE('',*,*,#134,.F.);
#41=ORIENTED_EDGE('',*,*,#120,.F.);
#42=ORIENTED_EDGE('',*,*,#135,.T.);
#43=ORIENTED_EDGE('',*,*,#136,.T.);
#44=ORIENTED_EDGE('',*,*,#137,.F.);
#45=ORIENTED_EDGE('',*,*,#116,.F.);
#46=ORIENTED_EDGE('',*,*,#138,.F.);
#47=ORIENTED_EDGE('',*,*,#139,.T.);
#48=ORIENTED_EDGE('',*,*,#140,.T.);
#49=ORIENTED_EDGE('',*,*,#141,.F.);
#50=ORIENTED_EDGE('',*,*,#142,.F.);
#51=ORIENTED_EDGE('',*,*,#143,.F.);
#52=ORIENTED_EDGE('',*,*,#118,.T.);
#53=ORIENTED_EDGE('',*,*,#144,.T.);
#54=ORIENTED_EDGE('',*,*,#145,.T.);
#55=ORIENTED_EDGE('',*,*,#146,.T.);
#56=ORIENTED_EDGE('',*,*,#135,.F.);
#57=ORIENTED_EDGE('',*,*,#119,.F.);
#58=ORIENTED_EDGE('',*,*,#143,.T.);
#59=ORIENTED_EDGE('',*,*,#147,.T.);
#60=ORIENTED_EDGE('',*,*,#148,.F.);
#61=ORIENTED_EDGE('',*,*,#144,.F.);
#62=ORIENTED_EDGE('',*,*,#117,.T.);
#63=ORIENTED_EDGE('',*,*,#137,.T.);
#64=ORIENTED_EDGE('',*,*,#142,.T.);
#65=ORIENTED_EDGE('',*,*,#148,.T.);
#66=ORIENTED_EDGE('',*,*,#136,.F.);
#67=ORIENTED_EDGE('',*,*,#146,.F.);
#68=ORIENTED_EDGE('',*,*,#149,.F.);
#69=ORIENTED_EDGE('',*,*,#150,.F.);
#70=ORIENTED_EDGE('',*,*,#131,.T.);
#71=ORIENTED_EDGE('',*,*,#151,.T.);
#72=ORIENTED_EDGE('',*,*,#139,.F.);
#73=ORIENTED_EDGE('',*,*,#152,.F.);
#74=ORIENTED_EDGE('',*,*,#153,.F.);
#75=ORIENTED_EDGE('',*,*,#132,.F.);
#76=ORIENTED_EDGE('',*,*,#150,.T.);
#77=ORIENTED_EDGE('',*,*,#154,.T.);
#78=ORIENTED_EDGE('',*,*,#121,.T.);
#79=ORIENTED_EDGE('',*,*,#134,.T.);
#80=ORIENTED_EDGE('',*,*,#155,.F.);
#81=ORIENTED_EDGE('',*,*,#126,.F.);
#82=ORIENTED_EDGE('',*,*,#141,.T.);
#83=ORIENTED_EDGE('',*,*,#156,.F.);
#84=ORIENTED_EDGE('',*,*,#127,.F.);
#85=ORIENTED_EDGE('',*,*,#155,.T.);
#86=ORIENTED_EDGE('',*,*,#130,.T.);
#87=ORIENTED_EDGE('',*,*,#157,.T.);
#88=ORIENTED_EDGE('',*,*,#122,.T.);
#89=ORIENTED_EDGE('',*,*,#156,.T.);
#90=ORIENTED_EDGE('',*,*,#140,.F.);
#91=ORIENTED_EDGE('',*,*,#151,.F.);
#92=ORIENTED_EDGE('',*,*,#147,.F.);
#93=ORIENTED_EDGE('',*,*,#157,.F.);
#94=ORIENTED_EDGE('',*,*,#129,.F.);
#95=ORIENTED_EDGE('',*,*,#158,.F.);
#96=ORIENTED_EDGE('',*,*,#123,.F.);
#97=ORIENTED_EDGE('',*,*,#159,.F.);
#98=ORIENTED_EDGE('',*,*,#124,.F.);
#99=ORIENTED_EDGE('',*,*,#158,.T.);
#100=ORIENTED_EDGE('',*,*,#128,.F.);
#101=ORIENTED_EDGE('',*,*,#159,.T.);
#102=ORIENTED_EDGE('',*,*,#133,.F.);
#103=ORIENTED_EDGE('',*,*,#153,.T.);
#104=ORIENTED_EDGE('',*,*,#125,.F.);
#105=ORIENTED_EDGE('',*,*,#145,.F.);
#106=ORIENTED_EDGE('',*,*,#138,.T.);
#107=ORIENTED_EDGE('',*,*,#115,.F.);
#108=ORIENTED_EDGE('',*,*,#160,.F.);
#109=ORIENTED_EDGE('',*,*,#152,.T.);
#110=ORIENTED_EDGE('',*,*,#154,.F.);
#111=ORIENTED_EDGE('',*,*,#149,.T.);
#112=ORIENTED_EDGE('',*,*,#160,.T.);
#113=ORIENTED_EDGE('',*,*,#114,.F.);
#114=EDGE_CURVE('',#161,#162,#193,.T.);
#115=EDGE_CURVE('',#162,#163,#194,.T.);
#116=EDGE_CURVE('',#163,#164,#195,.T.);
#117=EDGE_CURVE('',#165,#164,#196,.T.);
#118=EDGE_CURVE('',#166,#165,#197,.T.);
#119=EDGE_CURVE('',#166,#167,#198,.T.);
#120=EDGE_CURVE('',#167,#168,#199,.T.);
#121=EDGE_CURVE('',#161,#168,#200,.T.);
#122=EDGE_CURVE('',#169,#170,#201,.T.);
#123=EDGE_CURVE('',#169,#171,#202,.F.);
#124=EDGE_CURVE('',#171,#172,#203,.T.);
#125=EDGE_CURVE('',#172,#173,#204,.F.);
#126=EDGE_CURVE('',#173,#174,#205,.T.);
#127=EDGE_CURVE('',#174,#170,#206,.T.);
#128=EDGE_CURVE('',#175,#176,#207,.T.);
#129=EDGE_CURVE('',#176,#177,#208,.T.);
#130=EDGE_CURVE('',#178,#177,#209,.T.);
#131=EDGE_CURVE('',#179,#178,#210,.T.);
#132=EDGE_CURVE('',#179,#180,#211,.T.);
#133=EDGE_CURVE('',#180,#175,#212,.T.);
#134=EDGE_CURVE('',#168,#181,#213,.T.);
#135=EDGE_CURVE('',#167,#182,#214,.T.);
#136=EDGE_CURVE('',#182,#183,#215,.T.);
#137=EDGE_CURVE('',#164,#183,#216,.T.);
#138=EDGE_CURVE('',#184,#163,#217,.T.);
#139=EDGE_CURVE('',#184,#185,#218,.T.);
#140=EDGE_CURVE('',#185,#186,#219,.T.);
#141=EDGE_CURVE('',#181,#186,#220,.T.);
#142=EDGE_CURVE('',#187,#188,#221,.T.);
#143=EDGE_CURVE('',#166,#187,#222,.T.);
#144=EDGE_CURVE('',#165,#188,#223,.T.);
#145=EDGE_CURVE('',#189,#189,#14,.T.);
#146=EDGE_CURVE('',#187,#182,#224,.T.);
#147=EDGE_CURVE('',#190,#190,#15,.F.);
#148=EDGE_CURVE('',#188,#183,#225,.T.);
#149=EDGE_CURVE('',#191,#192,#226,.T.);
#150=EDGE_CURVE('',#179,#191,#227,.T.);
#151=EDGE_CURVE('',#178,#185,#228,.T.);
#152=EDGE_CURVE('',#192,#184,#229,.T.);
#153=EDGE_CURVE('',#180,#173,#16,.F.);
#154=EDGE_CURVE('',#191,#161,#230,.T.);
#155=EDGE_CURVE('',#174,#181,#231,.T.);
#156=EDGE_CURVE('',#170,#186,#232,.T.);
#157=EDGE_CURVE('',#177,#169,#17,.F.);
#158=EDGE_CURVE('',#171,#176,#18,.T.);
#159=EDGE_CURVE('',#172,#175,#19,.T.);
#160=EDGE_CURVE('',#192,#162,#233,.T.);
#161=VERTEX_POINT('',#477);
#162=VERTEX_POINT('',#478);
#163=VERTEX_POINT('',#480);
#164=VERTEX_POINT('',#482);
#165=VERTEX_POINT('',#484);
#166=VERTEX_POINT('',#486);
#167=VERTEX_POINT('',#488);
#168=VERTEX_POINT('',#490);
#169=VERTEX_POINT('',#494);
#170=VERTEX_POINT('',#495);
#171=VERTEX_POINT('',#497);
#172=VERTEX_POINT('',#499);
#173=VERTEX_POINT('',#501);
#174=VERTEX_POINT('',#503);
#175=VERTEX_POINT('',#507);
#176=VERTEX_POINT('',#508);
#177=VERTEX_POINT('',#510);
#178=VERTEX_POINT('',#512);
#179=VERTEX_POINT('',#514);
#180=VERTEX_POINT('',#516);
#181=VERTEX_POINT('',#520);
#182=VERTEX_POINT('',#522);
#183=VERTEX_POINT('',#524);
#184=VERTEX_POINT('',#527);
#185=VERTEX_POINT('',#529);
#186=VERTEX_POINT('',#531);
#187=VERTEX_POINT('',#535);
#188=VERTEX_POINT('',#536);
#189=VERTEX_POINT('',#541);
#190=VERTEX_POINT('',#545);
#191=VERTEX_POINT('',#550);
#192=VERTEX_POINT('',#551);
#193=LINE('',#476,#234);
#194=LINE('',#479,#235);
#195=LINE('',#481,#236);
#196=LINE('',#483,#237);
#197=LINE('',#485,#238);
#198=LINE('',#487,#239);
#199=LINE('',#489,#240);
#200=LINE('',#491,#241);
#201=LINE('',#493,#242);
#202=LINE('',#496,#243);
#203=LINE('',#498,#244);
#204=LINE('',#500,#245);
#205=LINE('',#502,#246);
#206=LINE('',#504,#247);
#207=LINE('',#506,#248);
#208=LINE('',#509,#249);
#209=LINE('',#511,#250);
#210=LINE('',#513,#251);
#211=LINE('',#515,#252);
#212=LINE('',#517,#253);
#213=LINE('',#519,#254);
#214=LINE('',#521,#255);
#215=LINE('',#523,#256);
#216=LINE('',#525,#257);
#217=LINE('',#526,#258);
#218=LINE('',#528,#259);
#219=LINE('',#530,#260);
#220=LINE('',#532,#261);
#221=LINE('',#534,#262);
#222=LINE('',#537,#263);
#223=LINE('',#538,#264);
#224=LINE('',#542,#265);
#225=LINE('',#546,#266);
#226=LINE('',#549,#267);
#227=LINE('',#552,#268);
#228=LINE('',#553,#269);
#229=LINE('',#554,#270);
#230=LINE('',#557,#271);
#231=LINE('',#558,#272);
#232=LINE('',#560,#273);
#233=LINE('',#569,#274);
#234=VECTOR('',#389,1.);
#235=VECTOR('',#390,1.);
#236=VECTOR('',#391,1.);
#237=VECTOR('',#392,1.);
#238=VECTOR('',#393,1.);
#239=VECTOR('',#394,1.);
#240=VECTOR('',#395,1.);
#241=VECTOR('',#396,1.);
#242=VECTOR('',#399,1.);
#243=VECTOR('',#400,1.);
#244=VECTOR('',#401,1.);
#245=VECTOR('',#402,1.);
#246=VECTOR('',#403,1.);
#247=VECTOR('',#404,1.);
#248=VECTOR('',#407,1.);
#249=VECTOR('',#408,1.);
#250=VECTOR('',#409,1.);
#251=VECTOR('',#410,1.);
#252=VECTOR('',#411,1.);
#253=VECTOR('',#412,1.);
#254=VECTOR('',#415,1.);
#255=VECTOR('',#416,1.);
#256=VECTOR('',#417,1.);
#257=VECTOR('',#418,1.);
#258=VECTOR('',#419,1.);
#259=VECTOR('',#420,1.);
#260=VECTOR('',#421,1.);
#261=VECTOR('',#422,1.);
#262=VECTOR('',#425,1.);
#263=VECTOR('',#426,1.);
#264=VECTOR('',#427,1.);
#265=VECTOR('',#432,1.);
#266=VECTOR('',#437,1.);
#267=VECTOR('',#442,1.);
#268=VECTOR('',#443,1.);
#269=VECTOR('',#444,1.);
#270=VECTOR('',#445,1.);
#271=VECTOR('',#450,1.);
#272=VECTOR('',#451,1.);
#273=VECTOR('',#454,1.);
#274=VECTOR('',#471,1.);
#275=EDGE_LOOP('',(#20,#21,#22,#23,#24,#25,#26,#27));
#276=EDGE_LOOP('',(#28,#29,#30,#31,#32,#33));
#277=EDGE_LOOP('',(#34,#35,#36,#37,#38,#39));
#278=EDGE_LOOP('',(#40,#41,#42,#43,#44,#45,#46,#47,#48,#49));
#279=EDGE_LOOP('',(#50,#51,#52,#53));
#280=EDGE_LOOP('',(#54));
#281=EDGE_LOOP('',(#55,#56,#57,#58));
#282=EDGE_LOOP('',(#59));
#283=EDGE_LOOP('',(#60,#61,#62,#63));
#284=EDGE_LOOP('',(#64,#65,#66,#67));
#285=EDGE_LOOP('',(#68,#69,#70,#71,#72,#73));
#286=EDGE_LOOP('',(#74,#75,#76,#77,#78,#79,#80,#81));
#287=EDGE_LOOP('',(#82,#83,#84,#85));
#288=EDGE_LOOP('',(#86,#87,#88,#89,#90,#91));
#289=EDGE_LOOP('',(#92));
#290=EDGE_LOOP('',(#93,#94,#95,#96));
#291=EDGE_LOOP('',(#97,#98,#99,#100));
#292=EDGE_LOOP('',(#101,#102,#103,#104));
#293=EDGE_LOOP('',(#105));
#294=EDGE_LOOP('',(#106,#107,#108,#109));
#295=EDGE_LOOP('',(#110,#111,#112,#113));
#296=FACE_BOUND('',#275,.T.);
#297=FACE_BOUND('',#276,.T.);
#298=FACE_BOUND('',#277,.T.);
#299=FACE_BOUND('',#278,.T.);
#300=FACE_BOUND('',#279,.T.);
#301=FACE_BOUND('',#280,.T.);
#302=FACE_BOUND('',#281,.T.);
#303=FACE_BOUND('',#282,.T.);
#304=FACE_BOUND('',#283,.T.);
#305=FACE_BOUND('',#284,.T.);
#306=FACE_BOUND('',#285,.T.);
#307=FACE_BOUND('',#286,.T.);
#308=FACE_BOUND('',#287,.T.);
#309=FACE_BOUND('',#288,.T.);
#310=FACE_BOUND('',#289,.T.);
#311=FACE_BOUND('',#290,.T.);
#312=FACE_BOUND('',#291,.T.);
#313=FACE_BOUND('',#292,.T.);
#314=FACE_BOUND('',#293,.T.);
#315=FACE_BOUND('',#294,.T.);
#316=FACE_BOUND('',#295,.T.);
#317=PLANE('',#362);
#318=PLANE('',#363);
#319=PLANE('',#364);
#320=PLANE('',#365);
#321=PLANE('',#366);
#322=PLANE('',#367);
#323=PLANE('',#369);
#324=PLANE('',#371);
#325=PLANE('',#372);
#326=PLANE('',#373);
#327=PLANE('',#375);
#328=PLANE('',#376);
#329=PLANE('',#380);
#330=PLANE('',#383);
#331=PLANE('',#384);
#332=ADVANCED_FACE('',(#296),#317,.T.);
#333=ADVANCED_FACE('',(#297),#318,.T.);
#334=ADVANCED_FACE('',(#298),#319,.T.);
#335=ADVANCED_FACE('',(#299),#320,.F.);
#336=ADVANCED_FACE('',(#300),#321,.T.);
#337=ADVANCED_FACE('',(#301,#302),#322,.F.);
#338=ADVANCED_FACE('',(#303,#304),#323,.T.);
#339=ADVANCED_FACE('',(#305),#324,.F.);
#340=ADVANCED_FACE('',(#306),#325,.T.);
#341=ADVANCED_FACE('',(#307),#326,.F.);
#342=ADVANCED_FACE('',(#308),#327,.F.);
#343=ADVANCED_FACE('',(#309),#328,.T.);
#344=ADVANCED_FACE('',(#310,#311),#12,.F.);
#345=ADVANCED_FACE('',(#312),#329,.T.);
#346=ADVANCED_FACE('',(#313,#314),#13,.F.);
#347=ADVANCED_FACE('',(#315),#330,.F.);
#348=ADVANCED_FACE('',(#316),#331,.T.);
#349=CLOSED_SHELL('',(#332,#333,#334,#335,#336,#337,#338,#339,#340,#341,
#342,#343,#344,#345,#346,#347,#348));
#350=STYLED_ITEM('',(#351),#358);
#351=PRESENTATION_STYLE_ASSIGNMENT((#352));
#352=SURFACE_STYLE_USAGE(.BOTH.,#353);
#353=SURFACE_SIDE_STYLE('',(#354));
#354=SURFACE_STYLE_FILL_AREA(#355);
#355=FILL_AREA_STYLE('',(#356));
#356=FILL_AREA_STYLE_COLOUR('',#357);
#357=COLOUR_RGB('',0.701960784313725,0.701960784313725,0.701960784313725);
#358=MANIFOLD_SOLID_BREP('Part 1',#349);
#359=SHAPE_DEFINITION_REPRESENTATION(#577,#360);
#360=SHAPE_REPRESENTATION('Part 1',(#361),#572);
#361=AXIS2_PLACEMENT_3D('',#474,#385,#386);
#362=AXIS2_PLACEMENT_3D('',#475,#387,#388);
#363=AXIS2_PLACEMENT_3D('',#492,#397,#398);
#364=AXIS2_PLACEMENT_3D('',#505,#405,#406);
#365=AXIS2_PLACEMENT_3D('',#518,#413,#414);
#366=AXIS2_PLACEMENT_3D('',#533,#423,#424);
#367=AXIS2_PLACEMENT_3D('',#539,#428,#429);
#368=AXIS2_PLACEMENT_3D('',#540,#430,#431);
#369=AXIS2_PLACEMENT_3D('',#543,#433,#434);
#370=AXIS2_PLACEMENT_3D('',#544,#435,#436);
#371=AXIS2_PLACEMENT_3D('',#547,#438,#439);
#372=AXIS2_PLACEMENT_3D('',#548,#440,#441);
#373=AXIS2_PLACEMENT_3D('',#555,#446,#447);
#374=AXIS2_PLACEMENT_3D('',#556,#448,#449);
#375=AXIS2_PLACEMENT_3D('',#559,#452,#453);
#376=AXIS2_PLACEMENT_3D('',#561,#455,#456);
#377=AXIS2_PLACEMENT_3D('',#562,#457,#458);
#378=AXIS2_PLACEMENT_3D('',#563,#459,#460);
#379=AXIS2_PLACEMENT_3D('',#564,#461,#462);
#380=AXIS2_PLACEMENT_3D('',#565,#463,#464);
#381=AXIS2_PLACEMENT_3D('',#566,#465,#466);
#382=AXIS2_PLACEMENT_3D('',#567,#467,#468);
#383=AXIS2_PLACEMENT_3D('',#568,#469,#470);
#384=AXIS2_PLACEMENT_3D('',#570,#472,#473);
#385=DIRECTION('',(0.,0.,1.));
#386=DIRECTION('',(1.,0.,0.));
#387=DIRECTION('',(0.,0.,1.));
#388=DIRECTION('',(1.,0.,0.));
#389=DIRECTION('',(1.,0.,0.));
#390=DIRECTION('',(0.,-1.,0.));
#391=DIRECTION('',(1.,0.,0.));
#392=DIRECTION('',(0.,-1.,0.));
#393=DIRECTION('',(1.,0.,0.));
#394=DIRECTION('',(0.,-1.,0.));
#395=DIRECTION('',(1.,0.,0.));
#396=DIRECTION('',(0.,-1.,0.));
#397=DIRECTION('',(0.,-1.,0.));
#398=DIRECTION('',(1.,0.,0.));
#399=DIRECTION('',(0.,0.,-1.));
#400=DIRECTION('',(1.,0.,0.));
#401=DIRECTION('',(0.,0.,-1.));
#402=DIRECTION('',(1.,0.,0.));
#403=DIRECTION('',(0.,0.,-1.));
#404=DIRECTION('',(1.,0.,0.));
#405=DIRECTION('',(0.,-1.,0.));
#406=DIRECTION('',(1.,0.,0.));
#407=DIRECTION('',(0.,0.,-1.));
#408=DIRECTION('',(1.,0.,0.));
#409=DIRECTION('',(0.,0.,-1.));
#410=DIRECTION('',(1.,0.,0.));
#411=DIRECTION('',(0.,0.,-1.));
#412=DIRECTION('',(1.,0.,0.));
#413=DIRECTION('',(0.,1.,0.));
#414=DIRECTION('',(0.,0.,1.));
#415=DIRECTION('',(0.,0.,-1.));
#416=DIRECTION('',(0.,0.,-1.));
#417=DIRECTION('',(1.,0.,0.));
#418=DIRECTION('',(0.,0.,-1.));
#419=DIRECTION('',(0.,0.,1.));
#420=DIRECTION('',(1.,0.,0.));
#421=DIRECTION('',(0.,0.,-1.));
#422=DIRECTION('',(1.,0.,0.));
#423=DIRECTION('',(0.,1.,0.));
#424=DIRECTION('',(0.,0.,1.));
#425=DIRECTION('',(1.,0.,0.));
#426=DIRECTION('',(0.,0.,-1.));
#427=DIRECTION('',(0.,0.,-1.));
#428=DIRECTION('',(1.,0.,0.));
#429=DIRECTION('',(0.,0.,-1.));
#430=DIRECTION('',(1.,0.,0.));
#431=DIRECTION('',(0.,0.,-1.));
#432=DIRECTION('',(0.,-1.,0.));
#433=DIRECTION('',(1.,0.,0.));
#434=DIRECTION('',(0.,0.,-1.));
#435=DIRECTION('',(1.,0.,0.));
#436=DIRECTION('',(0.,0.,-1.));
#437=DIRECTION('',(0.,-1.,0.));
#438=DIRECTION('',(0.,0.,1.));
#439=DIRECTION('',(1.,0.,0.));
#440=DIRECTION('',(0.,0.,-1.));
#441=DIRECTION('',(-1.,0.,0.));
#442=DIRECTION('',(1.,0.,0.));
#443=DIRECTION('',(0.,-1.,0.));
#444=DIRECTION('',(0.,-1.,0.));
#445=DIRECTION('',(0.,-1.,0.));
#446=DIRECTION('',(-1.,0.,0.));
#447=DIRECTION('',(0.,0.,1.));
#448=DIRECTION('',(-1.,0.,0.));
#449=DIRECTION('',(0.,0.,1.));
#450=DIRECTION('',(0.,0.,1.));
#451=DIRECTION('',(0.,-1.,0.));
#452=DIRECTION('',(0.,0.,-1.));
#453=DIRECTION('',(-1.,0.,0.));
#454=DIRECTION('',(0.,-1.,0.));
#455=DIRECTION('',(-1.,0.,0.));
#456=DIRECTION('',(0.,0.,1.));
#457=DIRECTION('',(-1.,0.,0.));
#458=DIRECTION('',(0.,0.,1.));
#459=DIRECTION('',(1.,0.,0.));
#460=DIRECTION('',(0.,0.,-1.));
#461=DIRECTION('',(1.,0.,0.));
#462=DIRECTION('',(0.,0.,-1.));
#463=DIRECTION('',(-1.,0.,0.));
#464=DIRECTION('',(0.,0.,1.));
#465=DIRECTION('',(1.,0.,0.));
#466=DIRECTION('',(0.,0.,-1.));
#467=DIRECTION('',(1.,0.,0.));
#468=DIRECTION('',(0.,0.,-1.));
#469=DIRECTION('',(1.,0.,0.));
#470=DIRECTION('',(0.,0.,-1.));
#471=DIRECTION('',(0.,0.,1.));
#472=DIRECTION('',(0.,-1.,0.));
#473=DIRECTION('',(1.,0.,0.));
#474=CARTESIAN_POINT('',(0.,0.,0.));
#475=CARTESIAN_POINT('',(0.,0.,0.0254));
#476=CARTESIAN_POINT('',(0.,0.0738626128087044,0.0254));
#477=CARTESIAN_POINT('',(-0.0123421025157765,0.0738626128087044,0.0254));
#478=CARTESIAN_POINT('',(0.0122655374350762,0.0738626128087044,0.0254));
#479=CARTESIAN_POINT('',(0.0122655374350762,0.0738626128087044,0.0254));
#480=CARTESIAN_POINT('',(0.0122655374350762,-0.0897133871912956,0.0254));
#481=CARTESIAN_POINT('',(0.,-0.0897133871912956,0.0254));
#482=CARTESIAN_POINT('',(0.0153255518525839,-0.0897133871912956,0.0254));
#483=CARTESIAN_POINT('',(0.0153255518525839,0.,0.0254));
#484=CARTESIAN_POINT('',(0.0153255518525839,0.0897133871912956,0.0254));
#485=CARTESIAN_POINT('',(0.,0.0897133871912956,0.0254));
#486=CARTESIAN_POINT('',(-0.0153255518525839,0.0897133871912956,0.0254));
#487=CARTESIAN_POINT('',(-0.0153255518525839,0.,0.0254));
#488=CARTESIAN_POINT('',(-0.0153255518525839,-0.0897133871912956,0.0254));
#489=CARTESIAN_POINT('',(0.,-0.0897133871912956,0.0254));
#490=CARTESIAN_POINT('',(-0.0123421025157765,-0.0897133871912956,0.0254));
#491=CARTESIAN_POINT('',(-0.0123421025157765,0.0738626128087044,0.0254));
#492=CARTESIAN_POINT('',(0.,0.0751326128087044,0.0127));
#493=CARTESIAN_POINT('',(0.0123421025157765,0.0751326128087044,0.0131985311167527));
#494=CARTESIAN_POINT('',(0.0123421025157765,0.0751326128087044,0.0100099038021839));
#495=CARTESIAN_POINT('',(0.0123421025157765,0.0751326128087044,0.00459050003031821));
#496=CARTESIAN_POINT('',(-0.0153255518525839,0.0751326128087044,0.0100099038021839));
#497=CARTESIAN_POINT('',(-0.00897555185258388,0.0751326128087044,0.0100099038021839));
#498=CARTESIAN_POINT('',(-0.00897555185258388,0.0751326128087044,0.0127));
#499=CARTESIAN_POINT('',(-0.00897555185258388,0.0751326128087044,0.00982830848977431));
#500=CARTESIAN_POINT('',(-0.0153255518525839,0.0751326128087044,0.00982830848977431));
#501=CARTESIAN_POINT('',(-0.0123421025157765,0.0751326128087044,0.00982830848977431));
#502=CARTESIAN_POINT('',(-0.0123421025157765,0.0751326128087044,0.0131985311167527));
#503=CARTESIAN_POINT('',(-0.0123421025157765,0.0751326128087044,0.00459050003031821));
#504=CARTESIAN_POINT('',(0.,0.0751326128087044,0.00459050003031821));
#505=CARTESIAN_POINT('',(0.,0.0751326128087044,0.0127));
#506=CARTESIAN_POINT('',(-0.00897555185258388,0.0751326128087044,0.0127));
#507=CARTESIAN_POINT('',(-0.00897555185258388,0.0751326128087044,0.0145396407710799));
#508=CARTESIAN_POINT('',(-0.00897555185258388,0.0751326128087044,0.0143580454586703));
#509=CARTESIAN_POINT('',(-0.0153255518525839,0.0751326128087044,0.0143580454586703));
#510=CARTESIAN_POINT('',(0.0123421025157765,0.0751326128087044,0.0143580454586703));
#511=CARTESIAN_POINT('',(0.0123421025157765,0.0751326128087044,0.0131985311167527));
#512=CARTESIAN_POINT('',(0.0123421025157765,0.0751326128087044,0.0218065622031871));
#513=CARTESIAN_POINT('',(0.,0.0751326128087044,0.0218065622031871));
#514=CARTESIAN_POINT('',(-0.0123421025157765,0.0751326128087044,0.0218065622031871));
#515=CARTESIAN_POINT('',(-0.0123421025157765,0.0751326128087044,0.0131985311167527));
#516=CARTESIAN_POINT('',(-0.0123421025157765,0.0751326128087044,0.0145396407710799));
#517=CARTESIAN_POINT('',(-0.0153255518525839,0.0751326128087044,0.0145396407710799));
#518=CARTESIAN_POINT('',(0.,-0.0897133871912956,0.0254));
#519=CARTESIAN_POINT('',(-0.0123421025157765,-0.0897133871912956,0.0131985311167527));
#520=CARTESIAN_POINT('',(-0.0123421025157765,-0.0897133871912956,0.00459050003031821));
#521=CARTESIAN_POINT('',(-0.0153255518525839,-0.0897133871912956,0.0254));
#522=CARTESIAN_POINT('',(-0.0153255518525839,-0.0897133871912956,0.));
#523=CARTESIAN_POINT('',(0.,-0.0897133871912956,0.));
#524=CARTESIAN_POINT('',(0.0153255518525839,-0.0897133871912956,0.));
#525=CARTESIAN_POINT('',(0.0153255518525839,-0.0897133871912956,0.0254));
#526=CARTESIAN_POINT('',(0.0122655374350762,-0.0897133871912956,0.0236032811015936));
#527=CARTESIAN_POINT('',(0.0122655374350762,-0.0897133871912956,0.0218065622031871));
#528=CARTESIAN_POINT('',(0.,-0.0897133871912956,0.0218065622031871));
#529=CARTESIAN_POINT('',(0.0123421025157765,-0.0897133871912956,0.0218065622031871));
#530=CARTESIAN_POINT('',(0.0123421025157765,-0.0897133871912956,0.0131985311167527));
#531=CARTESIAN_POINT('',(0.0123421025157765,-0.0897133871912956,0.00459050003031821));
#532=CARTESIAN_POINT('',(0.,-0.0897133871912956,0.00459050003031821));
#533=CARTESIAN_POINT('',(0.,0.0897133871912956,0.0254));
#534=CARTESIAN_POINT('',(0.,0.0897133871912956,0.));
#535=CARTESIAN_POINT('',(-0.0153255518525839,0.0897133871912956,0.));
#536=CARTESIAN_POINT('',(0.0153255518525839,0.0897133871912956,0.));
#537=CARTESIAN_POINT('',(-0.0153255518525839,0.0897133871912956,0.0254));
#538=CARTESIAN_POINT('',(0.0153255518525839,0.0897133871912956,0.0254));
#539=CARTESIAN_POINT('',(-0.0153255518525839,0.,0.0254));
#540=CARTESIAN_POINT('',(-0.0153255518525839,0.0728187327267248,0.0121839746304271));
#541=CARTESIAN_POINT('',(-0.0153255518525839,0.0728187327267248,0.0088819746304271));
#542=CARTESIAN_POINT('',(-0.0153255518525839,0.,0.));
#543=CARTESIAN_POINT('',(0.0153255518525839,0.,0.0254));
#544=CARTESIAN_POINT('',(0.0153255518525839,0.0728187327267248,0.0121839746304271));
#545=CARTESIAN_POINT('',(0.0153255518525839,0.0728187327267248,0.0090089746304271));
#546=CARTESIAN_POINT('',(0.0153255518525839,0.,0.));
#547=CARTESIAN_POINT('',(0.,0.,0.));
#548=CARTESIAN_POINT('',(0.,0.0751326128087044,0.0218065622031871));
#549=CARTESIAN_POINT('',(0.,0.0738626128087044,0.0218065622031871));
#550=CARTESIAN_POINT('',(-0.0123421025157765,0.0738626128087044,0.0218065622031871));
#551=CARTESIAN_POINT('',(0.0122655374350762,0.0738626128087044,0.0218065622031871));
#552=CARTESIAN_POINT('',(-0.0123421025157765,0.0751326128087044,0.0218065622031871));
#553=CARTESIAN_POINT('',(0.0123421025157765,0.0751326128087044,0.0218065622031871));
#554=CARTESIAN_POINT('',(0.0122655374350762,0.0738626128087044,0.0218065622031871));
#555=CARTESIAN_POINT('',(-0.0123421025157765,0.0751326128087044,0.0131985311167527));
#556=CARTESIAN_POINT('',(-0.0123421025157765,0.0728187327267248,0.0121839746304271));
#557=CARTESIAN_POINT('',(-0.0123421025157765,0.0738626128087044,0.0236032811015936));
#558=CARTESIAN_POINT('',(-0.0123421025157765,0.0751326128087044,0.00459050003031821));
#559=CARTESIAN_POINT('',(0.,0.0751326128087044,0.00459050003031821));
#560=CARTESIAN_POINT('',(0.0123421025157765,0.0751326128087044,0.00459050003031821));
#561=CARTESIAN_POINT('',(0.0123421025157765,0.0751326128087044,0.0131985311167527));
#562=CARTESIAN_POINT('',(0.0123421025157765,0.0728187327267248,0.0121839746304271));
#563=CARTESIAN_POINT('',(-0.0153255518525839,0.0728187327267248,0.0121839746304271));
#564=CARTESIAN_POINT('',(-0.00897555185258388,0.0728187327267248,0.0121839746304271));
#565=CARTESIAN_POINT('',(-0.00897555185258388,0.0761207327267248,0.0121839746304271));
#566=CARTESIAN_POINT('',(-0.00897555185258388,0.0728187327267248,0.0121839746304271));
#567=CARTESIAN_POINT('',(-0.0153255518525839,0.0728187327267248,0.0121839746304271));
#568=CARTESIAN_POINT('',(0.0122655374350762,0.0738626128087044,0.0236032811015936));
#569=CARTESIAN_POINT('',(0.0122655374350762,0.0738626128087044,0.0236032811015936));
#570=CARTESIAN_POINT('',(0.,0.0738626128087044,0.0127));
#571=MECHANICAL_DESIGN_GEOMETRIC_PRESENTATION_REPRESENTATION('',(#350),
#572);
#572=(
GEOMETRIC_REPRESENTATION_CONTEXT(3)
GLOBAL_UNCERTAINTY_ASSIGNED_CONTEXT((#573))
GLOBAL_UNIT_ASSIGNED_CONTEXT((#576,#575,#574))
REPRESENTATION_CONTEXT('Part 1','TOP_LEVEL_ASSEMBLY_PART')
);
#573=UNCERTAINTY_MEASURE_WITH_UNIT(LENGTH_MEASURE(1.E-8),#576,
'DISTANCE_ACCURACY_VALUE','Maximum Tolerance applied to model');
#574=(
NAMED_UNIT(*)
SI_UNIT($,.STERADIAN.)
SOLID_ANGLE_UNIT()
);
#575=(
NAMED_UNIT(*)
PLANE_ANGLE_UNIT()
SI_UNIT($,.RADIAN.)
);
#576=(
LENGTH_UNIT()
NAMED_UNIT(*)
SI_UNIT($,.METRE.)
);
#577=PRODUCT_DEFINITION_SHAPE('','',#578);
#578=PRODUCT_DEFINITION('','',#580,#579);
#579=PRODUCT_DEFINITION_CONTEXT('',#586,'design');
#580=PRODUCT_DEFINITION_FORMATION_WITH_SPECIFIED_SOURCE('','',#582,
 .NOT_KNOWN.);
#581=PRODUCT_RELATED_PRODUCT_CATEGORY('','',(#582));
#582=PRODUCT('Part 1','Part 1','Part 1',(#584));
#583=PRODUCT_CATEGORY('','');
#584=PRODUCT_CONTEXT('',#586,'mechanical');
#585=APPLICATION_PROTOCOL_DEFINITION('international standard',
'ap242_managed_model_based_3d_engineering',2020,#586);
#586=APPLICATION_CONTEXT('managed model based 3d engineering');
ENDSEC;
END-ISO-10303-21;
