ISO-10303-21;
HEADER;
/* Generated by software containing ST-Developer
 * from STEP Tools, Inc. (www.steptools.com) 
 */
/* OPTION: using custom renumber hook */

FILE_DESCRIPTION(
/* description */ ('STEP AP242 Edition 2',
'CAx-IF Rec.Pracs.---Representation and Presentation of Product Manufa
cturing Information (PMI)---4.0---2014-10-13',
'CAx-IF Rec.Pracs.---3D Tessellated Geometry---0.4---2014-09-14','2;1',
'CAx-IF Rec.Pracs.---User Defined Attributes---1.5---2016-08-15'),
/* implementation_level */ '2;1');

FILE_NAME(
/* name */ 'Motor',
/* time_stamp */ '2026-06-07T21:35:02Z',
/* author */ (''),
/* organization */ (''),
/* preprocessor_version */ 'ST-DEVELOPER v20',
/* originating_system */ 'ONSHAPE BY PTC INC, 1.216',
/* authorisation */ '  ');

FILE_SCHEMA (('AP242_MANAGED_MODEL_BASED_3D_ENGINEERING_MIM_LF { 1 0 10303 442 3 1 4 }'));
ENDSEC;

DATA;
#10=SHAPE_REPRESENTATION_RELATIONSHIP('','',#308,#12);
#11=SHAPE_REPRESENTATION_RELATIONSHIP('','',#309,#13);
#12=ADVANCED_BREP_SHAPE_REPRESENTATION('',(#304),#501);
#13=ADVANCED_BREP_SHAPE_REPRESENTATION('',(#305),#502);
#14=CYLINDRICAL_SURFACE('',#322,0.003175);
#15=CYLINDRICAL_SURFACE('',#326,0.003302);
#16=CYLINDRICAL_SURFACE('',#327,0.003175);
#17=CYLINDRICAL_SURFACE('',#331,0.003302);
#18=VERTEX_LOOP('',#135);
#19=CONICAL_SURFACE('',#320,0.003175,1.02974425867665);
#20=CIRCLE('',#314,0.003302);
#21=CIRCLE('',#317,0.003175);
#22=CIRCLE('',#319,0.003302);
#23=CIRCLE('',#321,0.003175);
#24=CIRCLE('',#323,0.003175);
#25=CIRCLE('',#325,0.003302);
#26=CIRCLE('',#328,0.003175);
#27=CIRCLE('',#330,0.003302);
#28=ORIENTED_EDGE('',*,*,#92,.T.);
#29=ORIENTED_EDGE('',*,*,#93,.F.);
#30=ORIENTED_EDGE('',*,*,#94,.F.);
#31=ORIENTED_EDGE('',*,*,#95,.T.);
#32=ORIENTED_EDGE('',*,*,#96,.T.);
#33=ORIENTED_EDGE('',*,*,#95,.F.);
#34=ORIENTED_EDGE('',*,*,#97,.F.);
#35=ORIENTED_EDGE('',*,*,#98,.T.);
#36=ORIENTED_EDGE('',*,*,#99,.T.);
#37=ORIENTED_EDGE('',*,*,#100,.F.);
#38=ORIENTED_EDGE('',*,*,#98,.F.);
#39=ORIENTED_EDGE('',*,*,#101,.T.);
#40=ORIENTED_EDGE('',*,*,#102,.T.);
#41=ORIENTED_EDGE('',*,*,#103,.T.);
#42=ORIENTED_EDGE('',*,*,#102,.F.);
#43=ORIENTED_EDGE('',*,*,#104,.F.);
#44=ORIENTED_EDGE('',*,*,#93,.T.);
#45=ORIENTED_EDGE('',*,*,#105,.F.);
#46=ORIENTED_EDGE('',*,*,#94,.T.);
#47=ORIENTED_EDGE('',*,*,#104,.T.);
#48=ORIENTED_EDGE('',*,*,#101,.F.);
#49=ORIENTED_EDGE('',*,*,#97,.T.);
#50=ORIENTED_EDGE('',*,*,#106,.T.);
#51=ORIENTED_EDGE('',*,*,#92,.F.);
#52=ORIENTED_EDGE('',*,*,#96,.F.);
#53=ORIENTED_EDGE('',*,*,#100,.T.);
#54=ORIENTED_EDGE('',*,*,#103,.F.);
#55=ORIENTED_EDGE('',*,*,#107,.F.);
#56=ORIENTED_EDGE('',*,*,#107,.T.);
#57=ORIENTED_EDGE('',*,*,#108,.F.);
#58=ORIENTED_EDGE('',*,*,#108,.T.);
#59=ORIENTED_EDGE('',*,*,#109,.F.);
#60=ORIENTED_EDGE('',*,*,#109,.T.);
#61=ORIENTED_EDGE('',*,*,#99,.F.);
#62=ORIENTED_EDGE('',*,*,#110,.F.);
#63=ORIENTED_EDGE('',*,*,#105,.T.);
#64=ORIENTED_EDGE('',*,*,#110,.T.);
#65=ORIENTED_EDGE('',*,*,#111,.F.);
#66=ORIENTED_EDGE('',*,*,#111,.T.);
#67=ORIENTED_EDGE('',*,*,#106,.F.);
#68=ORIENTED_EDGE('',*,*,#112,.F.);
#69=ORIENTED_EDGE('',*,*,#113,.F.);
#70=ORIENTED_EDGE('',*,*,#114,.T.);
#71=ORIENTED_EDGE('',*,*,#115,.T.);
#72=ORIENTED_EDGE('',*,*,#116,.T.);
#73=ORIENTED_EDGE('',*,*,#117,.F.);
#74=ORIENTED_EDGE('',*,*,#118,.F.);
#75=ORIENTED_EDGE('',*,*,#113,.T.);
#76=ORIENTED_EDGE('',*,*,#119,.T.);
#77=ORIENTED_EDGE('',*,*,#120,.F.);
#78=ORIENTED_EDGE('',*,*,#121,.F.);
#79=ORIENTED_EDGE('',*,*,#117,.T.);
#80=ORIENTED_EDGE('',*,*,#122,.F.);
#81=ORIENTED_EDGE('',*,*,#115,.F.);
#82=ORIENTED_EDGE('',*,*,#123,.T.);
#83=ORIENTED_EDGE('',*,*,#120,.T.);
#84=ORIENTED_EDGE('',*,*,#114,.F.);
#85=ORIENTED_EDGE('',*,*,#118,.T.);
#86=ORIENTED_EDGE('',*,*,#121,.T.);
#87=ORIENTED_EDGE('',*,*,#123,.F.);
#88=ORIENTED_EDGE('',*,*,#112,.T.);
#89=ORIENTED_EDGE('',*,*,#122,.T.);
#90=ORIENTED_EDGE('',*,*,#119,.F.);
#91=ORIENTED_EDGE('',*,*,#116,.F.);
#92=EDGE_CURVE('',#124,#125,#149,.T.);
#93=EDGE_CURVE('',#126,#125,#150,.T.);
#94=EDGE_CURVE('',#127,#126,#151,.T.);
#95=EDGE_CURVE('',#127,#124,#152,.T.);
#96=EDGE_CURVE('',#128,#124,#153,.T.);
#97=EDGE_CURVE('',#129,#127,#154,.T.);
#98=EDGE_CURVE('',#129,#128,#155,.T.);
#99=EDGE_CURVE('',#130,#130,#20,.T.);
#100=EDGE_CURVE('',#128,#131,#156,.T.);
#101=EDGE_CURVE('',#129,#132,#157,.T.);
#102=EDGE_CURVE('',#132,#131,#158,.T.);
#103=EDGE_CURVE('',#125,#131,#159,.T.);
#104=EDGE_CURVE('',#126,#132,#160,.T.);
#105=EDGE_CURVE('',#133,#133,#21,.F.);
#106=EDGE_CURVE('',#134,#134,#22,.T.);
#107=EDGE_CURVE('',#136,#136,#23,.T.);
#108=EDGE_CURVE('',#137,#137,#24,.T.);
#109=EDGE_CURVE('',#138,#138,#25,.T.);
#110=EDGE_CURVE('',#139,#139,#26,.T.);
#111=EDGE_CURVE('',#140,#140,#27,.T.);
#112=EDGE_CURVE('',#141,#142,#161,.T.);
#113=EDGE_CURVE('',#143,#141,#162,.T.);
#114=EDGE_CURVE('',#143,#144,#163,.T.);
#115=EDGE_CURVE('',#144,#142,#164,.T.);
#116=EDGE_CURVE('',#141,#145,#165,.T.);
#117=EDGE_CURVE('',#146,#145,#166,.T.);
#118=EDGE_CURVE('',#143,#146,#167,.T.);
#119=EDGE_CURVE('',#145,#147,#168,.T.);
#120=EDGE_CURVE('',#148,#147,#169,.T.);
#121=EDGE_CURVE('',#146,#148,#170,.T.);
#122=EDGE_CURVE('',#142,#147,#171,.T.);
#123=EDGE_CURVE('',#144,#148,#172,.T.);
#124=VERTEX_POINT('',#424);
#125=VERTEX_POINT('',#425);
#126=VERTEX_POINT('',#427);
#127=VERTEX_POINT('',#429);
#128=VERTEX_POINT('',#433);
#129=VERTEX_POINT('',#435);
#130=VERTEX_POINT('',#439);
#131=VERTEX_POINT('',#441);
#132=VERTEX_POINT('',#443);
#133=VERTEX_POINT('',#450);
#134=VERTEX_POINT('',#453);
#135=VERTEX_POINT('',#455);
#136=VERTEX_POINT('',#457);
#137=VERTEX_POINT('',#460);
#138=VERTEX_POINT('',#463);
#139=VERTEX_POINT('',#467);
#140=VERTEX_POINT('',#470);
#141=VERTEX_POINT('',#475);
#142=VERTEX_POINT('',#476);
#143=VERTEX_POINT('',#478);
#144=VERTEX_POINT('',#480);
#145=VERTEX_POINT('',#484);
#146=VERTEX_POINT('',#486);
#147=VERTEX_POINT('',#490);
#148=VERTEX_POINT('',#492);
#149=LINE('',#423,#173);
#150=LINE('',#426,#174);
#151=LINE('',#428,#175);
#152=LINE('',#430,#176);
#153=LINE('',#432,#177);
#154=LINE('',#434,#178);
#155=LINE('',#436,#179);
#156=LINE('',#440,#180);
#157=LINE('',#442,#181);
#158=LINE('',#444,#182);
#159=LINE('',#446,#183);
#160=LINE('',#447,#184);
#161=LINE('',#474,#185);
#162=LINE('',#477,#186);
#163=LINE('',#479,#187);
#164=LINE('',#481,#188);
#165=LINE('',#483,#189);
#166=LINE('',#485,#190);
#167=LINE('',#487,#191);
#168=LINE('',#489,#192);
#169=LINE('',#491,#193);
#170=LINE('',#493,#194);
#171=LINE('',#495,#195);
#172=LINE('',#496,#196);
#173=VECTOR('',#343,1.);
#174=VECTOR('',#344,1.);
#175=VECTOR('',#345,1.);
#176=VECTOR('',#346,1.);
#177=VECTOR('',#349,1.);
#178=VECTOR('',#350,1.);
#179=VECTOR('',#351,1.);
#180=VECTOR('',#356,1.);
#181=VECTOR('',#357,1.);
#182=VECTOR('',#358,1.);
#183=VECTOR('',#361,1.);
#184=VECTOR('',#362,1.);
#185=VECTOR('',#399,1.);
#186=VECTOR('',#400,1.);
#187=VECTOR('',#401,1.);
#188=VECTOR('',#402,1.);
#189=VECTOR('',#405,1.);
#190=VECTOR('',#406,1.);
#191=VECTOR('',#407,1.);
#192=VECTOR('',#410,1.);
#193=VECTOR('',#411,1.);
#194=VECTOR('',#412,1.);
#195=VECTOR('',#415,1.);
#196=VECTOR('',#416,1.);
#197=EDGE_LOOP('',(#28,#29,#30,#31));
#198=EDGE_LOOP('',(#32,#33,#34,#35));
#199=EDGE_LOOP('',(#36));
#200=EDGE_LOOP('',(#37,#38,#39,#40));
#201=EDGE_LOOP('',(#41,#42,#43,#44));
#202=EDGE_LOOP('',(#45));
#203=EDGE_LOOP('',(#46,#47,#48,#49));
#204=EDGE_LOOP('',(#50));
#205=EDGE_LOOP('',(#51,#52,#53,#54));
#206=EDGE_LOOP('',(#55));
#207=EDGE_LOOP('',(#56));
#208=EDGE_LOOP('',(#57));
#209=EDGE_LOOP('',(#58));
#210=EDGE_LOOP('',(#59));
#211=EDGE_LOOP('',(#60));
#212=EDGE_LOOP('',(#61));
#213=EDGE_LOOP('',(#62));
#214=EDGE_LOOP('',(#63));
#215=EDGE_LOOP('',(#64));
#216=EDGE_LOOP('',(#65));
#217=EDGE_LOOP('',(#66));
#218=EDGE_LOOP('',(#67));
#219=EDGE_LOOP('',(#68,#69,#70,#71));
#220=EDGE_LOOP('',(#72,#73,#74,#75));
#221=EDGE_LOOP('',(#76,#77,#78,#79));
#222=EDGE_LOOP('',(#80,#81,#82,#83));
#223=EDGE_LOOP('',(#84,#85,#86,#87));
#224=EDGE_LOOP('',(#88,#89,#90,#91));
#225=FACE_BOUND('',#197,.T.);
#226=FACE_BOUND('',#198,.T.);
#227=FACE_BOUND('',#199,.T.);
#228=FACE_BOUND('',#200,.T.);
#229=FACE_BOUND('',#201,.T.);
#230=FACE_BOUND('',#202,.T.);
#231=FACE_BOUND('',#203,.T.);
#232=FACE_BOUND('',#204,.T.);
#233=FACE_BOUND('',#205,.T.);
#234=FACE_BOUND('',#18,.T.);
#235=FACE_BOUND('',#206,.T.);
#236=FACE_BOUND('',#207,.T.);
#237=FACE_BOUND('',#208,.T.);
#238=FACE_BOUND('',#209,.T.);
#239=FACE_BOUND('',#210,.T.);
#240=FACE_BOUND('',#211,.T.);
#241=FACE_BOUND('',#212,.T.);
#242=FACE_BOUND('',#213,.T.);
#243=FACE_BOUND('',#214,.T.);
#244=FACE_BOUND('',#215,.T.);
#245=FACE_BOUND('',#216,.T.);
#246=FACE_BOUND('',#217,.T.);
#247=FACE_BOUND('',#218,.T.);
#248=FACE_BOUND('',#219,.T.);
#249=FACE_BOUND('',#220,.T.);
#250=FACE_BOUND('',#221,.T.);
#251=FACE_BOUND('',#222,.T.);
#252=FACE_BOUND('',#223,.T.);
#253=FACE_BOUND('',#224,.T.);
#254=PLANE('',#311);
#255=PLANE('',#312);
#256=PLANE('',#313);
#257=PLANE('',#315);
#258=PLANE('',#316);
#259=PLANE('',#318);
#260=PLANE('',#324);
#261=PLANE('',#329);
#262=PLANE('',#333);
#263=PLANE('',#334);
#264=PLANE('',#335);
#265=PLANE('',#336);
#266=PLANE('',#337);
#267=PLANE('',#338);
#268=ADVANCED_FACE('',(#225),#254,.F.);
#269=ADVANCED_FACE('',(#226),#255,.F.);
#270=ADVANCED_FACE('',(#227,#228),#256,.T.);
#271=ADVANCED_FACE('',(#229),#257,.F.);
#272=ADVANCED_FACE('',(#230,#231),#258,.F.);
#273=ADVANCED_FACE('',(#232,#233),#259,.T.);
#274=ADVANCED_FACE('',(#234,#235),#19,.F.);
#275=ADVANCED_FACE('',(#236,#237),#14,.F.);
#276=ADVANCED_FACE('',(#238,#239),#260,.T.);
#277=ADVANCED_FACE('',(#240,#241),#15,.F.);
#278=ADVANCED_FACE('',(#242,#243),#16,.F.);
#279=ADVANCED_FACE('',(#244,#245),#261,.T.);
#280=ADVANCED_FACE('',(#246,#247),#17,.F.);
#281=ADVANCED_FACE('',(#248),#262,.T.);
#282=ADVANCED_FACE('',(#249),#263,.F.);
#283=ADVANCED_FACE('',(#250),#264,.F.);
#284=ADVANCED_FACE('',(#251),#265,.T.);
#285=ADVANCED_FACE('',(#252),#266,.T.);
#286=ADVANCED_FACE('',(#253),#267,.F.);
#287=CLOSED_SHELL('',(#268,#269,#270,#271,#272,#273,#274,#275,#276,#277,
#278,#279,#280));
#288=CLOSED_SHELL('',(#281,#282,#283,#284,#285,#286));
#289=STYLED_ITEM('',(#291),#304);
#290=STYLED_ITEM('',(#292),#305);
#291=PRESENTATION_STYLE_ASSIGNMENT((#293));
#292=PRESENTATION_STYLE_ASSIGNMENT((#294));
#293=SURFACE_STYLE_USAGE(.BOTH.,#295);
#294=SURFACE_STYLE_USAGE(.BOTH.,#296);
#295=SURFACE_SIDE_STYLE('',(#297));
#296=SURFACE_SIDE_STYLE('',(#298));
#297=SURFACE_STYLE_FILL_AREA(#299);
#298=SURFACE_STYLE_FILL_AREA(#300);
#299=FILL_AREA_STYLE('',(#301));
#300=FILL_AREA_STYLE('',(#302));
#301=FILL_AREA_STYLE_COLOUR('',#303);
#302=FILL_AREA_STYLE_COLOUR('',#303);
#303=COLOUR_RGB('',0.615686274509804,0.811764705882353,0.929411764705882);
#304=MANIFOLD_SOLID_BREP('Part 2',#287);
#305=MANIFOLD_SOLID_BREP('Part 1',#288);
#306=SHAPE_DEFINITION_REPRESENTATION(#511,#308);
#307=SHAPE_DEFINITION_REPRESENTATION(#512,#309);
#308=SHAPE_REPRESENTATION('Part 2',(#310),#501);
#309=SHAPE_REPRESENTATION('Part 1',(#332),#502);
#310=AXIS2_PLACEMENT_3D('',#421,#339,#340);
#311=AXIS2_PLACEMENT_3D('',#422,#341,#342);
#312=AXIS2_PLACEMENT_3D('',#431,#347,#348);
#313=AXIS2_PLACEMENT_3D('',#437,#352,#353);
#314=AXIS2_PLACEMENT_3D('',#438,#354,#355);
#315=AXIS2_PLACEMENT_3D('',#445,#359,#360);
#316=AXIS2_PLACEMENT_3D('',#448,#363,#364);
#317=AXIS2_PLACEMENT_3D('',#449,#365,#366);
#318=AXIS2_PLACEMENT_3D('',#451,#367,#368);
#319=AXIS2_PLACEMENT_3D('',#452,#369,#370);
#320=AXIS2_PLACEMENT_3D('',#454,#371,#372);
#321=AXIS2_PLACEMENT_3D('',#456,#373,#374);
#322=AXIS2_PLACEMENT_3D('',#458,#375,#376);
#323=AXIS2_PLACEMENT_3D('',#459,#377,#378);
#324=AXIS2_PLACEMENT_3D('',#461,#379,#380);
#325=AXIS2_PLACEMENT_3D('',#462,#381,#382);
#326=AXIS2_PLACEMENT_3D('',#464,#383,#384);
#327=AXIS2_PLACEMENT_3D('',#465,#385,#386);
#328=AXIS2_PLACEMENT_3D('',#466,#387,#388);
#329=AXIS2_PLACEMENT_3D('',#468,#389,#390);
#330=AXIS2_PLACEMENT_3D('',#469,#391,#392);
#331=AXIS2_PLACEMENT_3D('',#471,#393,#394);
#332=AXIS2_PLACEMENT_3D('',#472,#395,#396);
#333=AXIS2_PLACEMENT_3D('',#473,#397,#398);
#334=AXIS2_PLACEMENT_3D('',#482,#403,#404);
#335=AXIS2_PLACEMENT_3D('',#488,#408,#409);
#336=AXIS2_PLACEMENT_3D('',#494,#413,#414);
#337=AXIS2_PLACEMENT_3D('',#497,#417,#418);
#338=AXIS2_PLACEMENT_3D('',#498,#419,#420);
#339=DIRECTION('',(0.,0.,1.));
#340=DIRECTION('',(1.,0.,0.));
#341=DIRECTION('',(-1.,1.79510077278017E-16,0.));
#342=DIRECTION('',(-1.79510077278017E-16,-1.,0.));
#343=DIRECTION('',(0.,0.,1.));
#344=DIRECTION('',(1.79510077278017E-16,1.,0.));
#345=DIRECTION('',(0.,0.,1.));
#346=DIRECTION('',(1.79510077278017E-16,1.,0.));
#347=DIRECTION('',(0.,0.,1.));
#348=DIRECTION('',(1.,0.,0.));
#349=DIRECTION('',(1.,-1.79510077278017E-16,0.));
#350=DIRECTION('',(1.,-1.79510077278017E-16,0.));
#351=DIRECTION('',(1.79510077278017E-16,1.,0.));
#352=DIRECTION('',(-1.,1.79510077278017E-16,0.));
#353=DIRECTION('',(-1.79510077278017E-16,-1.,0.));
#354=DIRECTION('',(1.,-1.79510077278017E-16,0.));
#355=DIRECTION('',(1.79510077278017E-16,1.,0.));
#356=DIRECTION('',(0.,0.,1.));
#357=DIRECTION('',(0.,0.,1.));
#358=DIRECTION('',(1.79510077278017E-16,1.,0.));
#359=DIRECTION('',(0.,0.,-1.));
#360=DIRECTION('',(-1.,0.,0.));
#361=DIRECTION('',(-1.,1.79510077278017E-16,0.));
#362=DIRECTION('',(-1.,1.79510077278017E-16,0.));
#363=DIRECTION('',(1.79510077278017E-16,1.,0.));
#364=DIRECTION('',(-1.,1.79510077278017E-16,0.));
#365=DIRECTION('',(1.79510077278017E-16,1.,0.));
#366=DIRECTION('',(-1.,1.79510077278017E-16,0.));
#367=DIRECTION('',(1.79510077278017E-16,1.,0.));
#368=DIRECTION('',(-1.,1.79510077278017E-16,0.));
#369=DIRECTION('',(-1.79510077278017E-16,-1.,0.));
#370=DIRECTION('',(1.,-1.79510077278017E-16,0.));
#371=DIRECTION('',(-1.,1.79510077278017E-16,0.));
#372=DIRECTION('',(-1.79510077278017E-16,-1.,0.));
#373=DIRECTION('',(1.,-1.79510077278017E-16,0.));
#374=DIRECTION('',(1.79510077278017E-16,1.,0.));
#375=DIRECTION('',(1.,-1.79510077278017E-16,0.));
#376=DIRECTION('',(1.79510077278017E-16,1.,0.));
#377=DIRECTION('',(1.,-1.79510077278017E-16,0.));
#378=DIRECTION('',(1.79510077278017E-16,1.,0.));
#379=DIRECTION('',(-1.,1.79510077278017E-16,0.));
#380=DIRECTION('',(-1.79510077278017E-16,-1.,0.));
#381=DIRECTION('',(1.,-1.79510077278017E-16,0.));
#382=DIRECTION('',(1.79510077278017E-16,1.,0.));
#383=DIRECTION('',(1.,-1.79510077278017E-16,0.));
#384=DIRECTION('',(1.79510077278017E-16,1.,0.));
#385=DIRECTION('',(-1.79510077278017E-16,-1.,0.));
#386=DIRECTION('',(1.,-1.79510077278017E-16,0.));
#387=DIRECTION('',(-1.79510077278017E-16,-1.,0.));
#388=DIRECTION('',(1.,-1.79510077278017E-16,0.));
#389=DIRECTION('',(1.79510077278017E-16,1.,0.));
#390=DIRECTION('',(-1.,1.79510077278017E-16,0.));
#391=DIRECTION('',(-1.79510077278017E-16,-1.,0.));
#392=DIRECTION('',(1.,-1.79510077278017E-16,0.));
#393=DIRECTION('',(-1.79510077278017E-16,-1.,0.));
#394=DIRECTION('',(1.,-1.79510077278017E-16,0.));
#395=DIRECTION('',(0.,0.,1.));
#396=DIRECTION('',(1.,0.,0.));
#397=DIRECTION('',(1.79510077278017E-16,1.,0.));
#398=DIRECTION('',(-1.,1.79510077278017E-16,0.));
#399=DIRECTION('',(1.,-1.79510077278017E-16,0.));
#400=DIRECTION('',(0.,0.,-1.));
#401=DIRECTION('',(1.,-1.79510077278017E-16,0.));
#402=DIRECTION('',(0.,0.,-1.));
#403=DIRECTION('',(1.,0.,0.));
#404=DIRECTION('',(0.,0.,-1.));
#405=DIRECTION('',(0.,-1.,0.));
#406=DIRECTION('',(0.,0.,-1.));
#407=DIRECTION('',(0.,-1.,0.));
#408=DIRECTION('',(0.,1.,0.));
#409=DIRECTION('',(0.,0.,1.));
#410=DIRECTION('',(1.,0.,0.));
#411=DIRECTION('',(0.,0.,-1.));
#412=DIRECTION('',(1.,0.,0.));
#413=DIRECTION('',(1.,0.,0.));
#414=DIRECTION('',(0.,0.,-1.));
#415=DIRECTION('',(0.,-1.,0.));
#416=DIRECTION('',(0.,-1.,0.));
#417=DIRECTION('',(0.,0.,1.));
#418=DIRECTION('',(1.,0.,0.));
#419=DIRECTION('',(0.,0.,1.));
#420=DIRECTION('',(1.,0.,0.));
#421=CARTESIAN_POINT('',(0.,0.,0.));
#422=CARTESIAN_POINT('',(0.0289909653365612,-0.0136578046219885,0.0126785291758528));
#423=CARTESIAN_POINT('',(0.0289909653365612,0.0136725953780115,0.0126785291758528));
#424=CARTESIAN_POINT('',(0.0289909653365612,0.0136725953780115,0.00254));
#425=CARTESIAN_POINT('',(0.0289909653365612,0.0136725953780115,0.0253570583517057));
#426=CARTESIAN_POINT('',(0.0289909653365612,-0.0136578046219885,0.0253570583517057));
#427=CARTESIAN_POINT('',(0.0289909653365612,-0.0136578046219885,0.0253570583517057));
#428=CARTESIAN_POINT('',(0.0289909653365612,-0.0136578046219885,0.0126785291758528));
#429=CARTESIAN_POINT('',(0.0289909653365612,-0.0136578046219885,0.00254));
#430=CARTESIAN_POINT('',(0.0289909653365612,-0.0136578046219885,0.00254));
#431=CARTESIAN_POINT('',(-1.43663526408551E-18,-0.0136578046219885,0.00254));
#432=CARTESIAN_POINT('',(3.46944695195361E-18,0.0136725953780115,0.00254));
#433=CARTESIAN_POINT('',(-0.028674317945597,0.0136725953780115,0.00254));
#434=CARTESIAN_POINT('',(-1.43663526408551E-18,-0.0136578046219885,0.00254));
#435=CARTESIAN_POINT('',(-0.028674317945597,-0.0136578046219885,0.00254));
#436=CARTESIAN_POINT('',(-0.028674317945597,-0.0136578046219885,0.00254));
#437=CARTESIAN_POINT('',(-0.028674317945597,-0.0136578046219885,0.0126785291758528));
#438=CARTESIAN_POINT('',(-0.028674317945597,5.14732903030856E-18,0.0147998247400151));
#439=CARTESIAN_POINT('',(-0.028674317945597,0.00330200000000001,0.0147998247400151));
#440=CARTESIAN_POINT('',(-0.028674317945597,0.0136725953780115,0.0126785291758528));
#441=CARTESIAN_POINT('',(-0.028674317945597,0.0136725953780115,0.0253570583517057));
#442=CARTESIAN_POINT('',(-0.028674317945597,-0.0136578046219885,0.0126785291758528));
#443=CARTESIAN_POINT('',(-0.028674317945597,-0.0136578046219885,0.0253570583517057));
#444=CARTESIAN_POINT('',(-0.028674317945597,-0.0136578046219885,0.0253570583517057));
#445=CARTESIAN_POINT('',(0.000158323695482096,-0.0136578046219885,0.0253570583517057));
#446=CARTESIAN_POINT('',(0.000158323695482101,0.0136725953780115,0.0253570583517057));
#447=CARTESIAN_POINT('',(0.000158323695482096,-0.0136578046219885,0.0253570583517057));
#448=CARTESIAN_POINT('',(-2.45171356314122E-18,-0.0136578046219885,0.0126785291758528));
#449=CARTESIAN_POINT('',(0.0172262616779586,-0.0136578046219885,0.0135638821174659));
#450=CARTESIAN_POINT('',(0.0140512616779586,-0.0136578046219885,0.0135638821174659));
#451=CARTESIAN_POINT('',(2.4543686528979E-18,0.0136725953780115,0.0126785291758528));
#452=CARTESIAN_POINT('',(0.0172262616779586,0.0136725953780115,0.0135638821174659));
#453=CARTESIAN_POINT('',(0.0205282616779586,0.0136725953780115,0.0135638821174659));
#454=CARTESIAN_POINT('',(-0.003274317945597,5.87773067446917E-19,0.0147998247400151));
#455=CARTESIAN_POINT('',(-0.0013665854801845,4.33680868994202E-19,0.0147998247400151));
#456=CARTESIAN_POINT('',(-0.003274317945597,5.87773067446917E-19,0.0147998247400151));
#457=CARTESIAN_POINT('',(-0.003274317945597,0.003175,0.0147998247400151));
#458=CARTESIAN_POINT('',(-0.028674317945597,5.14732903030856E-18,0.0147998247400151));
#459=CARTESIAN_POINT('',(-0.022324317945597,4.00744003959314E-18,0.0147998247400151));
#460=CARTESIAN_POINT('',(-0.022324317945597,0.003175,0.0147998247400151));
#461=CARTESIAN_POINT('',(-0.022324317945597,0.003302,0.0147998247400151));
#462=CARTESIAN_POINT('',(-0.022324317945597,4.00744003959314E-18,0.0147998247400151));
#463=CARTESIAN_POINT('',(-0.022324317945597,0.003302,0.0147998247400151));
#464=CARTESIAN_POINT('',(-0.028674317945597,5.14732903030856E-18,0.0147998247400151));
#465=CARTESIAN_POINT('',(0.0172262616779586,0.0136725953780115,0.0135638821174659));
#466=CARTESIAN_POINT('',(0.0172262616779586,0.00732259537801146,0.0135638821174659));
#467=CARTESIAN_POINT('',(0.0204012616779586,0.00732259537801146,0.0135638821174659));
#468=CARTESIAN_POINT('',(0.0205282616779586,0.00732259537801146,0.0135638821174659));
#469=CARTESIAN_POINT('',(0.0172262616779586,0.00732259537801146,0.0135638821174659));
#470=CARTESIAN_POINT('',(0.0205282616779586,0.00732259537801146,0.0135638821174659));
#471=CARTESIAN_POINT('',(0.0172262616779586,0.0136725953780115,0.0135638821174659));
#472=CARTESIAN_POINT('',(0.,0.,0.));
#473=CARTESIAN_POINT('',(3.46944695195361E-18,0.0136725953780115,0.00254));
#474=CARTESIAN_POINT('',(3.46944695195361E-18,0.0136725953780115,0.));
#475=CARTESIAN_POINT('',(-0.0289909653365612,0.0136725953780115,0.));
#476=CARTESIAN_POINT('',(0.0289909653365612,0.0136725953780115,0.));
#477=CARTESIAN_POINT('',(-0.0289909653365612,0.0136725953780115,0.00254));
#478=CARTESIAN_POINT('',(-0.0289909653365612,0.0136725953780115,0.00254));
#479=CARTESIAN_POINT('',(3.46944695195361E-18,0.0136725953780115,0.00254));
#480=CARTESIAN_POINT('',(0.0289909653365612,0.0136725953780115,0.00254));
#481=CARTESIAN_POINT('',(0.0289909653365612,0.0136725953780115,0.00254));
#482=CARTESIAN_POINT('',(-0.0289909653365612,6.93889390390723E-18,0.00254));
#483=CARTESIAN_POINT('',(-0.0289909653365612,6.93889390390723E-18,0.));
#484=CARTESIAN_POINT('',(-0.0289909653365612,-0.0136725953780115,0.));
#485=CARTESIAN_POINT('',(-0.0289909653365612,-0.0136725953780115,0.00254));
#486=CARTESIAN_POINT('',(-0.0289909653365612,-0.0136725953780115,0.00254));
#487=CARTESIAN_POINT('',(-0.0289909653365612,6.93889390390723E-18,0.00254));
#488=CARTESIAN_POINT('',(-3.46944695195361E-18,-0.0136725953780115,0.00254));
#489=CARTESIAN_POINT('',(-3.46944695195361E-18,-0.0136725953780115,0.));
#490=CARTESIAN_POINT('',(0.0289909653365612,-0.0136725953780115,0.));
#491=CARTESIAN_POINT('',(0.0289909653365612,-0.0136725953780115,0.00254));
#492=CARTESIAN_POINT('',(0.0289909653365612,-0.0136725953780115,0.00254));
#493=CARTESIAN_POINT('',(-3.46944695195361E-18,-0.0136725953780115,0.00254));
#494=CARTESIAN_POINT('',(0.0289909653365612,-6.93889390390723E-18,0.00254));
#495=CARTESIAN_POINT('',(0.0289909653365612,-6.93889390390723E-18,0.));
#496=CARTESIAN_POINT('',(0.0289909653365612,-6.93889390390723E-18,0.00254));
#497=CARTESIAN_POINT('',(0.,0.,0.00254));
#498=CARTESIAN_POINT('',(0.,0.,0.));
#499=MECHANICAL_DESIGN_GEOMETRIC_PRESENTATION_REPRESENTATION('',(#289),
#501);
#500=MECHANICAL_DESIGN_GEOMETRIC_PRESENTATION_REPRESENTATION('',(#290),
#502);
#501=(
GEOMETRIC_REPRESENTATION_CONTEXT(3)
GLOBAL_UNCERTAINTY_ASSIGNED_CONTEXT((#503))
GLOBAL_UNIT_ASSIGNED_CONTEXT((#509,#507,#505))
REPRESENTATION_CONTEXT('Part 2','TOP_LEVEL_ASSEMBLY_PART')
);
#502=(
GEOMETRIC_REPRESENTATION_CONTEXT(3)
GLOBAL_UNCERTAINTY_ASSIGNED_CONTEXT((#504))
GLOBAL_UNIT_ASSIGNED_CONTEXT((#510,#508,#506))
REPRESENTATION_CONTEXT('Part 1','TOP_LEVEL_ASSEMBLY_PART')
);
#503=UNCERTAINTY_MEASURE_WITH_UNIT(LENGTH_MEASURE(1.E-8),#509,
'DISTANCE_ACCURACY_VALUE','Maximum Tolerance applied to model');
#504=UNCERTAINTY_MEASURE_WITH_UNIT(LENGTH_MEASURE(1.E-8),#510,
'DISTANCE_ACCURACY_VALUE','Maximum Tolerance applied to model');
#505=(
NAMED_UNIT(*)
SI_UNIT($,.STERADIAN.)
SOLID_ANGLE_UNIT()
);
#506=(
NAMED_UNIT(*)
SI_UNIT($,.STERADIAN.)
SOLID_ANGLE_UNIT()
);
#507=(
NAMED_UNIT(*)
PLANE_ANGLE_UNIT()
SI_UNIT($,.RADIAN.)
);
#508=(
NAMED_UNIT(*)
PLANE_ANGLE_UNIT()
SI_UNIT($,.RADIAN.)
);
#509=(
LENGTH_UNIT()
NAMED_UNIT(*)
SI_UNIT($,.METRE.)
);
#510=(
LENGTH_UNIT()
NAMED_UNIT(*)
SI_UNIT($,.METRE.)
);
#511=PRODUCT_DEFINITION_SHAPE('','',#513);
#512=PRODUCT_DEFINITION_SHAPE('','',#514);
#513=PRODUCT_DEFINITION('','',#517,#515);
#514=PRODUCT_DEFINITION('','',#518,#516);
#515=PRODUCT_DEFINITION_CONTEXT('',#529,'design');
#516=PRODUCT_DEFINITION_CONTEXT('',#530,'design');
#517=PRODUCT_DEFINITION_FORMATION_WITH_SPECIFIED_SOURCE('','',#521,
 .NOT_KNOWN.);
#518=PRODUCT_DEFINITION_FORMATION_WITH_SPECIFIED_SOURCE('','',#522,
 .NOT_KNOWN.);
#519=PRODUCT_RELATED_PRODUCT_CATEGORY('','',(#521));
#520=PRODUCT_RELATED_PRODUCT_CATEGORY('','',(#522));
#521=PRODUCT('Part 2','Part 2','Part 2',(#525));
#522=PRODUCT('Part 1','Part 1','Part 1',(#526));
#523=PRODUCT_CATEGORY('','');
#524=PRODUCT_CATEGORY('','');
#525=PRODUCT_CONTEXT('',#529,'mechanical');
#526=PRODUCT_CONTEXT('',#530,'mechanical');
#527=APPLICATION_PROTOCOL_DEFINITION('international standard',
'ap242_managed_model_based_3d_engineering',2020,#529);
#528=APPLICATION_PROTOCOL_DEFINITION('international standard',
'ap242_managed_model_based_3d_engineering',2020,#530);
#529=APPLICATION_CONTEXT('managed model based 3d engineering');
#530=APPLICATION_CONTEXT('managed model based 3d engineering');
ENDSEC;
END-ISO-10303-21;
