ISO-10303-21;
HEADER;
/* Generated by software containing ST-Developer
 * from STEP Tools, Inc. (www.steptools.com) 
 */
/* OPTION: using custom renumber hook */

FILE_DESCRIPTION(
/* description */ ('STEP AP242 Edition 2',
'CAx-IF Rec.Pracs.---Representation and Presentation of Product Manufa
cturing Information (PMI)---4.0---2014-10-13',
'CAx-IF Rec.Pracs.---3D Tessellated Geometry---0.4---2014-09-14','2;1',
'CAx-IF Rec.Pracs.---User Defined Attributes---1.5---2016-08-15'),
/* implementation_level */ '2;1');

FILE_NAME(
/* name */ 'Joystick',
/* time_stamp */ '2026-06-19T18:07:31Z',
/* author */ (''),
/* organization */ (''),
/* preprocessor_version */ 'ST-DEVELOPER v20',
/* originating_system */ 'ONSHAPE BY PTC INC, 1.216',
/* authorisation */ '  ');

FILE_SCHEMA (('AP242_MANAGED_MODEL_BASED_3D_ENGINEERING_MIM_LF { 1 0 10303 442 3 1 4 }'));
ENDSEC;

DATA;
#10=SHAPE_REPRESENTATION_RELATIONSHIP('','',#159,#11);
#11=ADVANCED_BREP_SHAPE_REPRESENTATION('',(#157),#272);
#12=B_SPLINE_CURVE_WITH_KNOTS('',3,(#250,#251,#252,#253,#254,#255,#256,
#257,#258,#259,#260,#261,#262,#263,#264,#265,#266,#267,#268),
 .UNSPECIFIED.,.T.,.F.,(1,1,1,1,1,1,1,1,1,1,1,1,1,1,1,1,1,1,1,1,1,1,1),
(-0.00441124527902065,-0.00294083018601377,-0.00147041509300689,0.,0.00147041509300689,
0.00294083018601377,0.00441124527902065,0.00588166037202754,0.00735207546503443,
0.00882249055804131,0.0102929056510482,0.0117633207440551,0.013233735837062,
0.0147041509300689,0.0161745660230757,0.0176449811160826,0.0191153962090895,
0.0205858113020964,0.0220562263951033,0.0235266414881102,0.024997056581117,
0.0264674716741239,0.0279378867671308),.UNSPECIFIED.);
#13=CYLINDRICAL_SURFACE('',#171,0.00112092116683623);
#14=CYLINDRICAL_SURFACE('',#172,0.00354892648471439);
#15=CYLINDRICAL_SURFACE('',#173,0.00444494301332865);
#16=CIRCLE('',#169,0.00112092116683623);
#17=LINE('',#221,#29);
#18=LINE('',#224,#30);
#19=LINE('',#226,#31);
#20=LINE('',#228,#32);
#21=LINE('',#230,#33);
#22=LINE('',#232,#34);
#23=LINE('',#234,#35);
#24=LINE('',#236,#36);
#25=LINE('',#238,#37);
#26=LINE('',#240,#38);
#27=LINE('',#242,#39);
#28=LINE('',#243,#40);
#29=VECTOR('',#184,1.);
#30=VECTOR('',#185,1.);
#31=VECTOR('',#186,1.);
#32=VECTOR('',#187,1.);
#33=VECTOR('',#190,1.);
#34=VECTOR('',#191,1.);
#35=VECTOR('',#192,1.);
#36=VECTOR('',#195,1.);
#37=VECTOR('',#196,1.);
#38=VECTOR('',#197,1.);
#39=VECTOR('',#200,1.);
#40=VECTOR('',#201,1.);
#41=ORIENTED_EDGE('',*,*,#73,.F.);
#42=ORIENTED_EDGE('',*,*,#74,.T.);
#43=ORIENTED_EDGE('',*,*,#75,.F.);
#44=ORIENTED_EDGE('',*,*,#76,.F.);
#45=ORIENTED_EDGE('',*,*,#77,.T.);
#46=ORIENTED_EDGE('',*,*,#78,.T.);
#47=ORIENTED_EDGE('',*,*,#79,.T.);
#48=ORIENTED_EDGE('',*,*,#80,.F.);
#49=ORIENTED_EDGE('',*,*,#81,.F.);
#50=ORIENTED_EDGE('',*,*,#76,.T.);
#51=ORIENTED_EDGE('',*,*,#82,.T.);
#52=ORIENTED_EDGE('',*,*,#83,.F.);
#53=ORIENTED_EDGE('',*,*,#84,.F.);
#54=ORIENTED_EDGE('',*,*,#80,.T.);
#55=ORIENTED_EDGE('',*,*,#85,.F.);
#56=ORIENTED_EDGE('',*,*,#78,.F.);
#57=ORIENTED_EDGE('',*,*,#86,.T.);
#58=ORIENTED_EDGE('',*,*,#83,.T.);
#59=ORIENTED_EDGE('',*,*,#87,.F.);
#60=ORIENTED_EDGE('',*,*,#77,.F.);
#61=ORIENTED_EDGE('',*,*,#81,.T.);
#62=ORIENTED_EDGE('',*,*,#84,.T.);
#63=ORIENTED_EDGE('',*,*,#86,.F.);
#64=ORIENTED_EDGE('',*,*,#75,.T.);
#65=ORIENTED_EDGE('',*,*,#85,.T.);
#66=ORIENTED_EDGE('',*,*,#82,.F.);
#67=ORIENTED_EDGE('',*,*,#79,.F.);
#68=ORIENTED_EDGE('',*,*,#73,.T.);
#69=ORIENTED_EDGE('',*,*,#87,.T.);
#70=ORIENTED_EDGE('',*,*,#74,.F.);
#71=ORIENTED_EDGE('',*,*,#88,.T.);
#72=ORIENTED_EDGE('',*,*,#88,.F.);
#73=EDGE_CURVE('',#89,#89,#101,.T.);
#74=EDGE_CURVE('',#90,#90,#102,.T.);
#75=EDGE_CURVE('',#91,#92,#17,.T.);
#76=EDGE_CURVE('',#93,#91,#18,.T.);
#77=EDGE_CURVE('',#93,#94,#19,.T.);
#78=EDGE_CURVE('',#94,#92,#20,.T.);
#79=EDGE_CURVE('',#91,#95,#21,.T.);
#80=EDGE_CURVE('',#96,#95,#22,.T.);
#81=EDGE_CURVE('',#93,#96,#23,.T.);
#82=EDGE_CURVE('',#95,#97,#24,.T.);
#83=EDGE_CURVE('',#98,#97,#25,.T.);
#84=EDGE_CURVE('',#96,#98,#26,.T.);
#85=EDGE_CURVE('',#92,#97,#27,.T.);
#86=EDGE_CURVE('',#94,#98,#28,.T.);
#87=EDGE_CURVE('',#99,#99,#16,.T.);
#88=EDGE_CURVE('',#100,#100,#12,.T.);
#89=VERTEX_POINT('',#217);
#90=VERTEX_POINT('',#219);
#91=VERTEX_POINT('',#222);
#92=VERTEX_POINT('',#223);
#93=VERTEX_POINT('',#225);
#94=VERTEX_POINT('',#227);
#95=VERTEX_POINT('',#231);
#96=VERTEX_POINT('',#233);
#97=VERTEX_POINT('',#237);
#98=VERTEX_POINT('',#239);
#99=VERTEX_POINT('',#246);
#100=VERTEX_POINT('',#269);
#101=ELLIPSE('',#162,0.00112092752630786,0.00112092116683623);
#102=ELLIPSE('',#163,0.0035489466193126,0.00354892648471439);
#103=EDGE_LOOP('',(#41));
#104=EDGE_LOOP('',(#42));
#105=EDGE_LOOP('',(#43,#44,#45,#46));
#106=EDGE_LOOP('',(#47,#48,#49,#50));
#107=EDGE_LOOP('',(#51,#52,#53,#54));
#108=EDGE_LOOP('',(#55,#56,#57,#58));
#109=EDGE_LOOP('',(#59));
#110=EDGE_LOOP('',(#60,#61,#62,#63));
#111=EDGE_LOOP('',(#64,#65,#66,#67));
#112=EDGE_LOOP('',(#68));
#113=EDGE_LOOP('',(#69));
#114=EDGE_LOOP('',(#70));
#115=EDGE_LOOP('',(#71));
#116=EDGE_LOOP('',(#72));
#117=FACE_BOUND('',#103,.T.);
#118=FACE_BOUND('',#104,.T.);
#119=FACE_BOUND('',#105,.T.);
#120=FACE_BOUND('',#106,.T.);
#121=FACE_BOUND('',#107,.T.);
#122=FACE_BOUND('',#108,.T.);
#123=FACE_BOUND('',#109,.T.);
#124=FACE_BOUND('',#110,.T.);
#125=FACE_BOUND('',#111,.T.);
#126=FACE_BOUND('',#112,.T.);
#127=FACE_BOUND('',#113,.T.);
#128=FACE_BOUND('',#114,.T.);
#129=FACE_BOUND('',#115,.T.);
#130=FACE_BOUND('',#116,.T.);
#131=PLANE('',#161);
#132=PLANE('',#164);
#133=PLANE('',#165);
#134=PLANE('',#166);
#135=PLANE('',#167);
#136=PLANE('',#168);
#137=PLANE('',#170);
#138=ADVANCED_FACE('',(#117,#118),#131,.T.);
#139=ADVANCED_FACE('',(#119),#132,.T.);
#140=ADVANCED_FACE('',(#120),#133,.F.);
#141=ADVANCED_FACE('',(#121),#134,.F.);
#142=ADVANCED_FACE('',(#122),#135,.T.);
#143=ADVANCED_FACE('',(#123,#124),#136,.T.);
#144=ADVANCED_FACE('',(#125),#137,.F.);
#145=ADVANCED_FACE('',(#126,#127),#13,.T.);
#146=ADVANCED_FACE('',(#128,#129),#14,.T.);
#147=ADVANCED_FACE('',(#130),#15,.T.);
#148=CLOSED_SHELL('',(#138,#139,#140,#141,#142,#143,#144,#145,#146,#147));
#149=STYLED_ITEM('',(#150),#157);
#150=PRESENTATION_STYLE_ASSIGNMENT((#151));
#151=SURFACE_STYLE_USAGE(.BOTH.,#152);
#152=SURFACE_SIDE_STYLE('',(#153));
#153=SURFACE_STYLE_FILL_AREA(#154);
#154=FILL_AREA_STYLE('',(#155));
#155=FILL_AREA_STYLE_COLOUR('',#156);
#156=COLOUR_RGB('',0.882352941176471,0.572549019607843,0.47843137254902);
#157=MANIFOLD_SOLID_BREP('Part 1',#148);
#158=SHAPE_DEFINITION_REPRESENTATION(#277,#159);
#159=SHAPE_REPRESENTATION('Part 1',(#160),#272);
#160=AXIS2_PLACEMENT_3D('',#214,#174,#175);
#161=AXIS2_PLACEMENT_3D('',#215,#176,#177);
#162=AXIS2_PLACEMENT_3D('',#216,#178,#179);
#163=AXIS2_PLACEMENT_3D('',#218,#180,#181);
#164=AXIS2_PLACEMENT_3D('',#220,#182,#183);
#165=AXIS2_PLACEMENT_3D('',#229,#188,#189);
#166=AXIS2_PLACEMENT_3D('',#235,#193,#194);
#167=AXIS2_PLACEMENT_3D('',#241,#198,#199);
#168=AXIS2_PLACEMENT_3D('',#244,#202,#203);
#169=AXIS2_PLACEMENT_3D('',#245,#204,#205);
#170=AXIS2_PLACEMENT_3D('',#247,#206,#207);
#171=AXIS2_PLACEMENT_3D('',#248,#208,#209);
#172=AXIS2_PLACEMENT_3D('',#249,#210,#211);
#173=AXIS2_PLACEMENT_3D('',#270,#212,#213);
#174=DIRECTION('',(0.,0.,1.));
#175=DIRECTION('',(1.,0.,0.));
#176=DIRECTION('',(0.00336849674559484,0.,-0.999994326598744));
#177=DIRECTION('',(-0.999994326598744,0.,-0.00336849674559484));
#178=DIRECTION('',(0.00336849674559484,0.,-0.999994326598744));
#179=DIRECTION('',(-0.999994326598744,0.,-0.00336849674559484));
#180=DIRECTION('',(0.00336849674559484,0.,-0.999994326598744));
#181=DIRECTION('',(0.999994326598744,0.,0.00336849674559484));
#182=DIRECTION('',(0.,-1.,0.));
#183=DIRECTION('',(0.,0.,-1.));
#184=DIRECTION('',(-1.,0.,0.));
#185=DIRECTION('',(0.,0.,-1.));
#186=DIRECTION('',(-1.,0.,0.));
#187=DIRECTION('',(0.,0.,-1.));
#188=DIRECTION('',(-1.,0.,0.));
#189=DIRECTION('',(0.,0.,1.));
#190=DIRECTION('',(0.,1.,0.));
#191=DIRECTION('',(0.,0.,-1.));
#192=DIRECTION('',(0.,1.,0.));
#193=DIRECTION('',(0.,-1.,0.));
#194=DIRECTION('',(0.,0.,-1.));
#195=DIRECTION('',(-1.,0.,0.));
#196=DIRECTION('',(0.,0.,-1.));
#197=DIRECTION('',(-1.,0.,0.));
#198=DIRECTION('',(-1.,0.,0.));
#199=DIRECTION('',(0.,0.,1.));
#200=DIRECTION('',(0.,1.,0.));
#201=DIRECTION('',(0.,1.,0.));
#202=DIRECTION('',(0.,0.,1.));
#203=DIRECTION('',(1.,0.,0.));
#204=DIRECTION('',(0.,0.,1.));
#205=DIRECTION('',(1.,0.,0.));
#206=DIRECTION('',(0.,0.,1.));
#207=DIRECTION('',(1.,0.,0.));
#208=DIRECTION('',(0.,0.,-1.));
#209=DIRECTION('',(-1.,0.,0.));
#210=DIRECTION('',(0.,0.,1.));
#211=DIRECTION('',(1.,0.,0.));
#212=DIRECTION('',(0.,1.,0.));
#213=DIRECTION('',(0.,0.,1.));
#214=CARTESIAN_POINT('',(0.,0.,0.));
#215=CARTESIAN_POINT('',(-0.00419832766056061,0.000141980732107163,0.00496649974957109));
#216=CARTESIAN_POINT('',(-0.0041384482756257,0.00437629036605358,0.00496670145422872));
#217=CARTESIAN_POINT('',(-0.00525936944246193,0.00437629036605358,0.0049629256135043));
#218=CARTESIAN_POINT('',(-0.0041384482756257,0.00437629036605358,0.00496670145422872));
#219=CARTESIAN_POINT('',(-0.000589521790911312,0.00437629036605358,0.00497865606936616));
#220=CARTESIAN_POINT('',(-0.0041384482756257,0.,0.00254));
#221=CARTESIAN_POINT('',(-0.0041384482756257,0.,0.));
#222=CARTESIAN_POINT('',(0.,0.,0.));
#223=CARTESIAN_POINT('',(-0.00827689655125141,0.,0.));
#224=CARTESIAN_POINT('',(0.,0.,0.00254));
#225=CARTESIAN_POINT('',(0.,0.,0.00254));
#226=CARTESIAN_POINT('',(-0.0041384482756257,0.,0.00254));
#227=CARTESIAN_POINT('',(-0.00827689655125141,0.,0.00254));
#228=CARTESIAN_POINT('',(-0.00827689655125141,0.,0.00254));
#229=CARTESIAN_POINT('',(0.,0.00437629036605358,0.00254));
#230=CARTESIAN_POINT('',(0.,0.00437629036605358,0.));
#231=CARTESIAN_POINT('',(0.,0.00875258073210716,0.));
#232=CARTESIAN_POINT('',(0.,0.00875258073210716,0.00254));
#233=CARTESIAN_POINT('',(0.,0.00875258073210716,0.00254));
#234=CARTESIAN_POINT('',(0.,0.00437629036605358,0.00254));
#235=CARTESIAN_POINT('',(-0.0041384482756257,0.00875258073210716,0.00254));
#236=CARTESIAN_POINT('',(-0.0041384482756257,0.00875258073210716,0.));
#237=CARTESIAN_POINT('',(-0.00827689655125141,0.00875258073210716,0.));
#238=CARTESIAN_POINT('',(-0.00827689655125141,0.00875258073210716,0.00254));
#239=CARTESIAN_POINT('',(-0.00827689655125141,0.00875258073210716,0.00254));
#240=CARTESIAN_POINT('',(-0.0041384482756257,0.00875258073210716,0.00254));
#241=CARTESIAN_POINT('',(-0.00827689655125141,0.00437629036605358,0.00254));
#242=CARTESIAN_POINT('',(-0.00827689655125141,0.00437629036605358,0.));
#243=CARTESIAN_POINT('',(-0.00827689655125141,0.00437629036605358,0.00254));
#244=CARTESIAN_POINT('',(-0.0041384482756257,0.00437629036605358,0.00254));
#245=CARTESIAN_POINT('',(-0.0041384482756257,0.00437629036605358,0.00254));
#246=CARTESIAN_POINT('',(-0.00301752710878948,0.00437629036605358,0.00254));
#247=CARTESIAN_POINT('',(-0.0041384482756257,0.00437629036605358,0.));
#248=CARTESIAN_POINT('',(-0.0041384482756257,0.00437629036605358,0.00508));
#249=CARTESIAN_POINT('',(-0.0041384482756257,0.00437629036605358,0.004191));
#250=CARTESIAN_POINT('',(-0.00747235953648346,0.00291802895982816,0.00654229785089982));
#251=CARTESIAN_POINT('',(-0.00779443101507203,0.00437799111501851,0.00611078557650273));
#252=CARTESIAN_POINT('',(-0.00747416496526903,0.00582774877641928,0.00654015571016419));
#253=CARTESIAN_POINT('',(-0.00672808801103222,0.00691781224161241,0.00721731032759129));
#254=CARTESIAN_POINT('',(-0.00559826225760507,0.00771766216076974,0.00780016715792232));
#255=CARTESIAN_POINT('',(-0.00411942651004698,0.00803173698582101,0.00803774312417878));
#256=CARTESIAN_POINT('',(-0.00265761991114937,0.00770646960168777,0.00775463666771149));
#257=CARTESIAN_POINT('',(-0.00153909029614694,0.006905385792215,0.00713414555630591));
#258=CARTESIAN_POINT('',(-0.000804592329766396,0.00582963448717765,0.00642135058765503));
#259=CARTESIAN_POINT('',(-0.000483001287031214,0.00437879229862343,0.00595312849726741));
#260=CARTESIAN_POINT('',(-0.000800542224814367,0.00293246958882167,0.00641665022041249));
#261=CARTESIAN_POINT('',(-0.00153398537233123,0.00185429117063272,0.00712898531200031));
#262=CARTESIAN_POINT('',(-0.00263390577746442,0.00105755608533249,0.00774534373810895));
#263=CARTESIAN_POINT('',(-0.00410062371940541,0.000720408695697416,0.00803786761768476));
#264=CARTESIAN_POINT('',(-0.00557905356455461,0.001026080248295,0.00780680927341445));
#265=CARTESIAN_POINT('',(-0.00672185213068378,0.00182707515602421,0.00722277961961837));
#266=CARTESIAN_POINT('',(-0.00747235953648346,0.00291802895982816,0.00654229785089982));
#267=CARTESIAN_POINT('',(-0.00779443101507203,0.00437799111501851,0.00611078557650273));
#268=CARTESIAN_POINT('',(-0.00747416496526903,0.00582774877641928,0.00654015571016419));
#269=CARTESIAN_POINT('',(-0.0076873747603401,0.00437629036605358,0.00625426597784582));
#270=CARTESIAN_POINT('',(-0.00419340992843737,0.000141980732107163,0.00350658911453634));
#271=MECHANICAL_DESIGN_GEOMETRIC_PRESENTATION_REPRESENTATION('',(#149),
#272);
#272=(
GEOMETRIC_REPRESENTATION_CONTEXT(3)
GLOBAL_UNCERTAINTY_ASSIGNED_CONTEXT((#273))
GLOBAL_UNIT_ASSIGNED_CONTEXT((#276,#275,#274))
REPRESENTATION_CONTEXT('Part 1','TOP_LEVEL_ASSEMBLY_PART')
);
#273=UNCERTAINTY_MEASURE_WITH_UNIT(LENGTH_MEASURE(2.E-5),#276,
'DISTANCE_ACCURACY_VALUE','Maximum Tolerance applied to model');
#274=(
NAMED_UNIT(*)
SI_UNIT($,.STERADIAN.)
SOLID_ANGLE_UNIT()
);
#275=(
NAMED_UNIT(*)
PLANE_ANGLE_UNIT()
SI_UNIT($,.RADIAN.)
);
#276=(
LENGTH_UNIT()
NAMED_UNIT(*)
SI_UNIT($,.METRE.)
);
#277=PRODUCT_DEFINITION_SHAPE('','',#278);
#278=PRODUCT_DEFINITION('','',#280,#279);
#279=PRODUCT_DEFINITION_CONTEXT('',#286,'design');
#280=PRODUCT_DEFINITION_FORMATION_WITH_SPECIFIED_SOURCE('','',#282,
 .NOT_KNOWN.);
#281=PRODUCT_RELATED_PRODUCT_CATEGORY('','',(#282));
#282=PRODUCT('Part 1','Part 1','Part 1',(#284));
#283=PRODUCT_CATEGORY('','');
#284=PRODUCT_CONTEXT('',#286,'mechanical');
#285=APPLICATION_PROTOCOL_DEFINITION('international standard',
'ap242_managed_model_based_3d_engineering',2020,#286);
#286=APPLICATION_CONTEXT('managed model based 3d engineering');
ENDSEC;
END-ISO-10303-21;
