ISO-10303-21;
HEADER;
/* Generated by software containing ST-Developer
 * from STEP Tools, Inc. (www.steptools.com) 
 */
/* OPTION: using custom renumber hook */

FILE_DESCRIPTION(
/* description */ ('STEP AP242 Edition 2',
'CAx-IF Rec.Pracs.---Representation and Presentation of Product Manufa
cturing Information (PMI)---4.0---2014-10-13',
'CAx-IF Rec.Pracs.---3D Tessellated Geometry---0.4---2014-09-14','2;1',
'CAx-IF Rec.Pracs.---User Defined Attributes---1.5---2016-08-15'),
/* implementation_level */ '2;1');

FILE_NAME(
/* name */ 'Mini Servo',
/* time_stamp */ '2026-06-07T21:36:12Z',
/* author */ (''),
/* organization */ (''),
/* preprocessor_version */ 'ST-DEVELOPER v20',
/* originating_system */ 'ONSHAPE BY PTC INC, 1.216',
/* authorisation */ '  ');

FILE_SCHEMA (('AP242_MANAGED_MODEL_BASED_3D_ENGINEERING_MIM_LF { 1 0 10303 442 3 1 4 }'));
ENDSEC;

DATA;
#10=SHAPE_REPRESENTATION_RELATIONSHIP('','',#137,#11);
#11=ADVANCED_BREP_SHAPE_REPRESENTATION('',(#135),#217);
#12=CYLINDRICAL_SURFACE('',#146,0.000652801527373289);
#13=CIRCLE('',#141,0.000652801527373289);
#14=CIRCLE('',#147,0.000652801527373289);
#15=ORIENTED_EDGE('',*,*,#43,.T.);
#16=ORIENTED_EDGE('',*,*,#44,.F.);
#17=ORIENTED_EDGE('',*,*,#45,.F.);
#18=ORIENTED_EDGE('',*,*,#46,.T.);
#19=ORIENTED_EDGE('',*,*,#47,.F.);
#20=ORIENTED_EDGE('',*,*,#48,.F.);
#21=ORIENTED_EDGE('',*,*,#46,.F.);
#22=ORIENTED_EDGE('',*,*,#49,.T.);
#23=ORIENTED_EDGE('',*,*,#50,.T.);
#24=ORIENTED_EDGE('',*,*,#51,.F.);
#25=ORIENTED_EDGE('',*,*,#50,.F.);
#26=ORIENTED_EDGE('',*,*,#52,.T.);
#27=ORIENTED_EDGE('',*,*,#53,.T.);
#28=ORIENTED_EDGE('',*,*,#54,.T.);
#29=ORIENTED_EDGE('',*,*,#53,.F.);
#30=ORIENTED_EDGE('',*,*,#55,.F.);
#31=ORIENTED_EDGE('',*,*,#44,.T.);
#32=ORIENTED_EDGE('',*,*,#45,.T.);
#33=ORIENTED_EDGE('',*,*,#55,.T.);
#34=ORIENTED_EDGE('',*,*,#52,.F.);
#35=ORIENTED_EDGE('',*,*,#49,.F.);
#36=ORIENTED_EDGE('',*,*,#43,.F.);
#37=ORIENTED_EDGE('',*,*,#48,.T.);
#38=ORIENTED_EDGE('',*,*,#51,.T.);
#39=ORIENTED_EDGE('',*,*,#54,.F.);
#40=ORIENTED_EDGE('',*,*,#56,.F.);
#41=ORIENTED_EDGE('',*,*,#47,.T.);
#42=ORIENTED_EDGE('',*,*,#56,.T.);
#43=EDGE_CURVE('',#57,#58,#67,.T.);
#44=EDGE_CURVE('',#59,#58,#68,.T.);
#45=EDGE_CURVE('',#60,#59,#69,.T.);
#46=EDGE_CURVE('',#60,#57,#70,.T.);
#47=EDGE_CURVE('',#61,#61,#13,.T.);
#48=EDGE_CURVE('',#57,#62,#71,.T.);
#49=EDGE_CURVE('',#60,#63,#72,.T.);
#50=EDGE_CURVE('',#63,#62,#73,.T.);
#51=EDGE_CURVE('',#62,#64,#74,.T.);
#52=EDGE_CURVE('',#63,#65,#75,.T.);
#53=EDGE_CURVE('',#65,#64,#76,.T.);
#54=EDGE_CURVE('',#58,#64,#77,.T.);
#55=EDGE_CURVE('',#59,#65,#78,.T.);
#56=EDGE_CURVE('',#66,#66,#14,.T.);
#57=VERTEX_POINT('',#186);
#58=VERTEX_POINT('',#187);
#59=VERTEX_POINT('',#189);
#60=VERTEX_POINT('',#191);
#61=VERTEX_POINT('',#195);
#62=VERTEX_POINT('',#197);
#63=VERTEX_POINT('',#199);
#64=VERTEX_POINT('',#203);
#65=VERTEX_POINT('',#205);
#66=VERTEX_POINT('',#214);
#67=LINE('',#185,#79);
#68=LINE('',#188,#80);
#69=LINE('',#190,#81);
#70=LINE('',#192,#82);
#71=LINE('',#196,#83);
#72=LINE('',#198,#84);
#73=LINE('',#200,#85);
#74=LINE('',#202,#86);
#75=LINE('',#204,#87);
#76=LINE('',#206,#88);
#77=LINE('',#208,#89);
#78=LINE('',#209,#90);
#79=VECTOR('',#153,1.);
#80=VECTOR('',#154,1.);
#81=VECTOR('',#155,1.);
#82=VECTOR('',#156,1.);
#83=VECTOR('',#161,1.);
#84=VECTOR('',#162,1.);
#85=VECTOR('',#163,1.);
#86=VECTOR('',#166,1.);
#87=VECTOR('',#167,1.);
#88=VECTOR('',#168,1.);
#89=VECTOR('',#171,1.);
#90=VECTOR('',#172,1.);
#91=EDGE_LOOP('',(#15,#16,#17,#18));
#92=EDGE_LOOP('',(#19));
#93=EDGE_LOOP('',(#20,#21,#22,#23));
#94=EDGE_LOOP('',(#24,#25,#26,#27));
#95=EDGE_LOOP('',(#28,#29,#30,#31));
#96=EDGE_LOOP('',(#32,#33,#34,#35));
#97=EDGE_LOOP('',(#36,#37,#38,#39));
#98=EDGE_LOOP('',(#40));
#99=EDGE_LOOP('',(#41));
#100=EDGE_LOOP('',(#42));
#101=FACE_BOUND('',#91,.T.);
#102=FACE_BOUND('',#92,.T.);
#103=FACE_BOUND('',#93,.T.);
#104=FACE_BOUND('',#94,.T.);
#105=FACE_BOUND('',#95,.T.);
#106=FACE_BOUND('',#96,.T.);
#107=FACE_BOUND('',#97,.T.);
#108=FACE_BOUND('',#98,.T.);
#109=FACE_BOUND('',#99,.T.);
#110=FACE_BOUND('',#100,.T.);
#111=PLANE('',#139);
#112=PLANE('',#140);
#113=PLANE('',#142);
#114=PLANE('',#143);
#115=PLANE('',#144);
#116=PLANE('',#145);
#117=PLANE('',#148);
#118=ADVANCED_FACE('',(#101),#111,.F.);
#119=ADVANCED_FACE('',(#102,#103),#112,.T.);
#120=ADVANCED_FACE('',(#104),#113,.T.);
#121=ADVANCED_FACE('',(#105),#114,.F.);
#122=ADVANCED_FACE('',(#106),#115,.F.);
#123=ADVANCED_FACE('',(#107),#116,.T.);
#124=ADVANCED_FACE('',(#108,#109),#12,.T.);
#125=ADVANCED_FACE('',(#110),#117,.T.);
#126=CLOSED_SHELL('',(#118,#119,#120,#121,#122,#123,#124,#125));
#127=STYLED_ITEM('',(#128),#135);
#128=PRESENTATION_STYLE_ASSIGNMENT((#129));
#129=SURFACE_STYLE_USAGE(.BOTH.,#130);
#130=SURFACE_SIDE_STYLE('',(#131));
#131=SURFACE_STYLE_FILL_AREA(#132);
#132=FILL_AREA_STYLE('',(#133));
#133=FILL_AREA_STYLE_COLOUR('',#134);
#134=COLOUR_RGB('',0.615686274509804,0.811764705882353,0.929411764705882);
#135=MANIFOLD_SOLID_BREP('Part 1',#126);
#136=SHAPE_DEFINITION_REPRESENTATION(#222,#137);
#137=SHAPE_REPRESENTATION('Part 1',(#138),#217);
#138=AXIS2_PLACEMENT_3D('',#183,#149,#150);
#139=AXIS2_PLACEMENT_3D('',#184,#151,#152);
#140=AXIS2_PLACEMENT_3D('',#193,#157,#158);
#141=AXIS2_PLACEMENT_3D('',#194,#159,#160);
#142=AXIS2_PLACEMENT_3D('',#201,#164,#165);
#143=AXIS2_PLACEMENT_3D('',#207,#169,#170);
#144=AXIS2_PLACEMENT_3D('',#210,#173,#174);
#145=AXIS2_PLACEMENT_3D('',#211,#175,#176);
#146=AXIS2_PLACEMENT_3D('',#212,#177,#178);
#147=AXIS2_PLACEMENT_3D('',#213,#179,#180);
#148=AXIS2_PLACEMENT_3D('',#215,#181,#182);
#149=DIRECTION('',(0.,0.,1.));
#150=DIRECTION('',(1.,0.,0.));
#151=DIRECTION('',(0.,-1.,0.));
#152=DIRECTION('',(0.,0.,-1.));
#153=DIRECTION('',(1.,0.,0.));
#154=DIRECTION('',(0.,0.,1.));
#155=DIRECTION('',(1.,0.,0.));
#156=DIRECTION('',(0.,0.,1.));
#157=DIRECTION('',(-1.,0.,0.));
#158=DIRECTION('',(0.,0.,1.));
#159=DIRECTION('',(-1.,0.,0.));
#160=DIRECTION('',(0.,0.,1.));
#161=DIRECTION('',(0.,-1.,0.));
#162=DIRECTION('',(0.,-1.,0.));
#163=DIRECTION('',(0.,0.,1.));
#164=DIRECTION('',(0.,-1.,0.));
#165=DIRECTION('',(0.,0.,-1.));
#166=DIRECTION('',(1.,0.,0.));
#167=DIRECTION('',(1.,0.,0.));
#168=DIRECTION('',(0.,0.,1.));
#169=DIRECTION('',(-1.,0.,0.));
#170=DIRECTION('',(0.,0.,1.));
#171=DIRECTION('',(0.,-1.,0.));
#172=DIRECTION('',(0.,-1.,0.));
#173=DIRECTION('',(0.,0.,1.));
#174=DIRECTION('',(1.,0.,0.));
#175=DIRECTION('',(0.,0.,1.));
#176=DIRECTION('',(1.,0.,0.));
#177=DIRECTION('',(1.,0.,0.));
#178=DIRECTION('',(0.,0.,-1.));
#179=DIRECTION('',(-1.,0.,0.));
#180=DIRECTION('',(0.,0.,1.));
#181=DIRECTION('',(-1.,0.,0.));
#182=DIRECTION('',(0.,-1.,0.));
#183=CARTESIAN_POINT('',(0.,0.,0.));
#184=CARTESIAN_POINT('',(0.,0.00152209075167775,-0.0020574));
#185=CARTESIAN_POINT('',(0.,0.00152209075167775,0.));
#186=CARTESIAN_POINT('',(-0.00273581314831972,0.00152209075167775,0.));
#187=CARTESIAN_POINT('',(0.00273581314831972,0.00152209075167775,0.));
#188=CARTESIAN_POINT('',(0.00273581314831972,0.00152209075167775,-0.0020574));
#189=CARTESIAN_POINT('',(0.00273581314831972,0.00152209075167775,-0.0020574));
#190=CARTESIAN_POINT('',(0.,0.00152209075167775,-0.0020574));
#191=CARTESIAN_POINT('',(-0.00273581314831972,0.00152209075167775,-0.0020574));
#192=CARTESIAN_POINT('',(-0.00273581314831972,0.00152209075167775,-0.0020574));
#193=CARTESIAN_POINT('',(-0.00273581314831972,0.,-0.0020574));
#194=CARTESIAN_POINT('',(-0.00273581314831972,0.,-0.00106157023064674));
#195=CARTESIAN_POINT('',(-0.00273581314831972,0.,-0.000408768703273451));
#196=CARTESIAN_POINT('',(-0.00273581314831972,0.,0.));
#197=CARTESIAN_POINT('',(-0.00273581314831972,-0.00152209075167775,0.));
#198=CARTESIAN_POINT('',(-0.00273581314831972,0.,-0.0020574));
#199=CARTESIAN_POINT('',(-0.00273581314831972,-0.00152209075167775,-0.0020574));
#200=CARTESIAN_POINT('',(-0.00273581314831972,-0.00152209075167775,-0.0020574));
#201=CARTESIAN_POINT('',(0.,-0.00152209075167775,-0.0020574));
#202=CARTESIAN_POINT('',(0.,-0.00152209075167775,0.));
#203=CARTESIAN_POINT('',(0.00273581314831972,-0.00152209075167775,0.));
#204=CARTESIAN_POINT('',(0.,-0.00152209075167775,-0.0020574));
#205=CARTESIAN_POINT('',(0.00273581314831972,-0.00152209075167775,-0.0020574));
#206=CARTESIAN_POINT('',(0.00273581314831972,-0.00152209075167775,-0.0020574));
#207=CARTESIAN_POINT('',(0.00273581314831972,0.,-0.0020574));
#208=CARTESIAN_POINT('',(0.00273581314831972,0.,0.));
#209=CARTESIAN_POINT('',(0.00273581314831972,0.,-0.0020574));
#210=CARTESIAN_POINT('',(0.,0.,-0.0020574));
#211=CARTESIAN_POINT('',(0.,0.,0.));
#212=CARTESIAN_POINT('',(-0.00527581314831972,0.,-0.00106157023064674));
#213=CARTESIAN_POINT('',(-0.00527581314831972,0.,-0.00106157023064674));
#214=CARTESIAN_POINT('',(-0.00527581314831972,0.,-0.000408768703273451));
#215=CARTESIAN_POINT('',(-0.00527581314831972,0.,-0.0010287));
#216=MECHANICAL_DESIGN_GEOMETRIC_PRESENTATION_REPRESENTATION('',(#127),
#217);
#217=(
GEOMETRIC_REPRESENTATION_CONTEXT(3)
GLOBAL_UNCERTAINTY_ASSIGNED_CONTEXT((#218))
GLOBAL_UNIT_ASSIGNED_CONTEXT((#221,#220,#219))
REPRESENTATION_CONTEXT('Part 1','TOP_LEVEL_ASSEMBLY_PART')
);
#218=UNCERTAINTY_MEASURE_WITH_UNIT(LENGTH_MEASURE(1.E-8),#221,
'DISTANCE_ACCURACY_VALUE','Maximum Tolerance applied to model');
#219=(
NAMED_UNIT(*)
SI_UNIT($,.STERADIAN.)
SOLID_ANGLE_UNIT()
);
#220=(
NAMED_UNIT(*)
PLANE_ANGLE_UNIT()
SI_UNIT($,.RADIAN.)
);
#221=(
LENGTH_UNIT()
NAMED_UNIT(*)
SI_UNIT($,.METRE.)
);
#222=PRODUCT_DEFINITION_SHAPE('','',#223);
#223=PRODUCT_DEFINITION('','',#225,#224);
#224=PRODUCT_DEFINITION_CONTEXT('',#231,'design');
#225=PRODUCT_DEFINITION_FORMATION_WITH_SPECIFIED_SOURCE('','',#227,
 .NOT_KNOWN.);
#226=PRODUCT_RELATED_PRODUCT_CATEGORY('','',(#227));
#227=PRODUCT('Part 1','Part 1','Part 1',(#229));
#228=PRODUCT_CATEGORY('','');
#229=PRODUCT_CONTEXT('',#231,'mechanical');
#230=APPLICATION_PROTOCOL_DEFINITION('international standard',
'ap242_managed_model_based_3d_engineering',2020,#231);
#231=APPLICATION_CONTEXT('managed model based 3d engineering');
ENDSEC;
END-ISO-10303-21;
