ISO-10303-21;
HEADER;
/* Generated by software containing ST-Developer
 * from STEP Tools, Inc. (www.steptools.com) 
 */
/* OPTION: using custom renumber hook */

FILE_DESCRIPTION(
/* description */ ('STEP AP242 Edition 2',
'CAx-IF Rec.Pracs.---Representation and Presentation of Product Manufa
cturing Information (PMI)---4.0---2014-10-13',
'CAx-IF Rec.Pracs.---3D Tessellated Geometry---0.4---2014-09-14','2;1',
'CAx-IF Rec.Pracs.---User Defined Attributes---1.5---2016-08-15'),
/* implementation_level */ '2;1');

FILE_NAME(
/* name */ 'Ultrasonic Sensor',
/* time_stamp */ '2026-06-19T18:07:20Z',
/* author */ (''),
/* organization */ (''),
/* preprocessor_version */ 'ST-DEVELOPER v20',
/* originating_system */ 'ONSHAPE BY PTC INC, 1.216',
/* authorisation */ '  ');

FILE_SCHEMA (('AP242_MANAGED_MODEL_BASED_3D_ENGINEERING_MIM_LF { 1 0 10303 442 3 1 4 }'));
ENDSEC;

DATA;
#10=SHAPE_REPRESENTATION_RELATIONSHIP('','',#159,#11);
#11=ADVANCED_BREP_SHAPE_REPRESENTATION('',(#157),#257);
#12=CYLINDRICAL_SURFACE('',#169,0.00297903153114021);
#13=CYLINDRICAL_SURFACE('',#172,0.00297903153114021);
#14=CIRCLE('',#166,0.00297903153114021);
#15=CIRCLE('',#167,0.00297903153114021);
#16=CIRCLE('',#170,0.00297903153114021);
#17=CIRCLE('',#173,0.00297903153114021);
#18=ORIENTED_EDGE('',*,*,#50,.F.);
#19=ORIENTED_EDGE('',*,*,#51,.F.);
#20=ORIENTED_EDGE('',*,*,#52,.T.);
#21=ORIENTED_EDGE('',*,*,#53,.T.);
#22=ORIENTED_EDGE('',*,*,#54,.T.);
#23=ORIENTED_EDGE('',*,*,#55,.F.);
#24=ORIENTED_EDGE('',*,*,#56,.F.);
#25=ORIENTED_EDGE('',*,*,#51,.T.);
#26=ORIENTED_EDGE('',*,*,#57,.T.);
#27=ORIENTED_EDGE('',*,*,#58,.F.);
#28=ORIENTED_EDGE('',*,*,#59,.F.);
#29=ORIENTED_EDGE('',*,*,#55,.T.);
#30=ORIENTED_EDGE('',*,*,#60,.F.);
#31=ORIENTED_EDGE('',*,*,#53,.F.);
#32=ORIENTED_EDGE('',*,*,#61,.T.);
#33=ORIENTED_EDGE('',*,*,#58,.T.);
#34=ORIENTED_EDGE('',*,*,#62,.F.);
#35=ORIENTED_EDGE('',*,*,#63,.F.);
#36=ORIENTED_EDGE('',*,*,#52,.F.);
#37=ORIENTED_EDGE('',*,*,#56,.T.);
#38=ORIENTED_EDGE('',*,*,#59,.T.);
#39=ORIENTED_EDGE('',*,*,#61,.F.);
#40=ORIENTED_EDGE('',*,*,#50,.T.);
#41=ORIENTED_EDGE('',*,*,#60,.T.);
#42=ORIENTED_EDGE('',*,*,#57,.F.);
#43=ORIENTED_EDGE('',*,*,#54,.F.);
#44=ORIENTED_EDGE('',*,*,#64,.F.);
#45=ORIENTED_EDGE('',*,*,#63,.T.);
#46=ORIENTED_EDGE('',*,*,#64,.T.);
#47=ORIENTED_EDGE('',*,*,#65,.F.);
#48=ORIENTED_EDGE('',*,*,#62,.T.);
#49=ORIENTED_EDGE('',*,*,#65,.T.);
#50=EDGE_CURVE('',#66,#67,#78,.T.);
#51=EDGE_CURVE('',#68,#66,#79,.T.);
#52=EDGE_CURVE('',#68,#69,#80,.T.);
#53=EDGE_CURVE('',#69,#67,#81,.T.);
#54=EDGE_CURVE('',#66,#70,#82,.T.);
#55=EDGE_CURVE('',#71,#70,#83,.T.);
#56=EDGE_CURVE('',#68,#71,#84,.T.);
#57=EDGE_CURVE('',#70,#72,#85,.T.);
#58=EDGE_CURVE('',#73,#72,#86,.T.);
#59=EDGE_CURVE('',#71,#73,#87,.T.);
#60=EDGE_CURVE('',#67,#72,#88,.T.);
#61=EDGE_CURVE('',#69,#73,#89,.T.);
#62=EDGE_CURVE('',#74,#74,#14,.T.);
#63=EDGE_CURVE('',#75,#75,#15,.T.);
#64=EDGE_CURVE('',#76,#76,#16,.T.);
#65=EDGE_CURVE('',#77,#77,#17,.T.);
#66=VERTEX_POINT('',#220);
#67=VERTEX_POINT('',#221);
#68=VERTEX_POINT('',#223);
#69=VERTEX_POINT('',#225);
#70=VERTEX_POINT('',#229);
#71=VERTEX_POINT('',#231);
#72=VERTEX_POINT('',#235);
#73=VERTEX_POINT('',#237);
#74=VERTEX_POINT('',#244);
#75=VERTEX_POINT('',#246);
#76=VERTEX_POINT('',#250);
#77=VERTEX_POINT('',#254);
#78=LINE('',#219,#90);
#79=LINE('',#222,#91);
#80=LINE('',#224,#92);
#81=LINE('',#226,#93);
#82=LINE('',#228,#94);
#83=LINE('',#230,#95);
#84=LINE('',#232,#96);
#85=LINE('',#234,#97);
#86=LINE('',#236,#98);
#87=LINE('',#238,#99);
#88=LINE('',#240,#100);
#89=LINE('',#241,#101);
#90=VECTOR('',#179,1.);
#91=VECTOR('',#180,1.);
#92=VECTOR('',#181,1.);
#93=VECTOR('',#182,1.);
#94=VECTOR('',#185,1.);
#95=VECTOR('',#186,1.);
#96=VECTOR('',#187,1.);
#97=VECTOR('',#190,1.);
#98=VECTOR('',#191,1.);
#99=VECTOR('',#192,1.);
#100=VECTOR('',#195,1.);
#101=VECTOR('',#196,1.);
#102=EDGE_LOOP('',(#18,#19,#20,#21));
#103=EDGE_LOOP('',(#22,#23,#24,#25));
#104=EDGE_LOOP('',(#26,#27,#28,#29));
#105=EDGE_LOOP('',(#30,#31,#32,#33));
#106=EDGE_LOOP('',(#34));
#107=EDGE_LOOP('',(#35));
#108=EDGE_LOOP('',(#36,#37,#38,#39));
#109=EDGE_LOOP('',(#40,#41,#42,#43));
#110=EDGE_LOOP('',(#44));
#111=EDGE_LOOP('',(#45));
#112=EDGE_LOOP('',(#46));
#113=EDGE_LOOP('',(#47));
#114=EDGE_LOOP('',(#48));
#115=EDGE_LOOP('',(#49));
#116=FACE_BOUND('',#102,.T.);
#117=FACE_BOUND('',#103,.T.);
#118=FACE_BOUND('',#104,.T.);
#119=FACE_BOUND('',#105,.T.);
#120=FACE_BOUND('',#106,.T.);
#121=FACE_BOUND('',#107,.T.);
#122=FACE_BOUND('',#108,.T.);
#123=FACE_BOUND('',#109,.T.);
#124=FACE_BOUND('',#110,.T.);
#125=FACE_BOUND('',#111,.T.);
#126=FACE_BOUND('',#112,.T.);
#127=FACE_BOUND('',#113,.T.);
#128=FACE_BOUND('',#114,.T.);
#129=FACE_BOUND('',#115,.T.);
#130=PLANE('',#161);
#131=PLANE('',#162);
#132=PLANE('',#163);
#133=PLANE('',#164);
#134=PLANE('',#165);
#135=PLANE('',#168);
#136=PLANE('',#171);
#137=PLANE('',#174);
#138=ADVANCED_FACE('',(#116),#130,.T.);
#139=ADVANCED_FACE('',(#117),#131,.F.);
#140=ADVANCED_FACE('',(#118),#132,.F.);
#141=ADVANCED_FACE('',(#119),#133,.T.);
#142=ADVANCED_FACE('',(#120,#121,#122),#134,.T.);
#143=ADVANCED_FACE('',(#123),#135,.F.);
#144=ADVANCED_FACE('',(#124,#125),#12,.T.);
#145=ADVANCED_FACE('',(#126),#136,.T.);
#146=ADVANCED_FACE('',(#127,#128),#13,.T.);
#147=ADVANCED_FACE('',(#129),#137,.T.);
#148=CLOSED_SHELL('',(#138,#139,#140,#141,#142,#143,#144,#145,#146,#147));
#149=STYLED_ITEM('',(#150),#157);
#150=PRESENTATION_STYLE_ASSIGNMENT((#151));
#151=SURFACE_STYLE_USAGE(.BOTH.,#152);
#152=SURFACE_SIDE_STYLE('',(#153));
#153=SURFACE_STYLE_FILL_AREA(#154);
#154=FILL_AREA_STYLE('',(#155));
#155=FILL_AREA_STYLE_COLOUR('',#156);
#156=COLOUR_RGB('',0.615686274509804,0.811764705882353,0.929411764705882);
#157=MANIFOLD_SOLID_BREP('Part 1',#148);
#158=SHAPE_DEFINITION_REPRESENTATION(#262,#159);
#159=SHAPE_REPRESENTATION('Part 1',(#160),#257);
#160=AXIS2_PLACEMENT_3D('',#217,#175,#176);
#161=AXIS2_PLACEMENT_3D('',#218,#177,#178);
#162=AXIS2_PLACEMENT_3D('',#227,#183,#184);
#163=AXIS2_PLACEMENT_3D('',#233,#188,#189);
#164=AXIS2_PLACEMENT_3D('',#239,#193,#194);
#165=AXIS2_PLACEMENT_3D('',#242,#197,#198);
#166=AXIS2_PLACEMENT_3D('',#243,#199,#200);
#167=AXIS2_PLACEMENT_3D('',#245,#201,#202);
#168=AXIS2_PLACEMENT_3D('',#247,#203,#204);
#169=AXIS2_PLACEMENT_3D('',#248,#205,#206);
#170=AXIS2_PLACEMENT_3D('',#249,#207,#208);
#171=AXIS2_PLACEMENT_3D('',#251,#209,#210);
#172=AXIS2_PLACEMENT_3D('',#252,#211,#212);
#173=AXIS2_PLACEMENT_3D('',#253,#213,#214);
#174=AXIS2_PLACEMENT_3D('',#255,#215,#216);
#175=DIRECTION('',(0.,0.,1.));
#176=DIRECTION('',(1.,0.,0.));
#177=DIRECTION('',(0.,1.,0.));
#178=DIRECTION('',(0.,0.,1.));
#179=DIRECTION('',(1.,0.,0.));
#180=DIRECTION('',(0.,0.,-1.));
#181=DIRECTION('',(1.,0.,0.));
#182=DIRECTION('',(0.,0.,-1.));
#183=DIRECTION('',(1.,0.,0.));
#184=DIRECTION('',(0.,0.,-1.));
#185=DIRECTION('',(0.,-1.,0.));
#186=DIRECTION('',(0.,0.,-1.));
#187=DIRECTION('',(0.,-1.,0.));
#188=DIRECTION('',(0.,1.,0.));
#189=DIRECTION('',(0.,0.,1.));
#190=DIRECTION('',(1.,0.,0.));
#191=DIRECTION('',(0.,0.,-1.));
#192=DIRECTION('',(1.,0.,0.));
#193=DIRECTION('',(1.,0.,0.));
#194=DIRECTION('',(0.,0.,-1.));
#195=DIRECTION('',(0.,-1.,0.));
#196=DIRECTION('',(0.,-1.,0.));
#197=DIRECTION('',(0.,0.,1.));
#198=DIRECTION('',(1.,0.,0.));
#199=DIRECTION('',(0.,0.,1.));
#200=DIRECTION('',(1.,0.,0.));
#201=DIRECTION('',(0.,0.,1.));
#202=DIRECTION('',(1.,0.,0.));
#203=DIRECTION('',(0.,0.,1.));
#204=DIRECTION('',(1.,0.,0.));
#205=DIRECTION('',(0.,0.,-1.));
#206=DIRECTION('',(-1.,0.,0.));
#207=DIRECTION('',(0.,0.,1.));
#208=DIRECTION('',(1.,0.,0.));
#209=DIRECTION('',(0.,0.,1.));
#210=DIRECTION('',(1.,0.,0.));
#211=DIRECTION('',(0.,0.,-1.));
#212=DIRECTION('',(-1.,0.,0.));
#213=DIRECTION('',(0.,0.,1.));
#214=DIRECTION('',(1.,0.,0.));
#215=DIRECTION('',(0.,0.,1.));
#216=DIRECTION('',(1.,0.,0.));
#217=CARTESIAN_POINT('',(0.,0.,0.));
#218=CARTESIAN_POINT('',(0.,0.00544224606208856,0.00508));
#219=CARTESIAN_POINT('',(0.,0.00544224606208856,0.));
#220=CARTESIAN_POINT('',(-0.00938795241205474,0.00544224606208856,0.));
#221=CARTESIAN_POINT('',(0.00938795241205474,0.00544224606208856,0.));
#222=CARTESIAN_POINT('',(-0.00938795241205474,0.00544224606208856,0.00508));
#223=CARTESIAN_POINT('',(-0.00938795241205474,0.00544224606208856,0.00508));
#224=CARTESIAN_POINT('',(0.,0.00544224606208856,0.00508));
#225=CARTESIAN_POINT('',(0.00938795241205474,0.00544224606208856,0.00508));
#226=CARTESIAN_POINT('',(0.00938795241205474,0.00544224606208856,0.00508));
#227=CARTESIAN_POINT('',(-0.00938795241205474,0.,0.00508));
#228=CARTESIAN_POINT('',(-0.00938795241205474,0.,0.));
#229=CARTESIAN_POINT('',(-0.00938795241205474,-0.00544224606208856,0.));
#230=CARTESIAN_POINT('',(-0.00938795241205474,-0.00544224606208856,0.00508));
#231=CARTESIAN_POINT('',(-0.00938795241205474,-0.00544224606208856,0.00508));
#232=CARTESIAN_POINT('',(-0.00938795241205474,0.,0.00508));
#233=CARTESIAN_POINT('',(0.,-0.00544224606208856,0.00508));
#234=CARTESIAN_POINT('',(0.,-0.00544224606208856,0.));
#235=CARTESIAN_POINT('',(0.00938795241205474,-0.00544224606208856,0.));
#236=CARTESIAN_POINT('',(0.00938795241205474,-0.00544224606208856,0.00508));
#237=CARTESIAN_POINT('',(0.00938795241205474,-0.00544224606208856,0.00508));
#238=CARTESIAN_POINT('',(0.,-0.00544224606208856,0.00508));
#239=CARTESIAN_POINT('',(0.00938795241205474,0.,0.00508));
#240=CARTESIAN_POINT('',(0.00938795241205474,0.,0.));
#241=CARTESIAN_POINT('',(0.00938795241205474,0.,0.00508));
#242=CARTESIAN_POINT('',(0.,0.,0.00508));
#243=CARTESIAN_POINT('',(-0.00437829876318574,1.82413071458494E-19,0.00508));
#244=CARTESIAN_POINT('',(-0.00139926723204553,1.82413071458494E-19,0.00508));
#245=CARTESIAN_POINT('',(0.00510043790563941,1.82413071458494E-19,0.00508));
#246=CARTESIAN_POINT('',(0.00807946943677962,1.82413071458494E-19,0.00508));
#247=CARTESIAN_POINT('',(0.,0.,0.));
#248=CARTESIAN_POINT('',(0.00510043790563941,1.82413071458494E-19,0.0127));
#249=CARTESIAN_POINT('',(0.00510043790563941,1.82413071458494E-19,0.0127));
#250=CARTESIAN_POINT('',(0.00807946943677962,1.82413071458494E-19,0.0127));
#251=CARTESIAN_POINT('',(0.,0.,0.0127));
#252=CARTESIAN_POINT('',(-0.00437829876318574,1.82413071458494E-19,0.0127));
#253=CARTESIAN_POINT('',(-0.00437829876318574,1.82413071458494E-19,0.0127));
#254=CARTESIAN_POINT('',(-0.00139926723204553,1.82413071458494E-19,0.0127));
#255=CARTESIAN_POINT('',(0.,0.,0.0127));
#256=MECHANICAL_DESIGN_GEOMETRIC_PRESENTATION_REPRESENTATION('',(#149),
#257);
#257=(
GEOMETRIC_REPRESENTATION_CONTEXT(3)
GLOBAL_UNCERTAINTY_ASSIGNED_CONTEXT((#258))
GLOBAL_UNIT_ASSIGNED_CONTEXT((#261,#260,#259))
REPRESENTATION_CONTEXT('Part 1','TOP_LEVEL_ASSEMBLY_PART')
);
#258=UNCERTAINTY_MEASURE_WITH_UNIT(LENGTH_MEASURE(1.E-8),#261,
'DISTANCE_ACCURACY_VALUE','Maximum Tolerance applied to model');
#259=(
NAMED_UNIT(*)
SI_UNIT($,.STERADIAN.)
SOLID_ANGLE_UNIT()
);
#260=(
NAMED_UNIT(*)
PLANE_ANGLE_UNIT()
SI_UNIT($,.RADIAN.)
);
#261=(
LENGTH_UNIT()
NAMED_UNIT(*)
SI_UNIT($,.METRE.)
);
#262=PRODUCT_DEFINITION_SHAPE('','',#263);
#263=PRODUCT_DEFINITION('','',#265,#264);
#264=PRODUCT_DEFINITION_CONTEXT('',#271,'design');
#265=PRODUCT_DEFINITION_FORMATION_WITH_SPECIFIED_SOURCE('','',#267,
 .NOT_KNOWN.);
#266=PRODUCT_RELATED_PRODUCT_CATEGORY('','',(#267));
#267=PRODUCT('Part 1','Part 1','Part 1',(#269));
#268=PRODUCT_CATEGORY('','');
#269=PRODUCT_CONTEXT('',#271,'mechanical');
#270=APPLICATION_PROTOCOL_DEFINITION('international standard',
'ap242_managed_model_based_3d_engineering',2020,#271);
#271=APPLICATION_CONTEXT('managed model based 3d engineering');
ENDSEC;
END-ISO-10303-21;
