ISO-10303-21;
HEADER;
/* Generated by software containing ST-Developer
 * from STEP Tools, Inc. (www.steptools.com) 
 */
/* OPTION: using custom renumber hook */

FILE_DESCRIPTION(
/* description */ ('STEP AP242 Edition 2',
'CAx-IF Rec.Pracs.---Representation and Presentation of Product Manufa
cturing Information (PMI)---4.0---2014-10-13',
'CAx-IF Rec.Pracs.---3D Tessellated Geometry---0.4---2014-09-14','2;1',
'CAx-IF Rec.Pracs.---User Defined Attributes---1.5---2016-08-15'),
/* implementation_level */ '2;1');

FILE_NAME(
/* name */ 'Wire',
/* time_stamp */ '2026-06-19T18:07:25Z',
/* author */ (''),
/* organization */ (''),
/* preprocessor_version */ 'ST-DEVELOPER v20',
/* originating_system */ 'ONSHAPE BY PTC INC, 1.216',
/* authorisation */ '  ');

FILE_SCHEMA (('AP242_MANAGED_MODEL_BASED_3D_ENGINEERING_MIM_LF { 1 0 10303 442 3 1 4 }'));
ENDSEC;

DATA;
#10=SHAPE_REPRESENTATION_RELATIONSHIP('','',#329,#11);
#11=ADVANCED_BREP_SHAPE_REPRESENTATION('',(#327),#537);
#12=PLANE('',#340);
#13=PLANE('',#341);
#14=PLANE('',#342);
#15=PLANE('',#343);
#16=PLANE('',#344);
#17=PLANE('',#345);
#18=PLANE('',#346);
#19=PLANE('',#347);
#20=PLANE('',#348);
#21=PLANE('',#349);
#22=PLANE('',#350);
#23=PLANE('',#351);
#24=PLANE('',#352);
#25=PLANE('',#353);
#26=PLANE('',#354);
#27=PLANE('',#355);
#28=PLANE('',#356);
#29=PLANE('',#357);
#30=LINE('',#461,#64);
#31=LINE('',#467,#65);
#32=LINE('',#471,#66);
#33=LINE('',#473,#67);
#34=LINE('',#475,#68);
#35=LINE('',#477,#69);
#36=LINE('',#479,#70);
#37=LINE('',#481,#71);
#38=LINE('',#483,#72);
#39=LINE('',#485,#73);
#40=LINE('',#487,#74);
#41=LINE('',#489,#75);
#42=LINE('',#491,#76);
#43=LINE('',#493,#77);
#44=LINE('',#495,#78);
#45=LINE('',#497,#79);
#46=LINE('',#499,#80);
#47=LINE('',#501,#81);
#48=LINE('',#504,#82);
#49=LINE('',#506,#83);
#50=LINE('',#508,#84);
#51=LINE('',#510,#85);
#52=LINE('',#512,#86);
#53=LINE('',#514,#87);
#54=LINE('',#516,#88);
#55=LINE('',#518,#89);
#56=LINE('',#520,#90);
#57=LINE('',#522,#91);
#58=LINE('',#524,#92);
#59=LINE('',#525,#93);
#60=LINE('',#527,#94);
#61=LINE('',#529,#95);
#62=LINE('',#531,#96);
#63=LINE('',#533,#97);
#64=VECTOR('',#372,1.);
#65=VECTOR('',#377,1.);
#66=VECTOR('',#382,1.);
#67=VECTOR('',#383,1.);
#68=VECTOR('',#386,1.);
#69=VECTOR('',#387,1.);
#70=VECTOR('',#390,1.);
#71=VECTOR('',#391,1.);
#72=VECTOR('',#394,1.);
#73=VECTOR('',#395,1.);
#74=VECTOR('',#398,1.);
#75=VECTOR('',#399,1.);
#76=VECTOR('',#400,1.);
#77=VECTOR('',#403,1.);
#78=VECTOR('',#404,1.);
#79=VECTOR('',#407,1.);
#80=VECTOR('',#408,1.);
#81=VECTOR('',#411,1.);
#82=VECTOR('',#416,1.);
#83=VECTOR('',#417,1.);
#84=VECTOR('',#420,1.);
#85=VECTOR('',#421,1.);
#86=VECTOR('',#424,1.);
#87=VECTOR('',#425,1.);
#88=VECTOR('',#428,1.);
#89=VECTOR('',#429,1.);
#90=VECTOR('',#430,1.);
#91=VECTOR('',#431,1.);
#92=VECTOR('',#434,1.);
#93=VECTOR('',#435,1.);
#94=VECTOR('',#436,1.);
#95=VECTOR('',#439,1.);
#96=VECTOR('',#440,1.);
#97=VECTOR('',#443,1.);
#98=ORIENTED_EDGE('',*,*,#182,.F.);
#99=ORIENTED_EDGE('',*,*,#183,.F.);
#100=ORIENTED_EDGE('',*,*,#184,.F.);
#101=ORIENTED_EDGE('',*,*,#185,.F.);
#102=ORIENTED_EDGE('',*,*,#186,.T.);
#103=ORIENTED_EDGE('',*,*,#187,.T.);
#104=ORIENTED_EDGE('',*,*,#188,.T.);
#105=ORIENTED_EDGE('',*,*,#189,.T.);
#106=ORIENTED_EDGE('',*,*,#190,.F.);
#107=ORIENTED_EDGE('',*,*,#191,.T.);
#108=ORIENTED_EDGE('',*,*,#192,.T.);
#109=ORIENTED_EDGE('',*,*,#185,.T.);
#110=ORIENTED_EDGE('',*,*,#193,.T.);
#111=ORIENTED_EDGE('',*,*,#194,.F.);
#112=ORIENTED_EDGE('',*,*,#182,.T.);
#113=ORIENTED_EDGE('',*,*,#195,.T.);
#114=ORIENTED_EDGE('',*,*,#196,.F.);
#115=ORIENTED_EDGE('',*,*,#183,.T.);
#116=ORIENTED_EDGE('',*,*,#197,.F.);
#117=ORIENTED_EDGE('',*,*,#198,.T.);
#118=ORIENTED_EDGE('',*,*,#184,.T.);
#119=ORIENTED_EDGE('',*,*,#199,.F.);
#120=ORIENTED_EDGE('',*,*,#198,.F.);
#121=ORIENTED_EDGE('',*,*,#200,.F.);
#122=ORIENTED_EDGE('',*,*,#201,.T.);
#123=ORIENTED_EDGE('',*,*,#202,.T.);
#124=ORIENTED_EDGE('',*,*,#193,.F.);
#125=ORIENTED_EDGE('',*,*,#199,.T.);
#126=ORIENTED_EDGE('',*,*,#196,.T.);
#127=ORIENTED_EDGE('',*,*,#203,.F.);
#128=ORIENTED_EDGE('',*,*,#204,.F.);
#129=ORIENTED_EDGE('',*,*,#200,.T.);
#130=ORIENTED_EDGE('',*,*,#197,.T.);
#131=ORIENTED_EDGE('',*,*,#194,.T.);
#132=ORIENTED_EDGE('',*,*,#205,.F.);
#133=ORIENTED_EDGE('',*,*,#206,.F.);
#134=ORIENTED_EDGE('',*,*,#203,.T.);
#135=ORIENTED_EDGE('',*,*,#192,.F.);
#136=ORIENTED_EDGE('',*,*,#202,.F.);
#137=ORIENTED_EDGE('',*,*,#207,.T.);
#138=ORIENTED_EDGE('',*,*,#205,.T.);
#139=ORIENTED_EDGE('',*,*,#195,.F.);
#140=ORIENTED_EDGE('',*,*,#201,.F.);
#141=ORIENTED_EDGE('',*,*,#204,.T.);
#142=ORIENTED_EDGE('',*,*,#206,.T.);
#143=ORIENTED_EDGE('',*,*,#207,.F.);
#144=ORIENTED_EDGE('',*,*,#189,.F.);
#145=ORIENTED_EDGE('',*,*,#208,.F.);
#146=ORIENTED_EDGE('',*,*,#209,.F.);
#147=ORIENTED_EDGE('',*,*,#188,.F.);
#148=ORIENTED_EDGE('',*,*,#210,.T.);
#149=ORIENTED_EDGE('',*,*,#211,.F.);
#150=ORIENTED_EDGE('',*,*,#186,.F.);
#151=ORIENTED_EDGE('',*,*,#212,.T.);
#152=ORIENTED_EDGE('',*,*,#213,.T.);
#153=ORIENTED_EDGE('',*,*,#214,.F.);
#154=ORIENTED_EDGE('',*,*,#215,.F.);
#155=ORIENTED_EDGE('',*,*,#216,.T.);
#156=ORIENTED_EDGE('',*,*,#217,.T.);
#157=ORIENTED_EDGE('',*,*,#212,.F.);
#158=ORIENTED_EDGE('',*,*,#218,.T.);
#159=ORIENTED_EDGE('',*,*,#190,.T.);
#160=ORIENTED_EDGE('',*,*,#209,.T.);
#161=ORIENTED_EDGE('',*,*,#219,.F.);
#162=ORIENTED_EDGE('',*,*,#220,.F.);
#163=ORIENTED_EDGE('',*,*,#215,.T.);
#164=ORIENTED_EDGE('',*,*,#208,.T.);
#165=ORIENTED_EDGE('',*,*,#211,.T.);
#166=ORIENTED_EDGE('',*,*,#221,.F.);
#167=ORIENTED_EDGE('',*,*,#222,.F.);
#168=ORIENTED_EDGE('',*,*,#219,.T.);
#169=ORIENTED_EDGE('',*,*,#213,.F.);
#170=ORIENTED_EDGE('',*,*,#217,.F.);
#171=ORIENTED_EDGE('',*,*,#223,.T.);
#172=ORIENTED_EDGE('',*,*,#221,.T.);
#173=ORIENTED_EDGE('',*,*,#210,.F.);
#174=ORIENTED_EDGE('',*,*,#187,.F.);
#175=ORIENTED_EDGE('',*,*,#216,.F.);
#176=ORIENTED_EDGE('',*,*,#220,.T.);
#177=ORIENTED_EDGE('',*,*,#222,.T.);
#178=ORIENTED_EDGE('',*,*,#223,.F.);
#179=ORIENTED_EDGE('',*,*,#191,.F.);
#180=ORIENTED_EDGE('',*,*,#218,.F.);
#181=ORIENTED_EDGE('',*,*,#214,.T.);
#182=EDGE_CURVE('',#224,#225,#250,.T.);
#183=EDGE_CURVE('',#226,#224,#251,.T.);
#184=EDGE_CURVE('',#227,#226,#252,.T.);
#185=EDGE_CURVE('',#225,#227,#253,.T.);
#186=EDGE_CURVE('',#228,#229,#254,.T.);
#187=EDGE_CURVE('',#229,#230,#30,.T.);
#188=EDGE_CURVE('',#230,#231,#255,.T.);
#189=EDGE_CURVE('',#231,#232,#256,.T.);
#190=EDGE_CURVE('',#233,#232,#31,.T.);
#191=EDGE_CURVE('',#233,#228,#257,.T.);
#192=EDGE_CURVE('',#234,#225,#32,.T.);
#193=EDGE_CURVE('',#227,#234,#33,.T.);
#194=EDGE_CURVE('',#224,#235,#34,.T.);
#195=EDGE_CURVE('',#225,#235,#35,.T.);
#196=EDGE_CURVE('',#226,#236,#36,.T.);
#197=EDGE_CURVE('',#236,#224,#37,.T.);
#198=EDGE_CURVE('',#237,#227,#38,.T.);
#199=EDGE_CURVE('',#237,#226,#39,.T.);
#200=EDGE_CURVE('',#238,#237,#40,.T.);
#201=EDGE_CURVE('',#238,#239,#41,.T.);
#202=EDGE_CURVE('',#239,#234,#42,.T.);
#203=EDGE_CURVE('',#240,#236,#43,.T.);
#204=EDGE_CURVE('',#238,#240,#44,.T.);
#205=EDGE_CURVE('',#241,#235,#45,.T.);
#206=EDGE_CURVE('',#240,#241,#46,.T.);
#207=EDGE_CURVE('',#239,#241,#47,.T.);
#208=EDGE_CURVE('',#242,#231,#48,.T.);
#209=EDGE_CURVE('',#232,#242,#49,.T.);
#210=EDGE_CURVE('',#230,#243,#50,.T.);
#211=EDGE_CURVE('',#231,#243,#51,.T.);
#212=EDGE_CURVE('',#228,#244,#52,.T.);
#213=EDGE_CURVE('',#244,#229,#53,.T.);
#214=EDGE_CURVE('',#245,#228,#54,.T.);
#215=EDGE_CURVE('',#246,#245,#55,.T.);
#216=EDGE_CURVE('',#246,#247,#56,.T.);
#217=EDGE_CURVE('',#247,#244,#57,.T.);
#218=EDGE_CURVE('',#245,#233,#58,.T.);
#219=EDGE_CURVE('',#248,#242,#59,.T.);
#220=EDGE_CURVE('',#246,#248,#60,.T.);
#221=EDGE_CURVE('',#249,#243,#61,.T.);
#222=EDGE_CURVE('',#248,#249,#62,.T.);
#223=EDGE_CURVE('',#247,#249,#63,.T.);
#224=VERTEX_POINT('',#451);
#225=VERTEX_POINT('',#452);
#226=VERTEX_POINT('',#454);
#227=VERTEX_POINT('',#456);
#228=VERTEX_POINT('',#459);
#229=VERTEX_POINT('',#460);
#230=VERTEX_POINT('',#462);
#231=VERTEX_POINT('',#464);
#232=VERTEX_POINT('',#466);
#233=VERTEX_POINT('',#468);
#234=VERTEX_POINT('',#472);
#235=VERTEX_POINT('',#476);
#236=VERTEX_POINT('',#480);
#237=VERTEX_POINT('',#484);
#238=VERTEX_POINT('',#488);
#239=VERTEX_POINT('',#490);
#240=VERTEX_POINT('',#494);
#241=VERTEX_POINT('',#498);
#242=VERTEX_POINT('',#505);
#243=VERTEX_POINT('',#509);
#244=VERTEX_POINT('',#513);
#245=VERTEX_POINT('',#517);
#246=VERTEX_POINT('',#519);
#247=VERTEX_POINT('',#521);
#248=VERTEX_POINT('',#526);
#249=VERTEX_POINT('',#530);
#250=CIRCLE('',#332,0.000267417280670616);
#251=CIRCLE('',#333,0.000267417280670616);
#252=CIRCLE('',#334,0.000267417280670616);
#253=CIRCLE('',#335,0.000267417280670616);
#254=CIRCLE('',#336,0.000267417280670616);
#255=CIRCLE('',#337,0.000267417280670616);
#256=CIRCLE('',#338,0.000267417280670616);
#257=CIRCLE('',#339,0.000267417280670616);
#258=EDGE_LOOP('',(#98,#99,#100,#101));
#259=EDGE_LOOP('',(#102,#103,#104,#105,#106,#107));
#260=EDGE_LOOP('',(#108,#109,#110));
#261=EDGE_LOOP('',(#111,#112,#113));
#262=EDGE_LOOP('',(#114,#115,#116));
#263=EDGE_LOOP('',(#117,#118,#119));
#264=EDGE_LOOP('',(#120,#121,#122,#123,#124));
#265=EDGE_LOOP('',(#125,#126,#127,#128,#129));
#266=EDGE_LOOP('',(#130,#131,#132,#133,#134));
#267=EDGE_LOOP('',(#135,#136,#137,#138,#139));
#268=EDGE_LOOP('',(#140,#141,#142,#143));
#269=EDGE_LOOP('',(#144,#145,#146));
#270=EDGE_LOOP('',(#147,#148,#149));
#271=EDGE_LOOP('',(#150,#151,#152));
#272=EDGE_LOOP('',(#153,#154,#155,#156,#157));
#273=EDGE_LOOP('',(#158,#159,#160,#161,#162,#163));
#274=EDGE_LOOP('',(#164,#165,#166,#167,#168));
#275=EDGE_LOOP('',(#169,#170,#171,#172,#173,#174));
#276=EDGE_LOOP('',(#175,#176,#177,#178));
#277=EDGE_LOOP('',(#179,#180,#181));
#278=FACE_BOUND('',#258,.T.);
#279=FACE_BOUND('',#259,.T.);
#280=FACE_BOUND('',#260,.T.);
#281=FACE_BOUND('',#261,.T.);
#282=FACE_BOUND('',#262,.T.);
#283=FACE_BOUND('',#263,.T.);
#284=FACE_BOUND('',#264,.T.);
#285=FACE_BOUND('',#265,.T.);
#286=FACE_BOUND('',#266,.T.);
#287=FACE_BOUND('',#267,.T.);
#288=FACE_BOUND('',#268,.T.);
#289=FACE_BOUND('',#269,.T.);
#290=FACE_BOUND('',#270,.T.);
#291=FACE_BOUND('',#271,.T.);
#292=FACE_BOUND('',#272,.T.);
#293=FACE_BOUND('',#273,.T.);
#294=FACE_BOUND('',#274,.T.);
#295=FACE_BOUND('',#275,.T.);
#296=FACE_BOUND('',#276,.T.);
#297=FACE_BOUND('',#277,.T.);
#298=CYLINDRICAL_SURFACE('',#331,0.000267417280670616);
#299=ADVANCED_FACE('',(#278,#279),#298,.T.);
#300=ADVANCED_FACE('',(#280),#12,.F.);
#301=ADVANCED_FACE('',(#281),#13,.F.);
#302=ADVANCED_FACE('',(#282),#14,.F.);
#303=ADVANCED_FACE('',(#283),#15,.F.);
#304=ADVANCED_FACE('',(#284),#16,.T.);
#305=ADVANCED_FACE('',(#285),#17,.F.);
#306=ADVANCED_FACE('',(#286),#18,.F.);
#307=ADVANCED_FACE('',(#287),#19,.T.);
#308=ADVANCED_FACE('',(#288),#20,.T.);
#309=ADVANCED_FACE('',(#289),#21,.F.);
#310=ADVANCED_FACE('',(#290),#22,.F.);
#311=ADVANCED_FACE('',(#291),#23,.F.);
#312=ADVANCED_FACE('',(#292),#24,.T.);
#313=ADVANCED_FACE('',(#293),#25,.F.);
#314=ADVANCED_FACE('',(#294),#26,.F.);
#315=ADVANCED_FACE('',(#295),#27,.T.);
#316=ADVANCED_FACE('',(#296),#28,.T.);
#317=ADVANCED_FACE('',(#297),#29,.F.);
#318=CLOSED_SHELL('',(#299,#300,#301,#302,#303,#304,#305,#306,#307,#308,
#309,#310,#311,#312,#313,#314,#315,#316,#317));
#319=STYLED_ITEM('',(#320),#327);
#320=PRESENTATION_STYLE_ASSIGNMENT((#321));
#321=SURFACE_STYLE_USAGE(.BOTH.,#322);
#322=SURFACE_SIDE_STYLE('',(#323));
#323=SURFACE_STYLE_FILL_AREA(#324);
#324=FILL_AREA_STYLE('',(#325));
#325=FILL_AREA_STYLE_COLOUR('',#326);
#326=COLOUR_RGB('',0.615686274509804,0.811764705882353,0.929411764705882);
#327=MANIFOLD_SOLID_BREP('Part 1',#318);
#328=SHAPE_DEFINITION_REPRESENTATION(#542,#329);
#329=SHAPE_REPRESENTATION('Part 1',(#330),#537);
#330=AXIS2_PLACEMENT_3D('',#448,#358,#359);
#331=AXIS2_PLACEMENT_3D('',#449,#360,#361);
#332=AXIS2_PLACEMENT_3D('',#450,#362,#363);
#333=AXIS2_PLACEMENT_3D('',#453,#364,#365);
#334=AXIS2_PLACEMENT_3D('',#455,#366,#367);
#335=AXIS2_PLACEMENT_3D('',#457,#368,#369);
#336=AXIS2_PLACEMENT_3D('',#458,#370,#371);
#337=AXIS2_PLACEMENT_3D('',#463,#373,#374);
#338=AXIS2_PLACEMENT_3D('',#465,#375,#376);
#339=AXIS2_PLACEMENT_3D('',#469,#378,#379);
#340=AXIS2_PLACEMENT_3D('',#470,#380,#381);
#341=AXIS2_PLACEMENT_3D('',#474,#384,#385);
#342=AXIS2_PLACEMENT_3D('',#478,#388,#389);
#343=AXIS2_PLACEMENT_3D('',#482,#392,#393);
#344=AXIS2_PLACEMENT_3D('',#486,#396,#397);
#345=AXIS2_PLACEMENT_3D('',#492,#401,#402);
#346=AXIS2_PLACEMENT_3D('',#496,#405,#406);
#347=AXIS2_PLACEMENT_3D('',#500,#409,#410);
#348=AXIS2_PLACEMENT_3D('',#502,#412,#413);
#349=AXIS2_PLACEMENT_3D('',#503,#414,#415);
#350=AXIS2_PLACEMENT_3D('',#507,#418,#419);
#351=AXIS2_PLACEMENT_3D('',#511,#422,#423);
#352=AXIS2_PLACEMENT_3D('',#515,#426,#427);
#353=AXIS2_PLACEMENT_3D('',#523,#432,#433);
#354=AXIS2_PLACEMENT_3D('',#528,#437,#438);
#355=AXIS2_PLACEMENT_3D('',#532,#441,#442);
#356=AXIS2_PLACEMENT_3D('',#534,#444,#445);
#357=AXIS2_PLACEMENT_3D('',#535,#446,#447);
#358=DIRECTION('',(0.,0.,1.));
#359=DIRECTION('',(1.,0.,0.));
#360=DIRECTION('',(0.,1.,0.));
#361=DIRECTION('',(0.,0.,1.));
#362=DIRECTION('',(0.,-1.,0.));
#363=DIRECTION('',(0.,0.,-1.));
#364=DIRECTION('',(0.,-1.,0.));
#365=DIRECTION('',(0.,0.,-1.));
#366=DIRECTION('',(0.,-1.,0.));
#367=DIRECTION('',(0.,0.,-1.));
#368=DIRECTION('',(0.,-1.,0.));
#369=DIRECTION('',(0.,0.,-1.));
#370=DIRECTION('',(0.,-1.,0.));
#371=DIRECTION('',(0.,0.,-1.));
#372=DIRECTION('',(0.,0.,1.));
#373=DIRECTION('',(0.,-1.,0.));
#374=DIRECTION('',(0.,0.,-1.));
#375=DIRECTION('',(0.,-1.,0.));
#376=DIRECTION('',(0.,0.,-1.));
#377=DIRECTION('',(0.,0.,1.));
#378=DIRECTION('',(0.,-1.,0.));
#379=DIRECTION('',(0.,0.,-1.));
#380=DIRECTION('',(0.,-1.,0.));
#381=DIRECTION('',(1.,0.,0.));
#382=DIRECTION('',(0.,0.,-1.));
#383=DIRECTION('',(1.,0.,0.));
#384=DIRECTION('',(0.,-1.,0.));
#385=DIRECTION('',(1.,0.,0.));
#386=DIRECTION('',(1.,0.,0.));
#387=DIRECTION('',(0.,0.,-1.));
#388=DIRECTION('',(0.,-1.,0.));
#389=DIRECTION('',(1.,0.,0.));
#390=DIRECTION('',(0.,0.,-1.));
#391=DIRECTION('',(1.,0.,0.));
#392=DIRECTION('',(0.,-1.,0.));
#393=DIRECTION('',(1.,0.,0.));
#394=DIRECTION('',(1.,0.,0.));
#395=DIRECTION('',(0.,0.,-1.));
#396=DIRECTION('',(0.,0.,1.));
#397=DIRECTION('',(1.,0.,0.));
#398=DIRECTION('',(0.,1.,0.));
#399=DIRECTION('',(1.,0.,0.));
#400=DIRECTION('',(0.,1.,0.));
#401=DIRECTION('',(1.,0.,0.));
#402=DIRECTION('',(0.,0.,-1.));
#403=DIRECTION('',(0.,1.,0.));
#404=DIRECTION('',(0.,0.,-1.));
#405=DIRECTION('',(0.,0.,1.));
#406=DIRECTION('',(1.,0.,0.));
#407=DIRECTION('',(0.,1.,0.));
#408=DIRECTION('',(1.,0.,0.));
#409=DIRECTION('',(1.,0.,0.));
#410=DIRECTION('',(0.,0.,-1.));
#411=DIRECTION('',(0.,0.,-1.));
#412=DIRECTION('',(0.,-1.,0.));
#413=DIRECTION('',(1.,0.,0.));
#414=DIRECTION('',(0.,1.,0.));
#415=DIRECTION('',(-1.,0.,0.));
#416=DIRECTION('',(1.,0.,0.));
#417=DIRECTION('',(0.,0.,1.));
#418=DIRECTION('',(0.,1.,0.));
#419=DIRECTION('',(-1.,0.,0.));
#420=DIRECTION('',(0.,0.,1.));
#421=DIRECTION('',(1.,0.,0.));
#422=DIRECTION('',(0.,1.,0.));
#423=DIRECTION('',(-1.,0.,0.));
#424=DIRECTION('',(1.,0.,0.));
#425=DIRECTION('',(0.,0.,1.));
#426=DIRECTION('',(0.,0.,-1.));
#427=DIRECTION('',(-1.,0.,0.));
#428=DIRECTION('',(1.,0.,0.));
#429=DIRECTION('',(0.,-1.,0.));
#430=DIRECTION('',(1.,0.,0.));
#431=DIRECTION('',(0.,-1.,0.));
#432=DIRECTION('',(1.,0.,0.));
#433=DIRECTION('',(0.,0.,-1.));
#434=DIRECTION('',(0.,0.,1.));
#435=DIRECTION('',(0.,-1.,0.));
#436=DIRECTION('',(0.,0.,1.));
#437=DIRECTION('',(0.,0.,-1.));
#438=DIRECTION('',(-1.,0.,0.));
#439=DIRECTION('',(0.,-1.,0.));
#440=DIRECTION('',(1.,0.,0.));
#441=DIRECTION('',(1.,0.,0.));
#442=DIRECTION('',(0.,0.,-1.));
#443=DIRECTION('',(0.,0.,1.));
#444=DIRECTION('',(0.,1.,0.));
#445=DIRECTION('',(-1.,0.,0.));
#446=DIRECTION('',(0.,1.,0.));
#447=DIRECTION('',(-1.,0.,0.));
#448=CARTESIAN_POINT('',(0.,0.,0.));
#449=CARTESIAN_POINT('',(0.,-0.00635,1.63745858404979E-20));
#450=CARTESIAN_POINT('',(0.,-0.00635,1.63745858404979E-20));
#451=CARTESIAN_POINT('',(0.,-0.00635,-0.00026998968385923));
#452=CARTESIAN_POINT('',(0.000269098771953204,-0.00635,1.63745858404979E-20));
#453=CARTESIAN_POINT('',(0.,-0.00635,1.63745858404979E-20));
#454=CARTESIAN_POINT('',(-0.000269098771953204,-0.00635,1.63745858404979E-20));
#455=CARTESIAN_POINT('',(0.,-0.00635,1.63745858404979E-20));
#456=CARTESIAN_POINT('',(0.,-0.00635,0.00026998968385923));
#457=CARTESIAN_POINT('',(0.,-0.00635,1.63745858404979E-20));
#458=CARTESIAN_POINT('',(0.,0.00635,1.63745858404979E-20));
#459=CARTESIAN_POINT('',(0.,0.00635,-0.000269377804927708));
#460=CARTESIAN_POINT('',(0.000267052004346624,0.00635,-1.39724362842641E-5));
#461=CARTESIAN_POINT('',(0.000267052004346624,0.00635,0.));
#462=CARTESIAN_POINT('',(0.000267052004346624,0.00635,1.39724362842642E-5));
#463=CARTESIAN_POINT('',(0.,0.00635,1.63745858404979E-20));
#464=CARTESIAN_POINT('',(0.,0.00635,0.000269377804927708));
#465=CARTESIAN_POINT('',(0.,0.00635,1.63745858404979E-20));
#466=CARTESIAN_POINT('',(-0.000267052004346624,0.00635,1.39724362842642E-5));
#467=CARTESIAN_POINT('',(-0.000267052004346624,0.00635,0.));
#468=CARTESIAN_POINT('',(-0.000267052004346624,0.00635,-1.39724362842641E-5));
#469=CARTESIAN_POINT('',(0.,0.00635,1.63745858404979E-20));
#470=CARTESIAN_POINT('',(0.,-0.00635,0.));
#471=CARTESIAN_POINT('',(0.000270780263235793,-0.00635,0.));
#472=CARTESIAN_POINT('',(0.000270780263235793,-0.00635,0.000272562087047845));
#473=CARTESIAN_POINT('',(0.,-0.00635,0.000272562087047845));
#474=CARTESIAN_POINT('',(0.,-0.00635,0.));
#475=CARTESIAN_POINT('',(0.,-0.00635,-0.000272562087047845));
#476=CARTESIAN_POINT('',(0.000270780263235793,-0.00635,-0.000272562087047845));
#477=CARTESIAN_POINT('',(0.000270780263235793,-0.00635,0.));
#478=CARTESIAN_POINT('',(0.,-0.00635,0.));
#479=CARTESIAN_POINT('',(-0.000270780263235793,-0.00635,0.));
#480=CARTESIAN_POINT('',(-0.000270780263235793,-0.00635,-0.000272562087047845));
#481=CARTESIAN_POINT('',(0.,-0.00635,-0.000272562087047845));
#482=CARTESIAN_POINT('',(0.,-0.00635,0.));
#483=CARTESIAN_POINT('',(0.,-0.00635,0.000272562087047845));
#484=CARTESIAN_POINT('',(-0.000270780263235793,-0.00635,0.000272562087047845));
#485=CARTESIAN_POINT('',(-0.000270780263235793,-0.00635,0.));
#486=CARTESIAN_POINT('',(0.,-0.0073406,0.000272562087047845));
#487=CARTESIAN_POINT('',(-0.000270780263235793,-0.0073406,0.000272562087047845));
#488=CARTESIAN_POINT('',(-0.000270780263235793,-0.0073406,0.000272562087047845));
#489=CARTESIAN_POINT('',(0.,-0.0073406,0.000272562087047845));
#490=CARTESIAN_POINT('',(0.000270780263235793,-0.0073406,0.000272562087047845));
#491=CARTESIAN_POINT('',(0.000270780263235793,-0.0073406,0.000272562087047845));
#492=CARTESIAN_POINT('',(-0.000270780263235793,-0.0073406,0.));
#493=CARTESIAN_POINT('',(-0.000270780263235793,-0.0073406,-0.000272562087047845));
#494=CARTESIAN_POINT('',(-0.000270780263235793,-0.0073406,-0.000272562087047845));
#495=CARTESIAN_POINT('',(-0.000270780263235793,-0.0073406,0.));
#496=CARTESIAN_POINT('',(0.,-0.0073406,-0.000272562087047845));
#497=CARTESIAN_POINT('',(0.000270780263235793,-0.0073406,-0.000272562087047845));
#498=CARTESIAN_POINT('',(0.000270780263235793,-0.0073406,-0.000272562087047845));
#499=CARTESIAN_POINT('',(0.,-0.0073406,-0.000272562087047845));
#500=CARTESIAN_POINT('',(0.000270780263235793,-0.0073406,0.));
#501=CARTESIAN_POINT('',(0.000270780263235793,-0.0073406,0.));
#502=CARTESIAN_POINT('',(0.,-0.0073406,0.));
#503=CARTESIAN_POINT('',(0.,0.00635,0.));
#504=CARTESIAN_POINT('',(0.,0.00635,0.000271338329184801));
#505=CARTESIAN_POINT('',(-0.000267052004346624,0.00635,0.000271338329184801));
#506=CARTESIAN_POINT('',(-0.000267052004346624,0.00635,0.));
#507=CARTESIAN_POINT('',(0.,0.00635,0.));
#508=CARTESIAN_POINT('',(0.000267052004346624,0.00635,0.));
#509=CARTESIAN_POINT('',(0.000267052004346624,0.00635,0.000271338329184801));
#510=CARTESIAN_POINT('',(0.,0.00635,0.000271338329184801));
#511=CARTESIAN_POINT('',(0.,0.00635,0.));
#512=CARTESIAN_POINT('',(0.,0.00635,-0.000271338329184801));
#513=CARTESIAN_POINT('',(0.000267052004346624,0.00635,-0.000271338329184801));
#514=CARTESIAN_POINT('',(0.000267052004346624,0.00635,0.));
#515=CARTESIAN_POINT('',(0.,0.007366,-0.000271338329184801));
#516=CARTESIAN_POINT('',(0.,0.00635,-0.000271338329184801));
#517=CARTESIAN_POINT('',(-0.000267052004346624,0.00635,-0.000271338329184801));
#518=CARTESIAN_POINT('',(-0.000267052004346624,0.007366,-0.000271338329184801));
#519=CARTESIAN_POINT('',(-0.000267052004346624,0.007366,-0.000271338329184801));
#520=CARTESIAN_POINT('',(0.,0.007366,-0.000271338329184801));
#521=CARTESIAN_POINT('',(0.000267052004346624,0.007366,-0.000271338329184801));
#522=CARTESIAN_POINT('',(0.000267052004346624,0.007366,-0.000271338329184801));
#523=CARTESIAN_POINT('',(-0.000267052004346624,0.007366,0.));
#524=CARTESIAN_POINT('',(-0.000267052004346624,0.00635,0.));
#525=CARTESIAN_POINT('',(-0.000267052004346624,0.007366,0.000271338329184801));
#526=CARTESIAN_POINT('',(-0.000267052004346624,0.007366,0.000271338329184801));
#527=CARTESIAN_POINT('',(-0.000267052004346624,0.007366,0.));
#528=CARTESIAN_POINT('',(0.,0.007366,0.000271338329184801));
#529=CARTESIAN_POINT('',(0.000267052004346624,0.007366,0.000271338329184801));
#530=CARTESIAN_POINT('',(0.000267052004346624,0.007366,0.000271338329184801));
#531=CARTESIAN_POINT('',(0.,0.007366,0.000271338329184801));
#532=CARTESIAN_POINT('',(0.000267052004346624,0.007366,0.));
#533=CARTESIAN_POINT('',(0.000267052004346624,0.007366,0.));
#534=CARTESIAN_POINT('',(0.,0.007366,0.));
#535=CARTESIAN_POINT('',(0.,0.00635,0.));
#536=MECHANICAL_DESIGN_GEOMETRIC_PRESENTATION_REPRESENTATION('',(#319),
#537);
#537=(
GEOMETRIC_REPRESENTATION_CONTEXT(3)
GLOBAL_UNCERTAINTY_ASSIGNED_CONTEXT((#538))
GLOBAL_UNIT_ASSIGNED_CONTEXT((#541,#540,#539))
REPRESENTATION_CONTEXT('Part 1','TOP_LEVEL_ASSEMBLY_PART')
);
#538=UNCERTAINTY_MEASURE_WITH_UNIT(LENGTH_MEASURE(2.5144806377229E-5),#541,
'DISTANCE_ACCURACY_VALUE','Maximum Tolerance applied to model');
#539=(
NAMED_UNIT(*)
SI_UNIT($,.STERADIAN.)
SOLID_ANGLE_UNIT()
);
#540=(
NAMED_UNIT(*)
PLANE_ANGLE_UNIT()
SI_UNIT($,.RADIAN.)
);
#541=(
LENGTH_UNIT()
NAMED_UNIT(*)
SI_UNIT($,.METRE.)
);
#542=PRODUCT_DEFINITION_SHAPE('','',#543);
#543=PRODUCT_DEFINITION('','',#545,#544);
#544=PRODUCT_DEFINITION_CONTEXT('',#551,'design');
#545=PRODUCT_DEFINITION_FORMATION_WITH_SPECIFIED_SOURCE('','',#547,
 .NOT_KNOWN.);
#546=PRODUCT_RELATED_PRODUCT_CATEGORY('','',(#547));
#547=PRODUCT('Part 1','Part 1','Part 1',(#549));
#548=PRODUCT_CATEGORY('','');
#549=PRODUCT_CONTEXT('',#551,'mechanical');
#550=APPLICATION_PROTOCOL_DEFINITION('international standard',
'ap242_managed_model_based_3d_engineering',2020,#551);
#551=APPLICATION_CONTEXT('managed model based 3d engineering');
ENDSEC;
END-ISO-10303-21;
