ISO-10303-21;
HEADER;
/* Generated by software containing ST-Developer
 * from STEP Tools, Inc. (www.steptools.com) 
 */
/* OPTION: using custom renumber hook */

FILE_DESCRIPTION(
/* description */ ('STEP AP242 Edition 2',
'CAx-IF Rec.Pracs.---Representation and Presentation of Product Manufa
cturing Information (PMI)---4.0---2014-10-13',
'CAx-IF Rec.Pracs.---3D Tessellated Geometry---0.4---2014-09-14','2;1',
'CAx-IF Rec.Pracs.---User Defined Attributes---1.5---2016-08-15'),
/* implementation_level */ '2;1');

FILE_NAME(
/* name */ 'Mini Fans',
/* time_stamp */ '2026-06-07T21:36:29Z',
/* author */ (''),
/* organization */ (''),
/* preprocessor_version */ 'ST-DEVELOPER v20',
/* originating_system */ 'ONSHAPE BY PTC INC, 1.216',
/* authorisation */ '  ');

FILE_SCHEMA (('AP242_MANAGED_MODEL_BASED_3D_ENGINEERING_MIM_LF { 1 0 10303 442 3 1 4 }'));
ENDSEC;

DATA;
#10=SHAPE_REPRESENTATION_RELATIONSHIP('','',#1015,#11);
#11=ADVANCED_BREP_SHAPE_REPRESENTATION('',(#1013),#1597);
#12=ORIENTED_EDGE('',*,*,#276,.F.);
#13=ORIENTED_EDGE('',*,*,#277,.T.);
#14=ORIENTED_EDGE('',*,*,#278,.T.);
#15=ORIENTED_EDGE('',*,*,#279,.F.);
#16=ORIENTED_EDGE('',*,*,#280,.F.);
#17=ORIENTED_EDGE('',*,*,#281,.T.);
#18=ORIENTED_EDGE('',*,*,#282,.T.);
#19=ORIENTED_EDGE('',*,*,#283,.F.);
#20=ORIENTED_EDGE('',*,*,#284,.T.);
#21=ORIENTED_EDGE('',*,*,#285,.T.);
#22=ORIENTED_EDGE('',*,*,#286,.F.);
#23=ORIENTED_EDGE('',*,*,#287,.F.);
#24=ORIENTED_EDGE('',*,*,#288,.F.);
#25=ORIENTED_EDGE('',*,*,#289,.T.);
#26=ORIENTED_EDGE('',*,*,#290,.T.);
#27=ORIENTED_EDGE('',*,*,#291,.F.);
#28=ORIENTED_EDGE('',*,*,#292,.F.);
#29=ORIENTED_EDGE('',*,*,#293,.T.);
#30=ORIENTED_EDGE('',*,*,#294,.T.);
#31=ORIENTED_EDGE('',*,*,#295,.F.);
#32=ORIENTED_EDGE('',*,*,#296,.F.);
#33=ORIENTED_EDGE('',*,*,#297,.T.);
#34=ORIENTED_EDGE('',*,*,#298,.T.);
#35=ORIENTED_EDGE('',*,*,#299,.F.);
#36=ORIENTED_EDGE('',*,*,#300,.F.);
#37=ORIENTED_EDGE('',*,*,#301,.T.);
#38=ORIENTED_EDGE('',*,*,#302,.T.);
#39=ORIENTED_EDGE('',*,*,#303,.F.);
#40=ORIENTED_EDGE('',*,*,#304,.F.);
#41=ORIENTED_EDGE('',*,*,#305,.T.);
#42=ORIENTED_EDGE('',*,*,#306,.T.);
#43=ORIENTED_EDGE('',*,*,#307,.F.);
#44=ORIENTED_EDGE('',*,*,#308,.F.);
#45=ORIENTED_EDGE('',*,*,#309,.T.);
#46=ORIENTED_EDGE('',*,*,#310,.T.);
#47=ORIENTED_EDGE('',*,*,#311,.F.);
#48=ORIENTED_EDGE('',*,*,#312,.F.);
#49=ORIENTED_EDGE('',*,*,#313,.T.);
#50=ORIENTED_EDGE('',*,*,#314,.T.);
#51=ORIENTED_EDGE('',*,*,#315,.F.);
#52=ORIENTED_EDGE('',*,*,#316,.F.);
#53=ORIENTED_EDGE('',*,*,#317,.T.);
#54=ORIENTED_EDGE('',*,*,#318,.T.);
#55=ORIENTED_EDGE('',*,*,#319,.F.);
#56=ORIENTED_EDGE('',*,*,#320,.F.);
#57=ORIENTED_EDGE('',*,*,#321,.T.);
#58=ORIENTED_EDGE('',*,*,#322,.T.);
#59=ORIENTED_EDGE('',*,*,#323,.F.);
#60=ORIENTED_EDGE('',*,*,#284,.F.);
#61=ORIENTED_EDGE('',*,*,#324,.F.);
#62=ORIENTED_EDGE('',*,*,#300,.T.);
#63=ORIENTED_EDGE('',*,*,#325,.T.);
#64=ORIENTED_EDGE('',*,*,#287,.T.);
#65=ORIENTED_EDGE('',*,*,#326,.F.);
#66=ORIENTED_EDGE('',*,*,#301,.F.);
#67=ORIENTED_EDGE('',*,*,#324,.T.);
#68=ORIENTED_EDGE('',*,*,#286,.T.);
#69=ORIENTED_EDGE('',*,*,#327,.F.);
#70=ORIENTED_EDGE('',*,*,#302,.F.);
#71=ORIENTED_EDGE('',*,*,#326,.T.);
#72=ORIENTED_EDGE('',*,*,#285,.F.);
#73=ORIENTED_EDGE('',*,*,#325,.F.);
#74=ORIENTED_EDGE('',*,*,#303,.T.);
#75=ORIENTED_EDGE('',*,*,#327,.T.);
#76=ORIENTED_EDGE('',*,*,#305,.F.);
#77=ORIENTED_EDGE('',*,*,#328,.F.);
#78=ORIENTED_EDGE('',*,*,#329,.T.);
#79=ORIENTED_EDGE('',*,*,#330,.T.);
#80=ORIENTED_EDGE('',*,*,#304,.T.);
#81=ORIENTED_EDGE('',*,*,#331,.F.);
#82=ORIENTED_EDGE('',*,*,#332,.F.);
#83=ORIENTED_EDGE('',*,*,#328,.T.);
#84=ORIENTED_EDGE('',*,*,#307,.T.);
#85=ORIENTED_EDGE('',*,*,#333,.F.);
#86=ORIENTED_EDGE('',*,*,#334,.F.);
#87=ORIENTED_EDGE('',*,*,#331,.T.);
#88=ORIENTED_EDGE('',*,*,#306,.F.);
#89=ORIENTED_EDGE('',*,*,#330,.F.);
#90=ORIENTED_EDGE('',*,*,#335,.T.);
#91=ORIENTED_EDGE('',*,*,#333,.T.);
#92=ORIENTED_EDGE('',*,*,#329,.F.);
#93=ORIENTED_EDGE('',*,*,#332,.T.);
#94=ORIENTED_EDGE('',*,*,#334,.T.);
#95=ORIENTED_EDGE('',*,*,#335,.F.);
#96=ORIENTED_EDGE('',*,*,#309,.F.);
#97=ORIENTED_EDGE('',*,*,#336,.F.);
#98=ORIENTED_EDGE('',*,*,#337,.T.);
#99=ORIENTED_EDGE('',*,*,#338,.T.);
#100=ORIENTED_EDGE('',*,*,#308,.T.);
#101=ORIENTED_EDGE('',*,*,#339,.F.);
#102=ORIENTED_EDGE('',*,*,#340,.F.);
#103=ORIENTED_EDGE('',*,*,#336,.T.);
#104=ORIENTED_EDGE('',*,*,#311,.T.);
#105=ORIENTED_EDGE('',*,*,#341,.F.);
#106=ORIENTED_EDGE('',*,*,#342,.F.);
#107=ORIENTED_EDGE('',*,*,#339,.T.);
#108=ORIENTED_EDGE('',*,*,#310,.F.);
#109=ORIENTED_EDGE('',*,*,#338,.F.);
#110=ORIENTED_EDGE('',*,*,#343,.T.);
#111=ORIENTED_EDGE('',*,*,#341,.T.);
#112=ORIENTED_EDGE('',*,*,#337,.F.);
#113=ORIENTED_EDGE('',*,*,#340,.T.);
#114=ORIENTED_EDGE('',*,*,#342,.T.);
#115=ORIENTED_EDGE('',*,*,#343,.F.);
#116=ORIENTED_EDGE('',*,*,#313,.F.);
#117=ORIENTED_EDGE('',*,*,#344,.F.);
#118=ORIENTED_EDGE('',*,*,#345,.T.);
#119=ORIENTED_EDGE('',*,*,#346,.T.);
#120=ORIENTED_EDGE('',*,*,#312,.T.);
#121=ORIENTED_EDGE('',*,*,#347,.F.);
#122=ORIENTED_EDGE('',*,*,#348,.F.);
#123=ORIENTED_EDGE('',*,*,#344,.T.);
#124=ORIENTED_EDGE('',*,*,#315,.T.);
#125=ORIENTED_EDGE('',*,*,#349,.F.);
#126=ORIENTED_EDGE('',*,*,#350,.F.);
#127=ORIENTED_EDGE('',*,*,#347,.T.);
#128=ORIENTED_EDGE('',*,*,#314,.F.);
#129=ORIENTED_EDGE('',*,*,#346,.F.);
#130=ORIENTED_EDGE('',*,*,#351,.T.);
#131=ORIENTED_EDGE('',*,*,#349,.T.);
#132=ORIENTED_EDGE('',*,*,#345,.F.);
#133=ORIENTED_EDGE('',*,*,#348,.T.);
#134=ORIENTED_EDGE('',*,*,#350,.T.);
#135=ORIENTED_EDGE('',*,*,#351,.F.);
#136=ORIENTED_EDGE('',*,*,#317,.F.);
#137=ORIENTED_EDGE('',*,*,#352,.F.);
#138=ORIENTED_EDGE('',*,*,#353,.T.);
#139=ORIENTED_EDGE('',*,*,#354,.T.);
#140=ORIENTED_EDGE('',*,*,#316,.T.);
#141=ORIENTED_EDGE('',*,*,#355,.F.);
#142=ORIENTED_EDGE('',*,*,#356,.F.);
#143=ORIENTED_EDGE('',*,*,#352,.T.);
#144=ORIENTED_EDGE('',*,*,#319,.T.);
#145=ORIENTED_EDGE('',*,*,#357,.F.);
#146=ORIENTED_EDGE('',*,*,#358,.F.);
#147=ORIENTED_EDGE('',*,*,#355,.T.);
#148=ORIENTED_EDGE('',*,*,#318,.F.);
#149=ORIENTED_EDGE('',*,*,#354,.F.);
#150=ORIENTED_EDGE('',*,*,#359,.T.);
#151=ORIENTED_EDGE('',*,*,#357,.T.);
#152=ORIENTED_EDGE('',*,*,#353,.F.);
#153=ORIENTED_EDGE('',*,*,#356,.T.);
#154=ORIENTED_EDGE('',*,*,#358,.T.);
#155=ORIENTED_EDGE('',*,*,#359,.F.);
#156=ORIENTED_EDGE('',*,*,#321,.F.);
#157=ORIENTED_EDGE('',*,*,#360,.F.);
#158=ORIENTED_EDGE('',*,*,#361,.T.);
#159=ORIENTED_EDGE('',*,*,#362,.T.);
#160=ORIENTED_EDGE('',*,*,#320,.T.);
#161=ORIENTED_EDGE('',*,*,#363,.F.);
#162=ORIENTED_EDGE('',*,*,#364,.F.);
#163=ORIENTED_EDGE('',*,*,#360,.T.);
#164=ORIENTED_EDGE('',*,*,#323,.T.);
#165=ORIENTED_EDGE('',*,*,#365,.F.);
#166=ORIENTED_EDGE('',*,*,#366,.F.);
#167=ORIENTED_EDGE('',*,*,#363,.T.);
#168=ORIENTED_EDGE('',*,*,#322,.F.);
#169=ORIENTED_EDGE('',*,*,#362,.F.);
#170=ORIENTED_EDGE('',*,*,#367,.T.);
#171=ORIENTED_EDGE('',*,*,#365,.T.);
#172=ORIENTED_EDGE('',*,*,#361,.F.);
#173=ORIENTED_EDGE('',*,*,#364,.T.);
#174=ORIENTED_EDGE('',*,*,#366,.T.);
#175=ORIENTED_EDGE('',*,*,#367,.F.);
#176=ORIENTED_EDGE('',*,*,#368,.T.);
#177=ORIENTED_EDGE('',*,*,#288,.T.);
#178=ORIENTED_EDGE('',*,*,#369,.F.);
#179=ORIENTED_EDGE('',*,*,#370,.F.);
#180=ORIENTED_EDGE('',*,*,#289,.F.);
#181=ORIENTED_EDGE('',*,*,#368,.F.);
#182=ORIENTED_EDGE('',*,*,#371,.T.);
#183=ORIENTED_EDGE('',*,*,#372,.T.);
#184=ORIENTED_EDGE('',*,*,#290,.F.);
#185=ORIENTED_EDGE('',*,*,#372,.F.);
#186=ORIENTED_EDGE('',*,*,#373,.T.);
#187=ORIENTED_EDGE('',*,*,#374,.T.);
#188=ORIENTED_EDGE('',*,*,#369,.T.);
#189=ORIENTED_EDGE('',*,*,#291,.T.);
#190=ORIENTED_EDGE('',*,*,#374,.F.);
#191=ORIENTED_EDGE('',*,*,#375,.F.);
#192=ORIENTED_EDGE('',*,*,#370,.T.);
#193=ORIENTED_EDGE('',*,*,#375,.T.);
#194=ORIENTED_EDGE('',*,*,#373,.F.);
#195=ORIENTED_EDGE('',*,*,#371,.F.);
#196=ORIENTED_EDGE('',*,*,#376,.T.);
#197=ORIENTED_EDGE('',*,*,#280,.T.);
#198=ORIENTED_EDGE('',*,*,#377,.F.);
#199=ORIENTED_EDGE('',*,*,#378,.F.);
#200=ORIENTED_EDGE('',*,*,#281,.F.);
#201=ORIENTED_EDGE('',*,*,#376,.F.);
#202=ORIENTED_EDGE('',*,*,#379,.T.);
#203=ORIENTED_EDGE('',*,*,#380,.T.);
#204=ORIENTED_EDGE('',*,*,#282,.F.);
#205=ORIENTED_EDGE('',*,*,#380,.F.);
#206=ORIENTED_EDGE('',*,*,#381,.T.);
#207=ORIENTED_EDGE('',*,*,#382,.T.);
#208=ORIENTED_EDGE('',*,*,#377,.T.);
#209=ORIENTED_EDGE('',*,*,#283,.T.);
#210=ORIENTED_EDGE('',*,*,#382,.F.);
#211=ORIENTED_EDGE('',*,*,#383,.F.);
#212=ORIENTED_EDGE('',*,*,#378,.T.);
#213=ORIENTED_EDGE('',*,*,#383,.T.);
#214=ORIENTED_EDGE('',*,*,#381,.F.);
#215=ORIENTED_EDGE('',*,*,#379,.F.);
#216=ORIENTED_EDGE('',*,*,#384,.T.);
#217=ORIENTED_EDGE('',*,*,#292,.T.);
#218=ORIENTED_EDGE('',*,*,#385,.F.);
#219=ORIENTED_EDGE('',*,*,#386,.F.);
#220=ORIENTED_EDGE('',*,*,#293,.F.);
#221=ORIENTED_EDGE('',*,*,#384,.F.);
#222=ORIENTED_EDGE('',*,*,#387,.T.);
#223=ORIENTED_EDGE('',*,*,#388,.T.);
#224=ORIENTED_EDGE('',*,*,#294,.F.);
#225=ORIENTED_EDGE('',*,*,#388,.F.);
#226=ORIENTED_EDGE('',*,*,#389,.T.);
#227=ORIENTED_EDGE('',*,*,#390,.T.);
#228=ORIENTED_EDGE('',*,*,#385,.T.);
#229=ORIENTED_EDGE('',*,*,#295,.T.);
#230=ORIENTED_EDGE('',*,*,#390,.F.);
#231=ORIENTED_EDGE('',*,*,#391,.F.);
#232=ORIENTED_EDGE('',*,*,#386,.T.);
#233=ORIENTED_EDGE('',*,*,#391,.T.);
#234=ORIENTED_EDGE('',*,*,#389,.F.);
#235=ORIENTED_EDGE('',*,*,#387,.F.);
#236=ORIENTED_EDGE('',*,*,#392,.T.);
#237=ORIENTED_EDGE('',*,*,#276,.T.);
#238=ORIENTED_EDGE('',*,*,#393,.F.);
#239=ORIENTED_EDGE('',*,*,#394,.F.);
#240=ORIENTED_EDGE('',*,*,#277,.F.);
#241=ORIENTED_EDGE('',*,*,#392,.F.);
#242=ORIENTED_EDGE('',*,*,#395,.T.);
#243=ORIENTED_EDGE('',*,*,#396,.T.);
#244=ORIENTED_EDGE('',*,*,#278,.F.);
#245=ORIENTED_EDGE('',*,*,#396,.F.);
#246=ORIENTED_EDGE('',*,*,#397,.T.);
#247=ORIENTED_EDGE('',*,*,#398,.T.);
#248=ORIENTED_EDGE('',*,*,#393,.T.);
#249=ORIENTED_EDGE('',*,*,#279,.T.);
#250=ORIENTED_EDGE('',*,*,#398,.F.);
#251=ORIENTED_EDGE('',*,*,#399,.F.);
#252=ORIENTED_EDGE('',*,*,#394,.T.);
#253=ORIENTED_EDGE('',*,*,#399,.T.);
#254=ORIENTED_EDGE('',*,*,#397,.F.);
#255=ORIENTED_EDGE('',*,*,#395,.F.);
#256=ORIENTED_EDGE('',*,*,#400,.T.);
#257=ORIENTED_EDGE('',*,*,#296,.T.);
#258=ORIENTED_EDGE('',*,*,#401,.F.);
#259=ORIENTED_EDGE('',*,*,#402,.F.);
#260=ORIENTED_EDGE('',*,*,#297,.F.);
#261=ORIENTED_EDGE('',*,*,#400,.F.);
#262=ORIENTED_EDGE('',*,*,#403,.T.);
#263=ORIENTED_EDGE('',*,*,#404,.T.);
#264=ORIENTED_EDGE('',*,*,#298,.F.);
#265=ORIENTED_EDGE('',*,*,#404,.F.);
#266=ORIENTED_EDGE('',*,*,#405,.T.);
#267=ORIENTED_EDGE('',*,*,#406,.T.);
#268=ORIENTED_EDGE('',*,*,#401,.T.);
#269=ORIENTED_EDGE('',*,*,#299,.T.);
#270=ORIENTED_EDGE('',*,*,#406,.F.);
#271=ORIENTED_EDGE('',*,*,#407,.F.);
#272=ORIENTED_EDGE('',*,*,#402,.T.);
#273=ORIENTED_EDGE('',*,*,#407,.T.);
#274=ORIENTED_EDGE('',*,*,#405,.F.);
#275=ORIENTED_EDGE('',*,*,#403,.F.);
#276=EDGE_CURVE('',#408,#409,#496,.T.);
#277=EDGE_CURVE('',#408,#410,#497,.T.);
#278=EDGE_CURVE('',#410,#411,#498,.T.);
#279=EDGE_CURVE('',#409,#411,#499,.T.);
#280=EDGE_CURVE('',#412,#413,#500,.T.);
#281=EDGE_CURVE('',#412,#414,#501,.T.);
#282=EDGE_CURVE('',#414,#415,#502,.T.);
#283=EDGE_CURVE('',#413,#415,#503,.T.);
#284=EDGE_CURVE('',#416,#417,#504,.T.);
#285=EDGE_CURVE('',#417,#418,#505,.T.);
#286=EDGE_CURVE('',#419,#418,#506,.T.);
#287=EDGE_CURVE('',#416,#419,#507,.T.);
#288=EDGE_CURVE('',#420,#421,#508,.T.);
#289=EDGE_CURVE('',#420,#422,#509,.T.);
#290=EDGE_CURVE('',#422,#423,#510,.T.);
#291=EDGE_CURVE('',#421,#423,#511,.T.);
#292=EDGE_CURVE('',#424,#425,#512,.T.);
#293=EDGE_CURVE('',#424,#426,#513,.T.);
#294=EDGE_CURVE('',#426,#427,#514,.T.);
#295=EDGE_CURVE('',#425,#427,#515,.T.);
#296=EDGE_CURVE('',#428,#429,#516,.T.);
#297=EDGE_CURVE('',#428,#430,#517,.T.);
#298=EDGE_CURVE('',#430,#431,#518,.T.);
#299=EDGE_CURVE('',#429,#431,#519,.T.);
#300=EDGE_CURVE('',#432,#433,#520,.T.);
#301=EDGE_CURVE('',#432,#434,#521,.T.);
#302=EDGE_CURVE('',#434,#435,#522,.T.);
#303=EDGE_CURVE('',#433,#435,#523,.T.);
#304=EDGE_CURVE('',#436,#437,#524,.T.);
#305=EDGE_CURVE('',#436,#438,#525,.T.);
#306=EDGE_CURVE('',#438,#439,#526,.T.);
#307=EDGE_CURVE('',#437,#439,#527,.T.);
#308=EDGE_CURVE('',#440,#441,#528,.T.);
#309=EDGE_CURVE('',#440,#442,#529,.T.);
#310=EDGE_CURVE('',#442,#443,#530,.T.);
#311=EDGE_CURVE('',#441,#443,#531,.T.);
#312=EDGE_CURVE('',#444,#445,#532,.T.);
#313=EDGE_CURVE('',#444,#446,#533,.T.);
#314=EDGE_CURVE('',#446,#447,#534,.T.);
#315=EDGE_CURVE('',#445,#447,#535,.T.);
#316=EDGE_CURVE('',#448,#449,#536,.T.);
#317=EDGE_CURVE('',#448,#450,#537,.T.);
#318=EDGE_CURVE('',#450,#451,#538,.T.);
#319=EDGE_CURVE('',#449,#451,#539,.T.);
#320=EDGE_CURVE('',#452,#453,#540,.T.);
#321=EDGE_CURVE('',#452,#454,#541,.T.);
#322=EDGE_CURVE('',#454,#455,#542,.T.);
#323=EDGE_CURVE('',#453,#455,#543,.T.);
#324=EDGE_CURVE('',#432,#416,#544,.T.);
#325=EDGE_CURVE('',#433,#417,#545,.T.);
#326=EDGE_CURVE('',#434,#419,#546,.T.);
#327=EDGE_CURVE('',#435,#418,#547,.T.);
#328=EDGE_CURVE('',#456,#436,#548,.T.);
#329=EDGE_CURVE('',#456,#457,#549,.T.);
#330=EDGE_CURVE('',#457,#438,#550,.T.);
#331=EDGE_CURVE('',#458,#437,#551,.T.);
#332=EDGE_CURVE('',#456,#458,#552,.T.);
#333=EDGE_CURVE('',#459,#439,#553,.T.);
#334=EDGE_CURVE('',#458,#459,#554,.T.);
#335=EDGE_CURVE('',#457,#459,#555,.T.);
#336=EDGE_CURVE('',#460,#440,#556,.T.);
#337=EDGE_CURVE('',#460,#461,#557,.T.);
#338=EDGE_CURVE('',#461,#442,#558,.T.);
#339=EDGE_CURVE('',#462,#441,#559,.T.);
#340=EDGE_CURVE('',#460,#462,#560,.T.);
#341=EDGE_CURVE('',#463,#443,#561,.T.);
#342=EDGE_CURVE('',#462,#463,#562,.T.);
#343=EDGE_CURVE('',#461,#463,#563,.T.);
#344=EDGE_CURVE('',#464,#444,#564,.T.);
#345=EDGE_CURVE('',#464,#465,#565,.T.);
#346=EDGE_CURVE('',#465,#446,#566,.T.);
#347=EDGE_CURVE('',#466,#445,#567,.T.);
#348=EDGE_CURVE('',#464,#466,#568,.T.);
#349=EDGE_CURVE('',#467,#447,#569,.T.);
#350=EDGE_CURVE('',#466,#467,#570,.T.);
#351=EDGE_CURVE('',#465,#467,#571,.T.);
#352=EDGE_CURVE('',#468,#448,#572,.T.);
#353=EDGE_CURVE('',#468,#469,#573,.T.);
#354=EDGE_CURVE('',#469,#450,#574,.T.);
#355=EDGE_CURVE('',#470,#449,#575,.T.);
#356=EDGE_CURVE('',#468,#470,#576,.T.);
#357=EDGE_CURVE('',#471,#451,#577,.T.);
#358=EDGE_CURVE('',#470,#471,#578,.T.);
#359=EDGE_CURVE('',#469,#471,#579,.T.);
#360=EDGE_CURVE('',#472,#452,#580,.T.);
#361=EDGE_CURVE('',#472,#473,#581,.T.);
#362=EDGE_CURVE('',#473,#454,#582,.T.);
#363=EDGE_CURVE('',#474,#453,#583,.T.);
#364=EDGE_CURVE('',#472,#474,#584,.T.);
#365=EDGE_CURVE('',#475,#455,#585,.T.);
#366=EDGE_CURVE('',#474,#475,#586,.T.);
#367=EDGE_CURVE('',#473,#475,#587,.T.);
#368=EDGE_CURVE('',#476,#420,#588,.T.);
#369=EDGE_CURVE('',#477,#421,#589,.T.);
#370=EDGE_CURVE('',#476,#477,#590,.T.);
#371=EDGE_CURVE('',#476,#478,#591,.T.);
#372=EDGE_CURVE('',#478,#422,#592,.T.);
#373=EDGE_CURVE('',#478,#479,#593,.T.);
#374=EDGE_CURVE('',#479,#423,#594,.T.);
#375=EDGE_CURVE('',#477,#479,#595,.T.);
#376=EDGE_CURVE('',#480,#412,#596,.T.);
#377=EDGE_CURVE('',#481,#413,#597,.T.);
#378=EDGE_CURVE('',#480,#481,#598,.T.);
#379=EDGE_CURVE('',#480,#482,#599,.T.);
#380=EDGE_CURVE('',#482,#414,#600,.T.);
#381=EDGE_CURVE('',#482,#483,#601,.T.);
#382=EDGE_CURVE('',#483,#415,#602,.T.);
#383=EDGE_CURVE('',#481,#483,#603,.T.);
#384=EDGE_CURVE('',#484,#424,#604,.T.);
#385=EDGE_CURVE('',#485,#425,#605,.T.);
#386=EDGE_CURVE('',#484,#485,#606,.T.);
#387=EDGE_CURVE('',#484,#486,#607,.T.);
#388=EDGE_CURVE('',#486,#426,#608,.T.);
#389=EDGE_CURVE('',#486,#487,#609,.T.);
#390=EDGE_CURVE('',#487,#427,#610,.T.);
#391=EDGE_CURVE('',#485,#487,#611,.T.);
#392=EDGE_CURVE('',#488,#408,#612,.T.);
#393=EDGE_CURVE('',#489,#409,#613,.T.);
#394=EDGE_CURVE('',#488,#489,#614,.T.);
#395=EDGE_CURVE('',#488,#490,#615,.T.);
#396=EDGE_CURVE('',#490,#410,#616,.T.);
#397=EDGE_CURVE('',#490,#491,#617,.T.);
#398=EDGE_CURVE('',#491,#411,#618,.T.);
#399=EDGE_CURVE('',#489,#491,#619,.T.);
#400=EDGE_CURVE('',#492,#428,#620,.T.);
#401=EDGE_CURVE('',#493,#429,#621,.T.);
#402=EDGE_CURVE('',#492,#493,#622,.T.);
#403=EDGE_CURVE('',#492,#494,#623,.T.);
#404=EDGE_CURVE('',#494,#430,#624,.T.);
#405=EDGE_CURVE('',#494,#495,#625,.T.);
#406=EDGE_CURVE('',#495,#431,#626,.T.);
#407=EDGE_CURVE('',#493,#495,#627,.T.);
#408=VERTEX_POINT('',#1322);
#409=VERTEX_POINT('',#1323);
#410=VERTEX_POINT('',#1325);
#411=VERTEX_POINT('',#1327);
#412=VERTEX_POINT('',#1330);
#413=VERTEX_POINT('',#1331);
#414=VERTEX_POINT('',#1333);
#415=VERTEX_POINT('',#1335);
#416=VERTEX_POINT('',#1338);
#417=VERTEX_POINT('',#1339);
#418=VERTEX_POINT('',#1341);
#419=VERTEX_POINT('',#1343);
#420=VERTEX_POINT('',#1346);
#421=VERTEX_POINT('',#1347);
#422=VERTEX_POINT('',#1349);
#423=VERTEX_POINT('',#1351);
#424=VERTEX_POINT('',#1354);
#425=VERTEX_POINT('',#1355);
#426=VERTEX_POINT('',#1357);
#427=VERTEX_POINT('',#1359);
#428=VERTEX_POINT('',#1362);
#429=VERTEX_POINT('',#1363);
#430=VERTEX_POINT('',#1365);
#431=VERTEX_POINT('',#1367);
#432=VERTEX_POINT('',#1371);
#433=VERTEX_POINT('',#1372);
#434=VERTEX_POINT('',#1374);
#435=VERTEX_POINT('',#1376);
#436=VERTEX_POINT('',#1379);
#437=VERTEX_POINT('',#1380);
#438=VERTEX_POINT('',#1382);
#439=VERTEX_POINT('',#1384);
#440=VERTEX_POINT('',#1387);
#441=VERTEX_POINT('',#1388);
#442=VERTEX_POINT('',#1390);
#443=VERTEX_POINT('',#1392);
#444=VERTEX_POINT('',#1395);
#445=VERTEX_POINT('',#1396);
#446=VERTEX_POINT('',#1398);
#447=VERTEX_POINT('',#1400);
#448=VERTEX_POINT('',#1403);
#449=VERTEX_POINT('',#1404);
#450=VERTEX_POINT('',#1406);
#451=VERTEX_POINT('',#1408);
#452=VERTEX_POINT('',#1411);
#453=VERTEX_POINT('',#1412);
#454=VERTEX_POINT('',#1414);
#455=VERTEX_POINT('',#1416);
#456=VERTEX_POINT('',#1428);
#457=VERTEX_POINT('',#1430);
#458=VERTEX_POINT('',#1434);
#459=VERTEX_POINT('',#1438);
#460=VERTEX_POINT('',#1445);
#461=VERTEX_POINT('',#1447);
#462=VERTEX_POINT('',#1451);
#463=VERTEX_POINT('',#1455);
#464=VERTEX_POINT('',#1462);
#465=VERTEX_POINT('',#1464);
#466=VERTEX_POINT('',#1468);
#467=VERTEX_POINT('',#1472);
#468=VERTEX_POINT('',#1479);
#469=VERTEX_POINT('',#1481);
#470=VERTEX_POINT('',#1485);
#471=VERTEX_POINT('',#1489);
#472=VERTEX_POINT('',#1496);
#473=VERTEX_POINT('',#1498);
#474=VERTEX_POINT('',#1502);
#475=VERTEX_POINT('',#1506);
#476=VERTEX_POINT('',#1513);
#477=VERTEX_POINT('',#1515);
#478=VERTEX_POINT('',#1519);
#479=VERTEX_POINT('',#1523);
#480=VERTEX_POINT('',#1530);
#481=VERTEX_POINT('',#1532);
#482=VERTEX_POINT('',#1536);
#483=VERTEX_POINT('',#1540);
#484=VERTEX_POINT('',#1547);
#485=VERTEX_POINT('',#1549);
#486=VERTEX_POINT('',#1553);
#487=VERTEX_POINT('',#1557);
#488=VERTEX_POINT('',#1564);
#489=VERTEX_POINT('',#1566);
#490=VERTEX_POINT('',#1570);
#491=VERTEX_POINT('',#1574);
#492=VERTEX_POINT('',#1581);
#493=VERTEX_POINT('',#1583);
#494=VERTEX_POINT('',#1587);
#495=VERTEX_POINT('',#1591);
#496=LINE('',#1321,#628);
#497=LINE('',#1324,#629);
#498=LINE('',#1326,#630);
#499=LINE('',#1328,#631);
#500=LINE('',#1329,#632);
#501=LINE('',#1332,#633);
#502=LINE('',#1334,#634);
#503=LINE('',#1336,#635);
#504=LINE('',#1337,#636);
#505=LINE('',#1340,#637);
#506=LINE('',#1342,#638);
#507=LINE('',#1344,#639);
#508=LINE('',#1345,#640);
#509=LINE('',#1348,#641);
#510=LINE('',#1350,#642);
#511=LINE('',#1352,#643);
#512=LINE('',#1353,#644);
#513=LINE('',#1356,#645);
#514=LINE('',#1358,#646);
#515=LINE('',#1360,#647);
#516=LINE('',#1361,#648);
#517=LINE('',#1364,#649);
#518=LINE('',#1366,#650);
#519=LINE('',#1368,#651);
#520=LINE('',#1370,#652);
#521=LINE('',#1373,#653);
#522=LINE('',#1375,#654);
#523=LINE('',#1377,#655);
#524=LINE('',#1378,#656);
#525=LINE('',#1381,#657);
#526=LINE('',#1383,#658);
#527=LINE('',#1385,#659);
#528=LINE('',#1386,#660);
#529=LINE('',#1389,#661);
#530=LINE('',#1391,#662);
#531=LINE('',#1393,#663);
#532=LINE('',#1394,#664);
#533=LINE('',#1397,#665);
#534=LINE('',#1399,#666);
#535=LINE('',#1401,#667);
#536=LINE('',#1402,#668);
#537=LINE('',#1405,#669);
#538=LINE('',#1407,#670);
#539=LINE('',#1409,#671);
#540=LINE('',#1410,#672);
#541=LINE('',#1413,#673);
#542=LINE('',#1415,#674);
#543=LINE('',#1417,#675);
#544=LINE('',#1419,#676);
#545=LINE('',#1420,#677);
#546=LINE('',#1422,#678);
#547=LINE('',#1424,#679);
#548=LINE('',#1427,#680);
#549=LINE('',#1429,#681);
#550=LINE('',#1431,#682);
#551=LINE('',#1433,#683);
#552=LINE('',#1435,#684);
#553=LINE('',#1437,#685);
#554=LINE('',#1439,#686);
#555=LINE('',#1441,#687);
#556=LINE('',#1444,#688);
#557=LINE('',#1446,#689);
#558=LINE('',#1448,#690);
#559=LINE('',#1450,#691);
#560=LINE('',#1452,#692);
#561=LINE('',#1454,#693);
#562=LINE('',#1456,#694);
#563=LINE('',#1458,#695);
#564=LINE('',#1461,#696);
#565=LINE('',#1463,#697);
#566=LINE('',#1465,#698);
#567=LINE('',#1467,#699);
#568=LINE('',#1469,#700);
#569=LINE('',#1471,#701);
#570=LINE('',#1473,#702);
#571=LINE('',#1475,#703);
#572=LINE('',#1478,#704);
#573=LINE('',#1480,#705);
#574=LINE('',#1482,#706);
#575=LINE('',#1484,#707);
#576=LINE('',#1486,#708);
#577=LINE('',#1488,#709);
#578=LINE('',#1490,#710);
#579=LINE('',#1492,#711);
#580=LINE('',#1495,#712);
#581=LINE('',#1497,#713);
#582=LINE('',#1499,#714);
#583=LINE('',#1501,#715);
#584=LINE('',#1503,#716);
#585=LINE('',#1505,#717);
#586=LINE('',#1507,#718);
#587=LINE('',#1509,#719);
#588=LINE('',#1512,#720);
#589=LINE('',#1514,#721);
#590=LINE('',#1516,#722);
#591=LINE('',#1518,#723);
#592=LINE('',#1520,#724);
#593=LINE('',#1522,#725);
#594=LINE('',#1524,#726);
#595=LINE('',#1526,#727);
#596=LINE('',#1529,#728);
#597=LINE('',#1531,#729);
#598=LINE('',#1533,#730);
#599=LINE('',#1535,#731);
#600=LINE('',#1537,#732);
#601=LINE('',#1539,#733);
#602=LINE('',#1541,#734);
#603=LINE('',#1543,#735);
#604=LINE('',#1546,#736);
#605=LINE('',#1548,#737);
#606=LINE('',#1550,#738);
#607=LINE('',#1552,#739);
#608=LINE('',#1554,#740);
#609=LINE('',#1556,#741);
#610=LINE('',#1558,#742);
#611=LINE('',#1560,#743);
#612=LINE('',#1563,#744);
#613=LINE('',#1565,#745);
#614=LINE('',#1567,#746);
#615=LINE('',#1569,#747);
#616=LINE('',#1571,#748);
#617=LINE('',#1573,#749);
#618=LINE('',#1575,#750);
#619=LINE('',#1577,#751);
#620=LINE('',#1580,#752);
#621=LINE('',#1582,#753);
#622=LINE('',#1584,#754);
#623=LINE('',#1586,#755);
#624=LINE('',#1588,#756);
#625=LINE('',#1590,#757);
#626=LINE('',#1592,#758);
#627=LINE('',#1594,#759);
#628=VECTOR('',#1077,1.);
#629=VECTOR('',#1078,1.);
#630=VECTOR('',#1079,1.);
#631=VECTOR('',#1080,1.);
#632=VECTOR('',#1081,1.);
#633=VECTOR('',#1082,1.);
#634=VECTOR('',#1083,1.);
#635=VECTOR('',#1084,1.);
#636=VECTOR('',#1085,1.);
#637=VECTOR('',#1086,1.);
#638=VECTOR('',#1087,1.);
#639=VECTOR('',#1088,1.);
#640=VECTOR('',#1089,1.);
#641=VECTOR('',#1090,1.);
#642=VECTOR('',#1091,1.);
#643=VECTOR('',#1092,1.);
#644=VECTOR('',#1093,1.);
#645=VECTOR('',#1094,1.);
#646=VECTOR('',#1095,1.);
#647=VECTOR('',#1096,1.);
#648=VECTOR('',#1097,1.);
#649=VECTOR('',#1098,1.);
#650=VECTOR('',#1099,1.);
#651=VECTOR('',#1100,1.);
#652=VECTOR('',#1103,1.);
#653=VECTOR('',#1104,1.);
#654=VECTOR('',#1105,1.);
#655=VECTOR('',#1106,1.);
#656=VECTOR('',#1107,1.);
#657=VECTOR('',#1108,1.);
#658=VECTOR('',#1109,1.);
#659=VECTOR('',#1110,1.);
#660=VECTOR('',#1111,1.);
#661=VECTOR('',#1112,1.);
#662=VECTOR('',#1113,1.);
#663=VECTOR('',#1114,1.);
#664=VECTOR('',#1115,1.);
#665=VECTOR('',#1116,1.);
#666=VECTOR('',#1117,1.);
#667=VECTOR('',#1118,1.);
#668=VECTOR('',#1119,1.);
#669=VECTOR('',#1120,1.);
#670=VECTOR('',#1121,1.);
#671=VECTOR('',#1122,1.);
#672=VECTOR('',#1123,1.);
#673=VECTOR('',#1124,1.);
#674=VECTOR('',#1125,1.);
#675=VECTOR('',#1126,1.);
#676=VECTOR('',#1129,1.);
#677=VECTOR('',#1130,1.);
#678=VECTOR('',#1133,1.);
#679=VECTOR('',#1136,1.);
#680=VECTOR('',#1141,1.);
#681=VECTOR('',#1142,1.);
#682=VECTOR('',#1143,1.);
#683=VECTOR('',#1146,1.);
#684=VECTOR('',#1147,1.);
#685=VECTOR('',#1150,1.);
#686=VECTOR('',#1151,1.);
#687=VECTOR('',#1154,1.);
#688=VECTOR('',#1159,1.);
#689=VECTOR('',#1160,1.);
#690=VECTOR('',#1161,1.);
#691=VECTOR('',#1164,1.);
#692=VECTOR('',#1165,1.);
#693=VECTOR('',#1168,1.);
#694=VECTOR('',#1169,1.);
#695=VECTOR('',#1172,1.);
#696=VECTOR('',#1177,1.);
#697=VECTOR('',#1178,1.);
#698=VECTOR('',#1179,1.);
#699=VECTOR('',#1182,1.);
#700=VECTOR('',#1183,1.);
#701=VECTOR('',#1186,1.);
#702=VECTOR('',#1187,1.);
#703=VECTOR('',#1190,1.);
#704=VECTOR('',#1195,1.);
#705=VECTOR('',#1196,1.);
#706=VECTOR('',#1197,1.);
#707=VECTOR('',#1200,1.);
#708=VECTOR('',#1201,1.);
#709=VECTOR('',#1204,1.);
#710=VECTOR('',#1205,1.);
#711=VECTOR('',#1208,1.);
#712=VECTOR('',#1213,1.);
#713=VECTOR('',#1214,1.);
#714=VECTOR('',#1215,1.);
#715=VECTOR('',#1218,1.);
#716=VECTOR('',#1219,1.);
#717=VECTOR('',#1222,1.);
#718=VECTOR('',#1223,1.);
#719=VECTOR('',#1226,1.);
#720=VECTOR('',#1231,1.);
#721=VECTOR('',#1232,1.);
#722=VECTOR('',#1233,1.);
#723=VECTOR('',#1236,1.);
#724=VECTOR('',#1237,1.);
#725=VECTOR('',#1240,1.);
#726=VECTOR('',#1241,1.);
#727=VECTOR('',#1244,1.);
#728=VECTOR('',#1249,1.);
#729=VECTOR('',#1250,1.);
#730=VECTOR('',#1251,1.);
#731=VECTOR('',#1254,1.);
#732=VECTOR('',#1255,1.);
#733=VECTOR('',#1258,1.);
#734=VECTOR('',#1259,1.);
#735=VECTOR('',#1262,1.);
#736=VECTOR('',#1267,1.);
#737=VECTOR('',#1268,1.);
#738=VECTOR('',#1269,1.);
#739=VECTOR('',#1272,1.);
#740=VECTOR('',#1273,1.);
#741=VECTOR('',#1276,1.);
#742=VECTOR('',#1277,1.);
#743=VECTOR('',#1280,1.);
#744=VECTOR('',#1285,1.);
#745=VECTOR('',#1286,1.);
#746=VECTOR('',#1287,1.);
#747=VECTOR('',#1290,1.);
#748=VECTOR('',#1291,1.);
#749=VECTOR('',#1294,1.);
#750=VECTOR('',#1295,1.);
#751=VECTOR('',#1298,1.);
#752=VECTOR('',#1303,1.);
#753=VECTOR('',#1304,1.);
#754=VECTOR('',#1305,1.);
#755=VECTOR('',#1308,1.);
#756=VECTOR('',#1309,1.);
#757=VECTOR('',#1312,1.);
#758=VECTOR('',#1313,1.);
#759=VECTOR('',#1316,1.);
#760=EDGE_LOOP('',(#12,#13,#14,#15));
#761=EDGE_LOOP('',(#16,#17,#18,#19));
#762=EDGE_LOOP('',(#20,#21,#22,#23));
#763=EDGE_LOOP('',(#24,#25,#26,#27));
#764=EDGE_LOOP('',(#28,#29,#30,#31));
#765=EDGE_LOOP('',(#32,#33,#34,#35));
#766=EDGE_LOOP('',(#36,#37,#38,#39));
#767=EDGE_LOOP('',(#40,#41,#42,#43));
#768=EDGE_LOOP('',(#44,#45,#46,#47));
#769=EDGE_LOOP('',(#48,#49,#50,#51));
#770=EDGE_LOOP('',(#52,#53,#54,#55));
#771=EDGE_LOOP('',(#56,#57,#58,#59));
#772=EDGE_LOOP('',(#60,#61,#62,#63));
#773=EDGE_LOOP('',(#64,#65,#66,#67));
#774=EDGE_LOOP('',(#68,#69,#70,#71));
#775=EDGE_LOOP('',(#72,#73,#74,#75));
#776=EDGE_LOOP('',(#76,#77,#78,#79));
#777=EDGE_LOOP('',(#80,#81,#82,#83));
#778=EDGE_LOOP('',(#84,#85,#86,#87));
#779=EDGE_LOOP('',(#88,#89,#90,#91));
#780=EDGE_LOOP('',(#92,#93,#94,#95));
#781=EDGE_LOOP('',(#96,#97,#98,#99));
#782=EDGE_LOOP('',(#100,#101,#102,#103));
#783=EDGE_LOOP('',(#104,#105,#106,#107));
#784=EDGE_LOOP('',(#108,#109,#110,#111));
#785=EDGE_LOOP('',(#112,#113,#114,#115));
#786=EDGE_LOOP('',(#116,#117,#118,#119));
#787=EDGE_LOOP('',(#120,#121,#122,#123));
#788=EDGE_LOOP('',(#124,#125,#126,#127));
#789=EDGE_LOOP('',(#128,#129,#130,#131));
#790=EDGE_LOOP('',(#132,#133,#134,#135));
#791=EDGE_LOOP('',(#136,#137,#138,#139));
#792=EDGE_LOOP('',(#140,#141,#142,#143));
#793=EDGE_LOOP('',(#144,#145,#146,#147));
#794=EDGE_LOOP('',(#148,#149,#150,#151));
#795=EDGE_LOOP('',(#152,#153,#154,#155));
#796=EDGE_LOOP('',(#156,#157,#158,#159));
#797=EDGE_LOOP('',(#160,#161,#162,#163));
#798=EDGE_LOOP('',(#164,#165,#166,#167));
#799=EDGE_LOOP('',(#168,#169,#170,#171));
#800=EDGE_LOOP('',(#172,#173,#174,#175));
#801=EDGE_LOOP('',(#176,#177,#178,#179));
#802=EDGE_LOOP('',(#180,#181,#182,#183));
#803=EDGE_LOOP('',(#184,#185,#186,#187));
#804=EDGE_LOOP('',(#188,#189,#190,#191));
#805=EDGE_LOOP('',(#192,#193,#194,#195));
#806=EDGE_LOOP('',(#196,#197,#198,#199));
#807=EDGE_LOOP('',(#200,#201,#202,#203));
#808=EDGE_LOOP('',(#204,#205,#206,#207));
#809=EDGE_LOOP('',(#208,#209,#210,#211));
#810=EDGE_LOOP('',(#212,#213,#214,#215));
#811=EDGE_LOOP('',(#216,#217,#218,#219));
#812=EDGE_LOOP('',(#220,#221,#222,#223));
#813=EDGE_LOOP('',(#224,#225,#226,#227));
#814=EDGE_LOOP('',(#228,#229,#230,#231));
#815=EDGE_LOOP('',(#232,#233,#234,#235));
#816=EDGE_LOOP('',(#236,#237,#238,#239));
#817=EDGE_LOOP('',(#240,#241,#242,#243));
#818=EDGE_LOOP('',(#244,#245,#246,#247));
#819=EDGE_LOOP('',(#248,#249,#250,#251));
#820=EDGE_LOOP('',(#252,#253,#254,#255));
#821=EDGE_LOOP('',(#256,#257,#258,#259));
#822=EDGE_LOOP('',(#260,#261,#262,#263));
#823=EDGE_LOOP('',(#264,#265,#266,#267));
#824=EDGE_LOOP('',(#268,#269,#270,#271));
#825=EDGE_LOOP('',(#272,#273,#274,#275));
#826=FACE_BOUND('',#760,.T.);
#827=FACE_BOUND('',#761,.T.);
#828=FACE_BOUND('',#762,.T.);
#829=FACE_BOUND('',#763,.T.);
#830=FACE_BOUND('',#764,.T.);
#831=FACE_BOUND('',#765,.T.);
#832=FACE_BOUND('',#766,.T.);
#833=FACE_BOUND('',#767,.T.);
#834=FACE_BOUND('',#768,.T.);
#835=FACE_BOUND('',#769,.T.);
#836=FACE_BOUND('',#770,.T.);
#837=FACE_BOUND('',#771,.T.);
#838=FACE_BOUND('',#772,.T.);
#839=FACE_BOUND('',#773,.T.);
#840=FACE_BOUND('',#774,.T.);
#841=FACE_BOUND('',#775,.T.);
#842=FACE_BOUND('',#776,.T.);
#843=FACE_BOUND('',#777,.T.);
#844=FACE_BOUND('',#778,.T.);
#845=FACE_BOUND('',#779,.T.);
#846=FACE_BOUND('',#780,.T.);
#847=FACE_BOUND('',#781,.T.);
#848=FACE_BOUND('',#782,.T.);
#849=FACE_BOUND('',#783,.T.);
#850=FACE_BOUND('',#784,.T.);
#851=FACE_BOUND('',#785,.T.);
#852=FACE_BOUND('',#786,.T.);
#853=FACE_BOUND('',#787,.T.);
#854=FACE_BOUND('',#788,.T.);
#855=FACE_BOUND('',#789,.T.);
#856=FACE_BOUND('',#790,.T.);
#857=FACE_BOUND('',#791,.T.);
#858=FACE_BOUND('',#792,.T.);
#859=FACE_BOUND('',#793,.T.);
#860=FACE_BOUND('',#794,.T.);
#861=FACE_BOUND('',#795,.T.);
#862=FACE_BOUND('',#796,.T.);
#863=FACE_BOUND('',#797,.T.);
#864=FACE_BOUND('',#798,.T.);
#865=FACE_BOUND('',#799,.T.);
#866=FACE_BOUND('',#800,.T.);
#867=FACE_BOUND('',#801,.T.);
#868=FACE_BOUND('',#802,.T.);
#869=FACE_BOUND('',#803,.T.);
#870=FACE_BOUND('',#804,.T.);
#871=FACE_BOUND('',#805,.T.);
#872=FACE_BOUND('',#806,.T.);
#873=FACE_BOUND('',#807,.T.);
#874=FACE_BOUND('',#808,.T.);
#875=FACE_BOUND('',#809,.T.);
#876=FACE_BOUND('',#810,.T.);
#877=FACE_BOUND('',#811,.T.);
#878=FACE_BOUND('',#812,.T.);
#879=FACE_BOUND('',#813,.T.);
#880=FACE_BOUND('',#814,.T.);
#881=FACE_BOUND('',#815,.T.);
#882=FACE_BOUND('',#816,.T.);
#883=FACE_BOUND('',#817,.T.);
#884=FACE_BOUND('',#818,.T.);
#885=FACE_BOUND('',#819,.T.);
#886=FACE_BOUND('',#820,.T.);
#887=FACE_BOUND('',#821,.T.);
#888=FACE_BOUND('',#822,.T.);
#889=FACE_BOUND('',#823,.T.);
#890=FACE_BOUND('',#824,.T.);
#891=FACE_BOUND('',#825,.T.);
#892=PLANE('',#1017);
#893=PLANE('',#1018);
#894=PLANE('',#1019);
#895=PLANE('',#1020);
#896=PLANE('',#1021);
#897=PLANE('',#1022);
#898=PLANE('',#1023);
#899=PLANE('',#1024);
#900=PLANE('',#1025);
#901=PLANE('',#1026);
#902=PLANE('',#1027);
#903=PLANE('',#1028);
#904=PLANE('',#1029);
#905=PLANE('',#1030);
#906=PLANE('',#1031);
#907=PLANE('',#1032);
#908=PLANE('',#1033);
#909=PLANE('',#1034);
#910=PLANE('',#1035);
#911=PLANE('',#1036);
#912=PLANE('',#1037);
#913=PLANE('',#1038);
#914=PLANE('',#1039);
#915=PLANE('',#1040);
#916=PLANE('',#1041);
#917=PLANE('',#1042);
#918=PLANE('',#1043);
#919=PLANE('',#1044);
#920=PLANE('',#1045);
#921=PLANE('',#1046);
#922=PLANE('',#1047);
#923=PLANE('',#1048);
#924=PLANE('',#1049);
#925=PLANE('',#1050);
#926=PLANE('',#1051);
#927=PLANE('',#1052);
#928=PLANE('',#1053);
#929=PLANE('',#1054);
#930=PLANE('',#1055);
#931=PLANE('',#1056);
#932=PLANE('',#1057);
#933=PLANE('',#1058);
#934=PLANE('',#1059);
#935=PLANE('',#1060);
#936=PLANE('',#1061);
#937=PLANE('',#1062);
#938=PLANE('',#1063);
#939=PLANE('',#1064);
#940=PLANE('',#1065);
#941=PLANE('',#1066);
#942=PLANE('',#1067);
#943=PLANE('',#1068);
#944=PLANE('',#1069);
#945=PLANE('',#1070);
#946=PLANE('',#1071);
#947=PLANE('',#1072);
#948=ADVANCED_FACE('',(#826,#827,#828,#829,#830,#831),#892,.F.);
#949=ADVANCED_FACE('',(#832,#833,#834,#835,#836,#837),#893,.T.);
#950=ADVANCED_FACE('',(#838),#894,.T.);
#951=ADVANCED_FACE('',(#839),#895,.F.);
#952=ADVANCED_FACE('',(#840),#896,.F.);
#953=ADVANCED_FACE('',(#841),#897,.T.);
#954=ADVANCED_FACE('',(#842),#898,.T.);
#955=ADVANCED_FACE('',(#843),#899,.F.);
#956=ADVANCED_FACE('',(#844),#900,.F.);
#957=ADVANCED_FACE('',(#845),#901,.T.);
#958=ADVANCED_FACE('',(#846),#902,.T.);
#959=ADVANCED_FACE('',(#847),#903,.T.);
#960=ADVANCED_FACE('',(#848),#904,.F.);
#961=ADVANCED_FACE('',(#849),#905,.F.);
#962=ADVANCED_FACE('',(#850),#906,.T.);
#963=ADVANCED_FACE('',(#851),#907,.T.);
#964=ADVANCED_FACE('',(#852),#908,.T.);
#965=ADVANCED_FACE('',(#853),#909,.F.);
#966=ADVANCED_FACE('',(#854),#910,.F.);
#967=ADVANCED_FACE('',(#855),#911,.T.);
#968=ADVANCED_FACE('',(#856),#912,.T.);
#969=ADVANCED_FACE('',(#857),#913,.T.);
#970=ADVANCED_FACE('',(#858),#914,.F.);
#971=ADVANCED_FACE('',(#859),#915,.F.);
#972=ADVANCED_FACE('',(#860),#916,.T.);
#973=ADVANCED_FACE('',(#861),#917,.T.);
#974=ADVANCED_FACE('',(#862),#918,.T.);
#975=ADVANCED_FACE('',(#863),#919,.F.);
#976=ADVANCED_FACE('',(#864),#920,.F.);
#977=ADVANCED_FACE('',(#865),#921,.T.);
#978=ADVANCED_FACE('',(#866),#922,.T.);
#979=ADVANCED_FACE('',(#867),#923,.F.);
#980=ADVANCED_FACE('',(#868),#924,.T.);
#981=ADVANCED_FACE('',(#869),#925,.T.);
#982=ADVANCED_FACE('',(#870),#926,.F.);
#983=ADVANCED_FACE('',(#871),#927,.F.);
#984=ADVANCED_FACE('',(#872),#928,.F.);
#985=ADVANCED_FACE('',(#873),#929,.T.);
#986=ADVANCED_FACE('',(#874),#930,.T.);
#987=ADVANCED_FACE('',(#875),#931,.F.);
#988=ADVANCED_FACE('',(#876),#932,.F.);
#989=ADVANCED_FACE('',(#877),#933,.F.);
#990=ADVANCED_FACE('',(#878),#934,.T.);
#991=ADVANCED_FACE('',(#879),#935,.T.);
#992=ADVANCED_FACE('',(#880),#936,.F.);
#993=ADVANCED_FACE('',(#881),#937,.F.);
#994=ADVANCED_FACE('',(#882),#938,.F.);
#995=ADVANCED_FACE('',(#883),#939,.T.);
#996=ADVANCED_FACE('',(#884),#940,.T.);
#997=ADVANCED_FACE('',(#885),#941,.F.);
#998=ADVANCED_FACE('',(#886),#942,.F.);
#999=ADVANCED_FACE('',(#887),#943,.F.);
#1000=ADVANCED_FACE('',(#888),#944,.T.);
#1001=ADVANCED_FACE('',(#889),#945,.T.);
#1002=ADVANCED_FACE('',(#890),#946,.F.);
#1003=ADVANCED_FACE('',(#891),#947,.F.);
#1004=CLOSED_SHELL('',(#948,#949,#950,#951,#952,#953,#954,#955,#956,#957,
#958,#959,#960,#961,#962,#963,#964,#965,#966,#967,#968,#969,#970,#971,#972,
#973,#974,#975,#976,#977,#978,#979,#980,#981,#982,#983,#984,#985,#986,#987,
#988,#989,#990,#991,#992,#993,#994,#995,#996,#997,#998,#999,#1000,#1001,
#1002,#1003));
#1005=STYLED_ITEM('',(#1006),#1013);
#1006=PRESENTATION_STYLE_ASSIGNMENT((#1007));
#1007=SURFACE_STYLE_USAGE(.BOTH.,#1008);
#1008=SURFACE_SIDE_STYLE('',(#1009));
#1009=SURFACE_STYLE_FILL_AREA(#1010);
#1010=FILL_AREA_STYLE('',(#1011));
#1011=FILL_AREA_STYLE_COLOUR('',#1012);
#1012=COLOUR_RGB('',0.647058823529412,0.647058823529412,0.647058823529412);
#1013=MANIFOLD_SOLID_BREP('Part 1',#1004);
#1014=SHAPE_DEFINITION_REPRESENTATION(#1602,#1015);
#1015=SHAPE_REPRESENTATION('Part 1',(#1016),#1597);
#1016=AXIS2_PLACEMENT_3D('',#1319,#1073,#1074);
#1017=AXIS2_PLACEMENT_3D('',#1320,#1075,#1076);
#1018=AXIS2_PLACEMENT_3D('',#1369,#1101,#1102);
#1019=AXIS2_PLACEMENT_3D('',#1418,#1127,#1128);
#1020=AXIS2_PLACEMENT_3D('',#1421,#1131,#1132);
#1021=AXIS2_PLACEMENT_3D('',#1423,#1134,#1135);
#1022=AXIS2_PLACEMENT_3D('',#1425,#1137,#1138);
#1023=AXIS2_PLACEMENT_3D('',#1426,#1139,#1140);
#1024=AXIS2_PLACEMENT_3D('',#1432,#1144,#1145);
#1025=AXIS2_PLACEMENT_3D('',#1436,#1148,#1149);
#1026=AXIS2_PLACEMENT_3D('',#1440,#1152,#1153);
#1027=AXIS2_PLACEMENT_3D('',#1442,#1155,#1156);
#1028=AXIS2_PLACEMENT_3D('',#1443,#1157,#1158);
#1029=AXIS2_PLACEMENT_3D('',#1449,#1162,#1163);
#1030=AXIS2_PLACEMENT_3D('',#1453,#1166,#1167);
#1031=AXIS2_PLACEMENT_3D('',#1457,#1170,#1171);
#1032=AXIS2_PLACEMENT_3D('',#1459,#1173,#1174);
#1033=AXIS2_PLACEMENT_3D('',#1460,#1175,#1176);
#1034=AXIS2_PLACEMENT_3D('',#1466,#1180,#1181);
#1035=AXIS2_PLACEMENT_3D('',#1470,#1184,#1185);
#1036=AXIS2_PLACEMENT_3D('',#1474,#1188,#1189);
#1037=AXIS2_PLACEMENT_3D('',#1476,#1191,#1192);
#1038=AXIS2_PLACEMENT_3D('',#1477,#1193,#1194);
#1039=AXIS2_PLACEMENT_3D('',#1483,#1198,#1199);
#1040=AXIS2_PLACEMENT_3D('',#1487,#1202,#1203);
#1041=AXIS2_PLACEMENT_3D('',#1491,#1206,#1207);
#1042=AXIS2_PLACEMENT_3D('',#1493,#1209,#1210);
#1043=AXIS2_PLACEMENT_3D('',#1494,#1211,#1212);
#1044=AXIS2_PLACEMENT_3D('',#1500,#1216,#1217);
#1045=AXIS2_PLACEMENT_3D('',#1504,#1220,#1221);
#1046=AXIS2_PLACEMENT_3D('',#1508,#1224,#1225);
#1047=AXIS2_PLACEMENT_3D('',#1510,#1227,#1228);
#1048=AXIS2_PLACEMENT_3D('',#1511,#1229,#1230);
#1049=AXIS2_PLACEMENT_3D('',#1517,#1234,#1235);
#1050=AXIS2_PLACEMENT_3D('',#1521,#1238,#1239);
#1051=AXIS2_PLACEMENT_3D('',#1525,#1242,#1243);
#1052=AXIS2_PLACEMENT_3D('',#1527,#1245,#1246);
#1053=AXIS2_PLACEMENT_3D('',#1528,#1247,#1248);
#1054=AXIS2_PLACEMENT_3D('',#1534,#1252,#1253);
#1055=AXIS2_PLACEMENT_3D('',#1538,#1256,#1257);
#1056=AXIS2_PLACEMENT_3D('',#1542,#1260,#1261);
#1057=AXIS2_PLACEMENT_3D('',#1544,#1263,#1264);
#1058=AXIS2_PLACEMENT_3D('',#1545,#1265,#1266);
#1059=AXIS2_PLACEMENT_3D('',#1551,#1270,#1271);
#1060=AXIS2_PLACEMENT_3D('',#1555,#1274,#1275);
#1061=AXIS2_PLACEMENT_3D('',#1559,#1278,#1279);
#1062=AXIS2_PLACEMENT_3D('',#1561,#1281,#1282);
#1063=AXIS2_PLACEMENT_3D('',#1562,#1283,#1284);
#1064=AXIS2_PLACEMENT_3D('',#1568,#1288,#1289);
#1065=AXIS2_PLACEMENT_3D('',#1572,#1292,#1293);
#1066=AXIS2_PLACEMENT_3D('',#1576,#1296,#1297);
#1067=AXIS2_PLACEMENT_3D('',#1578,#1299,#1300);
#1068=AXIS2_PLACEMENT_3D('',#1579,#1301,#1302);
#1069=AXIS2_PLACEMENT_3D('',#1585,#1306,#1307);
#1070=AXIS2_PLACEMENT_3D('',#1589,#1310,#1311);
#1071=AXIS2_PLACEMENT_3D('',#1593,#1314,#1315);
#1072=AXIS2_PLACEMENT_3D('',#1595,#1317,#1318);
#1073=DIRECTION('',(0.,0.,1.));
#1074=DIRECTION('',(1.,0.,0.));
#1075=DIRECTION('',(0.,0.,1.));
#1076=DIRECTION('',(1.,0.,0.));
#1077=DIRECTION('',(1.,0.,0.));
#1078=DIRECTION('',(0.,-1.,0.));
#1079=DIRECTION('',(1.,0.,0.));
#1080=DIRECTION('',(0.,-1.,0.));
#1081=DIRECTION('',(1.,0.,0.));
#1082=DIRECTION('',(0.,-1.,0.));
#1083=DIRECTION('',(1.,0.,0.));
#1084=DIRECTION('',(0.,-1.,0.));
#1085=DIRECTION('',(1.,0.,0.));
#1086=DIRECTION('',(0.,-1.,0.));
#1087=DIRECTION('',(1.,0.,0.));
#1088=DIRECTION('',(0.,-1.,0.));
#1089=DIRECTION('',(1.,0.,0.));
#1090=DIRECTION('',(0.,-1.,0.));
#1091=DIRECTION('',(1.,0.,0.));
#1092=DIRECTION('',(0.,-1.,0.));
#1093=DIRECTION('',(1.,0.,0.));
#1094=DIRECTION('',(0.,-1.,0.));
#1095=DIRECTION('',(1.,0.,0.));
#1096=DIRECTION('',(0.,-1.,0.));
#1097=DIRECTION('',(1.,0.,0.));
#1098=DIRECTION('',(0.,-1.,0.));
#1099=DIRECTION('',(1.,0.,0.));
#1100=DIRECTION('',(0.,-1.,0.));
#1101=DIRECTION('',(0.,0.,1.));
#1102=DIRECTION('',(1.,0.,0.));
#1103=DIRECTION('',(1.,0.,0.));
#1104=DIRECTION('',(0.,-1.,0.));
#1105=DIRECTION('',(1.,0.,0.));
#1106=DIRECTION('',(0.,-1.,0.));
#1107=DIRECTION('',(0.,-1.,0.));
#1108=DIRECTION('',(1.,0.,0.));
#1109=DIRECTION('',(0.,-1.,0.));
#1110=DIRECTION('',(1.,0.,0.));
#1111=DIRECTION('',(0.,-1.,0.));
#1112=DIRECTION('',(1.,0.,0.));
#1113=DIRECTION('',(0.,-1.,0.));
#1114=DIRECTION('',(1.,0.,0.));
#1115=DIRECTION('',(0.,-1.,0.));
#1116=DIRECTION('',(1.,0.,0.));
#1117=DIRECTION('',(0.,-1.,0.));
#1118=DIRECTION('',(1.,0.,0.));
#1119=DIRECTION('',(0.,-1.,0.));
#1120=DIRECTION('',(1.,0.,0.));
#1121=DIRECTION('',(0.,-1.,0.));
#1122=DIRECTION('',(1.,0.,0.));
#1123=DIRECTION('',(0.,-1.,0.));
#1124=DIRECTION('',(1.,0.,0.));
#1125=DIRECTION('',(0.,-1.,0.));
#1126=DIRECTION('',(1.,0.,0.));
#1127=DIRECTION('',(0.,1.,0.));
#1128=DIRECTION('',(0.,0.,1.));
#1129=DIRECTION('',(0.,0.,-1.));
#1130=DIRECTION('',(0.,0.,-1.));
#1131=DIRECTION('',(1.,0.,0.));
#1132=DIRECTION('',(0.,0.,-1.));
#1133=DIRECTION('',(0.,0.,-1.));
#1134=DIRECTION('',(0.,1.,0.));
#1135=DIRECTION('',(0.,0.,1.));
#1136=DIRECTION('',(0.,0.,-1.));
#1137=DIRECTION('',(1.,0.,0.));
#1138=DIRECTION('',(0.,0.,-1.));
#1139=DIRECTION('',(0.,1.,0.));
#1140=DIRECTION('',(0.,0.,1.));
#1141=DIRECTION('',(0.,0.,-1.));
#1142=DIRECTION('',(1.,0.,0.));
#1143=DIRECTION('',(0.,0.,-1.));
#1144=DIRECTION('',(1.,0.,0.));
#1145=DIRECTION('',(0.,0.,-1.));
#1146=DIRECTION('',(0.,0.,-1.));
#1147=DIRECTION('',(0.,-1.,0.));
#1148=DIRECTION('',(0.,1.,0.));
#1149=DIRECTION('',(0.,0.,1.));
#1150=DIRECTION('',(0.,0.,-1.));
#1151=DIRECTION('',(1.,0.,0.));
#1152=DIRECTION('',(1.,0.,0.));
#1153=DIRECTION('',(0.,0.,-1.));
#1154=DIRECTION('',(0.,-1.,0.));
#1155=DIRECTION('',(0.,0.,1.));
#1156=DIRECTION('',(1.,0.,0.));
#1157=DIRECTION('',(0.,1.,0.));
#1158=DIRECTION('',(0.,0.,1.));
#1159=DIRECTION('',(0.,0.,-1.));
#1160=DIRECTION('',(1.,0.,0.));
#1161=DIRECTION('',(0.,0.,-1.));
#1162=DIRECTION('',(1.,0.,0.));
#1163=DIRECTION('',(0.,0.,-1.));
#1164=DIRECTION('',(0.,0.,-1.));
#1165=DIRECTION('',(0.,-1.,0.));
#1166=DIRECTION('',(0.,1.,0.));
#1167=DIRECTION('',(0.,0.,1.));
#1168=DIRECTION('',(0.,0.,-1.));
#1169=DIRECTION('',(1.,0.,0.));
#1170=DIRECTION('',(1.,0.,0.));
#1171=DIRECTION('',(0.,0.,-1.));
#1172=DIRECTION('',(0.,-1.,0.));
#1173=DIRECTION('',(0.,0.,1.));
#1174=DIRECTION('',(1.,0.,0.));
#1175=DIRECTION('',(0.,1.,0.));
#1176=DIRECTION('',(0.,0.,1.));
#1177=DIRECTION('',(0.,0.,-1.));
#1178=DIRECTION('',(1.,0.,0.));
#1179=DIRECTION('',(0.,0.,-1.));
#1180=DIRECTION('',(1.,0.,0.));
#1181=DIRECTION('',(0.,0.,-1.));
#1182=DIRECTION('',(0.,0.,-1.));
#1183=DIRECTION('',(0.,-1.,0.));
#1184=DIRECTION('',(0.,1.,0.));
#1185=DIRECTION('',(0.,0.,1.));
#1186=DIRECTION('',(0.,0.,-1.));
#1187=DIRECTION('',(1.,0.,0.));
#1188=DIRECTION('',(1.,0.,0.));
#1189=DIRECTION('',(0.,0.,-1.));
#1190=DIRECTION('',(0.,-1.,0.));
#1191=DIRECTION('',(0.,0.,1.));
#1192=DIRECTION('',(1.,0.,0.));
#1193=DIRECTION('',(0.,1.,0.));
#1194=DIRECTION('',(0.,0.,1.));
#1195=DIRECTION('',(0.,0.,-1.));
#1196=DIRECTION('',(1.,0.,0.));
#1197=DIRECTION('',(0.,0.,-1.));
#1198=DIRECTION('',(1.,0.,0.));
#1199=DIRECTION('',(0.,0.,-1.));
#1200=DIRECTION('',(0.,0.,-1.));
#1201=DIRECTION('',(0.,-1.,0.));
#1202=DIRECTION('',(0.,1.,0.));
#1203=DIRECTION('',(0.,0.,1.));
#1204=DIRECTION('',(0.,0.,-1.));
#1205=DIRECTION('',(1.,0.,0.));
#1206=DIRECTION('',(1.,0.,0.));
#1207=DIRECTION('',(0.,0.,-1.));
#1208=DIRECTION('',(0.,-1.,0.));
#1209=DIRECTION('',(0.,0.,1.));
#1210=DIRECTION('',(1.,0.,0.));
#1211=DIRECTION('',(0.,1.,0.));
#1212=DIRECTION('',(0.,0.,1.));
#1213=DIRECTION('',(0.,0.,-1.));
#1214=DIRECTION('',(1.,0.,0.));
#1215=DIRECTION('',(0.,0.,-1.));
#1216=DIRECTION('',(1.,0.,0.));
#1217=DIRECTION('',(0.,0.,-1.));
#1218=DIRECTION('',(0.,0.,-1.));
#1219=DIRECTION('',(0.,-1.,0.));
#1220=DIRECTION('',(0.,1.,0.));
#1221=DIRECTION('',(0.,0.,1.));
#1222=DIRECTION('',(0.,0.,-1.));
#1223=DIRECTION('',(1.,0.,0.));
#1224=DIRECTION('',(1.,0.,0.));
#1225=DIRECTION('',(0.,0.,-1.));
#1226=DIRECTION('',(0.,-1.,0.));
#1227=DIRECTION('',(0.,0.,1.));
#1228=DIRECTION('',(1.,0.,0.));
#1229=DIRECTION('',(0.,-1.,0.));
#1230=DIRECTION('',(0.,0.,-1.));
#1231=DIRECTION('',(0.,0.,1.));
#1232=DIRECTION('',(0.,0.,1.));
#1233=DIRECTION('',(1.,0.,0.));
#1234=DIRECTION('',(-1.,0.,0.));
#1235=DIRECTION('',(0.,0.,1.));
#1236=DIRECTION('',(0.,-1.,0.));
#1237=DIRECTION('',(0.,0.,1.));
#1238=DIRECTION('',(0.,-1.,0.));
#1239=DIRECTION('',(0.,0.,-1.));
#1240=DIRECTION('',(1.,0.,0.));
#1241=DIRECTION('',(0.,0.,1.));
#1242=DIRECTION('',(-1.,0.,0.));
#1243=DIRECTION('',(0.,0.,1.));
#1244=DIRECTION('',(0.,-1.,0.));
#1245=DIRECTION('',(0.,0.,1.));
#1246=DIRECTION('',(1.,0.,0.));
#1247=DIRECTION('',(0.,-1.,0.));
#1248=DIRECTION('',(0.,0.,-1.));
#1249=DIRECTION('',(0.,0.,1.));
#1250=DIRECTION('',(0.,0.,1.));
#1251=DIRECTION('',(1.,0.,0.));
#1252=DIRECTION('',(-1.,0.,0.));
#1253=DIRECTION('',(0.,0.,1.));
#1254=DIRECTION('',(0.,-1.,0.));
#1255=DIRECTION('',(0.,0.,1.));
#1256=DIRECTION('',(0.,-1.,0.));
#1257=DIRECTION('',(0.,0.,-1.));
#1258=DIRECTION('',(1.,0.,0.));
#1259=DIRECTION('',(0.,0.,1.));
#1260=DIRECTION('',(-1.,0.,0.));
#1261=DIRECTION('',(0.,0.,1.));
#1262=DIRECTION('',(0.,-1.,0.));
#1263=DIRECTION('',(0.,0.,1.));
#1264=DIRECTION('',(1.,0.,0.));
#1265=DIRECTION('',(0.,-1.,0.));
#1266=DIRECTION('',(0.,0.,-1.));
#1267=DIRECTION('',(0.,0.,1.));
#1268=DIRECTION('',(0.,0.,1.));
#1269=DIRECTION('',(1.,0.,0.));
#1270=DIRECTION('',(-1.,0.,0.));
#1271=DIRECTION('',(0.,0.,1.));
#1272=DIRECTION('',(0.,-1.,0.));
#1273=DIRECTION('',(0.,0.,1.));
#1274=DIRECTION('',(0.,-1.,0.));
#1275=DIRECTION('',(0.,0.,-1.));
#1276=DIRECTION('',(1.,0.,0.));
#1277=DIRECTION('',(0.,0.,1.));
#1278=DIRECTION('',(-1.,0.,0.));
#1279=DIRECTION('',(0.,0.,1.));
#1280=DIRECTION('',(0.,-1.,0.));
#1281=DIRECTION('',(0.,0.,1.));
#1282=DIRECTION('',(1.,0.,0.));
#1283=DIRECTION('',(0.,-1.,0.));
#1284=DIRECTION('',(0.,0.,-1.));
#1285=DIRECTION('',(0.,0.,1.));
#1286=DIRECTION('',(0.,0.,1.));
#1287=DIRECTION('',(1.,0.,0.));
#1288=DIRECTION('',(-1.,0.,0.));
#1289=DIRECTION('',(0.,0.,1.));
#1290=DIRECTION('',(0.,-1.,0.));
#1291=DIRECTION('',(0.,0.,1.));
#1292=DIRECTION('',(0.,-1.,0.));
#1293=DIRECTION('',(0.,0.,-1.));
#1294=DIRECTION('',(1.,0.,0.));
#1295=DIRECTION('',(0.,0.,1.));
#1296=DIRECTION('',(-1.,0.,0.));
#1297=DIRECTION('',(0.,0.,1.));
#1298=DIRECTION('',(0.,-1.,0.));
#1299=DIRECTION('',(0.,0.,1.));
#1300=DIRECTION('',(1.,0.,0.));
#1301=DIRECTION('',(0.,-1.,0.));
#1302=DIRECTION('',(0.,0.,-1.));
#1303=DIRECTION('',(0.,0.,1.));
#1304=DIRECTION('',(0.,0.,1.));
#1305=DIRECTION('',(1.,0.,0.));
#1306=DIRECTION('',(-1.,0.,0.));
#1307=DIRECTION('',(0.,0.,1.));
#1308=DIRECTION('',(0.,-1.,0.));
#1309=DIRECTION('',(0.,0.,1.));
#1310=DIRECTION('',(0.,-1.,0.));
#1311=DIRECTION('',(0.,0.,-1.));
#1312=DIRECTION('',(1.,0.,0.));
#1313=DIRECTION('',(0.,0.,1.));
#1314=DIRECTION('',(-1.,0.,0.));
#1315=DIRECTION('',(0.,0.,1.));
#1316=DIRECTION('',(0.,-1.,0.));
#1317=DIRECTION('',(0.,0.,1.));
#1318=DIRECTION('',(1.,0.,0.));
#1319=CARTESIAN_POINT('',(0.,0.,0.));
#1320=CARTESIAN_POINT('',(0.,0.,0.));
#1321=CARTESIAN_POINT('',(0.,0.003000408411026,0.));
#1322=CARTESIAN_POINT('',(-0.00554210226982832,0.003000408411026,0.));
#1323=CARTESIAN_POINT('',(0.00554210226982832,0.003000408411026,0.));
#1324=CARTESIAN_POINT('',(-0.00554210226982832,0.,0.));
#1325=CARTESIAN_POINT('',(-0.00554210226982832,0.00196363450959325,0.));
#1326=CARTESIAN_POINT('',(0.,0.00196363450959325,0.));
#1327=CARTESIAN_POINT('',(0.00554210226982832,0.00196363450959325,0.));
#1328=CARTESIAN_POINT('',(0.00554210226982832,0.,0.));
#1329=CARTESIAN_POINT('',(0.,-0.00210370728746057,0.));
#1330=CARTESIAN_POINT('',(-0.00558197777718306,-0.00210370728746057,0.));
#1331=CARTESIAN_POINT('',(0.00558197777718306,-0.00210370728746057,0.));
#1332=CARTESIAN_POINT('',(-0.00558197777718306,0.,0.));
#1333=CARTESIAN_POINT('',(-0.00558197777718306,-0.00298097729682922,0.));
#1334=CARTESIAN_POINT('',(0.,-0.00298097729682922,0.));
#1335=CARTESIAN_POINT('',(0.00558197777718306,-0.00298097729682922,0.));
#1336=CARTESIAN_POINT('',(0.00558197777718306,0.,0.));
#1337=CARTESIAN_POINT('',(0.,0.00635641906410456,0.));
#1338=CARTESIAN_POINT('',(-0.00802432373166084,0.00635641906410456,0.));
#1339=CARTESIAN_POINT('',(0.00802432373166084,0.00635641906410456,0.));
#1340=CARTESIAN_POINT('',(0.00802432373166084,0.,0.));
#1341=CARTESIAN_POINT('',(0.00802432373166084,-0.00635641906410456,0.));
#1342=CARTESIAN_POINT('',(0.,-0.00635641906410456,0.));
#1343=CARTESIAN_POINT('',(-0.00802432373166084,-0.00635641906410456,0.));
#1344=CARTESIAN_POINT('',(-0.00802432373166084,0.,0.));
#1345=CARTESIAN_POINT('',(0.,-0.00457601342350245,0.));
#1346=CARTESIAN_POINT('',(-0.00538259837776423,-0.00457601342350245,0.));
#1347=CARTESIAN_POINT('',(0.00538259837776423,-0.00457601342350245,0.));
#1348=CARTESIAN_POINT('',(-0.00538259837776423,0.,0.));
#1349=CARTESIAN_POINT('',(-0.00538259837776423,-0.00553303491324186,0.));
#1350=CARTESIAN_POINT('',(0.,-0.00553303491324186,0.));
#1351=CARTESIAN_POINT('',(0.00538259837776423,-0.00553303491324186,0.));
#1352=CARTESIAN_POINT('',(0.00538259837776423,0.,0.));
#1353=CARTESIAN_POINT('',(0.,0.000528102333191782,0.));
#1354=CARTESIAN_POINT('',(-0.00566172925755382,0.000528102333191782,0.));
#1355=CARTESIAN_POINT('',(0.00566172925755382,0.000528102333191782,0.));
#1356=CARTESIAN_POINT('',(-0.00566172925755382,0.,0.));
#1357=CARTESIAN_POINT('',(-0.00566172925755382,-0.000528102333191782,0.));
#1358=CARTESIAN_POINT('',(0.,-0.000528102333191782,0.));
#1359=CARTESIAN_POINT('',(0.00566172925755382,-0.000528102333191782,0.));
#1360=CARTESIAN_POINT('',(0.00566172925755382,0.,0.));
#1361=CARTESIAN_POINT('',(0.,0.005193583201617,0.));
#1362=CARTESIAN_POINT('',(-0.00558197777718306,0.005193583201617,0.));
#1363=CARTESIAN_POINT('',(0.00558197777718306,0.005193583201617,0.));
#1364=CARTESIAN_POINT('',(-0.00558197777718306,0.,0.));
#1365=CARTESIAN_POINT('',(-0.00558197777718306,0.00415680883452297,0.));
#1366=CARTESIAN_POINT('',(0.,0.00415680883452297,0.));
#1367=CARTESIAN_POINT('',(0.00558197777718306,0.00415680883452297,0.));
#1368=CARTESIAN_POINT('',(0.00558197777718306,0.,0.));
#1369=CARTESIAN_POINT('',(0.,0.,0.003302));
#1370=CARTESIAN_POINT('',(0.,0.00635641906410456,0.003302));
#1371=CARTESIAN_POINT('',(-0.00802432373166084,0.00635641906410456,0.003302));
#1372=CARTESIAN_POINT('',(0.00802432373166084,0.00635641906410456,0.003302));
#1373=CARTESIAN_POINT('',(-0.00802432373166084,0.,0.003302));
#1374=CARTESIAN_POINT('',(-0.00802432373166084,-0.00635641906410456,0.003302));
#1375=CARTESIAN_POINT('',(0.,-0.00635641906410456,0.003302));
#1376=CARTESIAN_POINT('',(0.00802432373166084,-0.00635641906410456,0.003302));
#1377=CARTESIAN_POINT('',(0.00802432373166084,0.,0.003302));
#1378=CARTESIAN_POINT('',(-0.00538259837776423,-0.00505452416837215,0.003302));
#1379=CARTESIAN_POINT('',(-0.00538259837776423,-0.00457601342350245,0.003302));
#1380=CARTESIAN_POINT('',(-0.00538259837776423,-0.00553303491324186,0.003302));
#1381=CARTESIAN_POINT('',(0.,-0.00457601342350245,0.003302));
#1382=CARTESIAN_POINT('',(0.00538259837776423,-0.00457601342350245,0.003302));
#1383=CARTESIAN_POINT('',(0.00538259837776423,-0.00505452416837215,0.003302));
#1384=CARTESIAN_POINT('',(0.00538259837776423,-0.00553303491324186,0.003302));
#1385=CARTESIAN_POINT('',(0.,-0.00553303491324186,0.003302));
#1386=CARTESIAN_POINT('',(-0.00558197777718306,-0.0025423422921449,0.003302));
#1387=CARTESIAN_POINT('',(-0.00558197777718306,-0.00210370728746057,0.003302));
#1388=CARTESIAN_POINT('',(-0.00558197777718306,-0.00298097729682922,0.003302));
#1389=CARTESIAN_POINT('',(0.,-0.00210370728746057,0.003302));
#1390=CARTESIAN_POINT('',(0.00558197777718306,-0.00210370728746057,0.003302));
#1391=CARTESIAN_POINT('',(0.00558197777718306,-0.0025423422921449,0.003302));
#1392=CARTESIAN_POINT('',(0.00558197777718306,-0.00298097729682922,0.003302));
#1393=CARTESIAN_POINT('',(0.,-0.00298097729682922,0.003302));
#1394=CARTESIAN_POINT('',(-0.00566172925755382,0.,0.003302));
#1395=CARTESIAN_POINT('',(-0.00566172925755382,0.000528102333191782,0.003302));
#1396=CARTESIAN_POINT('',(-0.00566172925755382,-0.000528102333191782,0.003302));
#1397=CARTESIAN_POINT('',(0.,0.000528102333191782,0.003302));
#1398=CARTESIAN_POINT('',(0.00566172925755382,0.000528102333191782,0.003302));
#1399=CARTESIAN_POINT('',(0.00566172925755382,0.,0.003302));
#1400=CARTESIAN_POINT('',(0.00566172925755382,-0.000528102333191782,0.003302));
#1401=CARTESIAN_POINT('',(0.,-0.000528102333191782,0.003302));
#1402=CARTESIAN_POINT('',(-0.00554210226982832,0.00248202146030963,0.003302));
#1403=CARTESIAN_POINT('',(-0.00554210226982832,0.003000408411026,0.003302));
#1404=CARTESIAN_POINT('',(-0.00554210226982832,0.00196363450959325,0.003302));
#1405=CARTESIAN_POINT('',(0.,0.003000408411026,0.003302));
#1406=CARTESIAN_POINT('',(0.00554210226982832,0.003000408411026,0.003302));
#1407=CARTESIAN_POINT('',(0.00554210226982832,0.00248202146030963,0.003302));
#1408=CARTESIAN_POINT('',(0.00554210226982832,0.00196363450959325,0.003302));
#1409=CARTESIAN_POINT('',(0.,0.00196363450959325,0.003302));
#1410=CARTESIAN_POINT('',(-0.00558197777718306,0.00467519601806998,0.003302));
#1411=CARTESIAN_POINT('',(-0.00558197777718306,0.005193583201617,0.003302));
#1412=CARTESIAN_POINT('',(-0.00558197777718306,0.00415680883452297,0.003302));
#1413=CARTESIAN_POINT('',(0.,0.005193583201617,0.003302));
#1414=CARTESIAN_POINT('',(0.00558197777718306,0.005193583201617,0.003302));
#1415=CARTESIAN_POINT('',(0.00558197777718306,0.00467519601806998,0.003302));
#1416=CARTESIAN_POINT('',(0.00558197777718306,0.00415680883452297,0.003302));
#1417=CARTESIAN_POINT('',(0.,0.00415680883452297,0.003302));
#1418=CARTESIAN_POINT('',(0.,0.00635641906410456,0.003302));
#1419=CARTESIAN_POINT('',(-0.00802432373166084,0.00635641906410456,0.003302));
#1420=CARTESIAN_POINT('',(0.00802432373166084,0.00635641906410456,0.003302));
#1421=CARTESIAN_POINT('',(-0.00802432373166084,0.,0.003302));
#1422=CARTESIAN_POINT('',(-0.00802432373166084,-0.00635641906410456,0.003302));
#1423=CARTESIAN_POINT('',(0.,-0.00635641906410456,0.003302));
#1424=CARTESIAN_POINT('',(0.00802432373166084,-0.00635641906410456,0.003302));
#1425=CARTESIAN_POINT('',(0.00802432373166084,0.,0.003302));
#1426=CARTESIAN_POINT('',(0.,-0.00457601342350245,0.004572));
#1427=CARTESIAN_POINT('',(-0.00538259837776423,-0.00457601342350245,0.004572));
#1428=CARTESIAN_POINT('',(-0.00538259837776423,-0.00457601342350245,0.004572));
#1429=CARTESIAN_POINT('',(0.,-0.00457601342350245,0.004572));
#1430=CARTESIAN_POINT('',(0.00538259837776423,-0.00457601342350245,0.004572));
#1431=CARTESIAN_POINT('',(0.00538259837776423,-0.00457601342350245,0.004572));
#1432=CARTESIAN_POINT('',(-0.00538259837776423,-0.00505452416837215,0.004572));
#1433=CARTESIAN_POINT('',(-0.00538259837776423,-0.00553303491324186,0.004572));
#1434=CARTESIAN_POINT('',(-0.00538259837776423,-0.00553303491324186,0.004572));
#1435=CARTESIAN_POINT('',(-0.00538259837776423,-0.00505452416837215,0.004572));
#1436=CARTESIAN_POINT('',(0.,-0.00553303491324186,0.004572));
#1437=CARTESIAN_POINT('',(0.00538259837776423,-0.00553303491324186,0.004572));
#1438=CARTESIAN_POINT('',(0.00538259837776423,-0.00553303491324186,0.004572));
#1439=CARTESIAN_POINT('',(0.,-0.00553303491324186,0.004572));
#1440=CARTESIAN_POINT('',(0.00538259837776423,-0.00505452416837215,0.004572));
#1441=CARTESIAN_POINT('',(0.00538259837776423,-0.00505452416837215,0.004572));
#1442=CARTESIAN_POINT('',(0.,0.,0.004572));
#1443=CARTESIAN_POINT('',(0.,-0.00210370728746057,0.004572));
#1444=CARTESIAN_POINT('',(-0.00558197777718306,-0.00210370728746057,0.004572));
#1445=CARTESIAN_POINT('',(-0.00558197777718306,-0.00210370728746057,0.004572));
#1446=CARTESIAN_POINT('',(0.,-0.00210370728746057,0.004572));
#1447=CARTESIAN_POINT('',(0.00558197777718306,-0.00210370728746057,0.004572));
#1448=CARTESIAN_POINT('',(0.00558197777718306,-0.00210370728746057,0.004572));
#1449=CARTESIAN_POINT('',(-0.00558197777718306,-0.0025423422921449,0.004572));
#1450=CARTESIAN_POINT('',(-0.00558197777718306,-0.00298097729682922,0.004572));
#1451=CARTESIAN_POINT('',(-0.00558197777718306,-0.00298097729682922,0.004572));
#1452=CARTESIAN_POINT('',(-0.00558197777718306,-0.0025423422921449,0.004572));
#1453=CARTESIAN_POINT('',(0.,-0.00298097729682922,0.004572));
#1454=CARTESIAN_POINT('',(0.00558197777718306,-0.00298097729682922,0.004572));
#1455=CARTESIAN_POINT('',(0.00558197777718306,-0.00298097729682922,0.004572));
#1456=CARTESIAN_POINT('',(0.,-0.00298097729682922,0.004572));
#1457=CARTESIAN_POINT('',(0.00558197777718306,-0.0025423422921449,0.004572));
#1458=CARTESIAN_POINT('',(0.00558197777718306,-0.0025423422921449,0.004572));
#1459=CARTESIAN_POINT('',(0.,0.,0.004572));
#1460=CARTESIAN_POINT('',(0.,0.000528102333191782,0.004572));
#1461=CARTESIAN_POINT('',(-0.00566172925755382,0.000528102333191782,0.004572));
#1462=CARTESIAN_POINT('',(-0.00566172925755382,0.000528102333191782,0.004572));
#1463=CARTESIAN_POINT('',(0.,0.000528102333191782,0.004572));
#1464=CARTESIAN_POINT('',(0.00566172925755382,0.000528102333191782,0.004572));
#1465=CARTESIAN_POINT('',(0.00566172925755382,0.000528102333191782,0.004572));
#1466=CARTESIAN_POINT('',(-0.00566172925755382,0.,0.004572));
#1467=CARTESIAN_POINT('',(-0.00566172925755382,-0.000528102333191782,0.004572));
#1468=CARTESIAN_POINT('',(-0.00566172925755382,-0.000528102333191782,0.004572));
#1469=CARTESIAN_POINT('',(-0.00566172925755382,0.,0.004572));
#1470=CARTESIAN_POINT('',(0.,-0.000528102333191782,0.004572));
#1471=CARTESIAN_POINT('',(0.00566172925755382,-0.000528102333191782,0.004572));
#1472=CARTESIAN_POINT('',(0.00566172925755382,-0.000528102333191782,0.004572));
#1473=CARTESIAN_POINT('',(0.,-0.000528102333191782,0.004572));
#1474=CARTESIAN_POINT('',(0.00566172925755382,0.,0.004572));
#1475=CARTESIAN_POINT('',(0.00566172925755382,0.,0.004572));
#1476=CARTESIAN_POINT('',(0.,0.,0.004572));
#1477=CARTESIAN_POINT('',(0.,0.003000408411026,0.004572));
#1478=CARTESIAN_POINT('',(-0.00554210226982832,0.003000408411026,0.004572));
#1479=CARTESIAN_POINT('',(-0.00554210226982832,0.003000408411026,0.004572));
#1480=CARTESIAN_POINT('',(0.,0.003000408411026,0.004572));
#1481=CARTESIAN_POINT('',(0.00554210226982832,0.003000408411026,0.004572));
#1482=CARTESIAN_POINT('',(0.00554210226982832,0.003000408411026,0.004572));
#1483=CARTESIAN_POINT('',(-0.00554210226982832,0.00248202146030963,0.004572));
#1484=CARTESIAN_POINT('',(-0.00554210226982832,0.00196363450959325,0.004572));
#1485=CARTESIAN_POINT('',(-0.00554210226982832,0.00196363450959325,0.004572));
#1486=CARTESIAN_POINT('',(-0.00554210226982832,0.00248202146030963,0.004572));
#1487=CARTESIAN_POINT('',(0.,0.00196363450959325,0.004572));
#1488=CARTESIAN_POINT('',(0.00554210226982832,0.00196363450959325,0.004572));
#1489=CARTESIAN_POINT('',(0.00554210226982832,0.00196363450959325,0.004572));
#1490=CARTESIAN_POINT('',(0.,0.00196363450959325,0.004572));
#1491=CARTESIAN_POINT('',(0.00554210226982832,0.00248202146030963,0.004572));
#1492=CARTESIAN_POINT('',(0.00554210226982832,0.00248202146030963,0.004572));
#1493=CARTESIAN_POINT('',(0.,0.,0.004572));
#1494=CARTESIAN_POINT('',(0.,0.005193583201617,0.004572));
#1495=CARTESIAN_POINT('',(-0.00558197777718306,0.005193583201617,0.004572));
#1496=CARTESIAN_POINT('',(-0.00558197777718306,0.005193583201617,0.004572));
#1497=CARTESIAN_POINT('',(0.,0.005193583201617,0.004572));
#1498=CARTESIAN_POINT('',(0.00558197777718306,0.005193583201617,0.004572));
#1499=CARTESIAN_POINT('',(0.00558197777718306,0.005193583201617,0.004572));
#1500=CARTESIAN_POINT('',(-0.00558197777718306,0.00467519601806998,0.004572));
#1501=CARTESIAN_POINT('',(-0.00558197777718306,0.00415680883452297,0.004572));
#1502=CARTESIAN_POINT('',(-0.00558197777718306,0.00415680883452297,0.004572));
#1503=CARTESIAN_POINT('',(-0.00558197777718306,0.00467519601806998,0.004572));
#1504=CARTESIAN_POINT('',(0.,0.00415680883452297,0.004572));
#1505=CARTESIAN_POINT('',(0.00558197777718306,0.00415680883452297,0.004572));
#1506=CARTESIAN_POINT('',(0.00558197777718306,0.00415680883452297,0.004572));
#1507=CARTESIAN_POINT('',(0.,0.00415680883452297,0.004572));
#1508=CARTESIAN_POINT('',(0.00558197777718306,0.00467519601806998,0.004572));
#1509=CARTESIAN_POINT('',(0.00558197777718306,0.00467519601806998,0.004572));
#1510=CARTESIAN_POINT('',(0.,0.,0.004572));
#1511=CARTESIAN_POINT('',(0.,-0.00457601342350245,-0.0007366));
#1512=CARTESIAN_POINT('',(-0.00538259837776423,-0.00457601342350245,-0.0007366));
#1513=CARTESIAN_POINT('',(-0.00538259837776423,-0.00457601342350245,-0.0007366));
#1514=CARTESIAN_POINT('',(0.00538259837776423,-0.00457601342350245,-0.0007366));
#1515=CARTESIAN_POINT('',(0.00538259837776423,-0.00457601342350245,-0.0007366));
#1516=CARTESIAN_POINT('',(0.,-0.00457601342350245,-0.0007366));
#1517=CARTESIAN_POINT('',(-0.00538259837776423,-0.00505452416837215,-0.0007366));
#1518=CARTESIAN_POINT('',(-0.00538259837776423,-0.00505452416837215,-0.0007366));
#1519=CARTESIAN_POINT('',(-0.00538259837776423,-0.00553303491324186,-0.0007366));
#1520=CARTESIAN_POINT('',(-0.00538259837776423,-0.00553303491324186,-0.0007366));
#1521=CARTESIAN_POINT('',(0.,-0.00553303491324186,-0.0007366));
#1522=CARTESIAN_POINT('',(0.,-0.00553303491324186,-0.0007366));
#1523=CARTESIAN_POINT('',(0.00538259837776423,-0.00553303491324186,-0.0007366));
#1524=CARTESIAN_POINT('',(0.00538259837776423,-0.00553303491324186,-0.0007366));
#1525=CARTESIAN_POINT('',(0.00538259837776423,-0.00505452416837215,-0.0007366));
#1526=CARTESIAN_POINT('',(0.00538259837776423,-0.00505452416837215,-0.0007366));
#1527=CARTESIAN_POINT('',(0.,0.,-0.0007366));
#1528=CARTESIAN_POINT('',(0.,-0.00210370728746057,-0.0007366));
#1529=CARTESIAN_POINT('',(-0.00558197777718306,-0.00210370728746057,-0.0007366));
#1530=CARTESIAN_POINT('',(-0.00558197777718306,-0.00210370728746057,-0.0007366));
#1531=CARTESIAN_POINT('',(0.00558197777718306,-0.00210370728746057,-0.0007366));
#1532=CARTESIAN_POINT('',(0.00558197777718306,-0.00210370728746057,-0.0007366));
#1533=CARTESIAN_POINT('',(0.,-0.00210370728746057,-0.0007366));
#1534=CARTESIAN_POINT('',(-0.00558197777718306,-0.0025423422921449,-0.0007366));
#1535=CARTESIAN_POINT('',(-0.00558197777718306,-0.0025423422921449,-0.0007366));
#1536=CARTESIAN_POINT('',(-0.00558197777718306,-0.00298097729682922,-0.0007366));
#1537=CARTESIAN_POINT('',(-0.00558197777718306,-0.00298097729682922,-0.0007366));
#1538=CARTESIAN_POINT('',(0.,-0.00298097729682922,-0.0007366));
#1539=CARTESIAN_POINT('',(0.,-0.00298097729682922,-0.0007366));
#1540=CARTESIAN_POINT('',(0.00558197777718306,-0.00298097729682922,-0.0007366));
#1541=CARTESIAN_POINT('',(0.00558197777718306,-0.00298097729682922,-0.0007366));
#1542=CARTESIAN_POINT('',(0.00558197777718306,-0.0025423422921449,-0.0007366));
#1543=CARTESIAN_POINT('',(0.00558197777718306,-0.0025423422921449,-0.0007366));
#1544=CARTESIAN_POINT('',(0.,0.,-0.0007366));
#1545=CARTESIAN_POINT('',(0.,0.000528102333191782,-0.0007366));
#1546=CARTESIAN_POINT('',(-0.00566172925755382,0.000528102333191782,-0.0007366));
#1547=CARTESIAN_POINT('',(-0.00566172925755382,0.000528102333191782,-0.0007366));
#1548=CARTESIAN_POINT('',(0.00566172925755382,0.000528102333191782,-0.0007366));
#1549=CARTESIAN_POINT('',(0.00566172925755382,0.000528102333191782,-0.0007366));
#1550=CARTESIAN_POINT('',(0.,0.000528102333191782,-0.0007366));
#1551=CARTESIAN_POINT('',(-0.00566172925755382,0.,-0.0007366));
#1552=CARTESIAN_POINT('',(-0.00566172925755382,0.,-0.0007366));
#1553=CARTESIAN_POINT('',(-0.00566172925755382,-0.000528102333191782,-0.0007366));
#1554=CARTESIAN_POINT('',(-0.00566172925755382,-0.000528102333191782,-0.0007366));
#1555=CARTESIAN_POINT('',(0.,-0.000528102333191782,-0.0007366));
#1556=CARTESIAN_POINT('',(0.,-0.000528102333191782,-0.0007366));
#1557=CARTESIAN_POINT('',(0.00566172925755382,-0.000528102333191782,-0.0007366));
#1558=CARTESIAN_POINT('',(0.00566172925755382,-0.000528102333191782,-0.0007366));
#1559=CARTESIAN_POINT('',(0.00566172925755382,0.,-0.0007366));
#1560=CARTESIAN_POINT('',(0.00566172925755382,0.,-0.0007366));
#1561=CARTESIAN_POINT('',(0.,0.,-0.0007366));
#1562=CARTESIAN_POINT('',(0.,0.003000408411026,-0.0007366));
#1563=CARTESIAN_POINT('',(-0.00554210226982832,0.003000408411026,-0.0007366));
#1564=CARTESIAN_POINT('',(-0.00554210226982832,0.003000408411026,-0.0007366));
#1565=CARTESIAN_POINT('',(0.00554210226982832,0.003000408411026,-0.0007366));
#1566=CARTESIAN_POINT('',(0.00554210226982832,0.003000408411026,-0.0007366));
#1567=CARTESIAN_POINT('',(0.,0.003000408411026,-0.0007366));
#1568=CARTESIAN_POINT('',(-0.00554210226982832,0.00248202146030963,-0.0007366));
#1569=CARTESIAN_POINT('',(-0.00554210226982832,0.00248202146030963,-0.0007366));
#1570=CARTESIAN_POINT('',(-0.00554210226982832,0.00196363450959325,-0.0007366));
#1571=CARTESIAN_POINT('',(-0.00554210226982832,0.00196363450959325,-0.0007366));
#1572=CARTESIAN_POINT('',(0.,0.00196363450959325,-0.0007366));
#1573=CARTESIAN_POINT('',(0.,0.00196363450959325,-0.0007366));
#1574=CARTESIAN_POINT('',(0.00554210226982832,0.00196363450959325,-0.0007366));
#1575=CARTESIAN_POINT('',(0.00554210226982832,0.00196363450959325,-0.0007366));
#1576=CARTESIAN_POINT('',(0.00554210226982832,0.00248202146030963,-0.0007366));
#1577=CARTESIAN_POINT('',(0.00554210226982832,0.00248202146030963,-0.0007366));
#1578=CARTESIAN_POINT('',(0.,0.,-0.0007366));
#1579=CARTESIAN_POINT('',(0.,0.005193583201617,-0.0007366));
#1580=CARTESIAN_POINT('',(-0.00558197777718306,0.005193583201617,-0.0007366));
#1581=CARTESIAN_POINT('',(-0.00558197777718306,0.005193583201617,-0.0007366));
#1582=CARTESIAN_POINT('',(0.00558197777718306,0.005193583201617,-0.0007366));
#1583=CARTESIAN_POINT('',(0.00558197777718306,0.005193583201617,-0.0007366));
#1584=CARTESIAN_POINT('',(0.,0.005193583201617,-0.0007366));
#1585=CARTESIAN_POINT('',(-0.00558197777718306,0.00467519601806998,-0.0007366));
#1586=CARTESIAN_POINT('',(-0.00558197777718306,0.00467519601806998,-0.0007366));
#1587=CARTESIAN_POINT('',(-0.00558197777718306,0.00415680883452297,-0.0007366));
#1588=CARTESIAN_POINT('',(-0.00558197777718306,0.00415680883452297,-0.0007366));
#1589=CARTESIAN_POINT('',(0.,0.00415680883452297,-0.0007366));
#1590=CARTESIAN_POINT('',(0.,0.00415680883452297,-0.0007366));
#1591=CARTESIAN_POINT('',(0.00558197777718306,0.00415680883452297,-0.0007366));
#1592=CARTESIAN_POINT('',(0.00558197777718306,0.00415680883452297,-0.0007366));
#1593=CARTESIAN_POINT('',(0.00558197777718306,0.00467519601806998,-0.0007366));
#1594=CARTESIAN_POINT('',(0.00558197777718306,0.00467519601806998,-0.0007366));
#1595=CARTESIAN_POINT('',(0.,0.,-0.0007366));
#1596=MECHANICAL_DESIGN_GEOMETRIC_PRESENTATION_REPRESENTATION('',(#1005),
#1597);
#1597=(
GEOMETRIC_REPRESENTATION_CONTEXT(3)
GLOBAL_UNCERTAINTY_ASSIGNED_CONTEXT((#1598))
GLOBAL_UNIT_ASSIGNED_CONTEXT((#1601,#1600,#1599))
REPRESENTATION_CONTEXT('Part 1','TOP_LEVEL_ASSEMBLY_PART')
);
#1598=UNCERTAINTY_MEASURE_WITH_UNIT(LENGTH_MEASURE(1.E-8),#1601,
'DISTANCE_ACCURACY_VALUE','Maximum Tolerance applied to model');
#1599=(
NAMED_UNIT(*)
SI_UNIT($,.STERADIAN.)
SOLID_ANGLE_UNIT()
);
#1600=(
NAMED_UNIT(*)
PLANE_ANGLE_UNIT()
SI_UNIT($,.RADIAN.)
);
#1601=(
LENGTH_UNIT()
NAMED_UNIT(*)
SI_UNIT($,.METRE.)
);
#1602=PRODUCT_DEFINITION_SHAPE('','',#1603);
#1603=PRODUCT_DEFINITION('','',#1605,#1604);
#1604=PRODUCT_DEFINITION_CONTEXT('',#1611,'design');
#1605=PRODUCT_DEFINITION_FORMATION_WITH_SPECIFIED_SOURCE('','',#1607,
 .NOT_KNOWN.);
#1606=PRODUCT_RELATED_PRODUCT_CATEGORY('','',(#1607));
#1607=PRODUCT('Part 1','Part 1','Part 1',(#1609));
#1608=PRODUCT_CATEGORY('','');
#1609=PRODUCT_CONTEXT('',#1611,'mechanical');
#1610=APPLICATION_PROTOCOL_DEFINITION('international standard',
'ap242_managed_model_based_3d_engineering',2020,#1611);
#1611=APPLICATION_CONTEXT('managed model based 3d engineering');
ENDSEC;
END-ISO-10303-21;
