ISO-10303-21;
HEADER;
/* Generated by software containing ST-Developer
 * from STEP Tools, Inc. (www.steptools.com) 
 */
/* OPTION: using custom renumber hook */

FILE_DESCRIPTION(
/* description */ ('STEP AP242 Edition 2',
'CAx-IF Rec.Pracs.---Representation and Presentation of Product Manufa
cturing Information (PMI)---4.0---2014-10-13',
'CAx-IF Rec.Pracs.---3D Tessellated Geometry---0.4---2014-09-14','2;1',
'CAx-IF Rec.Pracs.---User Defined Attributes---1.5---2016-08-15'),
/* implementation_level */ '2;1');

FILE_NAME(
/* name */ 'Power wire',
/* time_stamp */ '2026-06-07T21:35:57Z',
/* author */ (''),
/* organization */ (''),
/* preprocessor_version */ 'ST-DEVELOPER v20',
/* originating_system */ 'ONSHAPE BY PTC INC, 1.216',
/* authorisation */ '  ');

FILE_SCHEMA (('AP242_MANAGED_MODEL_BASED_3D_ENGINEERING_MIM_LF { 1 0 10303 442 3 1 4 }'));
ENDSEC;

DATA;
#10=SHAPE_REPRESENTATION_RELATIONSHIP('','',#339,#11);
#11=ADVANCED_BREP_SHAPE_REPRESENTATION('',(#337),#541);
#12=LINE('',#458,#48);
#13=LINE('',#461,#49);
#14=LINE('',#463,#50);
#15=LINE('',#465,#51);
#16=LINE('',#466,#52);
#17=LINE('',#469,#53);
#18=LINE('',#471,#54);
#19=LINE('',#473,#55);
#20=LINE('',#474,#56);
#21=LINE('',#477,#57);
#22=LINE('',#479,#58);
#23=LINE('',#481,#59);
#24=LINE('',#486,#60);
#25=LINE('',#488,#61);
#26=LINE('',#490,#62);
#27=LINE('',#492,#63);
#28=LINE('',#494,#64);
#29=LINE('',#496,#65);
#30=LINE('',#498,#66);
#31=LINE('',#500,#67);
#32=LINE('',#503,#68);
#33=LINE('',#505,#69);
#34=LINE('',#507,#70);
#35=LINE('',#509,#71);
#36=LINE('',#511,#72);
#37=LINE('',#513,#73);
#38=LINE('',#515,#74);
#39=LINE('',#517,#75);
#40=LINE('',#520,#76);
#41=LINE('',#522,#77);
#42=LINE('',#524,#78);
#43=LINE('',#526,#79);
#44=LINE('',#528,#80);
#45=LINE('',#530,#81);
#46=LINE('',#532,#82);
#47=LINE('',#534,#83);
#48=VECTOR('',#375,1.);
#49=VECTOR('',#376,1.);
#50=VECTOR('',#377,1.);
#51=VECTOR('',#378,1.);
#52=VECTOR('',#379,1.);
#53=VECTOR('',#380,1.);
#54=VECTOR('',#381,1.);
#55=VECTOR('',#382,1.);
#56=VECTOR('',#383,1.);
#57=VECTOR('',#384,1.);
#58=VECTOR('',#385,1.);
#59=VECTOR('',#386,1.);
#60=VECTOR('',#393,1.);
#61=VECTOR('',#394,1.);
#62=VECTOR('',#395,1.);
#63=VECTOR('',#398,1.);
#64=VECTOR('',#399,1.);
#65=VECTOR('',#402,1.);
#66=VECTOR('',#403,1.);
#67=VECTOR('',#406,1.);
#68=VECTOR('',#411,1.);
#69=VECTOR('',#412,1.);
#70=VECTOR('',#413,1.);
#71=VECTOR('',#416,1.);
#72=VECTOR('',#417,1.);
#73=VECTOR('',#420,1.);
#74=VECTOR('',#421,1.);
#75=VECTOR('',#424,1.);
#76=VECTOR('',#429,1.);
#77=VECTOR('',#430,1.);
#78=VECTOR('',#431,1.);
#79=VECTOR('',#434,1.);
#80=VECTOR('',#435,1.);
#81=VECTOR('',#438,1.);
#82=VECTOR('',#439,1.);
#83=VECTOR('',#442,1.);
#84=PLANE('',#344);
#85=PLANE('',#345);
#86=PLANE('',#347);
#87=PLANE('',#348);
#88=PLANE('',#349);
#89=PLANE('',#350);
#90=PLANE('',#351);
#91=PLANE('',#352);
#92=PLANE('',#353);
#93=PLANE('',#354);
#94=PLANE('',#355);
#95=PLANE('',#356);
#96=PLANE('',#357);
#97=PLANE('',#358);
#98=PLANE('',#359);
#99=PLANE('',#360);
#100=PLANE('',#361);
#101=PLANE('',#364);
#102=ORIENTED_EDGE('',*,*,#182,.F.);
#103=ORIENTED_EDGE('',*,*,#183,.T.);
#104=ORIENTED_EDGE('',*,*,#184,.F.);
#105=ORIENTED_EDGE('',*,*,#185,.F.);
#106=ORIENTED_EDGE('',*,*,#186,.T.);
#107=ORIENTED_EDGE('',*,*,#187,.T.);
#108=ORIENTED_EDGE('',*,*,#188,.F.);
#109=ORIENTED_EDGE('',*,*,#189,.F.);
#110=ORIENTED_EDGE('',*,*,#190,.T.);
#111=ORIENTED_EDGE('',*,*,#191,.T.);
#112=ORIENTED_EDGE('',*,*,#192,.F.);
#113=ORIENTED_EDGE('',*,*,#193,.F.);
#114=ORIENTED_EDGE('',*,*,#194,.T.);
#115=ORIENTED_EDGE('',*,*,#195,.T.);
#116=ORIENTED_EDGE('',*,*,#182,.T.);
#117=ORIENTED_EDGE('',*,*,#196,.F.);
#118=ORIENTED_EDGE('',*,*,#183,.F.);
#119=ORIENTED_EDGE('',*,*,#197,.T.);
#120=ORIENTED_EDGE('',*,*,#192,.T.);
#121=ORIENTED_EDGE('',*,*,#198,.F.);
#122=ORIENTED_EDGE('',*,*,#199,.T.);
#123=ORIENTED_EDGE('',*,*,#195,.F.);
#124=ORIENTED_EDGE('',*,*,#200,.F.);
#125=ORIENTED_EDGE('',*,*,#201,.F.);
#126=ORIENTED_EDGE('',*,*,#198,.T.);
#127=ORIENTED_EDGE('',*,*,#194,.F.);
#128=ORIENTED_EDGE('',*,*,#202,.F.);
#129=ORIENTED_EDGE('',*,*,#203,.F.);
#130=ORIENTED_EDGE('',*,*,#200,.T.);
#131=ORIENTED_EDGE('',*,*,#202,.T.);
#132=ORIENTED_EDGE('',*,*,#193,.T.);
#133=ORIENTED_EDGE('',*,*,#197,.F.);
#134=ORIENTED_EDGE('',*,*,#204,.T.);
#135=ORIENTED_EDGE('',*,*,#199,.F.);
#136=ORIENTED_EDGE('',*,*,#201,.T.);
#137=ORIENTED_EDGE('',*,*,#203,.T.);
#138=ORIENTED_EDGE('',*,*,#204,.F.);
#139=ORIENTED_EDGE('',*,*,#205,.T.);
#140=ORIENTED_EDGE('',*,*,#188,.T.);
#141=ORIENTED_EDGE('',*,*,#206,.F.);
#142=ORIENTED_EDGE('',*,*,#207,.T.);
#143=ORIENTED_EDGE('',*,*,#191,.F.);
#144=ORIENTED_EDGE('',*,*,#208,.F.);
#145=ORIENTED_EDGE('',*,*,#209,.F.);
#146=ORIENTED_EDGE('',*,*,#206,.T.);
#147=ORIENTED_EDGE('',*,*,#190,.F.);
#148=ORIENTED_EDGE('',*,*,#210,.F.);
#149=ORIENTED_EDGE('',*,*,#211,.F.);
#150=ORIENTED_EDGE('',*,*,#208,.T.);
#151=ORIENTED_EDGE('',*,*,#210,.T.);
#152=ORIENTED_EDGE('',*,*,#189,.T.);
#153=ORIENTED_EDGE('',*,*,#205,.F.);
#154=ORIENTED_EDGE('',*,*,#212,.T.);
#155=ORIENTED_EDGE('',*,*,#207,.F.);
#156=ORIENTED_EDGE('',*,*,#209,.T.);
#157=ORIENTED_EDGE('',*,*,#211,.T.);
#158=ORIENTED_EDGE('',*,*,#212,.F.);
#159=ORIENTED_EDGE('',*,*,#213,.T.);
#160=ORIENTED_EDGE('',*,*,#184,.T.);
#161=ORIENTED_EDGE('',*,*,#214,.F.);
#162=ORIENTED_EDGE('',*,*,#215,.T.);
#163=ORIENTED_EDGE('',*,*,#187,.F.);
#164=ORIENTED_EDGE('',*,*,#216,.F.);
#165=ORIENTED_EDGE('',*,*,#217,.F.);
#166=ORIENTED_EDGE('',*,*,#214,.T.);
#167=ORIENTED_EDGE('',*,*,#186,.F.);
#168=ORIENTED_EDGE('',*,*,#218,.F.);
#169=ORIENTED_EDGE('',*,*,#219,.F.);
#170=ORIENTED_EDGE('',*,*,#216,.T.);
#171=ORIENTED_EDGE('',*,*,#218,.T.);
#172=ORIENTED_EDGE('',*,*,#185,.T.);
#173=ORIENTED_EDGE('',*,*,#213,.F.);
#174=ORIENTED_EDGE('',*,*,#220,.T.);
#175=ORIENTED_EDGE('',*,*,#215,.F.);
#176=ORIENTED_EDGE('',*,*,#217,.T.);
#177=ORIENTED_EDGE('',*,*,#219,.T.);
#178=ORIENTED_EDGE('',*,*,#220,.F.);
#179=ORIENTED_EDGE('',*,*,#221,.F.);
#180=ORIENTED_EDGE('',*,*,#196,.T.);
#181=ORIENTED_EDGE('',*,*,#221,.T.);
#182=EDGE_CURVE('',#222,#222,#250,.T.);
#183=EDGE_CURVE('',#223,#223,#251,.T.);
#184=EDGE_CURVE('',#224,#225,#12,.T.);
#185=EDGE_CURVE('',#226,#224,#13,.T.);
#186=EDGE_CURVE('',#226,#227,#14,.T.);
#187=EDGE_CURVE('',#227,#225,#15,.T.);
#188=EDGE_CURVE('',#228,#229,#16,.T.);
#189=EDGE_CURVE('',#230,#228,#17,.T.);
#190=EDGE_CURVE('',#230,#231,#18,.T.);
#191=EDGE_CURVE('',#231,#229,#19,.T.);
#192=EDGE_CURVE('',#232,#233,#20,.T.);
#193=EDGE_CURVE('',#234,#232,#21,.T.);
#194=EDGE_CURVE('',#234,#235,#22,.T.);
#195=EDGE_CURVE('',#235,#233,#23,.T.);
#196=EDGE_CURVE('',#236,#236,#252,.T.);
#197=EDGE_CURVE('',#237,#232,#24,.T.);
#198=EDGE_CURVE('',#238,#233,#25,.T.);
#199=EDGE_CURVE('',#238,#237,#26,.T.);
#200=EDGE_CURVE('',#239,#235,#27,.T.);
#201=EDGE_CURVE('',#238,#239,#28,.T.);
#202=EDGE_CURVE('',#240,#234,#29,.T.);
#203=EDGE_CURVE('',#239,#240,#30,.T.);
#204=EDGE_CURVE('',#237,#240,#31,.T.);
#205=EDGE_CURVE('',#241,#228,#32,.T.);
#206=EDGE_CURVE('',#242,#229,#33,.T.);
#207=EDGE_CURVE('',#242,#241,#34,.T.);
#208=EDGE_CURVE('',#243,#231,#35,.T.);
#209=EDGE_CURVE('',#242,#243,#36,.T.);
#210=EDGE_CURVE('',#244,#230,#37,.T.);
#211=EDGE_CURVE('',#243,#244,#38,.T.);
#212=EDGE_CURVE('',#241,#244,#39,.T.);
#213=EDGE_CURVE('',#245,#224,#40,.T.);
#214=EDGE_CURVE('',#246,#225,#41,.T.);
#215=EDGE_CURVE('',#246,#245,#42,.T.);
#216=EDGE_CURVE('',#247,#227,#43,.T.);
#217=EDGE_CURVE('',#246,#247,#44,.T.);
#218=EDGE_CURVE('',#248,#226,#45,.T.);
#219=EDGE_CURVE('',#247,#248,#46,.T.);
#220=EDGE_CURVE('',#245,#248,#47,.T.);
#221=EDGE_CURVE('',#249,#249,#253,.T.);
#222=VERTEX_POINT('',#454);
#223=VERTEX_POINT('',#456);
#224=VERTEX_POINT('',#459);
#225=VERTEX_POINT('',#460);
#226=VERTEX_POINT('',#462);
#227=VERTEX_POINT('',#464);
#228=VERTEX_POINT('',#467);
#229=VERTEX_POINT('',#468);
#230=VERTEX_POINT('',#470);
#231=VERTEX_POINT('',#472);
#232=VERTEX_POINT('',#475);
#233=VERTEX_POINT('',#476);
#234=VERTEX_POINT('',#478);
#235=VERTEX_POINT('',#480);
#236=VERTEX_POINT('',#484);
#237=VERTEX_POINT('',#487);
#238=VERTEX_POINT('',#489);
#239=VERTEX_POINT('',#493);
#240=VERTEX_POINT('',#497);
#241=VERTEX_POINT('',#504);
#242=VERTEX_POINT('',#506);
#243=VERTEX_POINT('',#510);
#244=VERTEX_POINT('',#514);
#245=VERTEX_POINT('',#521);
#246=VERTEX_POINT('',#523);
#247=VERTEX_POINT('',#527);
#248=VERTEX_POINT('',#531);
#249=VERTEX_POINT('',#538);
#250=CIRCLE('',#342,0.0127687111873593);
#251=CIRCLE('',#343,0.0127687111873593);
#252=CIRCLE('',#346,0.00408735465512608);
#253=CIRCLE('',#363,0.00408735465512608);
#254=EDGE_LOOP('',(#102));
#255=EDGE_LOOP('',(#103));
#256=EDGE_LOOP('',(#104,#105,#106,#107));
#257=EDGE_LOOP('',(#108,#109,#110,#111));
#258=EDGE_LOOP('',(#112,#113,#114,#115));
#259=EDGE_LOOP('',(#116));
#260=EDGE_LOOP('',(#117));
#261=EDGE_LOOP('',(#118));
#262=EDGE_LOOP('',(#119,#120,#121,#122));
#263=EDGE_LOOP('',(#123,#124,#125,#126));
#264=EDGE_LOOP('',(#127,#128,#129,#130));
#265=EDGE_LOOP('',(#131,#132,#133,#134));
#266=EDGE_LOOP('',(#135,#136,#137,#138));
#267=EDGE_LOOP('',(#139,#140,#141,#142));
#268=EDGE_LOOP('',(#143,#144,#145,#146));
#269=EDGE_LOOP('',(#147,#148,#149,#150));
#270=EDGE_LOOP('',(#151,#152,#153,#154));
#271=EDGE_LOOP('',(#155,#156,#157,#158));
#272=EDGE_LOOP('',(#159,#160,#161,#162));
#273=EDGE_LOOP('',(#163,#164,#165,#166));
#274=EDGE_LOOP('',(#167,#168,#169,#170));
#275=EDGE_LOOP('',(#171,#172,#173,#174));
#276=EDGE_LOOP('',(#175,#176,#177,#178));
#277=EDGE_LOOP('',(#179));
#278=EDGE_LOOP('',(#180));
#279=EDGE_LOOP('',(#181));
#280=FACE_BOUND('',#254,.T.);
#281=FACE_BOUND('',#255,.T.);
#282=FACE_BOUND('',#256,.T.);
#283=FACE_BOUND('',#257,.T.);
#284=FACE_BOUND('',#258,.T.);
#285=FACE_BOUND('',#259,.T.);
#286=FACE_BOUND('',#260,.T.);
#287=FACE_BOUND('',#261,.T.);
#288=FACE_BOUND('',#262,.T.);
#289=FACE_BOUND('',#263,.T.);
#290=FACE_BOUND('',#264,.T.);
#291=FACE_BOUND('',#265,.T.);
#292=FACE_BOUND('',#266,.T.);
#293=FACE_BOUND('',#267,.T.);
#294=FACE_BOUND('',#268,.T.);
#295=FACE_BOUND('',#269,.T.);
#296=FACE_BOUND('',#270,.T.);
#297=FACE_BOUND('',#271,.T.);
#298=FACE_BOUND('',#272,.T.);
#299=FACE_BOUND('',#273,.T.);
#300=FACE_BOUND('',#274,.T.);
#301=FACE_BOUND('',#275,.T.);
#302=FACE_BOUND('',#276,.T.);
#303=FACE_BOUND('',#277,.T.);
#304=FACE_BOUND('',#278,.T.);
#305=FACE_BOUND('',#279,.T.);
#306=CYLINDRICAL_SURFACE('',#341,0.0127687111873593);
#307=CYLINDRICAL_SURFACE('',#362,0.00408735465512608);
#308=ADVANCED_FACE('',(#280,#281),#306,.T.);
#309=ADVANCED_FACE('',(#282,#283,#284,#285),#84,.T.);
#310=ADVANCED_FACE('',(#286,#287),#85,.F.);
#311=ADVANCED_FACE('',(#288),#86,.T.);
#312=ADVANCED_FACE('',(#289),#87,.F.);
#313=ADVANCED_FACE('',(#290),#88,.F.);
#314=ADVANCED_FACE('',(#291),#89,.T.);
#315=ADVANCED_FACE('',(#292),#90,.T.);
#316=ADVANCED_FACE('',(#293),#91,.T.);
#317=ADVANCED_FACE('',(#294),#92,.F.);
#318=ADVANCED_FACE('',(#295),#93,.F.);
#319=ADVANCED_FACE('',(#296),#94,.T.);
#320=ADVANCED_FACE('',(#297),#95,.T.);
#321=ADVANCED_FACE('',(#298),#96,.T.);
#322=ADVANCED_FACE('',(#299),#97,.F.);
#323=ADVANCED_FACE('',(#300),#98,.F.);
#324=ADVANCED_FACE('',(#301),#99,.T.);
#325=ADVANCED_FACE('',(#302),#100,.T.);
#326=ADVANCED_FACE('',(#303,#304),#307,.T.);
#327=ADVANCED_FACE('',(#305),#101,.T.);
#328=CLOSED_SHELL('',(#308,#309,#310,#311,#312,#313,#314,#315,#316,#317,
#318,#319,#320,#321,#322,#323,#324,#325,#326,#327));
#329=STYLED_ITEM('',(#330),#337);
#330=PRESENTATION_STYLE_ASSIGNMENT((#331));
#331=SURFACE_STYLE_USAGE(.BOTH.,#332);
#332=SURFACE_SIDE_STYLE('',(#333));
#333=SURFACE_STYLE_FILL_AREA(#334);
#334=FILL_AREA_STYLE('',(#335));
#335=FILL_AREA_STYLE_COLOUR('',#336);
#336=COLOUR_RGB('',0.615686274509804,0.811764705882353,0.929411764705882);
#337=MANIFOLD_SOLID_BREP('Part 1',#328);
#338=SHAPE_DEFINITION_REPRESENTATION(#546,#339);
#339=SHAPE_REPRESENTATION('Part 1',(#340),#541);
#340=AXIS2_PLACEMENT_3D('',#451,#365,#366);
#341=AXIS2_PLACEMENT_3D('',#452,#367,#368);
#342=AXIS2_PLACEMENT_3D('',#453,#369,#370);
#343=AXIS2_PLACEMENT_3D('',#455,#371,#372);
#344=AXIS2_PLACEMENT_3D('',#457,#373,#374);
#345=AXIS2_PLACEMENT_3D('',#482,#387,#388);
#346=AXIS2_PLACEMENT_3D('',#483,#389,#390);
#347=AXIS2_PLACEMENT_3D('',#485,#391,#392);
#348=AXIS2_PLACEMENT_3D('',#491,#396,#397);
#349=AXIS2_PLACEMENT_3D('',#495,#400,#401);
#350=AXIS2_PLACEMENT_3D('',#499,#404,#405);
#351=AXIS2_PLACEMENT_3D('',#501,#407,#408);
#352=AXIS2_PLACEMENT_3D('',#502,#409,#410);
#353=AXIS2_PLACEMENT_3D('',#508,#414,#415);
#354=AXIS2_PLACEMENT_3D('',#512,#418,#419);
#355=AXIS2_PLACEMENT_3D('',#516,#422,#423);
#356=AXIS2_PLACEMENT_3D('',#518,#425,#426);
#357=AXIS2_PLACEMENT_3D('',#519,#427,#428);
#358=AXIS2_PLACEMENT_3D('',#525,#432,#433);
#359=AXIS2_PLACEMENT_3D('',#529,#436,#437);
#360=AXIS2_PLACEMENT_3D('',#533,#440,#441);
#361=AXIS2_PLACEMENT_3D('',#535,#443,#444);
#362=AXIS2_PLACEMENT_3D('',#536,#445,#446);
#363=AXIS2_PLACEMENT_3D('',#537,#447,#448);
#364=AXIS2_PLACEMENT_3D('',#539,#449,#450);
#365=DIRECTION('',(0.,0.,1.));
#366=DIRECTION('',(1.,0.,0.));
#367=DIRECTION('',(0.,0.,-1.));
#368=DIRECTION('',(-1.,0.,0.));
#369=DIRECTION('',(0.,0.,1.));
#370=DIRECTION('',(1.,0.,0.));
#371=DIRECTION('',(0.,0.,1.));
#372=DIRECTION('',(1.,0.,0.));
#373=DIRECTION('',(0.,0.,1.));
#374=DIRECTION('',(1.,0.,0.));
#375=DIRECTION('',(1.,0.,0.));
#376=DIRECTION('',(0.,-1.,0.));
#377=DIRECTION('',(1.,0.,0.));
#378=DIRECTION('',(0.,-1.,0.));
#379=DIRECTION('',(0.,-1.,0.));
#380=DIRECTION('',(-1.,0.,0.));
#381=DIRECTION('',(0.,-1.,0.));
#382=DIRECTION('',(-1.,0.,0.));
#383=DIRECTION('',(-1.,0.,0.));
#384=DIRECTION('',(0.,1.,0.));
#385=DIRECTION('',(-1.,0.,0.));
#386=DIRECTION('',(0.,1.,0.));
#387=DIRECTION('',(0.,0.,1.));
#388=DIRECTION('',(1.,0.,0.));
#389=DIRECTION('',(0.,0.,-1.));
#390=DIRECTION('',(-1.,0.,0.));
#391=DIRECTION('',(0.,1.,0.));
#392=DIRECTION('',(0.,0.,1.));
#393=DIRECTION('',(0.,0.,-1.));
#394=DIRECTION('',(0.,0.,-1.));
#395=DIRECTION('',(1.,0.,0.));
#396=DIRECTION('',(1.,0.,0.));
#397=DIRECTION('',(0.,0.,-1.));
#398=DIRECTION('',(0.,0.,-1.));
#399=DIRECTION('',(0.,-1.,0.));
#400=DIRECTION('',(0.,1.,0.));
#401=DIRECTION('',(0.,0.,1.));
#402=DIRECTION('',(0.,0.,-1.));
#403=DIRECTION('',(1.,0.,0.));
#404=DIRECTION('',(1.,0.,0.));
#405=DIRECTION('',(0.,0.,-1.));
#406=DIRECTION('',(0.,-1.,0.));
#407=DIRECTION('',(0.,0.,1.));
#408=DIRECTION('',(1.,0.,0.));
#409=DIRECTION('',(-1.,0.,0.));
#410=DIRECTION('',(0.,0.,1.));
#411=DIRECTION('',(0.,0.,-1.));
#412=DIRECTION('',(0.,0.,-1.));
#413=DIRECTION('',(0.,1.,0.));
#414=DIRECTION('',(0.,1.,0.));
#415=DIRECTION('',(0.,0.,1.));
#416=DIRECTION('',(0.,0.,-1.));
#417=DIRECTION('',(1.,0.,0.));
#418=DIRECTION('',(-1.,0.,0.));
#419=DIRECTION('',(0.,0.,1.));
#420=DIRECTION('',(0.,0.,-1.));
#421=DIRECTION('',(0.,1.,0.));
#422=DIRECTION('',(0.,1.,0.));
#423=DIRECTION('',(0.,0.,1.));
#424=DIRECTION('',(1.,0.,0.));
#425=DIRECTION('',(0.,0.,1.));
#426=DIRECTION('',(1.,0.,0.));
#427=DIRECTION('',(0.,-1.,0.));
#428=DIRECTION('',(0.,0.,-1.));
#429=DIRECTION('',(0.,0.,-1.));
#430=DIRECTION('',(0.,0.,-1.));
#431=DIRECTION('',(-1.,0.,0.));
#432=DIRECTION('',(-1.,0.,0.));
#433=DIRECTION('',(0.,0.,1.));
#434=DIRECTION('',(0.,0.,-1.));
#435=DIRECTION('',(0.,1.,0.));
#436=DIRECTION('',(0.,-1.,0.));
#437=DIRECTION('',(0.,0.,-1.));
#438=DIRECTION('',(0.,0.,-1.));
#439=DIRECTION('',(-1.,0.,0.));
#440=DIRECTION('',(-1.,0.,0.));
#441=DIRECTION('',(0.,0.,1.));
#442=DIRECTION('',(0.,1.,0.));
#443=DIRECTION('',(0.,0.,1.));
#444=DIRECTION('',(1.,0.,0.));
#445=DIRECTION('',(0.,0.,1.));
#446=DIRECTION('',(1.,0.,0.));
#447=DIRECTION('',(0.,0.,-1.));
#448=DIRECTION('',(-1.,0.,0.));
#449=DIRECTION('',(0.,0.,-1.));
#450=DIRECTION('',(1.,0.,0.));
#451=CARTESIAN_POINT('',(0.,0.,0.));
#452=CARTESIAN_POINT('',(0.,7.81858064241826E-19,0.01905));
#453=CARTESIAN_POINT('',(0.,7.81858064241826E-19,0.01905));
#454=CARTESIAN_POINT('',(0.0127687111873593,7.81858064241826E-19,0.01905));
#455=CARTESIAN_POINT('',(0.,7.81858064241826E-19,0.));
#456=CARTESIAN_POINT('',(0.0127687111873593,7.81858064241826E-19,0.));
#457=CARTESIAN_POINT('',(0.,0.,0.01905));
#458=CARTESIAN_POINT('',(0.,0.,0.01905));
#459=CARTESIAN_POINT('',(-0.0078501021489501,0.,0.01905));
#460=CARTESIAN_POINT('',(-0.00386881129816175,0.,0.01905));
#461=CARTESIAN_POINT('',(-0.0078501021489501,0.,0.01905));
#462=CARTESIAN_POINT('',(-0.0078501021489501,0.00738061964511871,0.01905));
#463=CARTESIAN_POINT('',(0.,0.00738061964511871,0.01905));
#464=CARTESIAN_POINT('',(-0.00386881129816175,0.00738061964511871,0.01905));
#465=CARTESIAN_POINT('',(-0.00386881129816175,0.,0.01905));
#466=CARTESIAN_POINT('',(0.00401414465159178,0.,0.01905));
#467=CARTESIAN_POINT('',(0.00401414465159178,0.00722136814147234,0.01905));
#468=CARTESIAN_POINT('',(0.00401414465159178,0.,0.01905));
#469=CARTESIAN_POINT('',(0.,0.00722136814147234,0.01905));
#470=CARTESIAN_POINT('',(0.00807506125420332,0.00722136814147234,0.01905));
#471=CARTESIAN_POINT('',(0.00807506125420332,0.,0.01905));
#472=CARTESIAN_POINT('',(0.00807506125420332,0.,0.01905));
#473=CARTESIAN_POINT('',(0.,0.,0.01905));
#474=CARTESIAN_POINT('',(0.,-0.00392624642699957,0.01905));
#475=CARTESIAN_POINT('',(0.00234200223349035,-0.00392624642699957,0.01905));
#476=CARTESIAN_POINT('',(-0.00219666934572161,-0.00392624642699957,0.01905));
#477=CARTESIAN_POINT('',(0.00234200223349035,0.,0.01905));
#478=CARTESIAN_POINT('',(0.00234200223349035,-0.0096593052148819,0.01905));
#479=CARTESIAN_POINT('',(0.,-0.0096593052148819,0.01905));
#480=CARTESIAN_POINT('',(-0.00219666934572161,-0.0096593052148819,0.01905));
#481=CARTESIAN_POINT('',(-0.00219666934572161,0.,0.01905));
#482=CARTESIAN_POINT('',(0.,0.,0.));
#483=CARTESIAN_POINT('',(0.,-2.50278289769009E-19,0.));
#484=CARTESIAN_POINT('',(-0.00408735465512608,-2.50278289769009E-19,0.));
#485=CARTESIAN_POINT('',(7.26664438843727E-5,-0.00392624642699957,0.0254));
#486=CARTESIAN_POINT('',(0.00234200223349035,-0.00392624642699957,0.0254));
#487=CARTESIAN_POINT('',(0.00234200223349035,-0.00392624642699957,0.0254));
#488=CARTESIAN_POINT('',(-0.00219666934572161,-0.00392624642699957,0.0254));
#489=CARTESIAN_POINT('',(-0.00219666934572161,-0.00392624642699957,0.0254));
#490=CARTESIAN_POINT('',(7.26664438843727E-5,-0.00392624642699957,0.0254));
#491=CARTESIAN_POINT('',(-0.00219666934572161,-0.00679277582094073,0.0254));
#492=CARTESIAN_POINT('',(-0.00219666934572161,-0.0096593052148819,0.0254));
#493=CARTESIAN_POINT('',(-0.00219666934572161,-0.0096593052148819,0.0254));
#494=CARTESIAN_POINT('',(-0.00219666934572161,-0.00679277582094073,0.0254));
#495=CARTESIAN_POINT('',(7.26664438843727E-5,-0.0096593052148819,0.0254));
#496=CARTESIAN_POINT('',(0.00234200223349035,-0.0096593052148819,0.0254));
#497=CARTESIAN_POINT('',(0.00234200223349035,-0.0096593052148819,0.0254));
#498=CARTESIAN_POINT('',(7.26664438843727E-5,-0.0096593052148819,0.0254));
#499=CARTESIAN_POINT('',(0.00234200223349035,-0.00679277582094073,0.0254));
#500=CARTESIAN_POINT('',(0.00234200223349035,-0.00679277582094073,0.0254));
#501=CARTESIAN_POINT('',(0.,0.,0.0254));
#502=CARTESIAN_POINT('',(0.00401414465159178,0.00361068407073617,0.0254));
#503=CARTESIAN_POINT('',(0.00401414465159178,0.00722136814147234,0.0254));
#504=CARTESIAN_POINT('',(0.00401414465159178,0.00722136814147234,0.0254));
#505=CARTESIAN_POINT('',(0.00401414465159178,0.,0.0254));
#506=CARTESIAN_POINT('',(0.00401414465159178,0.,0.0254));
#507=CARTESIAN_POINT('',(0.00401414465159178,0.00361068407073617,0.0254));
#508=CARTESIAN_POINT('',(0.00604460295289755,0.,0.0254));
#509=CARTESIAN_POINT('',(0.00807506125420332,0.,0.0254));
#510=CARTESIAN_POINT('',(0.00807506125420332,0.,0.0254));
#511=CARTESIAN_POINT('',(0.00604460295289755,0.,0.0254));
#512=CARTESIAN_POINT('',(0.00807506125420332,0.00361068407073617,0.0254));
#513=CARTESIAN_POINT('',(0.00807506125420332,0.00722136814147234,0.0254));
#514=CARTESIAN_POINT('',(0.00807506125420332,0.00722136814147234,0.0254));
#515=CARTESIAN_POINT('',(0.00807506125420332,0.00361068407073617,0.0254));
#516=CARTESIAN_POINT('',(0.00604460295289755,0.00722136814147234,0.0254));
#517=CARTESIAN_POINT('',(0.00604460295289755,0.00722136814147234,0.0254));
#518=CARTESIAN_POINT('',(0.,0.,0.0254));
#519=CARTESIAN_POINT('',(-0.00585945672355592,0.,0.0254));
#520=CARTESIAN_POINT('',(-0.0078501021489501,0.,0.0254));
#521=CARTESIAN_POINT('',(-0.0078501021489501,0.,0.0254));
#522=CARTESIAN_POINT('',(-0.00386881129816175,0.,0.0254));
#523=CARTESIAN_POINT('',(-0.00386881129816175,0.,0.0254));
#524=CARTESIAN_POINT('',(-0.00585945672355592,0.,0.0254));
#525=CARTESIAN_POINT('',(-0.00386881129816175,0.00369030982255935,0.0254));
#526=CARTESIAN_POINT('',(-0.00386881129816175,0.00738061964511871,0.0254));
#527=CARTESIAN_POINT('',(-0.00386881129816175,0.00738061964511871,0.0254));
#528=CARTESIAN_POINT('',(-0.00386881129816175,0.00369030982255935,0.0254));
#529=CARTESIAN_POINT('',(-0.00585945672355592,0.00738061964511871,0.0254));
#530=CARTESIAN_POINT('',(-0.0078501021489501,0.00738061964511871,0.0254));
#531=CARTESIAN_POINT('',(-0.0078501021489501,0.00738061964511871,0.0254));
#532=CARTESIAN_POINT('',(-0.00585945672355592,0.00738061964511871,0.0254));
#533=CARTESIAN_POINT('',(-0.0078501021489501,0.00369030982255935,0.0254));
#534=CARTESIAN_POINT('',(-0.0078501021489501,0.00369030982255935,0.0254));
#535=CARTESIAN_POINT('',(0.,0.,0.0254));
#536=CARTESIAN_POINT('',(0.,-2.50278289769009E-19,-0.012192));
#537=CARTESIAN_POINT('',(0.,-2.50278289769009E-19,-0.012192));
#538=CARTESIAN_POINT('',(-0.00408735465512608,-2.50278289769009E-19,-0.012192));
#539=CARTESIAN_POINT('',(0.,0.,-0.012192));
#540=MECHANICAL_DESIGN_GEOMETRIC_PRESENTATION_REPRESENTATION('',(#329),
#541);
#541=(
GEOMETRIC_REPRESENTATION_CONTEXT(3)
GLOBAL_UNCERTAINTY_ASSIGNED_CONTEXT((#542))
GLOBAL_UNIT_ASSIGNED_CONTEXT((#545,#544,#543))
REPRESENTATION_CONTEXT('Part 1','TOP_LEVEL_ASSEMBLY_PART')
);
#542=UNCERTAINTY_MEASURE_WITH_UNIT(LENGTH_MEASURE(1.E-8),#545,
'DISTANCE_ACCURACY_VALUE','Maximum Tolerance applied to model');
#543=(
NAMED_UNIT(*)
SI_UNIT($,.STERADIAN.)
SOLID_ANGLE_UNIT()
);
#544=(
NAMED_UNIT(*)
PLANE_ANGLE_UNIT()
SI_UNIT($,.RADIAN.)
);
#545=(
LENGTH_UNIT()
NAMED_UNIT(*)
SI_UNIT($,.METRE.)
);
#546=PRODUCT_DEFINITION_SHAPE('','',#547);
#547=PRODUCT_DEFINITION('','',#549,#548);
#548=PRODUCT_DEFINITION_CONTEXT('',#555,'design');
#549=PRODUCT_DEFINITION_FORMATION_WITH_SPECIFIED_SOURCE('','',#551,
 .NOT_KNOWN.);
#550=PRODUCT_RELATED_PRODUCT_CATEGORY('','',(#551));
#551=PRODUCT('Part 1','Part 1','Part 1',(#553));
#552=PRODUCT_CATEGORY('','');
#553=PRODUCT_CONTEXT('',#555,'mechanical');
#554=APPLICATION_PROTOCOL_DEFINITION('international standard',
'ap242_managed_model_based_3d_engineering',2020,#555);
#555=APPLICATION_CONTEXT('managed model based 3d engineering');
ENDSEC;
END-ISO-10303-21;
