ISO-10303-21;
HEADER;
/* Generated by software containing ST-Developer
 * from STEP Tools, Inc. (www.steptools.com) 
 */
/* OPTION: using custom renumber hook */

FILE_DESCRIPTION(
/* description */ ('STEP AP242 Edition 2',
'CAx-IF Rec.Pracs.---Representation and Presentation of Product Manufa
cturing Information (PMI)---4.0---2014-10-13',
'CAx-IF Rec.Pracs.---3D Tessellated Geometry---0.4---2014-09-14','2;1',
'CAx-IF Rec.Pracs.---User Defined Attributes---1.5---2016-08-15'),
/* implementation_level */ '2;1');

FILE_NAME(
/* name */ 'Wire Pt.2',
/* time_stamp */ '2026-06-07T21:36:03Z',
/* author */ (''),
/* organization */ (''),
/* preprocessor_version */ 'ST-DEVELOPER v20',
/* originating_system */ 'ONSHAPE BY PTC INC, 1.216',
/* authorisation */ '  ');

FILE_SCHEMA (('AP242_MANAGED_MODEL_BASED_3D_ENGINEERING_MIM_LF { 1 0 10303 442 3 1 4 }'));
ENDSEC;

DATA;
#10=SHAPE_REPRESENTATION_RELATIONSHIP('','',#227,#11);
#11=ADVANCED_BREP_SHAPE_REPRESENTATION('',(#225),#359);
#12=LINE('',#307,#36);
#13=LINE('',#310,#37);
#14=LINE('',#312,#38);
#15=LINE('',#314,#39);
#16=LINE('',#316,#40);
#17=LINE('',#318,#41);
#18=LINE('',#320,#42);
#19=LINE('',#322,#43);
#20=LINE('',#324,#44);
#21=LINE('',#326,#45);
#22=LINE('',#328,#46);
#23=LINE('',#329,#47);
#24=LINE('',#333,#48);
#25=LINE('',#336,#49);
#26=LINE('',#338,#50);
#27=LINE('',#340,#51);
#28=LINE('',#342,#52);
#29=LINE('',#344,#53);
#30=LINE('',#346,#54);
#31=LINE('',#348,#55);
#32=LINE('',#350,#56);
#33=LINE('',#352,#57);
#34=LINE('',#354,#58);
#35=LINE('',#355,#59);
#36=VECTOR('',#254,1.);
#37=VECTOR('',#255,1.);
#38=VECTOR('',#256,1.);
#39=VECTOR('',#257,1.);
#40=VECTOR('',#260,1.);
#41=VECTOR('',#261,1.);
#42=VECTOR('',#262,1.);
#43=VECTOR('',#265,1.);
#44=VECTOR('',#266,1.);
#45=VECTOR('',#267,1.);
#46=VECTOR('',#270,1.);
#47=VECTOR('',#271,1.);
#48=VECTOR('',#278,1.);
#49=VECTOR('',#279,1.);
#50=VECTOR('',#280,1.);
#51=VECTOR('',#281,1.);
#52=VECTOR('',#284,1.);
#53=VECTOR('',#285,1.);
#54=VECTOR('',#286,1.);
#55=VECTOR('',#289,1.);
#56=VECTOR('',#290,1.);
#57=VECTOR('',#291,1.);
#58=VECTOR('',#294,1.);
#59=VECTOR('',#295,1.);
#60=PLANE('',#232);
#61=PLANE('',#233);
#62=PLANE('',#234);
#63=PLANE('',#235);
#64=PLANE('',#236);
#65=PLANE('',#237);
#66=PLANE('',#238);
#67=PLANE('',#239);
#68=PLANE('',#240);
#69=PLANE('',#241);
#70=PLANE('',#242);
#71=PLANE('',#243);
#72=ORIENTED_EDGE('',*,*,#124,.F.);
#73=ORIENTED_EDGE('',*,*,#125,.T.);
#74=ORIENTED_EDGE('',*,*,#126,.F.);
#75=ORIENTED_EDGE('',*,*,#127,.F.);
#76=ORIENTED_EDGE('',*,*,#128,.T.);
#77=ORIENTED_EDGE('',*,*,#129,.T.);
#78=ORIENTED_EDGE('',*,*,#130,.T.);
#79=ORIENTED_EDGE('',*,*,#131,.F.);
#80=ORIENTED_EDGE('',*,*,#132,.F.);
#81=ORIENTED_EDGE('',*,*,#127,.T.);
#82=ORIENTED_EDGE('',*,*,#133,.T.);
#83=ORIENTED_EDGE('',*,*,#134,.F.);
#84=ORIENTED_EDGE('',*,*,#135,.F.);
#85=ORIENTED_EDGE('',*,*,#131,.T.);
#86=ORIENTED_EDGE('',*,*,#136,.F.);
#87=ORIENTED_EDGE('',*,*,#129,.F.);
#88=ORIENTED_EDGE('',*,*,#137,.T.);
#89=ORIENTED_EDGE('',*,*,#134,.T.);
#90=ORIENTED_EDGE('',*,*,#128,.F.);
#91=ORIENTED_EDGE('',*,*,#132,.T.);
#92=ORIENTED_EDGE('',*,*,#135,.T.);
#93=ORIENTED_EDGE('',*,*,#137,.F.);
#94=ORIENTED_EDGE('',*,*,#124,.T.);
#95=ORIENTED_EDGE('',*,*,#126,.T.);
#96=ORIENTED_EDGE('',*,*,#136,.T.);
#97=ORIENTED_EDGE('',*,*,#133,.F.);
#98=ORIENTED_EDGE('',*,*,#130,.F.);
#99=ORIENTED_EDGE('',*,*,#138,.F.);
#100=ORIENTED_EDGE('',*,*,#139,.F.);
#101=ORIENTED_EDGE('',*,*,#140,.T.);
#102=ORIENTED_EDGE('',*,*,#141,.T.);
#103=ORIENTED_EDGE('',*,*,#142,.T.);
#104=ORIENTED_EDGE('',*,*,#143,.F.);
#105=ORIENTED_EDGE('',*,*,#144,.F.);
#106=ORIENTED_EDGE('',*,*,#139,.T.);
#107=ORIENTED_EDGE('',*,*,#145,.T.);
#108=ORIENTED_EDGE('',*,*,#146,.F.);
#109=ORIENTED_EDGE('',*,*,#147,.F.);
#110=ORIENTED_EDGE('',*,*,#143,.T.);
#111=ORIENTED_EDGE('',*,*,#148,.F.);
#112=ORIENTED_EDGE('',*,*,#141,.F.);
#113=ORIENTED_EDGE('',*,*,#149,.T.);
#114=ORIENTED_EDGE('',*,*,#146,.T.);
#115=ORIENTED_EDGE('',*,*,#140,.F.);
#116=ORIENTED_EDGE('',*,*,#144,.T.);
#117=ORIENTED_EDGE('',*,*,#147,.T.);
#118=ORIENTED_EDGE('',*,*,#149,.F.);
#119=ORIENTED_EDGE('',*,*,#125,.F.);
#120=ORIENTED_EDGE('',*,*,#138,.T.);
#121=ORIENTED_EDGE('',*,*,#148,.T.);
#122=ORIENTED_EDGE('',*,*,#145,.F.);
#123=ORIENTED_EDGE('',*,*,#142,.F.);
#124=EDGE_CURVE('',#150,#150,#168,.T.);
#125=EDGE_CURVE('',#151,#151,#169,.T.);
#126=EDGE_CURVE('',#152,#153,#12,.T.);
#127=EDGE_CURVE('',#154,#152,#13,.T.);
#128=EDGE_CURVE('',#154,#155,#14,.T.);
#129=EDGE_CURVE('',#155,#153,#15,.T.);
#130=EDGE_CURVE('',#152,#156,#16,.T.);
#131=EDGE_CURVE('',#157,#156,#17,.T.);
#132=EDGE_CURVE('',#154,#157,#18,.T.);
#133=EDGE_CURVE('',#156,#158,#19,.T.);
#134=EDGE_CURVE('',#159,#158,#20,.T.);
#135=EDGE_CURVE('',#157,#159,#21,.T.);
#136=EDGE_CURVE('',#153,#158,#22,.T.);
#137=EDGE_CURVE('',#155,#159,#23,.T.);
#138=EDGE_CURVE('',#160,#161,#24,.T.);
#139=EDGE_CURVE('',#162,#160,#25,.T.);
#140=EDGE_CURVE('',#162,#163,#26,.T.);
#141=EDGE_CURVE('',#163,#161,#27,.T.);
#142=EDGE_CURVE('',#160,#164,#28,.T.);
#143=EDGE_CURVE('',#165,#164,#29,.T.);
#144=EDGE_CURVE('',#162,#165,#30,.T.);
#145=EDGE_CURVE('',#164,#166,#31,.T.);
#146=EDGE_CURVE('',#167,#166,#32,.T.);
#147=EDGE_CURVE('',#165,#167,#33,.T.);
#148=EDGE_CURVE('',#161,#166,#34,.T.);
#149=EDGE_CURVE('',#163,#167,#35,.T.);
#150=VERTEX_POINT('',#303);
#151=VERTEX_POINT('',#305);
#152=VERTEX_POINT('',#308);
#153=VERTEX_POINT('',#309);
#154=VERTEX_POINT('',#311);
#155=VERTEX_POINT('',#313);
#156=VERTEX_POINT('',#317);
#157=VERTEX_POINT('',#319);
#158=VERTEX_POINT('',#323);
#159=VERTEX_POINT('',#325);
#160=VERTEX_POINT('',#334);
#161=VERTEX_POINT('',#335);
#162=VERTEX_POINT('',#337);
#163=VERTEX_POINT('',#339);
#164=VERTEX_POINT('',#343);
#165=VERTEX_POINT('',#345);
#166=VERTEX_POINT('',#349);
#167=VERTEX_POINT('',#351);
#168=CIRCLE('',#230,0.00392648760985714);
#169=CIRCLE('',#231,0.00392648760985714);
#170=EDGE_LOOP('',(#72));
#171=EDGE_LOOP('',(#73));
#172=EDGE_LOOP('',(#74,#75,#76,#77));
#173=EDGE_LOOP('',(#78,#79,#80,#81));
#174=EDGE_LOOP('',(#82,#83,#84,#85));
#175=EDGE_LOOP('',(#86,#87,#88,#89));
#176=EDGE_LOOP('',(#90,#91,#92,#93));
#177=EDGE_LOOP('',(#94));
#178=EDGE_LOOP('',(#95,#96,#97,#98));
#179=EDGE_LOOP('',(#99,#100,#101,#102));
#180=EDGE_LOOP('',(#103,#104,#105,#106));
#181=EDGE_LOOP('',(#107,#108,#109,#110));
#182=EDGE_LOOP('',(#111,#112,#113,#114));
#183=EDGE_LOOP('',(#115,#116,#117,#118));
#184=EDGE_LOOP('',(#119));
#185=EDGE_LOOP('',(#120,#121,#122,#123));
#186=FACE_BOUND('',#170,.T.);
#187=FACE_BOUND('',#171,.T.);
#188=FACE_BOUND('',#172,.T.);
#189=FACE_BOUND('',#173,.T.);
#190=FACE_BOUND('',#174,.T.);
#191=FACE_BOUND('',#175,.T.);
#192=FACE_BOUND('',#176,.T.);
#193=FACE_BOUND('',#177,.T.);
#194=FACE_BOUND('',#178,.T.);
#195=FACE_BOUND('',#179,.T.);
#196=FACE_BOUND('',#180,.T.);
#197=FACE_BOUND('',#181,.T.);
#198=FACE_BOUND('',#182,.T.);
#199=FACE_BOUND('',#183,.T.);
#200=FACE_BOUND('',#184,.T.);
#201=FACE_BOUND('',#185,.T.);
#202=CYLINDRICAL_SURFACE('',#229,0.00392648760985714);
#203=ADVANCED_FACE('',(#186,#187),#202,.T.);
#204=ADVANCED_FACE('',(#188),#60,.T.);
#205=ADVANCED_FACE('',(#189),#61,.F.);
#206=ADVANCED_FACE('',(#190),#62,.F.);
#207=ADVANCED_FACE('',(#191),#63,.T.);
#208=ADVANCED_FACE('',(#192),#64,.T.);
#209=ADVANCED_FACE('',(#193,#194),#65,.F.);
#210=ADVANCED_FACE('',(#195),#66,.T.);
#211=ADVANCED_FACE('',(#196),#67,.F.);
#212=ADVANCED_FACE('',(#197),#68,.F.);
#213=ADVANCED_FACE('',(#198),#69,.T.);
#214=ADVANCED_FACE('',(#199),#70,.T.);
#215=ADVANCED_FACE('',(#200,#201),#71,.F.);
#216=CLOSED_SHELL('',(#203,#204,#205,#206,#207,#208,#209,#210,#211,#212,
#213,#214,#215));
#217=STYLED_ITEM('',(#218),#225);
#218=PRESENTATION_STYLE_ASSIGNMENT((#219));
#219=SURFACE_STYLE_USAGE(.BOTH.,#220);
#220=SURFACE_SIDE_STYLE('',(#221));
#221=SURFACE_STYLE_FILL_AREA(#222);
#222=FILL_AREA_STYLE('',(#223));
#223=FILL_AREA_STYLE_COLOUR('',#224);
#224=COLOUR_RGB('',0.615686274509804,0.811764705882353,0.929411764705882);
#225=MANIFOLD_SOLID_BREP('Part 1',#216);
#226=SHAPE_DEFINITION_REPRESENTATION(#364,#227);
#227=SHAPE_REPRESENTATION('Part 1',(#228),#359);
#228=AXIS2_PLACEMENT_3D('',#300,#244,#245);
#229=AXIS2_PLACEMENT_3D('',#301,#246,#247);
#230=AXIS2_PLACEMENT_3D('',#302,#248,#249);
#231=AXIS2_PLACEMENT_3D('',#304,#250,#251);
#232=AXIS2_PLACEMENT_3D('',#306,#252,#253);
#233=AXIS2_PLACEMENT_3D('',#315,#258,#259);
#234=AXIS2_PLACEMENT_3D('',#321,#263,#264);
#235=AXIS2_PLACEMENT_3D('',#327,#268,#269);
#236=AXIS2_PLACEMENT_3D('',#330,#272,#273);
#237=AXIS2_PLACEMENT_3D('',#331,#274,#275);
#238=AXIS2_PLACEMENT_3D('',#332,#276,#277);
#239=AXIS2_PLACEMENT_3D('',#341,#282,#283);
#240=AXIS2_PLACEMENT_3D('',#347,#287,#288);
#241=AXIS2_PLACEMENT_3D('',#353,#292,#293);
#242=AXIS2_PLACEMENT_3D('',#356,#296,#297);
#243=AXIS2_PLACEMENT_3D('',#357,#298,#299);
#244=DIRECTION('',(0.,0.,1.));
#245=DIRECTION('',(1.,0.,0.));
#246=DIRECTION('',(0.,1.,0.));
#247=DIRECTION('',(0.,0.,1.));
#248=DIRECTION('',(0.,-1.,0.));
#249=DIRECTION('',(0.,0.,-1.));
#250=DIRECTION('',(0.,-1.,0.));
#251=DIRECTION('',(0.,0.,-1.));
#252=DIRECTION('',(0.,0.,1.));
#253=DIRECTION('',(1.,0.,0.));
#254=DIRECTION('',(1.,0.,0.));
#255=DIRECTION('',(0.,1.,0.));
#256=DIRECTION('',(1.,0.,0.));
#257=DIRECTION('',(0.,1.,0.));
#258=DIRECTION('',(1.,0.,0.));
#259=DIRECTION('',(0.,0.,-1.));
#260=DIRECTION('',(0.,0.,-1.));
#261=DIRECTION('',(0.,1.,0.));
#262=DIRECTION('',(0.,0.,-1.));
#263=DIRECTION('',(0.,0.,1.));
#264=DIRECTION('',(1.,0.,0.));
#265=DIRECTION('',(1.,0.,0.));
#266=DIRECTION('',(0.,1.,0.));
#267=DIRECTION('',(1.,0.,0.));
#268=DIRECTION('',(1.,0.,0.));
#269=DIRECTION('',(0.,0.,-1.));
#270=DIRECTION('',(0.,0.,-1.));
#271=DIRECTION('',(0.,0.,-1.));
#272=DIRECTION('',(0.,-1.,0.));
#273=DIRECTION('',(1.,0.,0.));
#274=DIRECTION('',(0.,-1.,0.));
#275=DIRECTION('',(1.,0.,0.));
#276=DIRECTION('',(1.,0.,0.));
#277=DIRECTION('',(0.,0.,-1.));
#278=DIRECTION('',(0.,0.,1.));
#279=DIRECTION('',(0.,-1.,0.));
#280=DIRECTION('',(0.,0.,1.));
#281=DIRECTION('',(0.,-1.,0.));
#282=DIRECTION('',(0.,0.,1.));
#283=DIRECTION('',(1.,0.,0.));
#284=DIRECTION('',(-1.,0.,0.));
#285=DIRECTION('',(0.,-1.,0.));
#286=DIRECTION('',(-1.,0.,0.));
#287=DIRECTION('',(1.,0.,0.));
#288=DIRECTION('',(0.,0.,-1.));
#289=DIRECTION('',(0.,0.,1.));
#290=DIRECTION('',(0.,-1.,0.));
#291=DIRECTION('',(0.,0.,1.));
#292=DIRECTION('',(0.,0.,1.));
#293=DIRECTION('',(1.,0.,0.));
#294=DIRECTION('',(-1.,0.,0.));
#295=DIRECTION('',(-1.,0.,0.));
#296=DIRECTION('',(0.,1.,0.));
#297=DIRECTION('',(-1.,0.,0.));
#298=DIRECTION('',(0.,1.,0.));
#299=DIRECTION('',(-1.,0.,0.));
#300=CARTESIAN_POINT('',(0.,0.,0.));
#301=CARTESIAN_POINT('',(0.,-0.0635,2.40428024165164E-19));
#302=CARTESIAN_POINT('',(0.,-0.0635,2.40428024165164E-19));
#303=CARTESIAN_POINT('',(0.,-0.0635,-0.00392648760985714));
#304=CARTESIAN_POINT('',(0.,0.,2.40428024165164E-19));
#305=CARTESIAN_POINT('',(0.,0.,-0.00392648760985714));
#306=CARTESIAN_POINT('',(0.,-0.06985,0.00447425059974193));
#307=CARTESIAN_POINT('',(0.,-0.0635,0.00447425059974193));
#308=CARTESIAN_POINT('',(-0.00416963361203671,-0.0635,0.00447425059974193));
#309=CARTESIAN_POINT('',(0.00416963361203671,-0.0635,0.00447425059974193));
#310=CARTESIAN_POINT('',(-0.00416963361203671,-0.06985,0.00447425059974193));
#311=CARTESIAN_POINT('',(-0.00416963361203671,-0.06985,0.00447425059974193));
#312=CARTESIAN_POINT('',(0.,-0.06985,0.00447425059974193));
#313=CARTESIAN_POINT('',(0.00416963361203671,-0.06985,0.00447425059974193));
#314=CARTESIAN_POINT('',(0.00416963361203671,-0.06985,0.00447425059974193));
#315=CARTESIAN_POINT('',(-0.00416963361203671,-0.06985,0.));
#316=CARTESIAN_POINT('',(-0.00416963361203671,-0.0635,0.));
#317=CARTESIAN_POINT('',(-0.00416963361203671,-0.0635,-0.00447425059974193));
#318=CARTESIAN_POINT('',(-0.00416963361203671,-0.06985,-0.00447425059974193));
#319=CARTESIAN_POINT('',(-0.00416963361203671,-0.06985,-0.00447425059974193));
#320=CARTESIAN_POINT('',(-0.00416963361203671,-0.06985,0.));
#321=CARTESIAN_POINT('',(0.,-0.06985,-0.00447425059974193));
#322=CARTESIAN_POINT('',(0.,-0.0635,-0.00447425059974193));
#323=CARTESIAN_POINT('',(0.00416963361203671,-0.0635,-0.00447425059974193));
#324=CARTESIAN_POINT('',(0.00416963361203671,-0.06985,-0.00447425059974193));
#325=CARTESIAN_POINT('',(0.00416963361203671,-0.06985,-0.00447425059974193));
#326=CARTESIAN_POINT('',(0.,-0.06985,-0.00447425059974193));
#327=CARTESIAN_POINT('',(0.00416963361203671,-0.06985,0.));
#328=CARTESIAN_POINT('',(0.00416963361203671,-0.0635,0.));
#329=CARTESIAN_POINT('',(0.00416963361203671,-0.06985,0.));
#330=CARTESIAN_POINT('',(0.,-0.06985,0.));
#331=CARTESIAN_POINT('',(0.,-0.0635,0.));
#332=CARTESIAN_POINT('',(0.00427872547879815,0.00635,0.));
#333=CARTESIAN_POINT('',(0.00427872547879815,0.,0.));
#334=CARTESIAN_POINT('',(0.00427872547879815,0.,-0.00446594087406993));
#335=CARTESIAN_POINT('',(0.00427872547879815,0.,0.00446594087406993));
#336=CARTESIAN_POINT('',(0.00427872547879815,0.00635,-0.00446594087406993));
#337=CARTESIAN_POINT('',(0.00427872547879815,0.00635,-0.00446594087406993));
#338=CARTESIAN_POINT('',(0.00427872547879815,0.00635,0.));
#339=CARTESIAN_POINT('',(0.00427872547879815,0.00635,0.00446594087406993));
#340=CARTESIAN_POINT('',(0.00427872547879815,0.00635,0.00446594087406993));
#341=CARTESIAN_POINT('',(0.,0.00635,-0.00446594087406993));
#342=CARTESIAN_POINT('',(0.,0.,-0.00446594087406993));
#343=CARTESIAN_POINT('',(-0.00427872547879815,0.,-0.00446594087406993));
#344=CARTESIAN_POINT('',(-0.00427872547879815,0.00635,-0.00446594087406993));
#345=CARTESIAN_POINT('',(-0.00427872547879815,0.00635,-0.00446594087406993));
#346=CARTESIAN_POINT('',(0.,0.00635,-0.00446594087406993));
#347=CARTESIAN_POINT('',(-0.00427872547879815,0.00635,0.));
#348=CARTESIAN_POINT('',(-0.00427872547879815,0.,0.));
#349=CARTESIAN_POINT('',(-0.00427872547879815,0.,0.00446594087406993));
#350=CARTESIAN_POINT('',(-0.00427872547879815,0.00635,0.00446594087406993));
#351=CARTESIAN_POINT('',(-0.00427872547879815,0.00635,0.00446594087406993));
#352=CARTESIAN_POINT('',(-0.00427872547879815,0.00635,0.));
#353=CARTESIAN_POINT('',(0.,0.00635,0.00446594087406993));
#354=CARTESIAN_POINT('',(0.,0.,0.00446594087406993));
#355=CARTESIAN_POINT('',(0.,0.00635,0.00446594087406993));
#356=CARTESIAN_POINT('',(0.,0.00635,0.));
#357=CARTESIAN_POINT('',(0.,0.,0.));
#358=MECHANICAL_DESIGN_GEOMETRIC_PRESENTATION_REPRESENTATION('',(#217),
#359);
#359=(
GEOMETRIC_REPRESENTATION_CONTEXT(3)
GLOBAL_UNCERTAINTY_ASSIGNED_CONTEXT((#360))
GLOBAL_UNIT_ASSIGNED_CONTEXT((#363,#362,#361))
REPRESENTATION_CONTEXT('Part 1','TOP_LEVEL_ASSEMBLY_PART')
);
#360=UNCERTAINTY_MEASURE_WITH_UNIT(LENGTH_MEASURE(1.E-8),#363,
'DISTANCE_ACCURACY_VALUE','Maximum Tolerance applied to model');
#361=(
NAMED_UNIT(*)
SI_UNIT($,.STERADIAN.)
SOLID_ANGLE_UNIT()
);
#362=(
NAMED_UNIT(*)
PLANE_ANGLE_UNIT()
SI_UNIT($,.RADIAN.)
);
#363=(
LENGTH_UNIT()
NAMED_UNIT(*)
SI_UNIT($,.METRE.)
);
#364=PRODUCT_DEFINITION_SHAPE('','',#365);
#365=PRODUCT_DEFINITION('','',#367,#366);
#366=PRODUCT_DEFINITION_CONTEXT('',#373,'design');
#367=PRODUCT_DEFINITION_FORMATION_WITH_SPECIFIED_SOURCE('','',#369,
 .NOT_KNOWN.);
#368=PRODUCT_RELATED_PRODUCT_CATEGORY('','',(#369));
#369=PRODUCT('Part 1','Part 1','Part 1',(#371));
#370=PRODUCT_CATEGORY('','');
#371=PRODUCT_CONTEXT('',#373,'mechanical');
#372=APPLICATION_PROTOCOL_DEFINITION('international standard',
'ap242_managed_model_based_3d_engineering',2020,#373);
#373=APPLICATION_CONTEXT('managed model based 3d engineering');
ENDSEC;
END-ISO-10303-21;
